G04 #@! TF.GenerationSoftware,KiCad,Pcbnew,5.0.0-fee4fd1~65~ubuntu16.04.1*
G04 #@! TF.CreationDate,2018-08-02T14:10:23+02:00*
G04 #@! TF.ProjectId,beetrax-pcb2,626565747261782D706362322E6B6963,rev?*
G04 #@! TF.SameCoordinates,Original*
G04 #@! TF.FileFunction,Soldermask,Top*
G04 #@! TF.FilePolarity,Negative*
%FSLAX46Y46*%
G04 Gerber Fmt 4.6, Leading zero omitted, Abs format (unit mm)*
G04 Created by KiCad (PCBNEW 5.0.0-fee4fd1~65~ubuntu16.04.1) date Thu Aug  2 14:10:23 2018*
%MOMM*%
%LPD*%
G01*
G04 APERTURE LIST*
%ADD10R,1.900000X1.000000*%
%ADD11R,2.300000X1.898600*%
%ADD12R,2.800000X1.644600*%
%ADD13R,1.900000X1.644600*%
%ADD14R,2.300000X1.644600*%
%ADD15R,1.644600X2.300000*%
%ADD16R,1.644600X1.900000*%
%ADD17O,1.600000X1.600000*%
%ADD18R,1.600000X1.600000*%
%ADD19R,1.680000X4.080000*%
%ADD20C,2.600000*%
G04 APERTURE END LIST*
D10*
G04 #@! TO.C,U1*
X147640000Y-127680000D03*
X147640000Y-128950000D03*
X147640000Y-130220000D03*
X147640000Y-131490000D03*
X147640000Y-132760000D03*
X147640000Y-134030000D03*
X147640000Y-135300000D03*
X142240000Y-135300000D03*
X142240000Y-134030000D03*
X142240000Y-132760000D03*
X142240000Y-131490000D03*
X142240000Y-130220000D03*
X142240000Y-128950000D03*
X142240000Y-127680000D03*
G04 #@! TD*
D11*
G04 #@! TO.C,D1*
X141713200Y-121792800D03*
X148303200Y-121852800D03*
D12*
X141943200Y-119744800D03*
D13*
X148503200Y-119820800D03*
D14*
X141713200Y-117728800D03*
D13*
X148503200Y-117788800D03*
D11*
X141713200Y-115696800D03*
X148303200Y-115756800D03*
D15*
X146083200Y-115564800D03*
X144013200Y-115564800D03*
D16*
X143943200Y-122214800D03*
X146003200Y-122214800D03*
G04 #@! TD*
D17*
G04 #@! TO.C,U2*
X144000000Y-120215000D03*
X144180000Y-118770000D03*
X145450000Y-120040000D03*
X145450000Y-117500000D03*
X146720000Y-118770000D03*
G04 #@! TD*
D18*
G04 #@! TO.C,R1*
X138210000Y-132400000D03*
X138210000Y-134500000D03*
G04 #@! TD*
G04 #@! TO.C,R2*
X141190000Y-125800000D03*
X143290000Y-125800000D03*
G04 #@! TD*
G04 #@! TO.C,R3*
X146350000Y-125800000D03*
X148450000Y-125800000D03*
G04 #@! TD*
G04 #@! TO.C,R4*
X149610000Y-134700000D03*
X149610000Y-132600000D03*
G04 #@! TD*
D19*
G04 #@! TO.C,J1*
X150950000Y-142840000D03*
X148410000Y-142840000D03*
X145870000Y-142840000D03*
X143330000Y-142840000D03*
X140790000Y-142840000D03*
X138250000Y-142840000D03*
X150950000Y-138400000D03*
X148410000Y-138400000D03*
X145870000Y-138400000D03*
X143330000Y-138400000D03*
X140790000Y-138400000D03*
X138250000Y-138400000D03*
G04 #@! TD*
D18*
G04 #@! TO.C,C1*
X140130000Y-132400000D03*
X140130000Y-134500000D03*
G04 #@! TD*
G04 #@! TO.C,C2*
X141200000Y-124000000D03*
X143300000Y-124000000D03*
G04 #@! TD*
G04 #@! TO.C,C3*
X146350000Y-124000000D03*
X148450000Y-124000000D03*
G04 #@! TD*
G04 #@! TO.C,C4*
X151580000Y-134720000D03*
X151580000Y-132620000D03*
G04 #@! TD*
D20*
G04 #@! TO.C,REF\002A\002A*
X138000000Y-116000000D03*
G04 #@! TD*
G04 #@! TO.C,REF\002A\002A*
X151890000Y-116000000D03*
G04 #@! TD*
G04 #@! TO.C,REF\002A\002A*
X151770000Y-127260000D03*
G04 #@! TD*
M02*
