G04 #@! TF.GenerationSoftware,KiCad,Pcbnew,5.0.0-fee4fd1~65~ubuntu16.04.1*
G04 #@! TF.CreationDate,2018-08-02T14:10:23+02:00*
G04 #@! TF.ProjectId,beetrax-pcb2,626565747261782D706362322E6B6963,rev?*
G04 #@! TF.SameCoordinates,Original*
G04 #@! TF.FileFunction,Legend,Top*
G04 #@! TF.FilePolarity,Positive*
%FSLAX46Y46*%
G04 Gerber Fmt 4.6, Leading zero omitted, Abs format (unit mm)*
G04 Created by KiCad (PCBNEW 5.0.0-fee4fd1~65~ubuntu16.04.1) date Thu Aug  2 14:10:23 2018*
%MOMM*%
%LPD*%
G01*
G04 APERTURE LIST*
%ADD10C,0.150000*%
%ADD11C,0.120000*%
%ADD12C,0.100000*%
G04 APERTURE END LIST*
D10*
G04 #@! TO.C,U1*
X142865000Y-127065000D02*
X141490000Y-127065000D01*
X142865000Y-135940000D02*
X147015000Y-135940000D01*
X142865000Y-127040000D02*
X147015000Y-127040000D01*
X142865000Y-135940000D02*
X142865000Y-135825000D01*
X147015000Y-135940000D02*
X147015000Y-135825000D01*
X147015000Y-127040000D02*
X147015000Y-127155000D01*
X142865000Y-127040000D02*
X142865000Y-127065000D01*
G04 #@! TO.C,D1*
X148873200Y-114904800D02*
X148873200Y-122651800D01*
X141093200Y-114864800D02*
X141093200Y-122611800D01*
X148853200Y-114904800D02*
X141106200Y-114904800D01*
X148853200Y-122624800D02*
X141106200Y-122624800D01*
G04 #@! TO.C,U2*
X146720000Y-118770000D02*
G75*
G03X146720000Y-118770000I-1270000J0D01*
G01*
D11*
X143867456Y-121342150D02*
G75*
G03X142877719Y-120352331I1582544J2572150D01*
G01*
X142955501Y-122254448D02*
X143867669Y-121342281D01*
X141965552Y-121264499D02*
X142955501Y-122254448D01*
X142877719Y-120352331D02*
X141965552Y-121264499D01*
G04 #@! TO.C,R1*
X139010000Y-133150000D02*
X139010000Y-133750000D01*
X137410000Y-133130000D02*
X137410000Y-133730000D01*
G04 #@! TO.C,R2*
X141940000Y-125000000D02*
X142540000Y-125000000D01*
X141920000Y-126600000D02*
X142520000Y-126600000D01*
G04 #@! TO.C,R3*
X147100000Y-125000000D02*
X147700000Y-125000000D01*
X147080000Y-126600000D02*
X147680000Y-126600000D01*
G04 #@! TO.C,R4*
X148810000Y-133950000D02*
X148810000Y-133350000D01*
X150410000Y-133970000D02*
X150410000Y-133370000D01*
D12*
G04 #@! TO.C,J1*
X137500000Y-137320000D02*
X137500000Y-137120000D01*
X136900000Y-137920000D02*
X137500000Y-137320000D01*
X136900000Y-138420000D02*
X136900000Y-137920000D01*
X152300000Y-137020000D02*
X152300000Y-138220000D01*
X151800000Y-137020000D02*
X152300000Y-137020000D01*
X152300000Y-144220000D02*
X152300000Y-143120000D01*
X151800000Y-144220000D02*
X152300000Y-144220000D01*
X136900000Y-144220000D02*
X136900000Y-142820000D01*
X137400000Y-144220000D02*
X136900000Y-144220000D01*
D11*
G04 #@! TO.C,C1*
X140930000Y-133150000D02*
X140930000Y-133750000D01*
X139330000Y-133130000D02*
X139330000Y-133730000D01*
G04 #@! TO.C,C2*
X141950000Y-123200000D02*
X142550000Y-123200000D01*
X141930000Y-124800000D02*
X142530000Y-124800000D01*
G04 #@! TO.C,C3*
X147100000Y-123200000D02*
X147700000Y-123200000D01*
X147080000Y-124800000D02*
X147680000Y-124800000D01*
G04 #@! TO.C,C4*
X150780000Y-133970000D02*
X150780000Y-133370000D01*
X152380000Y-133990000D02*
X152380000Y-133390000D01*
G04 #@! TO.C,U1*
D10*
X144178095Y-125567380D02*
X144178095Y-126376904D01*
X144225714Y-126472142D01*
X144273333Y-126519761D01*
X144368571Y-126567380D01*
X144559047Y-126567380D01*
X144654285Y-126519761D01*
X144701904Y-126472142D01*
X144749523Y-126376904D01*
X144749523Y-125567380D01*
X145749523Y-126567380D02*
X145178095Y-126567380D01*
X145463809Y-126567380D02*
X145463809Y-125567380D01*
X145368571Y-125710238D01*
X145273333Y-125805476D01*
X145178095Y-125853095D01*
G04 #@! TO.C,D1*
X150374285Y-115652857D02*
X150374285Y-114452857D01*
X150660000Y-114452857D01*
X150831428Y-114510000D01*
X150945714Y-114624285D01*
X151002857Y-114738571D01*
X151060000Y-114967142D01*
X151060000Y-115138571D01*
X151002857Y-115367142D01*
X150945714Y-115481428D01*
X150831428Y-115595714D01*
X150660000Y-115652857D01*
X150374285Y-115652857D01*
X152202857Y-115652857D02*
X151517142Y-115652857D01*
X151860000Y-115652857D02*
X151860000Y-114452857D01*
X151745714Y-114624285D01*
X151631428Y-114738571D01*
X151517142Y-114795714D01*
G04 #@! TO.C,U2*
X150358095Y-116072380D02*
X150358095Y-116881904D01*
X150405714Y-116977142D01*
X150453333Y-117024761D01*
X150548571Y-117072380D01*
X150739047Y-117072380D01*
X150834285Y-117024761D01*
X150881904Y-116977142D01*
X150929523Y-116881904D01*
X150929523Y-116072380D01*
X151358095Y-116167619D02*
X151405714Y-116120000D01*
X151500952Y-116072380D01*
X151739047Y-116072380D01*
X151834285Y-116120000D01*
X151881904Y-116167619D01*
X151929523Y-116262857D01*
X151929523Y-116358095D01*
X151881904Y-116500952D01*
X151310476Y-117072380D01*
X151929523Y-117072380D01*
G04 #@! TO.C,R1*
X138732380Y-130706666D02*
X138256190Y-131040000D01*
X138732380Y-131278095D02*
X137732380Y-131278095D01*
X137732380Y-130897142D01*
X137780000Y-130801904D01*
X137827619Y-130754285D01*
X137922857Y-130706666D01*
X138065714Y-130706666D01*
X138160952Y-130754285D01*
X138208571Y-130801904D01*
X138256190Y-130897142D01*
X138256190Y-131278095D01*
X138732380Y-129754285D02*
X138732380Y-130325714D01*
X138732380Y-130040000D02*
X137732380Y-130040000D01*
X137875238Y-130135238D01*
X137970476Y-130230476D01*
X138018095Y-130325714D01*
G04 #@! TO.C,R2*
X138923333Y-126302380D02*
X138590000Y-125826190D01*
X138351904Y-126302380D02*
X138351904Y-125302380D01*
X138732857Y-125302380D01*
X138828095Y-125350000D01*
X138875714Y-125397619D01*
X138923333Y-125492857D01*
X138923333Y-125635714D01*
X138875714Y-125730952D01*
X138828095Y-125778571D01*
X138732857Y-125826190D01*
X138351904Y-125826190D01*
X139304285Y-125397619D02*
X139351904Y-125350000D01*
X139447142Y-125302380D01*
X139685238Y-125302380D01*
X139780476Y-125350000D01*
X139828095Y-125397619D01*
X139875714Y-125492857D01*
X139875714Y-125588095D01*
X139828095Y-125730952D01*
X139256666Y-126302380D01*
X139875714Y-126302380D01*
G04 #@! TO.C,R3*
X150293333Y-126322380D02*
X149960000Y-125846190D01*
X149721904Y-126322380D02*
X149721904Y-125322380D01*
X150102857Y-125322380D01*
X150198095Y-125370000D01*
X150245714Y-125417619D01*
X150293333Y-125512857D01*
X150293333Y-125655714D01*
X150245714Y-125750952D01*
X150198095Y-125798571D01*
X150102857Y-125846190D01*
X149721904Y-125846190D01*
X150626666Y-125322380D02*
X151245714Y-125322380D01*
X150912380Y-125703333D01*
X151055238Y-125703333D01*
X151150476Y-125750952D01*
X151198095Y-125798571D01*
X151245714Y-125893809D01*
X151245714Y-126131904D01*
X151198095Y-126227142D01*
X151150476Y-126274761D01*
X151055238Y-126322380D01*
X150769523Y-126322380D01*
X150674285Y-126274761D01*
X150626666Y-126227142D01*
G04 #@! TO.C,R4*
X150252380Y-130906666D02*
X149776190Y-131240000D01*
X150252380Y-131478095D02*
X149252380Y-131478095D01*
X149252380Y-131097142D01*
X149300000Y-131001904D01*
X149347619Y-130954285D01*
X149442857Y-130906666D01*
X149585714Y-130906666D01*
X149680952Y-130954285D01*
X149728571Y-131001904D01*
X149776190Y-131097142D01*
X149776190Y-131478095D01*
X149585714Y-130049523D02*
X150252380Y-130049523D01*
X149204761Y-130287619D02*
X149919047Y-130525714D01*
X149919047Y-129906666D01*
G04 #@! TO.C,J1*
X144246666Y-139922380D02*
X144246666Y-140636666D01*
X144199047Y-140779523D01*
X144103809Y-140874761D01*
X143960952Y-140922380D01*
X143865714Y-140922380D01*
X145246666Y-140922380D02*
X144675238Y-140922380D01*
X144960952Y-140922380D02*
X144960952Y-139922380D01*
X144865714Y-140065238D01*
X144770476Y-140160476D01*
X144675238Y-140208095D01*
G04 #@! TO.C,C1*
X140617142Y-130706666D02*
X140664761Y-130754285D01*
X140712380Y-130897142D01*
X140712380Y-130992380D01*
X140664761Y-131135238D01*
X140569523Y-131230476D01*
X140474285Y-131278095D01*
X140283809Y-131325714D01*
X140140952Y-131325714D01*
X139950476Y-131278095D01*
X139855238Y-131230476D01*
X139760000Y-131135238D01*
X139712380Y-130992380D01*
X139712380Y-130897142D01*
X139760000Y-130754285D01*
X139807619Y-130706666D01*
X140712380Y-129754285D02*
X140712380Y-130325714D01*
X140712380Y-130040000D02*
X139712380Y-130040000D01*
X139855238Y-130135238D01*
X139950476Y-130230476D01*
X139998095Y-130325714D01*
G04 #@! TO.C,C2*
X139043333Y-124377142D02*
X138995714Y-124424761D01*
X138852857Y-124472380D01*
X138757619Y-124472380D01*
X138614761Y-124424761D01*
X138519523Y-124329523D01*
X138471904Y-124234285D01*
X138424285Y-124043809D01*
X138424285Y-123900952D01*
X138471904Y-123710476D01*
X138519523Y-123615238D01*
X138614761Y-123520000D01*
X138757619Y-123472380D01*
X138852857Y-123472380D01*
X138995714Y-123520000D01*
X139043333Y-123567619D01*
X139424285Y-123567619D02*
X139471904Y-123520000D01*
X139567142Y-123472380D01*
X139805238Y-123472380D01*
X139900476Y-123520000D01*
X139948095Y-123567619D01*
X139995714Y-123662857D01*
X139995714Y-123758095D01*
X139948095Y-123900952D01*
X139376666Y-124472380D01*
X139995714Y-124472380D01*
G04 #@! TO.C,C3*
X150283333Y-124567142D02*
X150235714Y-124614761D01*
X150092857Y-124662380D01*
X149997619Y-124662380D01*
X149854761Y-124614761D01*
X149759523Y-124519523D01*
X149711904Y-124424285D01*
X149664285Y-124233809D01*
X149664285Y-124090952D01*
X149711904Y-123900476D01*
X149759523Y-123805238D01*
X149854761Y-123710000D01*
X149997619Y-123662380D01*
X150092857Y-123662380D01*
X150235714Y-123710000D01*
X150283333Y-123757619D01*
X150616666Y-123662380D02*
X151235714Y-123662380D01*
X150902380Y-124043333D01*
X151045238Y-124043333D01*
X151140476Y-124090952D01*
X151188095Y-124138571D01*
X151235714Y-124233809D01*
X151235714Y-124471904D01*
X151188095Y-124567142D01*
X151140476Y-124614761D01*
X151045238Y-124662380D01*
X150759523Y-124662380D01*
X150664285Y-124614761D01*
X150616666Y-124567142D01*
G04 #@! TO.C,C4*
X151947142Y-130906666D02*
X151994761Y-130954285D01*
X152042380Y-131097142D01*
X152042380Y-131192380D01*
X151994761Y-131335238D01*
X151899523Y-131430476D01*
X151804285Y-131478095D01*
X151613809Y-131525714D01*
X151470952Y-131525714D01*
X151280476Y-131478095D01*
X151185238Y-131430476D01*
X151090000Y-131335238D01*
X151042380Y-131192380D01*
X151042380Y-131097142D01*
X151090000Y-130954285D01*
X151137619Y-130906666D01*
X151375714Y-130049523D02*
X152042380Y-130049523D01*
X150994761Y-130287619D02*
X151709047Y-130525714D01*
X151709047Y-129906666D01*
G04 #@! TO.C,REF\002A\002A*
X136416666Y-112332380D02*
X136083333Y-111856190D01*
X135845238Y-112332380D02*
X135845238Y-111332380D01*
X136226190Y-111332380D01*
X136321428Y-111380000D01*
X136369047Y-111427619D01*
X136416666Y-111522857D01*
X136416666Y-111665714D01*
X136369047Y-111760952D01*
X136321428Y-111808571D01*
X136226190Y-111856190D01*
X135845238Y-111856190D01*
X136845238Y-111808571D02*
X137178571Y-111808571D01*
X137321428Y-112332380D02*
X136845238Y-112332380D01*
X136845238Y-111332380D01*
X137321428Y-111332380D01*
X138083333Y-111808571D02*
X137750000Y-111808571D01*
X137750000Y-112332380D02*
X137750000Y-111332380D01*
X138226190Y-111332380D01*
X138750000Y-111332380D02*
X138750000Y-111570476D01*
X138511904Y-111475238D02*
X138750000Y-111570476D01*
X138988095Y-111475238D01*
X138607142Y-111760952D02*
X138750000Y-111570476D01*
X138892857Y-111760952D01*
X139511904Y-111332380D02*
X139511904Y-111570476D01*
X139273809Y-111475238D02*
X139511904Y-111570476D01*
X139750000Y-111475238D01*
X139369047Y-111760952D02*
X139511904Y-111570476D01*
X139654761Y-111760952D01*
X150926666Y-112512380D02*
X150593333Y-112036190D01*
X150355238Y-112512380D02*
X150355238Y-111512380D01*
X150736190Y-111512380D01*
X150831428Y-111560000D01*
X150879047Y-111607619D01*
X150926666Y-111702857D01*
X150926666Y-111845714D01*
X150879047Y-111940952D01*
X150831428Y-111988571D01*
X150736190Y-112036190D01*
X150355238Y-112036190D01*
X151355238Y-111988571D02*
X151688571Y-111988571D01*
X151831428Y-112512380D02*
X151355238Y-112512380D01*
X151355238Y-111512380D01*
X151831428Y-111512380D01*
X152593333Y-111988571D02*
X152260000Y-111988571D01*
X152260000Y-112512380D02*
X152260000Y-111512380D01*
X152736190Y-111512380D01*
X153260000Y-111512380D02*
X153260000Y-111750476D01*
X153021904Y-111655238D02*
X153260000Y-111750476D01*
X153498095Y-111655238D01*
X153117142Y-111940952D02*
X153260000Y-111750476D01*
X153402857Y-111940952D01*
X154021904Y-111512380D02*
X154021904Y-111750476D01*
X153783809Y-111655238D02*
X154021904Y-111750476D01*
X154260000Y-111655238D01*
X153879047Y-111940952D02*
X154021904Y-111750476D01*
X154164761Y-111940952D01*
X155796666Y-127442380D02*
X155463333Y-126966190D01*
X155225238Y-127442380D02*
X155225238Y-126442380D01*
X155606190Y-126442380D01*
X155701428Y-126490000D01*
X155749047Y-126537619D01*
X155796666Y-126632857D01*
X155796666Y-126775714D01*
X155749047Y-126870952D01*
X155701428Y-126918571D01*
X155606190Y-126966190D01*
X155225238Y-126966190D01*
X156225238Y-126918571D02*
X156558571Y-126918571D01*
X156701428Y-127442380D02*
X156225238Y-127442380D01*
X156225238Y-126442380D01*
X156701428Y-126442380D01*
X157463333Y-126918571D02*
X157130000Y-126918571D01*
X157130000Y-127442380D02*
X157130000Y-126442380D01*
X157606190Y-126442380D01*
X158130000Y-126442380D02*
X158130000Y-126680476D01*
X157891904Y-126585238D02*
X158130000Y-126680476D01*
X158368095Y-126585238D01*
X157987142Y-126870952D02*
X158130000Y-126680476D01*
X158272857Y-126870952D01*
X158891904Y-126442380D02*
X158891904Y-126680476D01*
X158653809Y-126585238D02*
X158891904Y-126680476D01*
X159130000Y-126585238D01*
X158749047Y-126870952D02*
X158891904Y-126680476D01*
X159034761Y-126870952D01*
G04 #@! TD*
M02*
