G04 #@! TF.GenerationSoftware,KiCad,Pcbnew,5.0.0-fee4fd1~65~ubuntu16.04.1*
G04 #@! TF.CreationDate,2018-08-02T14:10:23+02:00*
G04 #@! TF.ProjectId,beetrax-pcb2,626565747261782D706362322E6B6963,rev?*
G04 #@! TF.SameCoordinates,Original*
G04 #@! TF.FileFunction,Copper,L2,Bot,Signal*
G04 #@! TF.FilePolarity,Positive*
%FSLAX46Y46*%
G04 Gerber Fmt 4.6, Leading zero omitted, Abs format (unit mm)*
G04 Created by KiCad (PCBNEW 5.0.0-fee4fd1~65~ubuntu16.04.1) date Thu Aug  2 14:10:23 2018*
%MOMM*%
%LPD*%
G01*
G04 APERTURE LIST*
G04 #@! TA.AperFunction,ComponentPad*
%ADD10O,1.200000X1.200000*%
G04 #@! TD*
G04 #@! TA.AperFunction,ViaPad*
%ADD11C,0.800000*%
G04 #@! TD*
G04 #@! TA.AperFunction,Conductor*
%ADD12C,0.500000*%
G04 #@! TD*
G04 #@! TA.AperFunction,Conductor*
%ADD13C,0.254000*%
G04 #@! TD*
G04 APERTURE END LIST*
D10*
G04 #@! TO.P,U2,5*
G04 #@! TO.N,GND*
X144000000Y-120215000D03*
G04 #@! TO.P,U2,1*
G04 #@! TO.N,Net-(C2-Pad1)*
X144180000Y-118770000D03*
G04 #@! TO.P,U2,4*
G04 #@! TO.N,Net-(C3-Pad2)*
X145450000Y-120040000D03*
G04 #@! TO.P,U2,2*
G04 #@! TO.N,Net-(C1-Pad1)*
X145450000Y-117500000D03*
G04 #@! TO.P,U2,3*
G04 #@! TO.N,Net-(C4-Pad2)*
X146720000Y-118770000D03*
G04 #@! TD*
D11*
G04 #@! TO.N,GND*
X144000000Y-129050000D03*
X146050000Y-129880000D03*
X143510000Y-132334000D03*
X141986000Y-137668000D03*
X146371010Y-133282990D03*
G04 #@! TD*
D12*
G04 #@! TO.N,GND*
X144000000Y-129050000D02*
X144000000Y-129050000D01*
X144000000Y-120215000D02*
X144000000Y-128270000D01*
X144000000Y-128524000D02*
X144526000Y-128524000D01*
X144000000Y-128270000D02*
X144000000Y-128524000D01*
X144000000Y-128524000D02*
X144000000Y-129050000D01*
X144526000Y-128524000D02*
X146050000Y-130048000D01*
X144000000Y-130810000D02*
X144000000Y-131046000D01*
X144000000Y-128270000D02*
X144000000Y-130810000D01*
X144000000Y-130810000D02*
X144000000Y-132098000D01*
X144000000Y-130810000D02*
X144018000Y-130810000D01*
X144018000Y-130810000D02*
X146304000Y-133096000D01*
X144000000Y-132098000D02*
X143510000Y-132588000D01*
X143510000Y-132588000D02*
X143510000Y-136144000D01*
X143510000Y-136144000D02*
X141986000Y-137668000D01*
X141986000Y-137668000D02*
X141986000Y-137668000D01*
G04 #@! TD*
D13*
G04 #@! TO.N,GND*
G36*
X146685000Y-136144000D02*
X146694667Y-136192601D01*
X146722197Y-136233803D01*
X146763399Y-136261333D01*
X146812000Y-136271000D01*
X153070000Y-136271000D01*
X153070001Y-144660000D01*
X136710000Y-144660000D01*
X136710000Y-136271000D01*
X143256000Y-136271000D01*
X143304601Y-136261333D01*
X143345803Y-136233803D01*
X143373333Y-136192601D01*
X143382948Y-136147627D01*
X143633423Y-127381000D01*
X146685000Y-127381000D01*
X146685000Y-136144000D01*
X146685000Y-136144000D01*
G37*
X146685000Y-136144000D02*
X146694667Y-136192601D01*
X146722197Y-136233803D01*
X146763399Y-136261333D01*
X146812000Y-136271000D01*
X153070000Y-136271000D01*
X153070001Y-144660000D01*
X136710000Y-144660000D01*
X136710000Y-136271000D01*
X143256000Y-136271000D01*
X143304601Y-136261333D01*
X143345803Y-136233803D01*
X143373333Y-136192601D01*
X143382948Y-136147627D01*
X143633423Y-127381000D01*
X146685000Y-127381000D01*
X146685000Y-136144000D01*
G04 #@! TD*
M02*
