G04 #@! TF.GenerationSoftware,KiCad,Pcbnew,5.0.0-fee4fd1~65~ubuntu16.04.1*
G04 #@! TF.CreationDate,2018-08-02T14:10:23+02:00*
G04 #@! TF.ProjectId,beetrax-pcb2,626565747261782D706362322E6B6963,rev?*
G04 #@! TF.SameCoordinates,Original*
G04 #@! TF.FileFunction,Copper,L1,Top,Signal*
G04 #@! TF.FilePolarity,Positive*
%FSLAX46Y46*%
G04 Gerber Fmt 4.6, Leading zero omitted, Abs format (unit mm)*
G04 Created by KiCad (PCBNEW 5.0.0-fee4fd1~65~ubuntu16.04.1) date Thu Aug  2 14:10:23 2018*
%MOMM*%
%LPD*%
G01*
G04 APERTURE LIST*
G04 #@! TA.AperFunction,SMDPad,CuDef*
%ADD10R,1.500000X0.600000*%
G04 #@! TD*
G04 #@! TA.AperFunction,SMDPad,CuDef*
%ADD11R,1.900000X1.498600*%
G04 #@! TD*
G04 #@! TA.AperFunction,SMDPad,CuDef*
%ADD12R,2.400000X1.244600*%
G04 #@! TD*
G04 #@! TA.AperFunction,SMDPad,CuDef*
%ADD13R,1.500000X1.244600*%
G04 #@! TD*
G04 #@! TA.AperFunction,SMDPad,CuDef*
%ADD14R,1.900000X1.244600*%
G04 #@! TD*
G04 #@! TA.AperFunction,SMDPad,CuDef*
%ADD15R,1.244600X1.900000*%
G04 #@! TD*
G04 #@! TA.AperFunction,SMDPad,CuDef*
%ADD16R,1.244600X1.500000*%
G04 #@! TD*
G04 #@! TA.AperFunction,ComponentPad*
%ADD17O,1.200000X1.200000*%
G04 #@! TD*
G04 #@! TA.AperFunction,SMDPad,CuDef*
%ADD18R,1.200000X1.200000*%
G04 #@! TD*
G04 #@! TA.AperFunction,SMDPad,CuDef*
%ADD19R,1.280000X3.680000*%
G04 #@! TD*
G04 #@! TA.AperFunction,ViaPad*
%ADD20C,0.800000*%
G04 #@! TD*
G04 #@! TA.AperFunction,Conductor*
%ADD21C,0.500000*%
G04 #@! TD*
G04 #@! TA.AperFunction,Conductor*
%ADD22C,0.250000*%
G04 #@! TD*
G04 APERTURE END LIST*
D10*
G04 #@! TO.P,U1,14*
G04 #@! TO.N,Net-(C3-Pad1)*
X147640000Y-127680000D03*
G04 #@! TO.P,U1,13*
G04 #@! TO.N,Net-(C3-Pad2)*
X147640000Y-128950000D03*
G04 #@! TO.P,U1,12*
G04 #@! TO.N,GND*
X147640000Y-130220000D03*
G04 #@! TO.P,U1,11*
G04 #@! TO.N,VSS*
X147640000Y-131490000D03*
G04 #@! TO.P,U1,10*
G04 #@! TO.N,GND*
X147640000Y-132760000D03*
G04 #@! TO.P,U1,9*
G04 #@! TO.N,Net-(C4-Pad2)*
X147640000Y-134030000D03*
G04 #@! TO.P,U1,8*
G04 #@! TO.N,Net-(C4-Pad1)*
X147640000Y-135300000D03*
G04 #@! TO.P,U1,7*
G04 #@! TO.N,Net-(C1-Pad2)*
X142240000Y-135300000D03*
G04 #@! TO.P,U1,6*
G04 #@! TO.N,Net-(C1-Pad1)*
X142240000Y-134030000D03*
G04 #@! TO.P,U1,5*
G04 #@! TO.N,GND*
X142240000Y-132760000D03*
G04 #@! TO.P,U1,4*
G04 #@! TO.N,VCC*
X142240000Y-131490000D03*
G04 #@! TO.P,U1,3*
G04 #@! TO.N,GND*
X142240000Y-130220000D03*
G04 #@! TO.P,U1,2*
G04 #@! TO.N,Net-(C2-Pad1)*
X142240000Y-128950000D03*
G04 #@! TO.P,U1,1*
G04 #@! TO.N,Net-(C2-Pad2)*
X142240000Y-127680000D03*
G04 #@! TD*
D11*
G04 #@! TO.P,D1,2*
G04 #@! TO.N,GND*
X141713200Y-121792800D03*
G04 #@! TO.P,D1,5*
G04 #@! TO.N,N/C*
X148303200Y-121852800D03*
D12*
G04 #@! TO.P,D1,1*
G04 #@! TO.N,Net-(C2-Pad1)*
X141943200Y-119744800D03*
D13*
G04 #@! TO.P,D1,6*
G04 #@! TO.N,Net-(C3-Pad2)*
X148503200Y-119820800D03*
D14*
G04 #@! TO.P,D1,12*
G04 #@! TO.N,Net-(C1-Pad1)*
X141713200Y-117728800D03*
D13*
G04 #@! TO.P,D1,7*
G04 #@! TO.N,Net-(C4-Pad2)*
X148503200Y-117788800D03*
D11*
G04 #@! TO.P,D1,11*
G04 #@! TO.N,N/C*
X141713200Y-115696800D03*
G04 #@! TO.P,D1,8*
X148303200Y-115756800D03*
D15*
G04 #@! TO.P,D1,9*
X146083200Y-115564800D03*
G04 #@! TO.P,D1,10*
X144013200Y-115564800D03*
D16*
G04 #@! TO.P,D1,3*
X143943200Y-122214800D03*
G04 #@! TO.P,D1,4*
X146003200Y-122214800D03*
G04 #@! TD*
D17*
G04 #@! TO.P,U2,5*
G04 #@! TO.N,GND*
X144000000Y-120215000D03*
G04 #@! TO.P,U2,1*
G04 #@! TO.N,Net-(C2-Pad1)*
X144180000Y-118770000D03*
G04 #@! TO.P,U2,4*
G04 #@! TO.N,Net-(C3-Pad2)*
X145450000Y-120040000D03*
G04 #@! TO.P,U2,2*
G04 #@! TO.N,Net-(C1-Pad1)*
X145450000Y-117500000D03*
G04 #@! TO.P,U2,3*
G04 #@! TO.N,Net-(C4-Pad2)*
X146720000Y-118770000D03*
G04 #@! TD*
D18*
G04 #@! TO.P,R1,1*
G04 #@! TO.N,Net-(C1-Pad1)*
X138210000Y-132400000D03*
G04 #@! TO.P,R1,2*
G04 #@! TO.N,Net-(C1-Pad2)*
X138210000Y-134500000D03*
G04 #@! TD*
G04 #@! TO.P,R2,1*
G04 #@! TO.N,Net-(C2-Pad1)*
X141190000Y-125800000D03*
G04 #@! TO.P,R2,2*
G04 #@! TO.N,Net-(C2-Pad2)*
X143290000Y-125800000D03*
G04 #@! TD*
G04 #@! TO.P,R3,1*
G04 #@! TO.N,Net-(C3-Pad1)*
X146350000Y-125800000D03*
G04 #@! TO.P,R3,2*
G04 #@! TO.N,Net-(C3-Pad2)*
X148450000Y-125800000D03*
G04 #@! TD*
G04 #@! TO.P,R4,1*
G04 #@! TO.N,Net-(C4-Pad1)*
X149610000Y-134700000D03*
G04 #@! TO.P,R4,2*
G04 #@! TO.N,Net-(C4-Pad2)*
X149610000Y-132600000D03*
G04 #@! TD*
D19*
G04 #@! TO.P,J1,12*
G04 #@! TO.N,GND*
X150950000Y-142840000D03*
G04 #@! TO.P,J1,11*
X148410000Y-142840000D03*
G04 #@! TO.P,J1,10*
X145870000Y-142840000D03*
G04 #@! TO.P,J1,9*
X143330000Y-142840000D03*
G04 #@! TO.P,J1,8*
X140790000Y-142840000D03*
G04 #@! TO.P,J1,7*
G04 #@! TO.N,Net-(C1-Pad2)*
X138250000Y-142840000D03*
G04 #@! TO.P,J1,6*
G04 #@! TO.N,Net-(C4-Pad1)*
X150950000Y-138400000D03*
G04 #@! TO.P,J1,5*
G04 #@! TO.N,VSS*
X148410000Y-138400000D03*
G04 #@! TO.P,J1,4*
G04 #@! TO.N,Net-(C3-Pad1)*
X145870000Y-138400000D03*
G04 #@! TO.P,J1,3*
G04 #@! TO.N,Net-(C2-Pad2)*
X143330000Y-138400000D03*
G04 #@! TO.P,J1,2*
G04 #@! TO.N,GND*
X140790000Y-138400000D03*
G04 #@! TO.P,J1,1*
G04 #@! TO.N,VCC*
X138250000Y-138400000D03*
G04 #@! TD*
D18*
G04 #@! TO.P,C1,1*
G04 #@! TO.N,Net-(C1-Pad1)*
X140130000Y-132400000D03*
G04 #@! TO.P,C1,2*
G04 #@! TO.N,Net-(C1-Pad2)*
X140130000Y-134500000D03*
G04 #@! TD*
G04 #@! TO.P,C2,1*
G04 #@! TO.N,Net-(C2-Pad1)*
X141200000Y-124000000D03*
G04 #@! TO.P,C2,2*
G04 #@! TO.N,Net-(C2-Pad2)*
X143300000Y-124000000D03*
G04 #@! TD*
G04 #@! TO.P,C3,1*
G04 #@! TO.N,Net-(C3-Pad1)*
X146350000Y-124000000D03*
G04 #@! TO.P,C3,2*
G04 #@! TO.N,Net-(C3-Pad2)*
X148450000Y-124000000D03*
G04 #@! TD*
G04 #@! TO.P,C4,1*
G04 #@! TO.N,Net-(C4-Pad1)*
X151580000Y-134720000D03*
G04 #@! TO.P,C4,2*
G04 #@! TO.N,Net-(C4-Pad2)*
X151580000Y-132620000D03*
G04 #@! TD*
D20*
G04 #@! TO.N,GND*
X144000000Y-129050000D03*
X146050000Y-129880000D03*
X143510000Y-132334000D03*
X141986000Y-137668000D03*
X146371010Y-133282990D03*
G04 #@! TD*
D21*
G04 #@! TO.N,GND*
X143305503Y-121014799D02*
X142491201Y-121014799D01*
X144000000Y-120320302D02*
X143305503Y-121014799D01*
X142491201Y-121014799D02*
X141713200Y-121792800D01*
X144000000Y-120215000D02*
X144000000Y-120320302D01*
X142830000Y-130220000D02*
X144000000Y-129050000D01*
X142240000Y-130220000D02*
X142830000Y-130220000D01*
X146390000Y-130220000D02*
X146050000Y-129880000D01*
X147640000Y-130220000D02*
X146390000Y-130220000D01*
X146894000Y-132760000D02*
X146371010Y-133282990D01*
X147640000Y-132760000D02*
X146894000Y-132760000D01*
X143490000Y-132760000D02*
X143662000Y-132588000D01*
X142240000Y-132760000D02*
X143490000Y-132760000D01*
X146050000Y-129880000D02*
X146050000Y-129880000D01*
X146371010Y-133282990D02*
X146371010Y-133282990D01*
X143662000Y-132588000D02*
X143662000Y-132588000D01*
X140790000Y-138400000D02*
X140790000Y-138356000D01*
X140790000Y-138356000D02*
X141478000Y-137668000D01*
X141478000Y-137668000D02*
X141986000Y-137668000D01*
X140790000Y-138400000D02*
X140790000Y-142840000D01*
X143330000Y-142840000D02*
X150950000Y-142840000D01*
X143330000Y-142840000D02*
X140790000Y-142840000D01*
X146371010Y-133282990D02*
X146371010Y-133282990D01*
D22*
G04 #@! TO.N,VSS*
X148410000Y-137200000D02*
X148410000Y-138400000D01*
X147520000Y-136310000D02*
X148410000Y-137200000D01*
X147014998Y-136310000D02*
X147520000Y-136310000D01*
X145646009Y-132483991D02*
X145646009Y-134941011D01*
X146640000Y-131490000D02*
X145646009Y-132483991D01*
X145646009Y-134941011D02*
X147014998Y-136310000D01*
X147640000Y-131490000D02*
X146640000Y-131490000D01*
G04 #@! TO.N,VCC*
X143936000Y-131490000D02*
X142240000Y-131490000D01*
X144272000Y-131826000D02*
X143936000Y-131490000D01*
X138250000Y-138400000D02*
X138250000Y-137200000D01*
X138250000Y-137200000D02*
X139524999Y-135925001D01*
X139524999Y-135925001D02*
X143250001Y-135925001D01*
X144272000Y-134903002D02*
X144272000Y-131826000D01*
X143250001Y-135925001D02*
X144272000Y-134903002D01*
D21*
G04 #@! TO.N,Net-(C1-Pad2)*
X138210000Y-134500000D02*
X140130000Y-134500000D01*
X140930000Y-135300000D02*
X142240000Y-135300000D01*
X140130000Y-134500000D02*
X140930000Y-135300000D01*
D22*
X138210000Y-135350000D02*
X138210000Y-134500000D01*
X137284999Y-136275001D02*
X138210000Y-135350000D01*
X137284999Y-140674999D02*
X137284999Y-136275001D01*
X138250000Y-141640000D02*
X137284999Y-140674999D01*
X138250000Y-142840000D02*
X138250000Y-141640000D01*
D21*
G04 #@! TO.N,Net-(C1-Pad1)*
X141942000Y-117500000D02*
X141713200Y-117728800D01*
X145450000Y-117500000D02*
X141942000Y-117500000D01*
X140130000Y-131300000D02*
X140130000Y-132400000D01*
X139613189Y-130783189D02*
X140130000Y-131300000D01*
X139613189Y-119501111D02*
X139613189Y-130783189D01*
X141385500Y-117728800D02*
X139613189Y-119501111D01*
X141713200Y-117728800D02*
X141385500Y-117728800D01*
X138210000Y-132400000D02*
X140130000Y-132400000D01*
X141760000Y-134030000D02*
X142240000Y-134030000D01*
X140130000Y-132400000D02*
X141760000Y-134030000D01*
D22*
G04 #@! TO.N,Net-(C2-Pad1)*
X141540000Y-125730000D02*
X141540000Y-125630000D01*
D21*
X140313199Y-123113199D02*
X141200000Y-124000000D01*
X140313199Y-120797101D02*
X140313199Y-123113199D01*
X141365500Y-119744800D02*
X140313199Y-120797101D01*
X141943200Y-119744800D02*
X141365500Y-119744800D01*
X141200000Y-125790000D02*
X141190000Y-125800000D01*
X141200000Y-124000000D02*
X141200000Y-125790000D01*
X142918000Y-118770000D02*
X141943200Y-119744800D01*
X144180000Y-118770000D02*
X142918000Y-118770000D01*
X140990000Y-128150000D02*
X141790000Y-128950000D01*
X140990000Y-127100000D02*
X140990000Y-128150000D01*
X141790000Y-128950000D02*
X142240000Y-128950000D01*
X141190000Y-126900000D02*
X140990000Y-127100000D01*
X141190000Y-125800000D02*
X141190000Y-126900000D01*
G04 #@! TO.N,Net-(C2-Pad2)*
X143300000Y-124000000D02*
X143300000Y-126195000D01*
X143290000Y-126630000D02*
X142240000Y-127680000D01*
X143290000Y-125800000D02*
X143290000Y-126630000D01*
D22*
X143703002Y-127680000D02*
X143240000Y-127680000D01*
X144725001Y-128701999D02*
X143703002Y-127680000D01*
X144725001Y-135086411D02*
X144725001Y-128701999D01*
X143240000Y-127680000D02*
X142240000Y-127680000D01*
X143330000Y-136481412D02*
X144725001Y-135086411D01*
X143330000Y-138400000D02*
X143330000Y-136481412D01*
D21*
G04 #@! TO.N,Net-(C3-Pad1)*
X146350000Y-124000000D02*
X146350000Y-126285000D01*
X146350000Y-126390000D02*
X147640000Y-127680000D01*
X146350000Y-125800000D02*
X146350000Y-126390000D01*
D22*
X145870000Y-136310000D02*
X145870000Y-138400000D01*
X145175010Y-135615010D02*
X145870000Y-136310000D01*
X146640000Y-127680000D02*
X145175010Y-129144990D01*
X145175010Y-129144990D02*
X145175010Y-135615010D01*
X147640000Y-127680000D02*
X146640000Y-127680000D01*
G04 #@! TO.N,Net-(C3-Pad2)*
X147900000Y-119516000D02*
X148900000Y-119516000D01*
D21*
X149703201Y-123846799D02*
X149550000Y-124000000D01*
X149550000Y-124000000D02*
X148450000Y-124000000D01*
X149703201Y-120743499D02*
X149703201Y-123846799D01*
X148780502Y-119820800D02*
X149703201Y-120743499D01*
X148503200Y-119820800D02*
X148780502Y-119820800D01*
X148450000Y-124000000D02*
X148450000Y-125800000D01*
X148284000Y-120040000D02*
X148503200Y-119820800D01*
X145450000Y-120040000D02*
X148284000Y-120040000D01*
X148230002Y-128950000D02*
X147640000Y-128950000D01*
X148840001Y-128340001D02*
X148230002Y-128950000D01*
X148840001Y-126190001D02*
X148840001Y-128340001D01*
X148450000Y-125800000D02*
X148840001Y-126190001D01*
G04 #@! TO.N,Net-(C4-Pad2)*
X147522000Y-118770000D02*
X148503200Y-117788800D01*
X146720000Y-118770000D02*
X147522000Y-118770000D01*
X148630900Y-117788800D02*
X148503200Y-117788800D01*
X150403211Y-124136752D02*
X150403211Y-119561111D01*
X150403211Y-119561111D02*
X148630900Y-117788800D01*
X149610000Y-124929963D02*
X150403211Y-124136752D01*
X149610000Y-132600000D02*
X149610000Y-124929963D01*
X149630000Y-132620000D02*
X149610000Y-132600000D01*
X151580000Y-132620000D02*
X149630000Y-132620000D01*
X148180000Y-134030000D02*
X147640000Y-134030000D01*
X149610000Y-132600000D02*
X148180000Y-134030000D01*
G04 #@! TO.N,Net-(C4-Pad1)*
X149630000Y-134720000D02*
X149610000Y-134700000D01*
X151580000Y-134720000D02*
X149630000Y-134720000D01*
X149010000Y-135300000D02*
X147640000Y-135300000D01*
X149610000Y-134700000D02*
X149010000Y-135300000D01*
D22*
X148640000Y-135300000D02*
X147640000Y-135300000D01*
X149050000Y-135300000D02*
X148640000Y-135300000D01*
X150950000Y-137200000D02*
X149050000Y-135300000D01*
X150950000Y-138400000D02*
X150950000Y-137200000D01*
G04 #@! TD*
M02*
