M48
; DRILL file {KiCad 7.0.1} date Fri Apr 14 11:07:03 2023
; FORMAT={-:-/ absolute / metric / decimal}
; #@! TF.CreationDate,2023-04-14T11:07:03+02:00
; #@! TF.GenerationSoftware,Kicad,Pcbnew,7.0.1
; #@! TF.FileFunction,Plated,1,2,PTH
FMAT,2
METRIC
; #@! TA.AperFunction,Plated,PTH,ViaDrill
T1C0.400
; #@! TA.AperFunction,Plated,PTH,ViaDrill
T2C0.800
; #@! TA.AperFunction,Plated,PTH,ComponentDrill
T3C1.000
; #@! TA.AperFunction,Plated,PTH,ComponentDrill
T4C1.100
; #@! TA.AperFunction,Plated,PTH,ComponentDrill
T5C1.200
; #@! TA.AperFunction,Plated,PTH,ComponentDrill
T6C1.500
; #@! TA.AperFunction,Plated,PTH,ComponentDrill
T7C1.700
; #@! TA.AperFunction,Plated,PTH,ComponentDrill
T8C2.700
%
G90
G05
T1
X75.25Y-82.4
X75.45Y-92.35
X76.2Y-99.1
X76.8Y-59.5
X79.2Y-92.65
X79.9Y-79.85
X80.05Y-85.2
X80.2Y-59.7
X80.6Y-100.2
X81.9Y-104.8
X82.45Y-91.8
X83.3Y-57.6
X84.4Y-60.3
X84.45Y-86.05
X85.45Y-93.55
X85.45Y-96.083
X85.45Y-98.617
X85.45Y-101.15
X85.6Y-89.25
X85.75Y-76.4
X85.8Y-65.0
X85.8Y-72.8
X89.3Y-77.9
X89.4Y-105.9
X89.5Y-67.7
X89.5Y-102.9
X89.55Y-86.25
X89.55Y-88.92
X89.55Y-91.59
X89.55Y-94.26
X89.55Y-96.93
X89.55Y-99.6
X89.6Y-70.2
X90.6Y-60.1
X91.0Y-63.5
X91.0Y-74.9
X92.6Y-92.7
X92.6Y-100.4
X92.7Y-81.6
X92.7Y-87.8
X92.7Y-97.2
X93.7Y-65.9
X93.9Y-72.0
X95.6Y-57.6
X95.6Y-78.5
X96.7Y-87.9
X96.8Y-97.0
X96.8Y-102.0
X96.9Y-92.5
X97.2Y-83.1
X99.5Y-74.8
X100.2Y-80.2
X102.8Y-71.6
X103.5Y-77.2
X103.7Y-58.0
X104.8Y-76.0
X105.7Y-68.2
X105.7Y-76.6
X106.8Y-74.0
X107.25Y-79.4
X107.4Y-74.8
X108.4Y-88.1
X108.4Y-90.643
X108.4Y-93.186
X108.4Y-95.729
X108.4Y-98.271
X108.4Y-100.814
X108.4Y-103.357
X108.4Y-105.9
X108.55Y-75.3
X108.8Y-57.6
X108.8Y-60.2
X108.8Y-62.8
X108.8Y-65.4
X108.8Y-80.5
X108.8Y-82.9
X108.9Y-85.8
X112.4Y-87.9
X112.4Y-90.5
X112.4Y-92.9
X112.4Y-95.7
X112.4Y-98.2
X112.4Y-100.8
X112.4Y-103.3
X112.4Y-105.9
X112.6Y-60.0
X112.7Y-57.4
X112.8Y-83.6
X113.9Y-73.3
X113.9Y-76.1
X115.8Y-79.9
X116.9Y-67.2
X117.6Y-75.9
X117.9Y-84.2
X118.3Y-74.3
X118.3Y-77.6
X118.55Y-88.35
X118.85Y-62.1
X119.9Y-73.6
X120.0Y-78.4
X120.9Y-80.9
X121.0Y-63.2
X121.0Y-64.2
X121.1Y-65.1
X121.7Y-77.7
X121.7Y-94.95
X121.8Y-74.2
X123.8Y-63.2
X123.8Y-64.2
X123.8Y-65.1
X124.9Y-72.0
X125.45Y-77.4
X125.5Y-67.5
X125.6Y-63.7
X126.0Y-58.9
X126.3Y-94.65
X127.5Y-69.3
X127.6Y-83.3
X128.9Y-80.2
X131.0Y-59.3
X131.3Y-63.8
X131.3Y-72.0
X133.45Y-80.15
X133.55Y-75.1
X133.65Y-77.65
X134.5Y-105.3
X134.7Y-94.3
X135.0Y-102.5
X135.2Y-98.7
X136.3Y-85.5
X136.4Y-82.0
X137.2Y-91.6
X137.3Y-88.1
X137.4Y-71.7
X140.9Y-105.3
X141.85Y-82.85
X142.05Y-73.35
X142.1Y-100.0
X142.25Y-62.05
X142.65Y-58.15
X143.0Y-66.9
X146.1Y-58.5
X146.1Y-71.0
X146.7Y-78.15
X147.4Y-91.2
X147.8Y-99.0
T2
X121.2Y-89.1
X127.6Y-72.6
X128.85Y-71.35
X135.0Y-89.3
T3
X77.5Y-71.78
X77.5Y-74.32
X77.5Y-76.86
X77.5Y-79.4
X77.5Y-81.94
X77.5Y-84.48
X77.5Y-87.02
X77.5Y-89.56
X82.5Y-71.7
X82.5Y-74.24
X82.5Y-76.78
X82.5Y-79.32
X82.5Y-81.86
X82.5Y-84.4
X82.5Y-86.94
X82.5Y-89.48
X115.775Y-102.2
X115.775Y-104.74
X118.315Y-102.2
X120.855Y-102.2
X120.855Y-104.74
X127.12Y-102.2
X127.12Y-104.74
X128.8Y-59.12
X128.8Y-61.66
X128.8Y-64.2
X129.66Y-104.74
X132.2Y-102.2
X132.2Y-104.74
X133.45Y-59.12
X133.45Y-61.66
X133.45Y-64.2
T4
X116.5Y-58.3
X119.04Y-58.3
X121.58Y-58.3
T5
X115.8Y-92.2
X115.8Y-97.28
X120.1Y-76.0
X121.44Y-92.2
X121.44Y-97.28
X127.08Y-92.2
X127.08Y-97.28
X127.6Y-76.0
X132.72Y-92.2
X132.72Y-97.28
T6
X142.0Y-78.1
T7
X139.46Y-75.56
X139.46Y-80.64
X144.54Y-75.56
X144.54Y-80.64
T8
X139.25Y-60.25
X139.25Y-65.25
T0
M30
