%TF.GenerationSoftware,KiCad,Pcbnew,7.0.1*%
%TF.CreationDate,2023-10-17T15:07:37+02:00*%
%TF.ProjectId,dual-cam-pcb,6475616c-2d63-4616-9d2d-7063622e6b69,rev?*%
%TF.SameCoordinates,Original*%
%TF.FileFunction,Legend,Bot*%
%TF.FilePolarity,Positive*%
%FSLAX46Y46*%
G04 Gerber Fmt 4.6, Leading zero omitted, Abs format (unit mm)*
G04 Created by KiCad (PCBNEW 7.0.1) date 2023-10-17 15:07:37*
%MOMM*%
%LPD*%
G01*
G04 APERTURE LIST*
G04 Aperture macros list*
%AMRoundRect*
0 Rectangle with rounded corners*
0 $1 Rounding radius*
0 $2 $3 $4 $5 $6 $7 $8 $9 X,Y pos of 4 corners*
0 Add a 4 corners polygon primitive as box body*
4,1,4,$2,$3,$4,$5,$6,$7,$8,$9,$2,$3,0*
0 Add four circle primitives for the rounded corners*
1,1,$1+$1,$2,$3*
1,1,$1+$1,$4,$5*
1,1,$1+$1,$6,$7*
1,1,$1+$1,$8,$9*
0 Add four rect primitives between the rounded corners*
20,1,$1+$1,$2,$3,$4,$5,0*
20,1,$1+$1,$4,$5,$6,$7,0*
20,1,$1+$1,$6,$7,$8,$9,0*
20,1,$1+$1,$8,$9,$2,$3,0*%
%AMFreePoly0*
4,1,9,3.862500,-0.866500,0.737500,-0.866500,0.737500,-0.450000,-0.737500,-0.450000,-0.737500,0.450000,0.737500,0.450000,0.737500,0.866500,3.862500,0.866500,3.862500,-0.866500,3.862500,-0.866500,$1*%
G04 Aperture macros list end*
%ADD10C,0.150000*%
%ADD11C,0.120000*%
%ADD12RoundRect,0.237500X-0.250000X-0.237500X0.250000X-0.237500X0.250000X0.237500X-0.250000X0.237500X0*%
%ADD13RoundRect,0.237500X0.237500X-0.250000X0.237500X0.250000X-0.237500X0.250000X-0.237500X-0.250000X0*%
%ADD14RoundRect,0.249999X-1.075001X0.450001X-1.075001X-0.450001X1.075001X-0.450001X1.075001X0.450001X0*%
%ADD15RoundRect,0.237500X0.300000X0.237500X-0.300000X0.237500X-0.300000X-0.237500X0.300000X-0.237500X0*%
%ADD16C,2.400000*%
%ADD17O,2.400000X2.400000*%
%ADD18C,2.050000*%
%ADD19C,2.250000*%
%ADD20C,3.200000*%
%ADD21R,1.700000X1.700000*%
%ADD22O,1.700000X1.700000*%
%ADD23R,1.905000X2.000000*%
%ADD24O,1.905000X2.000000*%
%ADD25R,3.800000X3.800000*%
%ADD26C,3.800000*%
%ADD27R,2.400000X2.400000*%
%ADD28RoundRect,0.237500X-0.237500X0.250000X-0.237500X-0.250000X0.237500X-0.250000X0.237500X0.250000X0*%
%ADD29RoundRect,0.250000X0.325000X0.450000X-0.325000X0.450000X-0.325000X-0.450000X0.325000X-0.450000X0*%
%ADD30RoundRect,0.237500X0.250000X0.237500X-0.250000X0.237500X-0.250000X-0.237500X0.250000X-0.237500X0*%
%ADD31R,1.300000X0.900000*%
%ADD32FreePoly0,180.000000*%
%ADD33RoundRect,0.250000X-0.325000X-0.450000X0.325000X-0.450000X0.325000X0.450000X-0.325000X0.450000X0*%
%ADD34RoundRect,0.250000X0.337500X0.475000X-0.337500X0.475000X-0.337500X-0.475000X0.337500X-0.475000X0*%
%ADD35RoundRect,0.150000X-0.825000X-0.150000X0.825000X-0.150000X0.825000X0.150000X-0.825000X0.150000X0*%
%ADD36RoundRect,0.250000X-0.500000X0.850000X-0.500000X-0.850000X0.500000X-0.850000X0.500000X0.850000X0*%
%ADD37RoundRect,0.250000X-0.850000X-0.350000X0.850000X-0.350000X0.850000X0.350000X-0.850000X0.350000X0*%
%ADD38RoundRect,0.249997X-2.950003X-2.650003X2.950003X-2.650003X2.950003X2.650003X-2.950003X2.650003X0*%
G04 APERTURE END LIST*
D10*
%TO.C,R21*%
X86042857Y-87862619D02*
X86376190Y-87386428D01*
X86614285Y-87862619D02*
X86614285Y-86862619D01*
X86614285Y-86862619D02*
X86233333Y-86862619D01*
X86233333Y-86862619D02*
X86138095Y-86910238D01*
X86138095Y-86910238D02*
X86090476Y-86957857D01*
X86090476Y-86957857D02*
X86042857Y-87053095D01*
X86042857Y-87053095D02*
X86042857Y-87195952D01*
X86042857Y-87195952D02*
X86090476Y-87291190D01*
X86090476Y-87291190D02*
X86138095Y-87338809D01*
X86138095Y-87338809D02*
X86233333Y-87386428D01*
X86233333Y-87386428D02*
X86614285Y-87386428D01*
X85661904Y-86957857D02*
X85614285Y-86910238D01*
X85614285Y-86910238D02*
X85519047Y-86862619D01*
X85519047Y-86862619D02*
X85280952Y-86862619D01*
X85280952Y-86862619D02*
X85185714Y-86910238D01*
X85185714Y-86910238D02*
X85138095Y-86957857D01*
X85138095Y-86957857D02*
X85090476Y-87053095D01*
X85090476Y-87053095D02*
X85090476Y-87148333D01*
X85090476Y-87148333D02*
X85138095Y-87291190D01*
X85138095Y-87291190D02*
X85709523Y-87862619D01*
X85709523Y-87862619D02*
X85090476Y-87862619D01*
X84138095Y-87862619D02*
X84709523Y-87862619D01*
X84423809Y-87862619D02*
X84423809Y-86862619D01*
X84423809Y-86862619D02*
X84519047Y-87005476D01*
X84519047Y-87005476D02*
X84614285Y-87100714D01*
X84614285Y-87100714D02*
X84709523Y-87148333D01*
%TO.C,R20*%
X80162619Y-81807142D02*
X79686428Y-81473809D01*
X80162619Y-81235714D02*
X79162619Y-81235714D01*
X79162619Y-81235714D02*
X79162619Y-81616666D01*
X79162619Y-81616666D02*
X79210238Y-81711904D01*
X79210238Y-81711904D02*
X79257857Y-81759523D01*
X79257857Y-81759523D02*
X79353095Y-81807142D01*
X79353095Y-81807142D02*
X79495952Y-81807142D01*
X79495952Y-81807142D02*
X79591190Y-81759523D01*
X79591190Y-81759523D02*
X79638809Y-81711904D01*
X79638809Y-81711904D02*
X79686428Y-81616666D01*
X79686428Y-81616666D02*
X79686428Y-81235714D01*
X79257857Y-82188095D02*
X79210238Y-82235714D01*
X79210238Y-82235714D02*
X79162619Y-82330952D01*
X79162619Y-82330952D02*
X79162619Y-82569047D01*
X79162619Y-82569047D02*
X79210238Y-82664285D01*
X79210238Y-82664285D02*
X79257857Y-82711904D01*
X79257857Y-82711904D02*
X79353095Y-82759523D01*
X79353095Y-82759523D02*
X79448333Y-82759523D01*
X79448333Y-82759523D02*
X79591190Y-82711904D01*
X79591190Y-82711904D02*
X80162619Y-82140476D01*
X80162619Y-82140476D02*
X80162619Y-82759523D01*
X79162619Y-83378571D02*
X79162619Y-83473809D01*
X79162619Y-83473809D02*
X79210238Y-83569047D01*
X79210238Y-83569047D02*
X79257857Y-83616666D01*
X79257857Y-83616666D02*
X79353095Y-83664285D01*
X79353095Y-83664285D02*
X79543571Y-83711904D01*
X79543571Y-83711904D02*
X79781666Y-83711904D01*
X79781666Y-83711904D02*
X79972142Y-83664285D01*
X79972142Y-83664285D02*
X80067380Y-83616666D01*
X80067380Y-83616666D02*
X80115000Y-83569047D01*
X80115000Y-83569047D02*
X80162619Y-83473809D01*
X80162619Y-83473809D02*
X80162619Y-83378571D01*
X80162619Y-83378571D02*
X80115000Y-83283333D01*
X80115000Y-83283333D02*
X80067380Y-83235714D01*
X80067380Y-83235714D02*
X79972142Y-83188095D01*
X79972142Y-83188095D02*
X79781666Y-83140476D01*
X79781666Y-83140476D02*
X79543571Y-83140476D01*
X79543571Y-83140476D02*
X79353095Y-83188095D01*
X79353095Y-83188095D02*
X79257857Y-83235714D01*
X79257857Y-83235714D02*
X79210238Y-83283333D01*
X79210238Y-83283333D02*
X79162619Y-83378571D01*
%TO.C,R12*%
X122382619Y-76657142D02*
X121906428Y-76323809D01*
X122382619Y-76085714D02*
X121382619Y-76085714D01*
X121382619Y-76085714D02*
X121382619Y-76466666D01*
X121382619Y-76466666D02*
X121430238Y-76561904D01*
X121430238Y-76561904D02*
X121477857Y-76609523D01*
X121477857Y-76609523D02*
X121573095Y-76657142D01*
X121573095Y-76657142D02*
X121715952Y-76657142D01*
X121715952Y-76657142D02*
X121811190Y-76609523D01*
X121811190Y-76609523D02*
X121858809Y-76561904D01*
X121858809Y-76561904D02*
X121906428Y-76466666D01*
X121906428Y-76466666D02*
X121906428Y-76085714D01*
X122382619Y-77609523D02*
X122382619Y-77038095D01*
X122382619Y-77323809D02*
X121382619Y-77323809D01*
X121382619Y-77323809D02*
X121525476Y-77228571D01*
X121525476Y-77228571D02*
X121620714Y-77133333D01*
X121620714Y-77133333D02*
X121668333Y-77038095D01*
X121477857Y-77990476D02*
X121430238Y-78038095D01*
X121430238Y-78038095D02*
X121382619Y-78133333D01*
X121382619Y-78133333D02*
X121382619Y-78371428D01*
X121382619Y-78371428D02*
X121430238Y-78466666D01*
X121430238Y-78466666D02*
X121477857Y-78514285D01*
X121477857Y-78514285D02*
X121573095Y-78561904D01*
X121573095Y-78561904D02*
X121668333Y-78561904D01*
X121668333Y-78561904D02*
X121811190Y-78514285D01*
X121811190Y-78514285D02*
X122382619Y-77942857D01*
X122382619Y-77942857D02*
X122382619Y-78561904D01*
%TO.C,C9*%
X85366666Y-83367380D02*
X85414285Y-83415000D01*
X85414285Y-83415000D02*
X85557142Y-83462619D01*
X85557142Y-83462619D02*
X85652380Y-83462619D01*
X85652380Y-83462619D02*
X85795237Y-83415000D01*
X85795237Y-83415000D02*
X85890475Y-83319761D01*
X85890475Y-83319761D02*
X85938094Y-83224523D01*
X85938094Y-83224523D02*
X85985713Y-83034047D01*
X85985713Y-83034047D02*
X85985713Y-82891190D01*
X85985713Y-82891190D02*
X85938094Y-82700714D01*
X85938094Y-82700714D02*
X85890475Y-82605476D01*
X85890475Y-82605476D02*
X85795237Y-82510238D01*
X85795237Y-82510238D02*
X85652380Y-82462619D01*
X85652380Y-82462619D02*
X85557142Y-82462619D01*
X85557142Y-82462619D02*
X85414285Y-82510238D01*
X85414285Y-82510238D02*
X85366666Y-82557857D01*
X84890475Y-83462619D02*
X84699999Y-83462619D01*
X84699999Y-83462619D02*
X84604761Y-83415000D01*
X84604761Y-83415000D02*
X84557142Y-83367380D01*
X84557142Y-83367380D02*
X84461904Y-83224523D01*
X84461904Y-83224523D02*
X84414285Y-83034047D01*
X84414285Y-83034047D02*
X84414285Y-82653095D01*
X84414285Y-82653095D02*
X84461904Y-82557857D01*
X84461904Y-82557857D02*
X84509523Y-82510238D01*
X84509523Y-82510238D02*
X84604761Y-82462619D01*
X84604761Y-82462619D02*
X84795237Y-82462619D01*
X84795237Y-82462619D02*
X84890475Y-82510238D01*
X84890475Y-82510238D02*
X84938094Y-82557857D01*
X84938094Y-82557857D02*
X84985713Y-82653095D01*
X84985713Y-82653095D02*
X84985713Y-82891190D01*
X84985713Y-82891190D02*
X84938094Y-82986428D01*
X84938094Y-82986428D02*
X84890475Y-83034047D01*
X84890475Y-83034047D02*
X84795237Y-83081666D01*
X84795237Y-83081666D02*
X84604761Y-83081666D01*
X84604761Y-83081666D02*
X84509523Y-83034047D01*
X84509523Y-83034047D02*
X84461904Y-82986428D01*
X84461904Y-82986428D02*
X84414285Y-82891190D01*
%TO.C,C8*%
X78866666Y-93867380D02*
X78914285Y-93915000D01*
X78914285Y-93915000D02*
X79057142Y-93962619D01*
X79057142Y-93962619D02*
X79152380Y-93962619D01*
X79152380Y-93962619D02*
X79295237Y-93915000D01*
X79295237Y-93915000D02*
X79390475Y-93819761D01*
X79390475Y-93819761D02*
X79438094Y-93724523D01*
X79438094Y-93724523D02*
X79485713Y-93534047D01*
X79485713Y-93534047D02*
X79485713Y-93391190D01*
X79485713Y-93391190D02*
X79438094Y-93200714D01*
X79438094Y-93200714D02*
X79390475Y-93105476D01*
X79390475Y-93105476D02*
X79295237Y-93010238D01*
X79295237Y-93010238D02*
X79152380Y-92962619D01*
X79152380Y-92962619D02*
X79057142Y-92962619D01*
X79057142Y-92962619D02*
X78914285Y-93010238D01*
X78914285Y-93010238D02*
X78866666Y-93057857D01*
X78295237Y-93391190D02*
X78390475Y-93343571D01*
X78390475Y-93343571D02*
X78438094Y-93295952D01*
X78438094Y-93295952D02*
X78485713Y-93200714D01*
X78485713Y-93200714D02*
X78485713Y-93153095D01*
X78485713Y-93153095D02*
X78438094Y-93057857D01*
X78438094Y-93057857D02*
X78390475Y-93010238D01*
X78390475Y-93010238D02*
X78295237Y-92962619D01*
X78295237Y-92962619D02*
X78104761Y-92962619D01*
X78104761Y-92962619D02*
X78009523Y-93010238D01*
X78009523Y-93010238D02*
X77961904Y-93057857D01*
X77961904Y-93057857D02*
X77914285Y-93153095D01*
X77914285Y-93153095D02*
X77914285Y-93200714D01*
X77914285Y-93200714D02*
X77961904Y-93295952D01*
X77961904Y-93295952D02*
X78009523Y-93343571D01*
X78009523Y-93343571D02*
X78104761Y-93391190D01*
X78104761Y-93391190D02*
X78295237Y-93391190D01*
X78295237Y-93391190D02*
X78390475Y-93438809D01*
X78390475Y-93438809D02*
X78438094Y-93486428D01*
X78438094Y-93486428D02*
X78485713Y-93581666D01*
X78485713Y-93581666D02*
X78485713Y-93772142D01*
X78485713Y-93772142D02*
X78438094Y-93867380D01*
X78438094Y-93867380D02*
X78390475Y-93915000D01*
X78390475Y-93915000D02*
X78295237Y-93962619D01*
X78295237Y-93962619D02*
X78104761Y-93962619D01*
X78104761Y-93962619D02*
X78009523Y-93915000D01*
X78009523Y-93915000D02*
X77961904Y-93867380D01*
X77961904Y-93867380D02*
X77914285Y-93772142D01*
X77914285Y-93772142D02*
X77914285Y-93581666D01*
X77914285Y-93581666D02*
X77961904Y-93486428D01*
X77961904Y-93486428D02*
X78009523Y-93438809D01*
X78009523Y-93438809D02*
X78104761Y-93391190D01*
%TO.C,J3*%
X136432619Y-76304166D02*
X137146904Y-76304166D01*
X137146904Y-76304166D02*
X137289761Y-76256547D01*
X137289761Y-76256547D02*
X137385000Y-76161309D01*
X137385000Y-76161309D02*
X137432619Y-76018452D01*
X137432619Y-76018452D02*
X137432619Y-75923214D01*
X136432619Y-76685119D02*
X136432619Y-77304166D01*
X136432619Y-77304166D02*
X136813571Y-76970833D01*
X136813571Y-76970833D02*
X136813571Y-77113690D01*
X136813571Y-77113690D02*
X136861190Y-77208928D01*
X136861190Y-77208928D02*
X136908809Y-77256547D01*
X136908809Y-77256547D02*
X137004047Y-77304166D01*
X137004047Y-77304166D02*
X137242142Y-77304166D01*
X137242142Y-77304166D02*
X137337380Y-77256547D01*
X137337380Y-77256547D02*
X137385000Y-77208928D01*
X137385000Y-77208928D02*
X137432619Y-77113690D01*
X137432619Y-77113690D02*
X137432619Y-76827976D01*
X137432619Y-76827976D02*
X137385000Y-76732738D01*
X137385000Y-76732738D02*
X137337380Y-76685119D01*
%TO.C,R11*%
X122332619Y-85057142D02*
X121856428Y-84723809D01*
X122332619Y-84485714D02*
X121332619Y-84485714D01*
X121332619Y-84485714D02*
X121332619Y-84866666D01*
X121332619Y-84866666D02*
X121380238Y-84961904D01*
X121380238Y-84961904D02*
X121427857Y-85009523D01*
X121427857Y-85009523D02*
X121523095Y-85057142D01*
X121523095Y-85057142D02*
X121665952Y-85057142D01*
X121665952Y-85057142D02*
X121761190Y-85009523D01*
X121761190Y-85009523D02*
X121808809Y-84961904D01*
X121808809Y-84961904D02*
X121856428Y-84866666D01*
X121856428Y-84866666D02*
X121856428Y-84485714D01*
X122332619Y-86009523D02*
X122332619Y-85438095D01*
X122332619Y-85723809D02*
X121332619Y-85723809D01*
X121332619Y-85723809D02*
X121475476Y-85628571D01*
X121475476Y-85628571D02*
X121570714Y-85533333D01*
X121570714Y-85533333D02*
X121618333Y-85438095D01*
X122332619Y-86961904D02*
X122332619Y-86390476D01*
X122332619Y-86676190D02*
X121332619Y-86676190D01*
X121332619Y-86676190D02*
X121475476Y-86580952D01*
X121475476Y-86580952D02*
X121570714Y-86485714D01*
X121570714Y-86485714D02*
X121618333Y-86390476D01*
%TO.C,D4*%
X111088094Y-78362619D02*
X111088094Y-77362619D01*
X111088094Y-77362619D02*
X110849999Y-77362619D01*
X110849999Y-77362619D02*
X110707142Y-77410238D01*
X110707142Y-77410238D02*
X110611904Y-77505476D01*
X110611904Y-77505476D02*
X110564285Y-77600714D01*
X110564285Y-77600714D02*
X110516666Y-77791190D01*
X110516666Y-77791190D02*
X110516666Y-77934047D01*
X110516666Y-77934047D02*
X110564285Y-78124523D01*
X110564285Y-78124523D02*
X110611904Y-78219761D01*
X110611904Y-78219761D02*
X110707142Y-78315000D01*
X110707142Y-78315000D02*
X110849999Y-78362619D01*
X110849999Y-78362619D02*
X111088094Y-78362619D01*
X109659523Y-77695952D02*
X109659523Y-78362619D01*
X109897618Y-77315000D02*
X110135713Y-78029285D01*
X110135713Y-78029285D02*
X109516666Y-78029285D01*
%TO.C,R19*%
X107342857Y-84832619D02*
X107676190Y-84356428D01*
X107914285Y-84832619D02*
X107914285Y-83832619D01*
X107914285Y-83832619D02*
X107533333Y-83832619D01*
X107533333Y-83832619D02*
X107438095Y-83880238D01*
X107438095Y-83880238D02*
X107390476Y-83927857D01*
X107390476Y-83927857D02*
X107342857Y-84023095D01*
X107342857Y-84023095D02*
X107342857Y-84165952D01*
X107342857Y-84165952D02*
X107390476Y-84261190D01*
X107390476Y-84261190D02*
X107438095Y-84308809D01*
X107438095Y-84308809D02*
X107533333Y-84356428D01*
X107533333Y-84356428D02*
X107914285Y-84356428D01*
X106390476Y-84832619D02*
X106961904Y-84832619D01*
X106676190Y-84832619D02*
X106676190Y-83832619D01*
X106676190Y-83832619D02*
X106771428Y-83975476D01*
X106771428Y-83975476D02*
X106866666Y-84070714D01*
X106866666Y-84070714D02*
X106961904Y-84118333D01*
X105914285Y-84832619D02*
X105723809Y-84832619D01*
X105723809Y-84832619D02*
X105628571Y-84785000D01*
X105628571Y-84785000D02*
X105580952Y-84737380D01*
X105580952Y-84737380D02*
X105485714Y-84594523D01*
X105485714Y-84594523D02*
X105438095Y-84404047D01*
X105438095Y-84404047D02*
X105438095Y-84023095D01*
X105438095Y-84023095D02*
X105485714Y-83927857D01*
X105485714Y-83927857D02*
X105533333Y-83880238D01*
X105533333Y-83880238D02*
X105628571Y-83832619D01*
X105628571Y-83832619D02*
X105819047Y-83832619D01*
X105819047Y-83832619D02*
X105914285Y-83880238D01*
X105914285Y-83880238D02*
X105961904Y-83927857D01*
X105961904Y-83927857D02*
X106009523Y-84023095D01*
X106009523Y-84023095D02*
X106009523Y-84261190D01*
X106009523Y-84261190D02*
X105961904Y-84356428D01*
X105961904Y-84356428D02*
X105914285Y-84404047D01*
X105914285Y-84404047D02*
X105819047Y-84451666D01*
X105819047Y-84451666D02*
X105628571Y-84451666D01*
X105628571Y-84451666D02*
X105533333Y-84404047D01*
X105533333Y-84404047D02*
X105485714Y-84356428D01*
X105485714Y-84356428D02*
X105438095Y-84261190D01*
%TO.C,R6*%
X112966666Y-86992619D02*
X113299999Y-86516428D01*
X113538094Y-86992619D02*
X113538094Y-85992619D01*
X113538094Y-85992619D02*
X113157142Y-85992619D01*
X113157142Y-85992619D02*
X113061904Y-86040238D01*
X113061904Y-86040238D02*
X113014285Y-86087857D01*
X113014285Y-86087857D02*
X112966666Y-86183095D01*
X112966666Y-86183095D02*
X112966666Y-86325952D01*
X112966666Y-86325952D02*
X113014285Y-86421190D01*
X113014285Y-86421190D02*
X113061904Y-86468809D01*
X113061904Y-86468809D02*
X113157142Y-86516428D01*
X113157142Y-86516428D02*
X113538094Y-86516428D01*
X112109523Y-85992619D02*
X112299999Y-85992619D01*
X112299999Y-85992619D02*
X112395237Y-86040238D01*
X112395237Y-86040238D02*
X112442856Y-86087857D01*
X112442856Y-86087857D02*
X112538094Y-86230714D01*
X112538094Y-86230714D02*
X112585713Y-86421190D01*
X112585713Y-86421190D02*
X112585713Y-86802142D01*
X112585713Y-86802142D02*
X112538094Y-86897380D01*
X112538094Y-86897380D02*
X112490475Y-86945000D01*
X112490475Y-86945000D02*
X112395237Y-86992619D01*
X112395237Y-86992619D02*
X112204761Y-86992619D01*
X112204761Y-86992619D02*
X112109523Y-86945000D01*
X112109523Y-86945000D02*
X112061904Y-86897380D01*
X112061904Y-86897380D02*
X112014285Y-86802142D01*
X112014285Y-86802142D02*
X112014285Y-86564047D01*
X112014285Y-86564047D02*
X112061904Y-86468809D01*
X112061904Y-86468809D02*
X112109523Y-86421190D01*
X112109523Y-86421190D02*
X112204761Y-86373571D01*
X112204761Y-86373571D02*
X112395237Y-86373571D01*
X112395237Y-86373571D02*
X112490475Y-86421190D01*
X112490475Y-86421190D02*
X112538094Y-86468809D01*
X112538094Y-86468809D02*
X112585713Y-86564047D01*
%TO.C,U3*%
X115861904Y-66962619D02*
X115861904Y-67772142D01*
X115861904Y-67772142D02*
X115814285Y-67867380D01*
X115814285Y-67867380D02*
X115766666Y-67915000D01*
X115766666Y-67915000D02*
X115671428Y-67962619D01*
X115671428Y-67962619D02*
X115480952Y-67962619D01*
X115480952Y-67962619D02*
X115385714Y-67915000D01*
X115385714Y-67915000D02*
X115338095Y-67867380D01*
X115338095Y-67867380D02*
X115290476Y-67772142D01*
X115290476Y-67772142D02*
X115290476Y-66962619D01*
X114909523Y-66962619D02*
X114290476Y-66962619D01*
X114290476Y-66962619D02*
X114623809Y-67343571D01*
X114623809Y-67343571D02*
X114480952Y-67343571D01*
X114480952Y-67343571D02*
X114385714Y-67391190D01*
X114385714Y-67391190D02*
X114338095Y-67438809D01*
X114338095Y-67438809D02*
X114290476Y-67534047D01*
X114290476Y-67534047D02*
X114290476Y-67772142D01*
X114290476Y-67772142D02*
X114338095Y-67867380D01*
X114338095Y-67867380D02*
X114385714Y-67915000D01*
X114385714Y-67915000D02*
X114480952Y-67962619D01*
X114480952Y-67962619D02*
X114766666Y-67962619D01*
X114766666Y-67962619D02*
X114861904Y-67915000D01*
X114861904Y-67915000D02*
X114909523Y-67867380D01*
%TO.C,R2*%
X90916666Y-68162619D02*
X91249999Y-67686428D01*
X91488094Y-68162619D02*
X91488094Y-67162619D01*
X91488094Y-67162619D02*
X91107142Y-67162619D01*
X91107142Y-67162619D02*
X91011904Y-67210238D01*
X91011904Y-67210238D02*
X90964285Y-67257857D01*
X90964285Y-67257857D02*
X90916666Y-67353095D01*
X90916666Y-67353095D02*
X90916666Y-67495952D01*
X90916666Y-67495952D02*
X90964285Y-67591190D01*
X90964285Y-67591190D02*
X91011904Y-67638809D01*
X91011904Y-67638809D02*
X91107142Y-67686428D01*
X91107142Y-67686428D02*
X91488094Y-67686428D01*
X90535713Y-67257857D02*
X90488094Y-67210238D01*
X90488094Y-67210238D02*
X90392856Y-67162619D01*
X90392856Y-67162619D02*
X90154761Y-67162619D01*
X90154761Y-67162619D02*
X90059523Y-67210238D01*
X90059523Y-67210238D02*
X90011904Y-67257857D01*
X90011904Y-67257857D02*
X89964285Y-67353095D01*
X89964285Y-67353095D02*
X89964285Y-67448333D01*
X89964285Y-67448333D02*
X90011904Y-67591190D01*
X90011904Y-67591190D02*
X90583332Y-68162619D01*
X90583332Y-68162619D02*
X89964285Y-68162619D01*
%TO.C,D5*%
X92538094Y-105012619D02*
X92538094Y-104012619D01*
X92538094Y-104012619D02*
X92299999Y-104012619D01*
X92299999Y-104012619D02*
X92157142Y-104060238D01*
X92157142Y-104060238D02*
X92061904Y-104155476D01*
X92061904Y-104155476D02*
X92014285Y-104250714D01*
X92014285Y-104250714D02*
X91966666Y-104441190D01*
X91966666Y-104441190D02*
X91966666Y-104584047D01*
X91966666Y-104584047D02*
X92014285Y-104774523D01*
X92014285Y-104774523D02*
X92061904Y-104869761D01*
X92061904Y-104869761D02*
X92157142Y-104965000D01*
X92157142Y-104965000D02*
X92299999Y-105012619D01*
X92299999Y-105012619D02*
X92538094Y-105012619D01*
X91061904Y-104012619D02*
X91538094Y-104012619D01*
X91538094Y-104012619D02*
X91585713Y-104488809D01*
X91585713Y-104488809D02*
X91538094Y-104441190D01*
X91538094Y-104441190D02*
X91442856Y-104393571D01*
X91442856Y-104393571D02*
X91204761Y-104393571D01*
X91204761Y-104393571D02*
X91109523Y-104441190D01*
X91109523Y-104441190D02*
X91061904Y-104488809D01*
X91061904Y-104488809D02*
X91014285Y-104584047D01*
X91014285Y-104584047D02*
X91014285Y-104822142D01*
X91014285Y-104822142D02*
X91061904Y-104917380D01*
X91061904Y-104917380D02*
X91109523Y-104965000D01*
X91109523Y-104965000D02*
X91204761Y-105012619D01*
X91204761Y-105012619D02*
X91442856Y-105012619D01*
X91442856Y-105012619D02*
X91538094Y-104965000D01*
X91538094Y-104965000D02*
X91585713Y-104917380D01*
%TO.C,D3*%
X110988094Y-80462619D02*
X110988094Y-79462619D01*
X110988094Y-79462619D02*
X110749999Y-79462619D01*
X110749999Y-79462619D02*
X110607142Y-79510238D01*
X110607142Y-79510238D02*
X110511904Y-79605476D01*
X110511904Y-79605476D02*
X110464285Y-79700714D01*
X110464285Y-79700714D02*
X110416666Y-79891190D01*
X110416666Y-79891190D02*
X110416666Y-80034047D01*
X110416666Y-80034047D02*
X110464285Y-80224523D01*
X110464285Y-80224523D02*
X110511904Y-80319761D01*
X110511904Y-80319761D02*
X110607142Y-80415000D01*
X110607142Y-80415000D02*
X110749999Y-80462619D01*
X110749999Y-80462619D02*
X110988094Y-80462619D01*
X110083332Y-79462619D02*
X109464285Y-79462619D01*
X109464285Y-79462619D02*
X109797618Y-79843571D01*
X109797618Y-79843571D02*
X109654761Y-79843571D01*
X109654761Y-79843571D02*
X109559523Y-79891190D01*
X109559523Y-79891190D02*
X109511904Y-79938809D01*
X109511904Y-79938809D02*
X109464285Y-80034047D01*
X109464285Y-80034047D02*
X109464285Y-80272142D01*
X109464285Y-80272142D02*
X109511904Y-80367380D01*
X109511904Y-80367380D02*
X109559523Y-80415000D01*
X109559523Y-80415000D02*
X109654761Y-80462619D01*
X109654761Y-80462619D02*
X109940475Y-80462619D01*
X109940475Y-80462619D02*
X110035713Y-80415000D01*
X110035713Y-80415000D02*
X110083332Y-80367380D01*
%TO.C,R7*%
X111066666Y-83892619D02*
X111399999Y-83416428D01*
X111638094Y-83892619D02*
X111638094Y-82892619D01*
X111638094Y-82892619D02*
X111257142Y-82892619D01*
X111257142Y-82892619D02*
X111161904Y-82940238D01*
X111161904Y-82940238D02*
X111114285Y-82987857D01*
X111114285Y-82987857D02*
X111066666Y-83083095D01*
X111066666Y-83083095D02*
X111066666Y-83225952D01*
X111066666Y-83225952D02*
X111114285Y-83321190D01*
X111114285Y-83321190D02*
X111161904Y-83368809D01*
X111161904Y-83368809D02*
X111257142Y-83416428D01*
X111257142Y-83416428D02*
X111638094Y-83416428D01*
X110733332Y-82892619D02*
X110066666Y-82892619D01*
X110066666Y-82892619D02*
X110495237Y-83892619D01*
%TO.C,C7*%
X113916666Y-61517380D02*
X113964285Y-61565000D01*
X113964285Y-61565000D02*
X114107142Y-61612619D01*
X114107142Y-61612619D02*
X114202380Y-61612619D01*
X114202380Y-61612619D02*
X114345237Y-61565000D01*
X114345237Y-61565000D02*
X114440475Y-61469761D01*
X114440475Y-61469761D02*
X114488094Y-61374523D01*
X114488094Y-61374523D02*
X114535713Y-61184047D01*
X114535713Y-61184047D02*
X114535713Y-61041190D01*
X114535713Y-61041190D02*
X114488094Y-60850714D01*
X114488094Y-60850714D02*
X114440475Y-60755476D01*
X114440475Y-60755476D02*
X114345237Y-60660238D01*
X114345237Y-60660238D02*
X114202380Y-60612619D01*
X114202380Y-60612619D02*
X114107142Y-60612619D01*
X114107142Y-60612619D02*
X113964285Y-60660238D01*
X113964285Y-60660238D02*
X113916666Y-60707857D01*
X113583332Y-60612619D02*
X112916666Y-60612619D01*
X112916666Y-60612619D02*
X113345237Y-61612619D01*
%TO.C,R3*%
X90966666Y-73262619D02*
X91299999Y-72786428D01*
X91538094Y-73262619D02*
X91538094Y-72262619D01*
X91538094Y-72262619D02*
X91157142Y-72262619D01*
X91157142Y-72262619D02*
X91061904Y-72310238D01*
X91061904Y-72310238D02*
X91014285Y-72357857D01*
X91014285Y-72357857D02*
X90966666Y-72453095D01*
X90966666Y-72453095D02*
X90966666Y-72595952D01*
X90966666Y-72595952D02*
X91014285Y-72691190D01*
X91014285Y-72691190D02*
X91061904Y-72738809D01*
X91061904Y-72738809D02*
X91157142Y-72786428D01*
X91157142Y-72786428D02*
X91538094Y-72786428D01*
X90633332Y-72262619D02*
X90014285Y-72262619D01*
X90014285Y-72262619D02*
X90347618Y-72643571D01*
X90347618Y-72643571D02*
X90204761Y-72643571D01*
X90204761Y-72643571D02*
X90109523Y-72691190D01*
X90109523Y-72691190D02*
X90061904Y-72738809D01*
X90061904Y-72738809D02*
X90014285Y-72834047D01*
X90014285Y-72834047D02*
X90014285Y-73072142D01*
X90014285Y-73072142D02*
X90061904Y-73167380D01*
X90061904Y-73167380D02*
X90109523Y-73215000D01*
X90109523Y-73215000D02*
X90204761Y-73262619D01*
X90204761Y-73262619D02*
X90490475Y-73262619D01*
X90490475Y-73262619D02*
X90585713Y-73215000D01*
X90585713Y-73215000D02*
X90633332Y-73167380D01*
%TO.C,R10*%
X121912619Y-69457142D02*
X121436428Y-69123809D01*
X121912619Y-68885714D02*
X120912619Y-68885714D01*
X120912619Y-68885714D02*
X120912619Y-69266666D01*
X120912619Y-69266666D02*
X120960238Y-69361904D01*
X120960238Y-69361904D02*
X121007857Y-69409523D01*
X121007857Y-69409523D02*
X121103095Y-69457142D01*
X121103095Y-69457142D02*
X121245952Y-69457142D01*
X121245952Y-69457142D02*
X121341190Y-69409523D01*
X121341190Y-69409523D02*
X121388809Y-69361904D01*
X121388809Y-69361904D02*
X121436428Y-69266666D01*
X121436428Y-69266666D02*
X121436428Y-68885714D01*
X121912619Y-70409523D02*
X121912619Y-69838095D01*
X121912619Y-70123809D02*
X120912619Y-70123809D01*
X120912619Y-70123809D02*
X121055476Y-70028571D01*
X121055476Y-70028571D02*
X121150714Y-69933333D01*
X121150714Y-69933333D02*
X121198333Y-69838095D01*
X120912619Y-71028571D02*
X120912619Y-71123809D01*
X120912619Y-71123809D02*
X120960238Y-71219047D01*
X120960238Y-71219047D02*
X121007857Y-71266666D01*
X121007857Y-71266666D02*
X121103095Y-71314285D01*
X121103095Y-71314285D02*
X121293571Y-71361904D01*
X121293571Y-71361904D02*
X121531666Y-71361904D01*
X121531666Y-71361904D02*
X121722142Y-71314285D01*
X121722142Y-71314285D02*
X121817380Y-71266666D01*
X121817380Y-71266666D02*
X121865000Y-71219047D01*
X121865000Y-71219047D02*
X121912619Y-71123809D01*
X121912619Y-71123809D02*
X121912619Y-71028571D01*
X121912619Y-71028571D02*
X121865000Y-70933333D01*
X121865000Y-70933333D02*
X121817380Y-70885714D01*
X121817380Y-70885714D02*
X121722142Y-70838095D01*
X121722142Y-70838095D02*
X121531666Y-70790476D01*
X121531666Y-70790476D02*
X121293571Y-70790476D01*
X121293571Y-70790476D02*
X121103095Y-70838095D01*
X121103095Y-70838095D02*
X121007857Y-70885714D01*
X121007857Y-70885714D02*
X120960238Y-70933333D01*
X120960238Y-70933333D02*
X120912619Y-71028571D01*
%TO.C,U2*%
X119036904Y-87097619D02*
X119036904Y-87907142D01*
X119036904Y-87907142D02*
X118989285Y-88002380D01*
X118989285Y-88002380D02*
X118941666Y-88050000D01*
X118941666Y-88050000D02*
X118846428Y-88097619D01*
X118846428Y-88097619D02*
X118655952Y-88097619D01*
X118655952Y-88097619D02*
X118560714Y-88050000D01*
X118560714Y-88050000D02*
X118513095Y-88002380D01*
X118513095Y-88002380D02*
X118465476Y-87907142D01*
X118465476Y-87907142D02*
X118465476Y-87097619D01*
X118036904Y-87192857D02*
X117989285Y-87145238D01*
X117989285Y-87145238D02*
X117894047Y-87097619D01*
X117894047Y-87097619D02*
X117655952Y-87097619D01*
X117655952Y-87097619D02*
X117560714Y-87145238D01*
X117560714Y-87145238D02*
X117513095Y-87192857D01*
X117513095Y-87192857D02*
X117465476Y-87288095D01*
X117465476Y-87288095D02*
X117465476Y-87383333D01*
X117465476Y-87383333D02*
X117513095Y-87526190D01*
X117513095Y-87526190D02*
X118084523Y-88097619D01*
X118084523Y-88097619D02*
X117465476Y-88097619D01*
%TO.C,D2*%
X92912619Y-82111905D02*
X91912619Y-82111905D01*
X91912619Y-82111905D02*
X91912619Y-82350000D01*
X91912619Y-82350000D02*
X91960238Y-82492857D01*
X91960238Y-82492857D02*
X92055476Y-82588095D01*
X92055476Y-82588095D02*
X92150714Y-82635714D01*
X92150714Y-82635714D02*
X92341190Y-82683333D01*
X92341190Y-82683333D02*
X92484047Y-82683333D01*
X92484047Y-82683333D02*
X92674523Y-82635714D01*
X92674523Y-82635714D02*
X92769761Y-82588095D01*
X92769761Y-82588095D02*
X92865000Y-82492857D01*
X92865000Y-82492857D02*
X92912619Y-82350000D01*
X92912619Y-82350000D02*
X92912619Y-82111905D01*
X92007857Y-83064286D02*
X91960238Y-83111905D01*
X91960238Y-83111905D02*
X91912619Y-83207143D01*
X91912619Y-83207143D02*
X91912619Y-83445238D01*
X91912619Y-83445238D02*
X91960238Y-83540476D01*
X91960238Y-83540476D02*
X92007857Y-83588095D01*
X92007857Y-83588095D02*
X92103095Y-83635714D01*
X92103095Y-83635714D02*
X92198333Y-83635714D01*
X92198333Y-83635714D02*
X92341190Y-83588095D01*
X92341190Y-83588095D02*
X92912619Y-83016667D01*
X92912619Y-83016667D02*
X92912619Y-83635714D01*
%TO.C,Q1*%
X130735238Y-89257857D02*
X130830476Y-89210238D01*
X130830476Y-89210238D02*
X130925714Y-89115000D01*
X130925714Y-89115000D02*
X131068571Y-88972142D01*
X131068571Y-88972142D02*
X131163809Y-88924523D01*
X131163809Y-88924523D02*
X131259047Y-88924523D01*
X131211428Y-89162619D02*
X131306666Y-89115000D01*
X131306666Y-89115000D02*
X131401904Y-89019761D01*
X131401904Y-89019761D02*
X131449523Y-88829285D01*
X131449523Y-88829285D02*
X131449523Y-88495952D01*
X131449523Y-88495952D02*
X131401904Y-88305476D01*
X131401904Y-88305476D02*
X131306666Y-88210238D01*
X131306666Y-88210238D02*
X131211428Y-88162619D01*
X131211428Y-88162619D02*
X131020952Y-88162619D01*
X131020952Y-88162619D02*
X130925714Y-88210238D01*
X130925714Y-88210238D02*
X130830476Y-88305476D01*
X130830476Y-88305476D02*
X130782857Y-88495952D01*
X130782857Y-88495952D02*
X130782857Y-88829285D01*
X130782857Y-88829285D02*
X130830476Y-89019761D01*
X130830476Y-89019761D02*
X130925714Y-89115000D01*
X130925714Y-89115000D02*
X131020952Y-89162619D01*
X131020952Y-89162619D02*
X131211428Y-89162619D01*
X129830476Y-89162619D02*
X130401904Y-89162619D01*
X130116190Y-89162619D02*
X130116190Y-88162619D01*
X130116190Y-88162619D02*
X130211428Y-88305476D01*
X130211428Y-88305476D02*
X130306666Y-88400714D01*
X130306666Y-88400714D02*
X130401904Y-88448333D01*
%TO.C,R13*%
X136992857Y-80562619D02*
X137326190Y-80086428D01*
X137564285Y-80562619D02*
X137564285Y-79562619D01*
X137564285Y-79562619D02*
X137183333Y-79562619D01*
X137183333Y-79562619D02*
X137088095Y-79610238D01*
X137088095Y-79610238D02*
X137040476Y-79657857D01*
X137040476Y-79657857D02*
X136992857Y-79753095D01*
X136992857Y-79753095D02*
X136992857Y-79895952D01*
X136992857Y-79895952D02*
X137040476Y-79991190D01*
X137040476Y-79991190D02*
X137088095Y-80038809D01*
X137088095Y-80038809D02*
X137183333Y-80086428D01*
X137183333Y-80086428D02*
X137564285Y-80086428D01*
X136040476Y-80562619D02*
X136611904Y-80562619D01*
X136326190Y-80562619D02*
X136326190Y-79562619D01*
X136326190Y-79562619D02*
X136421428Y-79705476D01*
X136421428Y-79705476D02*
X136516666Y-79800714D01*
X136516666Y-79800714D02*
X136611904Y-79848333D01*
X135707142Y-79562619D02*
X135088095Y-79562619D01*
X135088095Y-79562619D02*
X135421428Y-79943571D01*
X135421428Y-79943571D02*
X135278571Y-79943571D01*
X135278571Y-79943571D02*
X135183333Y-79991190D01*
X135183333Y-79991190D02*
X135135714Y-80038809D01*
X135135714Y-80038809D02*
X135088095Y-80134047D01*
X135088095Y-80134047D02*
X135088095Y-80372142D01*
X135088095Y-80372142D02*
X135135714Y-80467380D01*
X135135714Y-80467380D02*
X135183333Y-80515000D01*
X135183333Y-80515000D02*
X135278571Y-80562619D01*
X135278571Y-80562619D02*
X135564285Y-80562619D01*
X135564285Y-80562619D02*
X135659523Y-80515000D01*
X135659523Y-80515000D02*
X135707142Y-80467380D01*
%TO.C,R5*%
X90916666Y-70712619D02*
X91249999Y-70236428D01*
X91488094Y-70712619D02*
X91488094Y-69712619D01*
X91488094Y-69712619D02*
X91107142Y-69712619D01*
X91107142Y-69712619D02*
X91011904Y-69760238D01*
X91011904Y-69760238D02*
X90964285Y-69807857D01*
X90964285Y-69807857D02*
X90916666Y-69903095D01*
X90916666Y-69903095D02*
X90916666Y-70045952D01*
X90916666Y-70045952D02*
X90964285Y-70141190D01*
X90964285Y-70141190D02*
X91011904Y-70188809D01*
X91011904Y-70188809D02*
X91107142Y-70236428D01*
X91107142Y-70236428D02*
X91488094Y-70236428D01*
X90011904Y-69712619D02*
X90488094Y-69712619D01*
X90488094Y-69712619D02*
X90535713Y-70188809D01*
X90535713Y-70188809D02*
X90488094Y-70141190D01*
X90488094Y-70141190D02*
X90392856Y-70093571D01*
X90392856Y-70093571D02*
X90154761Y-70093571D01*
X90154761Y-70093571D02*
X90059523Y-70141190D01*
X90059523Y-70141190D02*
X90011904Y-70188809D01*
X90011904Y-70188809D02*
X89964285Y-70284047D01*
X89964285Y-70284047D02*
X89964285Y-70522142D01*
X89964285Y-70522142D02*
X90011904Y-70617380D01*
X90011904Y-70617380D02*
X90059523Y-70665000D01*
X90059523Y-70665000D02*
X90154761Y-70712619D01*
X90154761Y-70712619D02*
X90392856Y-70712619D01*
X90392856Y-70712619D02*
X90488094Y-70665000D01*
X90488094Y-70665000D02*
X90535713Y-70617380D01*
%TO.C,D1*%
X86212619Y-79511905D02*
X85212619Y-79511905D01*
X85212619Y-79511905D02*
X85212619Y-79750000D01*
X85212619Y-79750000D02*
X85260238Y-79892857D01*
X85260238Y-79892857D02*
X85355476Y-79988095D01*
X85355476Y-79988095D02*
X85450714Y-80035714D01*
X85450714Y-80035714D02*
X85641190Y-80083333D01*
X85641190Y-80083333D02*
X85784047Y-80083333D01*
X85784047Y-80083333D02*
X85974523Y-80035714D01*
X85974523Y-80035714D02*
X86069761Y-79988095D01*
X86069761Y-79988095D02*
X86165000Y-79892857D01*
X86165000Y-79892857D02*
X86212619Y-79750000D01*
X86212619Y-79750000D02*
X86212619Y-79511905D01*
X86212619Y-81035714D02*
X86212619Y-80464286D01*
X86212619Y-80750000D02*
X85212619Y-80750000D01*
X85212619Y-80750000D02*
X85355476Y-80654762D01*
X85355476Y-80654762D02*
X85450714Y-80559524D01*
X85450714Y-80559524D02*
X85498333Y-80464286D01*
%TO.C,R18*%
X107342857Y-81932619D02*
X107676190Y-81456428D01*
X107914285Y-81932619D02*
X107914285Y-80932619D01*
X107914285Y-80932619D02*
X107533333Y-80932619D01*
X107533333Y-80932619D02*
X107438095Y-80980238D01*
X107438095Y-80980238D02*
X107390476Y-81027857D01*
X107390476Y-81027857D02*
X107342857Y-81123095D01*
X107342857Y-81123095D02*
X107342857Y-81265952D01*
X107342857Y-81265952D02*
X107390476Y-81361190D01*
X107390476Y-81361190D02*
X107438095Y-81408809D01*
X107438095Y-81408809D02*
X107533333Y-81456428D01*
X107533333Y-81456428D02*
X107914285Y-81456428D01*
X106390476Y-81932619D02*
X106961904Y-81932619D01*
X106676190Y-81932619D02*
X106676190Y-80932619D01*
X106676190Y-80932619D02*
X106771428Y-81075476D01*
X106771428Y-81075476D02*
X106866666Y-81170714D01*
X106866666Y-81170714D02*
X106961904Y-81218333D01*
X105819047Y-81361190D02*
X105914285Y-81313571D01*
X105914285Y-81313571D02*
X105961904Y-81265952D01*
X105961904Y-81265952D02*
X106009523Y-81170714D01*
X106009523Y-81170714D02*
X106009523Y-81123095D01*
X106009523Y-81123095D02*
X105961904Y-81027857D01*
X105961904Y-81027857D02*
X105914285Y-80980238D01*
X105914285Y-80980238D02*
X105819047Y-80932619D01*
X105819047Y-80932619D02*
X105628571Y-80932619D01*
X105628571Y-80932619D02*
X105533333Y-80980238D01*
X105533333Y-80980238D02*
X105485714Y-81027857D01*
X105485714Y-81027857D02*
X105438095Y-81123095D01*
X105438095Y-81123095D02*
X105438095Y-81170714D01*
X105438095Y-81170714D02*
X105485714Y-81265952D01*
X105485714Y-81265952D02*
X105533333Y-81313571D01*
X105533333Y-81313571D02*
X105628571Y-81361190D01*
X105628571Y-81361190D02*
X105819047Y-81361190D01*
X105819047Y-81361190D02*
X105914285Y-81408809D01*
X105914285Y-81408809D02*
X105961904Y-81456428D01*
X105961904Y-81456428D02*
X106009523Y-81551666D01*
X106009523Y-81551666D02*
X106009523Y-81742142D01*
X106009523Y-81742142D02*
X105961904Y-81837380D01*
X105961904Y-81837380D02*
X105914285Y-81885000D01*
X105914285Y-81885000D02*
X105819047Y-81932619D01*
X105819047Y-81932619D02*
X105628571Y-81932619D01*
X105628571Y-81932619D02*
X105533333Y-81885000D01*
X105533333Y-81885000D02*
X105485714Y-81837380D01*
X105485714Y-81837380D02*
X105438095Y-81742142D01*
X105438095Y-81742142D02*
X105438095Y-81551666D01*
X105438095Y-81551666D02*
X105485714Y-81456428D01*
X105485714Y-81456428D02*
X105533333Y-81408809D01*
X105533333Y-81408809D02*
X105628571Y-81361190D01*
%TO.C,R1*%
X91516666Y-76912619D02*
X91849999Y-76436428D01*
X92088094Y-76912619D02*
X92088094Y-75912619D01*
X92088094Y-75912619D02*
X91707142Y-75912619D01*
X91707142Y-75912619D02*
X91611904Y-75960238D01*
X91611904Y-75960238D02*
X91564285Y-76007857D01*
X91564285Y-76007857D02*
X91516666Y-76103095D01*
X91516666Y-76103095D02*
X91516666Y-76245952D01*
X91516666Y-76245952D02*
X91564285Y-76341190D01*
X91564285Y-76341190D02*
X91611904Y-76388809D01*
X91611904Y-76388809D02*
X91707142Y-76436428D01*
X91707142Y-76436428D02*
X92088094Y-76436428D01*
X90564285Y-76912619D02*
X91135713Y-76912619D01*
X90849999Y-76912619D02*
X90849999Y-75912619D01*
X90849999Y-75912619D02*
X90945237Y-76055476D01*
X90945237Y-76055476D02*
X91040475Y-76150714D01*
X91040475Y-76150714D02*
X91135713Y-76198333D01*
%TO.C,C2*%
X123966666Y-61417380D02*
X124014285Y-61465000D01*
X124014285Y-61465000D02*
X124157142Y-61512619D01*
X124157142Y-61512619D02*
X124252380Y-61512619D01*
X124252380Y-61512619D02*
X124395237Y-61465000D01*
X124395237Y-61465000D02*
X124490475Y-61369761D01*
X124490475Y-61369761D02*
X124538094Y-61274523D01*
X124538094Y-61274523D02*
X124585713Y-61084047D01*
X124585713Y-61084047D02*
X124585713Y-60941190D01*
X124585713Y-60941190D02*
X124538094Y-60750714D01*
X124538094Y-60750714D02*
X124490475Y-60655476D01*
X124490475Y-60655476D02*
X124395237Y-60560238D01*
X124395237Y-60560238D02*
X124252380Y-60512619D01*
X124252380Y-60512619D02*
X124157142Y-60512619D01*
X124157142Y-60512619D02*
X124014285Y-60560238D01*
X124014285Y-60560238D02*
X123966666Y-60607857D01*
X123585713Y-60607857D02*
X123538094Y-60560238D01*
X123538094Y-60560238D02*
X123442856Y-60512619D01*
X123442856Y-60512619D02*
X123204761Y-60512619D01*
X123204761Y-60512619D02*
X123109523Y-60560238D01*
X123109523Y-60560238D02*
X123061904Y-60607857D01*
X123061904Y-60607857D02*
X123014285Y-60703095D01*
X123014285Y-60703095D02*
X123014285Y-60798333D01*
X123014285Y-60798333D02*
X123061904Y-60941190D01*
X123061904Y-60941190D02*
X123633332Y-61512619D01*
X123633332Y-61512619D02*
X123014285Y-61512619D01*
%TO.C,R4*%
X90816666Y-65262619D02*
X91149999Y-64786428D01*
X91388094Y-65262619D02*
X91388094Y-64262619D01*
X91388094Y-64262619D02*
X91007142Y-64262619D01*
X91007142Y-64262619D02*
X90911904Y-64310238D01*
X90911904Y-64310238D02*
X90864285Y-64357857D01*
X90864285Y-64357857D02*
X90816666Y-64453095D01*
X90816666Y-64453095D02*
X90816666Y-64595952D01*
X90816666Y-64595952D02*
X90864285Y-64691190D01*
X90864285Y-64691190D02*
X90911904Y-64738809D01*
X90911904Y-64738809D02*
X91007142Y-64786428D01*
X91007142Y-64786428D02*
X91388094Y-64786428D01*
X89959523Y-64595952D02*
X89959523Y-65262619D01*
X90197618Y-64215000D02*
X90435713Y-64929285D01*
X90435713Y-64929285D02*
X89816666Y-64929285D01*
%TO.C,R9*%
X119066666Y-66232619D02*
X119399999Y-65756428D01*
X119638094Y-66232619D02*
X119638094Y-65232619D01*
X119638094Y-65232619D02*
X119257142Y-65232619D01*
X119257142Y-65232619D02*
X119161904Y-65280238D01*
X119161904Y-65280238D02*
X119114285Y-65327857D01*
X119114285Y-65327857D02*
X119066666Y-65423095D01*
X119066666Y-65423095D02*
X119066666Y-65565952D01*
X119066666Y-65565952D02*
X119114285Y-65661190D01*
X119114285Y-65661190D02*
X119161904Y-65708809D01*
X119161904Y-65708809D02*
X119257142Y-65756428D01*
X119257142Y-65756428D02*
X119638094Y-65756428D01*
X118590475Y-66232619D02*
X118399999Y-66232619D01*
X118399999Y-66232619D02*
X118304761Y-66185000D01*
X118304761Y-66185000D02*
X118257142Y-66137380D01*
X118257142Y-66137380D02*
X118161904Y-65994523D01*
X118161904Y-65994523D02*
X118114285Y-65804047D01*
X118114285Y-65804047D02*
X118114285Y-65423095D01*
X118114285Y-65423095D02*
X118161904Y-65327857D01*
X118161904Y-65327857D02*
X118209523Y-65280238D01*
X118209523Y-65280238D02*
X118304761Y-65232619D01*
X118304761Y-65232619D02*
X118495237Y-65232619D01*
X118495237Y-65232619D02*
X118590475Y-65280238D01*
X118590475Y-65280238D02*
X118638094Y-65327857D01*
X118638094Y-65327857D02*
X118685713Y-65423095D01*
X118685713Y-65423095D02*
X118685713Y-65661190D01*
X118685713Y-65661190D02*
X118638094Y-65756428D01*
X118638094Y-65756428D02*
X118590475Y-65804047D01*
X118590475Y-65804047D02*
X118495237Y-65851666D01*
X118495237Y-65851666D02*
X118304761Y-65851666D01*
X118304761Y-65851666D02*
X118209523Y-65804047D01*
X118209523Y-65804047D02*
X118161904Y-65756428D01*
X118161904Y-65756428D02*
X118114285Y-65661190D01*
D11*
%TO.C,R21*%
X85395276Y-84922500D02*
X85904724Y-84922500D01*
X85395276Y-83877500D02*
X85904724Y-83877500D01*
%TO.C,R20*%
X80222500Y-85904724D02*
X80222500Y-85395276D01*
X79177500Y-85904724D02*
X79177500Y-85395276D01*
%TO.C,R12*%
X122840000Y-75772936D02*
X122840000Y-78827064D01*
X125560000Y-75772936D02*
X125560000Y-78827064D01*
%TO.C,C9*%
X85796267Y-85440000D02*
X85503733Y-85440000D01*
X85796267Y-86460000D02*
X85503733Y-86460000D01*
%TO.C,C8*%
X78696267Y-91490000D02*
X78403733Y-91490000D01*
X78696267Y-92510000D02*
X78403733Y-92510000D01*
%TO.C,R11*%
X123822500Y-85445276D02*
X123822500Y-85954724D01*
X122777500Y-85445276D02*
X122777500Y-85954724D01*
%TO.C,D4*%
X115160000Y-78960000D02*
X112300000Y-78960000D01*
X115160000Y-77040000D02*
X115160000Y-78960000D01*
X112300000Y-77040000D02*
X115160000Y-77040000D01*
%TO.C,R19*%
X106954724Y-86322500D02*
X106445276Y-86322500D01*
X106954724Y-85277500D02*
X106445276Y-85277500D01*
%TO.C,R6*%
X112545276Y-84577500D02*
X113054724Y-84577500D01*
X112545276Y-85622500D02*
X113054724Y-85622500D01*
%TO.C,U3*%
X117600000Y-68870000D02*
X116460000Y-68870000D01*
X116460000Y-73360000D02*
X116460000Y-73130000D01*
X116460000Y-68640000D02*
X116460000Y-68870000D01*
X116460000Y-68640000D02*
X113740000Y-68640000D01*
X113740000Y-73360000D02*
X116460000Y-73360000D01*
X113740000Y-72050000D02*
X113740000Y-73360000D01*
X113740000Y-68640000D02*
X113740000Y-69950000D01*
%TO.C,R2*%
X87345276Y-67177500D02*
X87854724Y-67177500D01*
X87345276Y-68222500D02*
X87854724Y-68222500D01*
%TO.C,D5*%
X89940000Y-101940000D02*
X92800000Y-101940000D01*
X89940000Y-103860000D02*
X89940000Y-101940000D01*
X92800000Y-103860000D02*
X89940000Y-103860000D01*
%TO.C,D3*%
X115060000Y-80860000D02*
X112200000Y-80860000D01*
X115060000Y-78940000D02*
X115060000Y-80860000D01*
X112200000Y-78940000D02*
X115060000Y-78940000D01*
%TO.C,R7*%
X110645276Y-81477500D02*
X111154724Y-81477500D01*
X110645276Y-82522500D02*
X111154724Y-82522500D01*
%TO.C,C7*%
X117143752Y-61895000D02*
X116621248Y-61895000D01*
X117143752Y-60425000D02*
X116621248Y-60425000D01*
%TO.C,R3*%
X87954724Y-73322500D02*
X87445276Y-73322500D01*
X87954724Y-72277500D02*
X87445276Y-72277500D01*
%TO.C,R8*%
X113277500Y-82942224D02*
X113277500Y-82432776D01*
X114322500Y-82942224D02*
X114322500Y-82432776D01*
%TO.C,R10*%
X120322500Y-69845276D02*
X120322500Y-70354724D01*
X119277500Y-69845276D02*
X119277500Y-70354724D01*
%TO.C,U2*%
X118275000Y-81675000D02*
X116325000Y-81675000D01*
X118275000Y-81675000D02*
X120225000Y-81675000D01*
X118275000Y-86795000D02*
X114825000Y-86795000D01*
X118275000Y-86795000D02*
X120225000Y-86795000D01*
%TO.C,D2*%
X91360000Y-79740000D02*
X91360000Y-83650000D01*
X89340000Y-79740000D02*
X91360000Y-79740000D01*
X89340000Y-83650000D02*
X89340000Y-79740000D01*
%TO.C,Q1*%
X127330000Y-80750000D02*
X127330000Y-81020000D01*
X127330000Y-81020000D02*
X126230000Y-81020000D01*
X127330000Y-87380000D02*
X124500000Y-87380000D01*
X127330000Y-87650000D02*
X127330000Y-87380000D01*
X133750000Y-80750000D02*
X127330000Y-80750000D01*
X133750000Y-87650000D02*
X127330000Y-87650000D01*
%TO.C,R13*%
X138442776Y-77607500D02*
X138952224Y-77607500D01*
X138442776Y-78652500D02*
X138952224Y-78652500D01*
%TO.C,R5*%
X87445276Y-69777500D02*
X87954724Y-69777500D01*
X87445276Y-70822500D02*
X87954724Y-70822500D01*
%TO.C,D1*%
X88560000Y-77490000D02*
X88560000Y-81400000D01*
X86540000Y-77490000D02*
X88560000Y-77490000D01*
X86540000Y-81400000D02*
X86540000Y-77490000D01*
%TO.C,C1*%
X118323752Y-80835000D02*
X117801248Y-80835000D01*
X118323752Y-79365000D02*
X117801248Y-79365000D01*
%TO.C,R18*%
X106954724Y-83422500D02*
X106445276Y-83422500D01*
X106954724Y-82377500D02*
X106445276Y-82377500D01*
%TO.C,R1*%
X91095276Y-77577500D02*
X91604724Y-77577500D01*
X91095276Y-78622500D02*
X91604724Y-78622500D01*
%TO.C,C2*%
X121081252Y-61895000D02*
X120558748Y-61895000D01*
X121081252Y-60425000D02*
X120558748Y-60425000D01*
%TO.C,R4*%
X87954724Y-65422500D02*
X87445276Y-65422500D01*
X87954724Y-64377500D02*
X87445276Y-64377500D01*
%TO.C,R9*%
X119154724Y-67722500D02*
X118645276Y-67722500D01*
X119154724Y-66677500D02*
X118645276Y-66677500D01*
%TD*%
%LPC*%
D12*
%TO.C,R21*%
X84737500Y-84400000D03*
X86562500Y-84400000D03*
%TD*%
D13*
%TO.C,R20*%
X79700000Y-86562500D03*
X79700000Y-84737500D03*
%TD*%
D14*
%TO.C,R12*%
X124200000Y-74900000D03*
X124200000Y-79700000D03*
%TD*%
D15*
%TO.C,C9*%
X86512500Y-85950000D03*
X84787500Y-85950000D03*
%TD*%
%TO.C,C8*%
X79412500Y-92000000D03*
X77687500Y-92000000D03*
%TD*%
D16*
%TO.C,R14*%
X132720000Y-92200000D03*
D17*
X132720000Y-97280000D03*
%TD*%
D18*
%TO.C,J3*%
X142000000Y-78100000D03*
D19*
X139460000Y-80640000D03*
X144540000Y-80640000D03*
X139460000Y-75560000D03*
X144540000Y-75560000D03*
%TD*%
D20*
%TO.C,REF\u002A\u002A*%
X145900000Y-64100000D03*
%TD*%
D16*
%TO.C,R16*%
X121440000Y-92200000D03*
D17*
X121440000Y-97280000D03*
%TD*%
D16*
%TO.C,R15*%
X127080000Y-92200000D03*
D17*
X127080000Y-97280000D03*
%TD*%
D21*
%TO.C,J2*%
X77500000Y-71780000D03*
D22*
X77500000Y-74320000D03*
X77500000Y-76860000D03*
X77500000Y-79400000D03*
X77500000Y-81940000D03*
X77500000Y-84480000D03*
X77500000Y-87020000D03*
X77500000Y-89560000D03*
%TD*%
D21*
%TO.C,J4*%
X132200000Y-102200000D03*
D22*
X132200000Y-104740000D03*
X129660000Y-104740000D03*
X127120000Y-102200000D03*
X127120000Y-104740000D03*
%TD*%
D23*
%TO.C,U4*%
X121580000Y-58300000D03*
D24*
X119040000Y-58300000D03*
X116500000Y-58300000D03*
%TD*%
D21*
%TO.C,J5*%
X115775000Y-104740000D03*
D22*
X115775000Y-102200000D03*
X118315000Y-102200000D03*
X120855000Y-104740000D03*
X120855000Y-102200000D03*
%TD*%
D25*
%TO.C,J8*%
X139250000Y-60250000D03*
D26*
X139250000Y-65250000D03*
%TD*%
D27*
%TO.C,C3*%
X127600000Y-76000000D03*
D16*
X120100000Y-76000000D03*
%TD*%
D20*
%TO.C,REF\u002A\u002A*%
X77900000Y-104100000D03*
%TD*%
D21*
%TO.C,J7*%
X133450000Y-59120000D03*
D22*
X133450000Y-61660000D03*
X133450000Y-64200000D03*
%TD*%
D20*
%TO.C,REF\u002A\u002A*%
X145900000Y-104100000D03*
%TD*%
D16*
%TO.C,R17*%
X115800000Y-92200000D03*
D17*
X115800000Y-97280000D03*
%TD*%
D21*
%TO.C,J6*%
X128800000Y-59120000D03*
D22*
X128800000Y-61660000D03*
X128800000Y-64200000D03*
%TD*%
D20*
%TO.C,REF\u002A\u002A*%
X77900000Y-64100000D03*
%TD*%
D21*
%TO.C,J1*%
X82500000Y-71700000D03*
D22*
X82500000Y-74240000D03*
X82500000Y-76780000D03*
X82500000Y-79320000D03*
X82500000Y-81860000D03*
X82500000Y-84400000D03*
X82500000Y-86940000D03*
X82500000Y-89480000D03*
%TD*%
D28*
%TO.C,R11*%
X123300000Y-84787500D03*
X123300000Y-86612500D03*
%TD*%
D29*
%TO.C,D4*%
X114325000Y-78000000D03*
X112275000Y-78000000D03*
%TD*%
D30*
%TO.C,R19*%
X107612500Y-85800000D03*
X105787500Y-85800000D03*
%TD*%
D12*
%TO.C,R6*%
X111887500Y-85100000D03*
X113712500Y-85100000D03*
%TD*%
D31*
%TO.C,U3*%
X117050000Y-69500000D03*
D32*
X116962500Y-71000000D03*
D31*
X117050000Y-72500000D03*
%TD*%
D12*
%TO.C,R2*%
X86687500Y-67700000D03*
X88512500Y-67700000D03*
%TD*%
D33*
%TO.C,D5*%
X90775000Y-102900000D03*
X92825000Y-102900000D03*
%TD*%
D29*
%TO.C,D3*%
X114225000Y-79900000D03*
X112175000Y-79900000D03*
%TD*%
D12*
%TO.C,R7*%
X109987500Y-82000000D03*
X111812500Y-82000000D03*
%TD*%
D34*
%TO.C,C7*%
X117920000Y-61160000D03*
X115845000Y-61160000D03*
%TD*%
D30*
%TO.C,R3*%
X88612500Y-72800000D03*
X86787500Y-72800000D03*
%TD*%
D13*
%TO.C,R8*%
X113800000Y-83600000D03*
X113800000Y-81775000D03*
%TD*%
D28*
%TO.C,R10*%
X119800000Y-69187500D03*
X119800000Y-71012500D03*
%TD*%
D35*
%TO.C,U2*%
X115800000Y-86140000D03*
X115800000Y-84870000D03*
X115800000Y-83600000D03*
X115800000Y-82330000D03*
X120750000Y-82330000D03*
X120750000Y-83600000D03*
X120750000Y-84870000D03*
X120750000Y-86140000D03*
%TD*%
D36*
%TO.C,D2*%
X90350000Y-81100000D03*
X90350000Y-84000000D03*
%TD*%
D37*
%TO.C,Q1*%
X125600000Y-86480000D03*
D38*
X131900000Y-84200000D03*
D37*
X125600000Y-81920000D03*
%TD*%
D12*
%TO.C,R13*%
X137785000Y-78130000D03*
X139610000Y-78130000D03*
%TD*%
%TO.C,R5*%
X86787500Y-70300000D03*
X88612500Y-70300000D03*
%TD*%
D36*
%TO.C,D1*%
X87550000Y-78850000D03*
X87550000Y-81750000D03*
%TD*%
D34*
%TO.C,C1*%
X119100000Y-80100000D03*
X117025000Y-80100000D03*
%TD*%
D30*
%TO.C,R18*%
X107612500Y-82900000D03*
X105787500Y-82900000D03*
%TD*%
D12*
%TO.C,R1*%
X90437500Y-78100000D03*
X92262500Y-78100000D03*
%TD*%
D34*
%TO.C,C2*%
X121857500Y-61160000D03*
X119782500Y-61160000D03*
%TD*%
D30*
%TO.C,R4*%
X88612500Y-64900000D03*
X86787500Y-64900000D03*
%TD*%
%TO.C,R9*%
X119812500Y-67200000D03*
X117987500Y-67200000D03*
%TD*%
M02*
