%TF.GenerationSoftware,KiCad,Pcbnew,7.0.1*%
%TF.CreationDate,2023-10-17T15:07:37+02:00*%
%TF.ProjectId,dual-cam-pcb,6475616c-2d63-4616-9d2d-7063622e6b69,rev?*%
%TF.SameCoordinates,Original*%
%TF.FileFunction,Soldermask,Bot*%
%TF.FilePolarity,Negative*%
%FSLAX46Y46*%
G04 Gerber Fmt 4.6, Leading zero omitted, Abs format (unit mm)*
G04 Created by KiCad (PCBNEW 7.0.1) date 2023-10-17 15:07:37*
%MOMM*%
%LPD*%
G01*
G04 APERTURE LIST*
G04 Aperture macros list*
%AMRoundRect*
0 Rectangle with rounded corners*
0 $1 Rounding radius*
0 $2 $3 $4 $5 $6 $7 $8 $9 X,Y pos of 4 corners*
0 Add a 4 corners polygon primitive as box body*
4,1,4,$2,$3,$4,$5,$6,$7,$8,$9,$2,$3,0*
0 Add four circle primitives for the rounded corners*
1,1,$1+$1,$2,$3*
1,1,$1+$1,$4,$5*
1,1,$1+$1,$6,$7*
1,1,$1+$1,$8,$9*
0 Add four rect primitives between the rounded corners*
20,1,$1+$1,$2,$3,$4,$5,0*
20,1,$1+$1,$4,$5,$6,$7,0*
20,1,$1+$1,$6,$7,$8,$9,0*
20,1,$1+$1,$8,$9,$2,$3,0*%
%AMFreePoly0*
4,1,9,3.862500,-0.866500,0.737500,-0.866500,0.737500,-0.450000,-0.737500,-0.450000,-0.737500,0.450000,0.737500,0.450000,0.737500,0.866500,3.862500,0.866500,3.862500,-0.866500,3.862500,-0.866500,$1*%
G04 Aperture macros list end*
%ADD10RoundRect,0.237500X-0.250000X-0.237500X0.250000X-0.237500X0.250000X0.237500X-0.250000X0.237500X0*%
%ADD11RoundRect,0.237500X0.237500X-0.250000X0.237500X0.250000X-0.237500X0.250000X-0.237500X-0.250000X0*%
%ADD12RoundRect,0.249999X-1.075001X0.450001X-1.075001X-0.450001X1.075001X-0.450001X1.075001X0.450001X0*%
%ADD13RoundRect,0.237500X0.300000X0.237500X-0.300000X0.237500X-0.300000X-0.237500X0.300000X-0.237500X0*%
%ADD14C,2.400000*%
%ADD15O,2.400000X2.400000*%
%ADD16C,2.050000*%
%ADD17C,2.250000*%
%ADD18C,3.200000*%
%ADD19R,1.700000X1.700000*%
%ADD20O,1.700000X1.700000*%
%ADD21R,1.905000X2.000000*%
%ADD22O,1.905000X2.000000*%
%ADD23R,3.800000X3.800000*%
%ADD24C,3.800000*%
%ADD25R,2.400000X2.400000*%
%ADD26RoundRect,0.237500X-0.237500X0.250000X-0.237500X-0.250000X0.237500X-0.250000X0.237500X0.250000X0*%
%ADD27RoundRect,0.250000X0.325000X0.450000X-0.325000X0.450000X-0.325000X-0.450000X0.325000X-0.450000X0*%
%ADD28RoundRect,0.237500X0.250000X0.237500X-0.250000X0.237500X-0.250000X-0.237500X0.250000X-0.237500X0*%
%ADD29R,1.300000X0.900000*%
%ADD30FreePoly0,180.000000*%
%ADD31RoundRect,0.250000X-0.325000X-0.450000X0.325000X-0.450000X0.325000X0.450000X-0.325000X0.450000X0*%
%ADD32RoundRect,0.250000X0.337500X0.475000X-0.337500X0.475000X-0.337500X-0.475000X0.337500X-0.475000X0*%
%ADD33RoundRect,0.150000X-0.825000X-0.150000X0.825000X-0.150000X0.825000X0.150000X-0.825000X0.150000X0*%
%ADD34RoundRect,0.250000X-0.500000X0.850000X-0.500000X-0.850000X0.500000X-0.850000X0.500000X0.850000X0*%
%ADD35RoundRect,0.250000X-0.850000X-0.350000X0.850000X-0.350000X0.850000X0.350000X-0.850000X0.350000X0*%
%ADD36RoundRect,0.249997X-2.950003X-2.650003X2.950003X-2.650003X2.950003X2.650003X-2.950003X2.650003X0*%
G04 APERTURE END LIST*
D10*
%TO.C,R21*%
X84737500Y-84400000D03*
X86562500Y-84400000D03*
%TD*%
D11*
%TO.C,R20*%
X79700000Y-86562500D03*
X79700000Y-84737500D03*
%TD*%
D12*
%TO.C,R12*%
X124200000Y-74900000D03*
X124200000Y-79700000D03*
%TD*%
D13*
%TO.C,C9*%
X86512500Y-85950000D03*
X84787500Y-85950000D03*
%TD*%
%TO.C,C8*%
X79412500Y-92000000D03*
X77687500Y-92000000D03*
%TD*%
D14*
%TO.C,R14*%
X132720000Y-92200000D03*
D15*
X132720000Y-97280000D03*
%TD*%
D16*
%TO.C,J3*%
X142000000Y-78100000D03*
D17*
X139460000Y-80640000D03*
X144540000Y-80640000D03*
X139460000Y-75560000D03*
X144540000Y-75560000D03*
%TD*%
D18*
%TO.C,REF\u002A\u002A*%
X145900000Y-64100000D03*
%TD*%
D14*
%TO.C,R16*%
X121440000Y-92200000D03*
D15*
X121440000Y-97280000D03*
%TD*%
D14*
%TO.C,R15*%
X127080000Y-92200000D03*
D15*
X127080000Y-97280000D03*
%TD*%
D19*
%TO.C,J2*%
X77500000Y-71780000D03*
D20*
X77500000Y-74320000D03*
X77500000Y-76860000D03*
X77500000Y-79400000D03*
X77500000Y-81940000D03*
X77500000Y-84480000D03*
X77500000Y-87020000D03*
X77500000Y-89560000D03*
%TD*%
D19*
%TO.C,J4*%
X132200000Y-102200000D03*
D20*
X132200000Y-104740000D03*
X129660000Y-104740000D03*
X127120000Y-102200000D03*
X127120000Y-104740000D03*
%TD*%
D21*
%TO.C,U4*%
X121580000Y-58300000D03*
D22*
X119040000Y-58300000D03*
X116500000Y-58300000D03*
%TD*%
D19*
%TO.C,J5*%
X115775000Y-104740000D03*
D20*
X115775000Y-102200000D03*
X118315000Y-102200000D03*
X120855000Y-104740000D03*
X120855000Y-102200000D03*
%TD*%
D23*
%TO.C,J8*%
X139250000Y-60250000D03*
D24*
X139250000Y-65250000D03*
%TD*%
D25*
%TO.C,C3*%
X127600000Y-76000000D03*
D14*
X120100000Y-76000000D03*
%TD*%
D18*
%TO.C,REF\u002A\u002A*%
X77900000Y-104100000D03*
%TD*%
D19*
%TO.C,J7*%
X133450000Y-59120000D03*
D20*
X133450000Y-61660000D03*
X133450000Y-64200000D03*
%TD*%
D18*
%TO.C,REF\u002A\u002A*%
X145900000Y-104100000D03*
%TD*%
D14*
%TO.C,R17*%
X115800000Y-92200000D03*
D15*
X115800000Y-97280000D03*
%TD*%
D19*
%TO.C,J6*%
X128800000Y-59120000D03*
D20*
X128800000Y-61660000D03*
X128800000Y-64200000D03*
%TD*%
D18*
%TO.C,REF\u002A\u002A*%
X77900000Y-64100000D03*
%TD*%
D19*
%TO.C,J1*%
X82500000Y-71700000D03*
D20*
X82500000Y-74240000D03*
X82500000Y-76780000D03*
X82500000Y-79320000D03*
X82500000Y-81860000D03*
X82500000Y-84400000D03*
X82500000Y-86940000D03*
X82500000Y-89480000D03*
%TD*%
D26*
%TO.C,R11*%
X123300000Y-84787500D03*
X123300000Y-86612500D03*
%TD*%
D27*
%TO.C,D4*%
X114325000Y-78000000D03*
X112275000Y-78000000D03*
%TD*%
D28*
%TO.C,R19*%
X107612500Y-85800000D03*
X105787500Y-85800000D03*
%TD*%
D10*
%TO.C,R6*%
X111887500Y-85100000D03*
X113712500Y-85100000D03*
%TD*%
D29*
%TO.C,U3*%
X117050000Y-69500000D03*
D30*
X116962500Y-71000000D03*
D29*
X117050000Y-72500000D03*
%TD*%
D10*
%TO.C,R2*%
X86687500Y-67700000D03*
X88512500Y-67700000D03*
%TD*%
D31*
%TO.C,D5*%
X90775000Y-102900000D03*
X92825000Y-102900000D03*
%TD*%
D27*
%TO.C,D3*%
X114225000Y-79900000D03*
X112175000Y-79900000D03*
%TD*%
D10*
%TO.C,R7*%
X109987500Y-82000000D03*
X111812500Y-82000000D03*
%TD*%
D32*
%TO.C,C7*%
X117920000Y-61160000D03*
X115845000Y-61160000D03*
%TD*%
D28*
%TO.C,R3*%
X88612500Y-72800000D03*
X86787500Y-72800000D03*
%TD*%
D11*
%TO.C,R8*%
X113800000Y-83600000D03*
X113800000Y-81775000D03*
%TD*%
D26*
%TO.C,R10*%
X119800000Y-69187500D03*
X119800000Y-71012500D03*
%TD*%
D33*
%TO.C,U2*%
X115800000Y-86140000D03*
X115800000Y-84870000D03*
X115800000Y-83600000D03*
X115800000Y-82330000D03*
X120750000Y-82330000D03*
X120750000Y-83600000D03*
X120750000Y-84870000D03*
X120750000Y-86140000D03*
%TD*%
D34*
%TO.C,D2*%
X90350000Y-81100000D03*
X90350000Y-84000000D03*
%TD*%
D35*
%TO.C,Q1*%
X125600000Y-86480000D03*
D36*
X131900000Y-84200000D03*
D35*
X125600000Y-81920000D03*
%TD*%
D10*
%TO.C,R13*%
X137785000Y-78130000D03*
X139610000Y-78130000D03*
%TD*%
%TO.C,R5*%
X86787500Y-70300000D03*
X88612500Y-70300000D03*
%TD*%
D34*
%TO.C,D1*%
X87550000Y-78850000D03*
X87550000Y-81750000D03*
%TD*%
D32*
%TO.C,C1*%
X119100000Y-80100000D03*
X117025000Y-80100000D03*
%TD*%
D28*
%TO.C,R18*%
X107612500Y-82900000D03*
X105787500Y-82900000D03*
%TD*%
D10*
%TO.C,R1*%
X90437500Y-78100000D03*
X92262500Y-78100000D03*
%TD*%
D32*
%TO.C,C2*%
X121857500Y-61160000D03*
X119782500Y-61160000D03*
%TD*%
D28*
%TO.C,R4*%
X88612500Y-64900000D03*
X86787500Y-64900000D03*
%TD*%
%TO.C,R9*%
X119812500Y-67200000D03*
X117987500Y-67200000D03*
%TD*%
M02*
