%TF.GenerationSoftware,KiCad,Pcbnew,7.0.1*%
%TF.CreationDate,2023-04-14T11:05:38+02:00*%
%TF.ProjectId,dual-cam-pcb,6475616c-2d63-4616-9d2d-7063622e6b69,rev?*%
%TF.SameCoordinates,Original*%
%TF.FileFunction,Profile,NP*%
%FSLAX46Y46*%
G04 Gerber Fmt 4.6, Leading zero omitted, Abs format (unit mm)*
G04 Created by KiCad (PCBNEW 7.0.1) date 2023-04-14 11:05:38*
%MOMM*%
%LPD*%
G01*
G04 APERTURE LIST*
%TA.AperFunction,Profile*%
%ADD10C,0.349999*%
%TD*%
G04 APERTURE END LIST*
D10*
X75134633Y-106947758D02*
X75225653Y-106982885D01*
X74052239Y-57334633D02*
X74017112Y-57425653D01*
X74352927Y-56832484D02*
X74292446Y-56910122D01*
X75507997Y-107061214D02*
X75604660Y-107078080D01*
X148841773Y-106864386D02*
X148926839Y-106816277D01*
X75702324Y-56109787D02*
X75604660Y-56121918D01*
X149813542Y-105681669D02*
X149839674Y-105587500D01*
X74017112Y-57425653D02*
X73986449Y-57518330D01*
X148291995Y-107061214D02*
X148387493Y-107039681D01*
X147899993Y-107099998D02*
X147999167Y-107097540D01*
X149314208Y-56685786D02*
X149242342Y-56617398D01*
X74292446Y-56910122D02*
X74236021Y-56990399D01*
X148574339Y-56217114D02*
X148481663Y-56186450D01*
X149899993Y-105099998D02*
X149899993Y-58100000D01*
X74183720Y-106126847D02*
X74236021Y-106209601D01*
X147999167Y-56102458D02*
X147899993Y-56100000D01*
X74292446Y-106289878D02*
X74352927Y-106367516D01*
X73921918Y-57804661D02*
X73909787Y-57902325D01*
X148481663Y-107013548D02*
X148574339Y-106982885D01*
X73909787Y-105297674D02*
X73921918Y-105395338D01*
X148665359Y-106947758D02*
X148754558Y-106908236D01*
X148195332Y-107078080D02*
X148291995Y-107061214D01*
X149664379Y-106041781D02*
X149708228Y-105954566D01*
X149447064Y-106367516D02*
X149507544Y-106289878D01*
X74873153Y-106816277D02*
X74958219Y-106864386D01*
X149616269Y-106126847D02*
X149664379Y-106041781D01*
X149890206Y-105297674D02*
X149897534Y-105199173D01*
X149507544Y-106289878D02*
X149563969Y-106209601D01*
X148097668Y-107090212D02*
X148195332Y-107078080D01*
X149382596Y-56757651D02*
X149314208Y-56685786D01*
X73902458Y-58000826D02*
X73900000Y-58100000D01*
X149009593Y-56436023D02*
X148926839Y-56383722D01*
X148574339Y-106982885D02*
X148665359Y-106947758D01*
X149839674Y-105587500D02*
X149861208Y-105492002D01*
X149897534Y-105199173D02*
X149899993Y-105099998D01*
X75225653Y-56217114D02*
X75134633Y-56252241D01*
X73960317Y-57612499D02*
X73938784Y-57707997D01*
X149314208Y-106514213D02*
X149382596Y-106442349D01*
X75900000Y-56100000D02*
X75800826Y-56102458D01*
X73900000Y-58100000D02*
X73900000Y-105099998D01*
X74873153Y-56383722D02*
X74790399Y-56436023D01*
X74091761Y-105954566D02*
X74135611Y-106041781D01*
X74710121Y-106707551D02*
X74790399Y-106763976D01*
X75800826Y-56102458D02*
X75702324Y-56109787D01*
X148754558Y-56291763D02*
X148665359Y-56252241D01*
X74485785Y-106514213D02*
X74557650Y-106582602D01*
X74017112Y-105774346D02*
X74052239Y-105865366D01*
X75045434Y-106908236D02*
X75134633Y-106947758D01*
X149447064Y-56832484D02*
X149382596Y-56757651D01*
X74236021Y-56990399D02*
X74183720Y-57073153D01*
X149878074Y-105395338D02*
X149890206Y-105297674D01*
X74958219Y-56335613D02*
X74873153Y-56383722D01*
X148926839Y-56383722D02*
X148841773Y-56335613D01*
X75702324Y-107090212D02*
X75800826Y-107097540D01*
X75412499Y-107039681D02*
X75507997Y-107061214D01*
X74557650Y-106582602D02*
X74632484Y-106647071D01*
X149242342Y-106582602D02*
X149314208Y-106514213D01*
X75318330Y-56186450D02*
X75225653Y-56217114D01*
X149089871Y-106707551D02*
X149167509Y-106647071D01*
X73900000Y-105099998D02*
X73902458Y-105199173D01*
X74632484Y-106647071D02*
X74710121Y-106707551D01*
X148481663Y-56186450D02*
X148387493Y-56160318D01*
X73986449Y-57518330D02*
X73960317Y-57612499D01*
X149897534Y-58000826D02*
X149890206Y-57902325D01*
X73960317Y-105587500D02*
X73986449Y-105681669D01*
X149861208Y-105492002D02*
X149878074Y-105395338D01*
X74632484Y-56552929D02*
X74557650Y-56617398D01*
X75604660Y-107078080D02*
X75702324Y-107090212D01*
X73921918Y-105395338D02*
X73938784Y-105492002D01*
X149382596Y-106442349D02*
X149447064Y-106367516D01*
X74790399Y-106763976D02*
X74873153Y-106816277D01*
X74352927Y-106367516D02*
X74417396Y-106442349D01*
X148665359Y-56252241D02*
X148574339Y-56217114D01*
X74557650Y-56617398D02*
X74485785Y-56685786D01*
X149242342Y-56617398D02*
X149167509Y-56552929D01*
X149664379Y-57158219D02*
X149616269Y-57073153D01*
X149167509Y-106647071D02*
X149242342Y-106582602D01*
X74417396Y-106442349D02*
X74485785Y-106514213D01*
X74135611Y-106041781D02*
X74183720Y-106126847D01*
X149616269Y-57073153D02*
X149563969Y-56990399D01*
X74052239Y-105865366D02*
X74091761Y-105954566D01*
X149507544Y-56910122D02*
X149447064Y-56832484D01*
X149563969Y-56990399D02*
X149507544Y-56910122D01*
X75225653Y-106982885D02*
X75318330Y-107013548D01*
X148195332Y-56121918D02*
X148097668Y-56109787D01*
X149009593Y-106763976D02*
X149089871Y-106707551D01*
X75900000Y-107099998D02*
X147899993Y-107099998D01*
X149899993Y-58100000D02*
X149897534Y-58000826D01*
X75800826Y-107097540D02*
X75900000Y-107099998D01*
X149563969Y-106209601D02*
X149616269Y-106126847D01*
X75507997Y-56138784D02*
X75412499Y-56160318D01*
X149861208Y-57707997D02*
X149839674Y-57612499D01*
X74135611Y-57158219D02*
X74091761Y-57245434D01*
X149839674Y-57612499D02*
X149813542Y-57518330D01*
X74417396Y-56757651D02*
X74352927Y-56832484D01*
X74790399Y-56436023D02*
X74710121Y-56492448D01*
X148387493Y-107039681D02*
X148481663Y-107013548D01*
X147999167Y-107097540D02*
X148097668Y-107090212D01*
X73986449Y-105681669D02*
X74017112Y-105774346D01*
X74091761Y-57245434D02*
X74052239Y-57334633D01*
X148097668Y-56109787D02*
X147999167Y-56102458D01*
X75134633Y-56252241D02*
X75045434Y-56291763D01*
X148291995Y-56138784D02*
X148195332Y-56121918D01*
X75318330Y-107013548D02*
X75412499Y-107039681D01*
X147899993Y-56100000D02*
X75900000Y-56100000D01*
X148841773Y-56335613D02*
X148754558Y-56291763D01*
X74183720Y-57073153D02*
X74135611Y-57158219D01*
X73938784Y-105492002D02*
X73960317Y-105587500D01*
X73938784Y-57707997D02*
X73921918Y-57804661D01*
X149747751Y-105865366D02*
X149782878Y-105774346D01*
X75412499Y-56160318D02*
X75318330Y-56186450D01*
X149782878Y-57425653D02*
X149747751Y-57334633D01*
X73909787Y-57902325D02*
X73902458Y-58000826D01*
X148387493Y-56160318D02*
X148291995Y-56138784D01*
X149747751Y-57334633D02*
X149708228Y-57245434D01*
X149878074Y-57804660D02*
X149861208Y-57707997D01*
X149782878Y-105774346D02*
X149813542Y-105681669D01*
X75045434Y-56291763D02*
X74958219Y-56335613D01*
X74710121Y-56492448D02*
X74632484Y-56552929D01*
X148926839Y-106816277D02*
X149009593Y-106763976D01*
X74958219Y-106864386D02*
X75045434Y-106908236D01*
X149708228Y-105954566D02*
X149747751Y-105865366D01*
X75604660Y-56121918D02*
X75507997Y-56138784D01*
X74485785Y-56685786D02*
X74417396Y-56757651D01*
X149813542Y-57518330D02*
X149782878Y-57425653D01*
X149708228Y-57245434D02*
X149664379Y-57158219D01*
X149890206Y-57902325D02*
X149878074Y-57804660D01*
X148754558Y-106908236D02*
X148841773Y-106864386D01*
X149167509Y-56552929D02*
X149089871Y-56492448D01*
X73902458Y-105199173D02*
X73909787Y-105297674D01*
X149089871Y-56492448D02*
X149009593Y-56436023D01*
X74236021Y-106209601D02*
X74292446Y-106289878D01*
M02*
