%TF.GenerationSoftware,KiCad,Pcbnew,7.0.1*%
%TF.CreationDate,2023-10-17T15:07:36+02:00*%
%TF.ProjectId,dual-cam-pcb,6475616c-2d63-4616-9d2d-7063622e6b69,rev?*%
%TF.SameCoordinates,Original*%
%TF.FileFunction,Copper,L1,Top*%
%TF.FilePolarity,Positive*%
%FSLAX46Y46*%
G04 Gerber Fmt 4.6, Leading zero omitted, Abs format (unit mm)*
G04 Created by KiCad (PCBNEW 7.0.1) date 2023-10-17 15:07:36*
%MOMM*%
%LPD*%
G01*
G04 APERTURE LIST*
%TA.AperFunction,ComponentPad*%
%ADD10C,2.400000*%
%TD*%
%TA.AperFunction,ComponentPad*%
%ADD11O,2.400000X2.400000*%
%TD*%
%TA.AperFunction,ComponentPad*%
%ADD12C,2.050000*%
%TD*%
%TA.AperFunction,ComponentPad*%
%ADD13C,2.250000*%
%TD*%
%TA.AperFunction,ComponentPad*%
%ADD14R,1.700000X1.700000*%
%TD*%
%TA.AperFunction,ComponentPad*%
%ADD15O,1.700000X1.700000*%
%TD*%
%TA.AperFunction,SMDPad,CuDef*%
%ADD16C,1.800000*%
%TD*%
%TA.AperFunction,ComponentPad*%
%ADD17R,1.905000X2.000000*%
%TD*%
%TA.AperFunction,ComponentPad*%
%ADD18O,1.905000X2.000000*%
%TD*%
%TA.AperFunction,ComponentPad*%
%ADD19R,3.800000X3.800000*%
%TD*%
%TA.AperFunction,ComponentPad*%
%ADD20C,3.800000*%
%TD*%
%TA.AperFunction,ComponentPad*%
%ADD21R,2.400000X2.400000*%
%TD*%
%TA.AperFunction,ViaPad*%
%ADD22C,0.600000*%
%TD*%
%TA.AperFunction,ViaPad*%
%ADD23C,1.000000*%
%TD*%
%TA.AperFunction,Conductor*%
%ADD24C,2.000000*%
%TD*%
%TA.AperFunction,Conductor*%
%ADD25C,0.200000*%
%TD*%
%TA.AperFunction,Conductor*%
%ADD26C,0.750000*%
%TD*%
G04 APERTURE END LIST*
D10*
%TO.P,R14,1*%
%TO.N,VDD*%
X132720000Y-92200000D03*
D11*
%TO.P,R14,2*%
%TO.N,Net-(J4-plus1)*%
X132720000Y-97280000D03*
%TD*%
D12*
%TO.P,J3,1,In*%
%TO.N,Net-(J3-In)*%
X142000000Y-78100000D03*
D13*
%TO.P,J3,2,Ext*%
%TO.N,GND*%
X139460000Y-80640000D03*
X144540000Y-80640000D03*
X139460000Y-75560000D03*
X144540000Y-75560000D03*
%TD*%
D10*
%TO.P,R16,1*%
%TO.N,VDD*%
X121440000Y-92200000D03*
D11*
%TO.P,R16,2*%
%TO.N,Net-(J5-plus1)*%
X121440000Y-97280000D03*
%TD*%
D10*
%TO.P,R15,1*%
%TO.N,VDD*%
X127080000Y-92200000D03*
D11*
%TO.P,R15,2*%
%TO.N,Net-(J4-plus1)*%
X127080000Y-97280000D03*
%TD*%
D14*
%TO.P,J2,1,Pin_1*%
%TO.N,unconnected-(J2-Pin_1-Pad1)*%
X77500000Y-71780000D03*
D15*
%TO.P,J2,2,Pin_2*%
%TO.N,unconnected-(J2-Pin_2-Pad2)*%
X77500000Y-74320000D03*
%TO.P,J2,3,Pin_3*%
%TO.N,unconnected-(J2-Pin_3-Pad3)*%
X77500000Y-76860000D03*
%TO.P,J2,4,Pin_4*%
%TO.N,Net-(J2-Pin_4)*%
X77500000Y-79400000D03*
%TO.P,J2,5,Pin_5*%
%TO.N,Net-(J2-Pin_5)*%
X77500000Y-81940000D03*
%TO.P,J2,6,Pin_6*%
%TO.N,Net-(J2-Pin_6)*%
X77500000Y-84480000D03*
%TO.P,J2,7,Pin_7*%
%TO.N,GND*%
X77500000Y-87020000D03*
%TO.P,J2,8,Pin_8*%
X77500000Y-89560000D03*
%TD*%
D14*
%TO.P,J4,1,plus1*%
%TO.N,Net-(J4-plus1)*%
X132200000Y-102200000D03*
D15*
%TO.P,J4,2,plus2*%
X132200000Y-104740000D03*
%TO.P,J4,4,Pin_4*%
%TO.N,unconnected-(J4-Pin_4-Pad4)*%
X129660000Y-104740000D03*
%TO.P,J4,5,minus1*%
%TO.N,Net-(J4-minus1)*%
X127120000Y-102200000D03*
%TO.P,J4,6,minus2*%
X127120000Y-104740000D03*
%TD*%
D16*
%TO.P,U1,1,GPIO0*%
%TO.N,unconnected-(U1-GPIO0-Pad1)*%
X110305000Y-105825000D03*
%TO.P,U1,2,GPIO1*%
%TO.N,unconnected-(U1-GPIO1-Pad2)*%
X110305000Y-103285000D03*
%TO.P,U1,3,GND*%
%TO.N,GND*%
X110305000Y-100745000D03*
%TO.P,U1,4,GPIO2*%
%TO.N,unconnected-(U1-GPIO2-Pad4)*%
X110305000Y-98205000D03*
%TO.P,U1,5,GPIO3*%
%TO.N,unconnected-(U1-GPIO3-Pad5)*%
X110305000Y-95665000D03*
%TO.P,U1,6,GPIO4*%
%TO.N,unconnected-(U1-GPIO4-Pad6)*%
X110305000Y-93125000D03*
%TO.P,U1,7,GPIO5*%
%TO.N,unconnected-(U1-GPIO5-Pad7)*%
X110305000Y-90585000D03*
%TO.P,U1,8,GND*%
%TO.N,GND*%
X110305000Y-88045000D03*
%TO.P,U1,9,GPIO6*%
%TO.N,Net-(U1-GPIO6)*%
X110305000Y-85505000D03*
%TO.P,U1,10,GPIO7*%
%TO.N,Net-(U1-GPIO7)*%
X110305000Y-82965000D03*
%TO.P,U1,11,GPIO8*%
%TO.N,Net-(U1-GPIO8)*%
X110305000Y-80425000D03*
%TO.P,U1,12,GPIO9*%
%TO.N,unconnected-(U1-GPIO9-Pad12)*%
X110305000Y-77885000D03*
%TO.P,U1,13,GND*%
%TO.N,GND*%
X110305000Y-75345000D03*
%TO.P,U1,14,GPIO10*%
%TO.N,unconnected-(U1-GPIO10-Pad14)*%
X110305000Y-72805000D03*
%TO.P,U1,15,GPIO11*%
%TO.N,unconnected-(U1-GPIO11-Pad15)*%
X110305000Y-70265000D03*
%TO.P,U1,16,GPIO12*%
%TO.N,unconnected-(U1-GPIO12-Pad16)*%
X110305000Y-67725000D03*
%TO.P,U1,17,GPIO13*%
%TO.N,unconnected-(U1-GPIO13-Pad17)*%
X110305000Y-65185000D03*
%TO.P,U1,18,GND*%
%TO.N,GND*%
X110305000Y-62645000D03*
%TO.P,U1,19,GPIO14*%
%TO.N,unconnected-(U1-GPIO14-Pad19)*%
X110305000Y-60105000D03*
%TO.P,U1,20,GPIO15*%
%TO.N,unconnected-(U1-GPIO15-Pad20)*%
X110305000Y-57565000D03*
%TO.P,U1,21,GPIO16*%
%TO.N,unconnected-(U1-GPIO16-Pad21)*%
X87645000Y-57565000D03*
%TO.P,U1,22,GPIO17*%
%TO.N,unconnected-(U1-GPIO17-Pad22)*%
X87645000Y-60105000D03*
%TO.P,U1,23,GND*%
%TO.N,GND*%
X87645000Y-62645000D03*
%TO.P,U1,24,GPIO18*%
%TO.N,Net-(U1-GPIO18)*%
X87645000Y-65185000D03*
%TO.P,U1,25,GPIO19*%
%TO.N,Net-(U1-GPIO19)*%
X87645000Y-67725000D03*
%TO.P,U1,26,GPIO20*%
%TO.N,Net-(U1-GPIO20)*%
X87645000Y-70265000D03*
%TO.P,U1,27,GPIO21*%
%TO.N,Net-(U1-GPIO21)*%
X87645000Y-72805000D03*
%TO.P,U1,28,GND*%
%TO.N,GND*%
X87645000Y-75345000D03*
%TO.P,U1,29,GPIO22*%
%TO.N,Net-(D1-K)*%
X87645000Y-77885000D03*
%TO.P,U1,30,RUN*%
%TO.N,unconnected-(U1-RUN-Pad30)*%
X87645000Y-80425000D03*
%TO.P,U1,31,GPIO26_ADC0*%
%TO.N,unconnected-(U1-GPIO26_ADC0-Pad31)*%
X87645000Y-82965000D03*
%TO.P,U1,32,GPIO27_ADC1*%
%TO.N,unconnected-(U1-GPIO27_ADC1-Pad32)*%
X87645000Y-85505000D03*
%TO.P,U1,33,AGND*%
%TO.N,GND*%
X87645000Y-88045000D03*
%TO.P,U1,34,GPIO28_ADC2*%
%TO.N,unconnected-(U1-GPIO28_ADC2-Pad34)*%
X87645000Y-90585000D03*
%TO.P,U1,35,ADC_VREF*%
%TO.N,unconnected-(U1-ADC_VREF-Pad35)*%
X87645000Y-93125000D03*
%TO.P,U1,36,3V3*%
%TO.N,unconnected-(U1-3V3-Pad36)*%
X87645000Y-95665000D03*
%TO.P,U1,37,3V3_EN*%
%TO.N,unconnected-(U1-3V3_EN-Pad37)*%
X87645000Y-98205000D03*
%TO.P,U1,38,GND*%
%TO.N,GND*%
X87645000Y-100745000D03*
%TO.P,U1,39,VSYS*%
%TO.N,Net-(D5-K)*%
X87645000Y-103285000D03*
%TO.P,U1,40,VBUS*%
%TO.N,/VBus*%
X87645000Y-105825000D03*
%TD*%
D17*
%TO.P,U4,1,VI*%
%TO.N,VDD*%
X121580000Y-58300000D03*
D18*
%TO.P,U4,2,GND*%
%TO.N,GND*%
X119040000Y-58300000D03*
%TO.P,U4,3,VO*%
%TO.N,Net-(D5-A)*%
X116500000Y-58300000D03*
%TD*%
D14*
%TO.P,J5,1,plus1*%
%TO.N,Net-(J5-plus1)*%
X115775000Y-104740000D03*
D15*
%TO.P,J5,2,plus2*%
X115775000Y-102200000D03*
%TO.P,J5,4,Pin_4*%
%TO.N,unconnected-(J5-Pin_4-Pad4)*%
X118315000Y-102200000D03*
%TO.P,J5,5,minus1*%
%TO.N,Net-(J4-minus1)*%
X120855000Y-104740000D03*
%TO.P,J5,6,minus2*%
X120855000Y-102200000D03*
%TD*%
D19*
%TO.P,J8,1,minus1*%
%TO.N,GND*%
X139250000Y-60250000D03*
D20*
%TO.P,J8,2,plus*%
%TO.N,VDD*%
X139250000Y-65250000D03*
%TD*%
D21*
%TO.P,C3,1*%
%TO.N,VDD*%
X127600000Y-76000000D03*
D10*
%TO.P,C3,2*%
%TO.N,GND*%
X120100000Y-76000000D03*
%TD*%
D14*
%TO.P,J7,1,Pin_1*%
%TO.N,Net-(J7-Pin_1)*%
X133450000Y-59120000D03*
D15*
%TO.P,J7,2,Pin_2*%
%TO.N,/VBus*%
X133450000Y-61660000D03*
%TO.P,J7,3,Pin_3*%
%TO.N,GND*%
X133450000Y-64200000D03*
%TD*%
D10*
%TO.P,R17,1*%
%TO.N,VDD*%
X115800000Y-92200000D03*
D11*
%TO.P,R17,2*%
%TO.N,Net-(J5-plus1)*%
X115800000Y-97280000D03*
%TD*%
D14*
%TO.P,J6,1,Pin_1*%
%TO.N,Net-(J6-Pin_1)*%
X128800000Y-59120000D03*
D15*
%TO.P,J6,2,Pin_2*%
%TO.N,/VBus*%
X128800000Y-61660000D03*
%TO.P,J6,3,Pin_3*%
%TO.N,GND*%
X128800000Y-64200000D03*
%TD*%
D14*
%TO.P,J1,1,Pin_1*%
%TO.N,unconnected-(J1-Pin_1-Pad1)*%
X82500000Y-71700000D03*
D15*
%TO.P,J1,2,Pin_2*%
%TO.N,unconnected-(J1-Pin_2-Pad2)*%
X82500000Y-74240000D03*
%TO.P,J1,3,Pin_3*%
%TO.N,unconnected-(J1-Pin_3-Pad3)*%
X82500000Y-76780000D03*
%TO.P,J1,4,Pin_4*%
%TO.N,Net-(J1-Pin_4)*%
X82500000Y-79320000D03*
%TO.P,J1,5,Pin_5*%
%TO.N,Net-(J1-Pin_5)*%
X82500000Y-81860000D03*
%TO.P,J1,6,Pin_6*%
%TO.N,Net-(J1-Pin_6)*%
X82500000Y-84400000D03*
%TO.P,J1,7,Pin_7*%
%TO.N,GND*%
X82500000Y-86940000D03*
%TO.P,J1,8,Pin_8*%
X82500000Y-89480000D03*
%TD*%
D22*
%TO.N,GND*%
X80300000Y-88300000D03*
X112400000Y-95700000D03*
X118850000Y-62100000D03*
X76800000Y-59500000D03*
X124900000Y-72000000D03*
X136400000Y-82000000D03*
X127500000Y-69300000D03*
X112400000Y-103300000D03*
X127600000Y-83300000D03*
X108400000Y-98271428D03*
X91000000Y-63500000D03*
X103700000Y-58000000D03*
X81900000Y-104800000D03*
X108800000Y-57600000D03*
X91000000Y-74900000D03*
X79900000Y-79850000D03*
X117600000Y-75900000D03*
X89550000Y-91590000D03*
X141850000Y-82850000D03*
X108400000Y-105900000D03*
X142100000Y-100000000D03*
X112400000Y-100800000D03*
X119900000Y-73600000D03*
X112400000Y-87900000D03*
X96900000Y-92500000D03*
X85400000Y-90650000D03*
X108400000Y-95728571D03*
X133550000Y-75100000D03*
X85450000Y-96083333D03*
X83300000Y-57600000D03*
X142050000Y-73350000D03*
X117900000Y-84200000D03*
X126000000Y-58900000D03*
X118300000Y-74300000D03*
X112600000Y-60000000D03*
X133450000Y-80150000D03*
X146100000Y-58500000D03*
X120900000Y-80900000D03*
X120000000Y-78400000D03*
X85100000Y-81950000D03*
X142650000Y-58150000D03*
X80200000Y-59700000D03*
X135000000Y-102500000D03*
X131000000Y-59300000D03*
X133650000Y-77650000D03*
X137300000Y-88100000D03*
X125450000Y-77400000D03*
X97200000Y-83100000D03*
X131300000Y-72000000D03*
X108400000Y-103357142D03*
X137400000Y-71700000D03*
X112400000Y-90500000D03*
X108400000Y-90642857D03*
X100200000Y-80200000D03*
X135200000Y-98700000D03*
X121700000Y-77700000D03*
X118300000Y-77600000D03*
X80600000Y-100200000D03*
X96800000Y-97000000D03*
X108800000Y-60200000D03*
X121700000Y-94950000D03*
X82150000Y-92200000D03*
X134500000Y-105300000D03*
X92600000Y-100400000D03*
X92600000Y-92700000D03*
X95600000Y-78500000D03*
X108800000Y-65400000D03*
X121800000Y-74200000D03*
X93700000Y-65900000D03*
X136300000Y-85500000D03*
X108400000Y-93185714D03*
X103500000Y-77200000D03*
X143000000Y-66900000D03*
X113900000Y-73300000D03*
X147400000Y-91200000D03*
X115800000Y-79900000D03*
X85450000Y-101150000D03*
X126300000Y-94650000D03*
X112400000Y-98200000D03*
X85450000Y-98616666D03*
X96700000Y-87900000D03*
X107250000Y-79400000D03*
X112400000Y-92900000D03*
X92700000Y-97200000D03*
X116900000Y-67200000D03*
X102800000Y-71600000D03*
X137200000Y-91600000D03*
X96800000Y-102000000D03*
X92700000Y-81600000D03*
X134700000Y-94300000D03*
X89550000Y-99600000D03*
X112400000Y-105900000D03*
X85750000Y-76400000D03*
X112700000Y-57400000D03*
X108800000Y-62800000D03*
X108400000Y-88100000D03*
X90600000Y-60100000D03*
X105700000Y-68200000D03*
X89550000Y-94260000D03*
X85450000Y-93550000D03*
X125500000Y-67500000D03*
X76200000Y-99100000D03*
X84400000Y-60300000D03*
X147800000Y-99000000D03*
X125600000Y-63700000D03*
X131300000Y-63800000D03*
X95600000Y-57600000D03*
X140900000Y-105300000D03*
X108400000Y-100814285D03*
X89550000Y-86250000D03*
X84800000Y-87600000D03*
X92700000Y-87800000D03*
X99500000Y-74800000D03*
X112800000Y-83600000D03*
X118550000Y-88350000D03*
X128900000Y-80200000D03*
X75450000Y-92350000D03*
X75250000Y-82400000D03*
X146100000Y-71000000D03*
X78950000Y-93950000D03*
X113900000Y-76100000D03*
X89550000Y-96930000D03*
X108550000Y-75300000D03*
X146700000Y-78150000D03*
X93900000Y-72000000D03*
X89550000Y-88920000D03*
X142250000Y-62050000D03*
D23*
%TO.N,VDD*%
X128850000Y-71350000D03*
X127600000Y-72600000D03*
X135000000Y-89300000D03*
X121200000Y-89100000D03*
D22*
%TO.N,Net-(D1-K)*%
X89300000Y-77900000D03*
%TO.N,/VBus*%
X123800000Y-63200000D03*
X89400000Y-105900000D03*
X121000000Y-63200000D03*
%TO.N,Net-(D5-K)*%
X89500000Y-102900000D03*
%TO.N,Net-(U1-GPIO19)*%
X89500000Y-67700000D03*
%TO.N,Net-(U1-GPIO21)*%
X85800000Y-72800000D03*
%TO.N,Net-(U1-GPIO18)*%
X85800000Y-65000000D03*
%TO.N,Net-(U1-GPIO20)*%
X89600000Y-70200000D03*
%TO.N,Net-(U1-GPIO8)*%
X108800000Y-80500000D03*
%TO.N,Net-(J6-Pin_1)*%
X121100000Y-65100000D03*
X105700000Y-76600000D03*
X123800000Y-65100000D03*
X107400000Y-74800000D03*
%TO.N,Net-(J7-Pin_1)*%
X123800000Y-64200000D03*
X104800000Y-76000000D03*
X106800000Y-74000000D03*
X121000000Y-64200000D03*
%TO.N,Net-(U1-GPIO7)*%
X108800000Y-82900000D03*
%TO.N,Net-(U1-GPIO6)*%
X108900000Y-85800000D03*
%TD*%
D24*
%TO.N,VDD*%
X127600000Y-72600000D02*
X129100000Y-72600000D01*
X128850000Y-71350000D02*
X127600000Y-72600000D01*
X130900000Y-74400000D02*
X130900000Y-85200000D01*
X129100000Y-72600000D02*
X130900000Y-74400000D01*
X130900000Y-85200000D02*
X125100000Y-85200000D01*
X125100000Y-85200000D02*
X121200000Y-89100000D01*
X130900000Y-85200000D02*
X135000000Y-89300000D01*
D25*
%TO.N,Net-(D1-K)*%
X89300000Y-77900000D02*
X87560000Y-77900000D01*
X87560000Y-77900000D02*
X87545000Y-77885000D01*
%TO.N,/VBus*%
X89400000Y-105900000D02*
X87620000Y-105900000D01*
D26*
X121000000Y-63200000D02*
X123800000Y-63200000D01*
D25*
X87620000Y-105900000D02*
X87545000Y-105825000D01*
%TO.N,Net-(D5-K)*%
X89500000Y-102900000D02*
X89115000Y-103285000D01*
X89115000Y-103285000D02*
X87545000Y-103285000D01*
%TO.N,Net-(U1-GPIO19)*%
X87570000Y-67700000D02*
X87545000Y-67725000D01*
X89500000Y-67700000D02*
X87570000Y-67700000D01*
%TO.N,Net-(U1-GPIO21)*%
X85800000Y-72800000D02*
X87540000Y-72800000D01*
X87540000Y-72800000D02*
X87545000Y-72805000D01*
%TO.N,Net-(U1-GPIO18)*%
X87360000Y-65000000D02*
X87545000Y-65185000D01*
X85800000Y-65000000D02*
X87360000Y-65000000D01*
%TO.N,Net-(U1-GPIO20)*%
X89535000Y-70265000D02*
X87545000Y-70265000D01*
X89600000Y-70200000D02*
X89535000Y-70265000D01*
%TO.N,Net-(U1-GPIO8)*%
X108800000Y-80500000D02*
X110330000Y-80500000D01*
X110330000Y-80500000D02*
X110405000Y-80425000D01*
%TO.N,Net-(J6-Pin_1)*%
X107400000Y-74800000D02*
X105700000Y-76500000D01*
X105700000Y-76500000D02*
X105700000Y-76600000D01*
X123800000Y-65100000D02*
X121100000Y-65100000D01*
%TO.N,Net-(J7-Pin_1)*%
X123800000Y-64200000D02*
X121000000Y-64200000D01*
X106800000Y-74000000D02*
X104800000Y-76000000D01*
%TO.N,Net-(U1-GPIO7)*%
X110340000Y-82900000D02*
X110405000Y-82965000D01*
X108800000Y-82900000D02*
X110340000Y-82900000D01*
%TO.N,Net-(U1-GPIO6)*%
X108900000Y-85800000D02*
X110110000Y-85800000D01*
X110110000Y-85800000D02*
X110405000Y-85505000D01*
%TD*%
%TA.AperFunction,Conductor*%
%TO.N,GND*%
G36*
X147896082Y-56509477D02*
G01*
X147936390Y-56536390D01*
X149463681Y-58063681D01*
X149490561Y-58103909D01*
X149500000Y-58151362D01*
X149500000Y-104950964D01*
X149491311Y-104996564D01*
X149466463Y-105035772D01*
X149366407Y-105142499D01*
X148036671Y-106560883D01*
X147995581Y-106589821D01*
X147946380Y-106600074D01*
X111662191Y-106650469D01*
X111603115Y-106635585D01*
X111558257Y-106594362D01*
X111538446Y-106536751D01*
X111548461Y-106476664D01*
X111634157Y-106281300D01*
X111691134Y-106056305D01*
X111710300Y-105825000D01*
X111691134Y-105593695D01*
X111634157Y-105368700D01*
X111540924Y-105156151D01*
X111413979Y-104961847D01*
X111256784Y-104791087D01*
X111079180Y-104652852D01*
X111043943Y-104609460D01*
X111031343Y-104555000D01*
X111043943Y-104500540D01*
X111079181Y-104457146D01*
X111256784Y-104318913D01*
X111413979Y-104148153D01*
X111540924Y-103953849D01*
X111634157Y-103741300D01*
X111691134Y-103516305D01*
X111710300Y-103285000D01*
X111691134Y-103053695D01*
X111634157Y-102828700D01*
X111540924Y-102616151D01*
X111413979Y-102421847D01*
X111256784Y-102251087D01*
X111191146Y-102199999D01*
X114419340Y-102199999D01*
X114439936Y-102435407D01*
X114471327Y-102552559D01*
X114501097Y-102663663D01*
X114600965Y-102877830D01*
X114736505Y-103071401D01*
X114736508Y-103071404D01*
X114858430Y-103193326D01*
X114889726Y-103246072D01*
X114891915Y-103307365D01*
X114864462Y-103362209D01*
X114814083Y-103397189D01*
X114682669Y-103446204D01*
X114567454Y-103532454D01*
X114481204Y-103647668D01*
X114430909Y-103782516D01*
X114424500Y-103842130D01*
X114424500Y-105637869D01*
X114430909Y-105697484D01*
X114438578Y-105718045D01*
X114481204Y-105832331D01*
X114567454Y-105947546D01*
X114682669Y-106033796D01*
X114817517Y-106084091D01*
X114877127Y-106090500D01*
X116672872Y-106090499D01*
X116732483Y-106084091D01*
X116867331Y-106033796D01*
X116982546Y-105947546D01*
X117068796Y-105832331D01*
X117119091Y-105697483D01*
X117125500Y-105637873D01*
X117125499Y-103842128D01*
X117119091Y-103782517D01*
X117068796Y-103647669D01*
X116982546Y-103532454D01*
X116867331Y-103446204D01*
X116805898Y-103423291D01*
X116735916Y-103397189D01*
X116685537Y-103362209D01*
X116658084Y-103307365D01*
X116660273Y-103246072D01*
X116691566Y-103193329D01*
X116813495Y-103071401D01*
X116943426Y-102885839D01*
X116987743Y-102846975D01*
X117045000Y-102832964D01*
X117102257Y-102846975D01*
X117146573Y-102885839D01*
X117276505Y-103071401D01*
X117443599Y-103238495D01*
X117637170Y-103374035D01*
X117851337Y-103473903D01*
X118079592Y-103535063D01*
X118315000Y-103555659D01*
X118550408Y-103535063D01*
X118778663Y-103473903D01*
X118992830Y-103374035D01*
X119186401Y-103238495D01*
X119353495Y-103071401D01*
X119483426Y-102885839D01*
X119527743Y-102846975D01*
X119585000Y-102832964D01*
X119642257Y-102846975D01*
X119686573Y-102885839D01*
X119816505Y-103071401D01*
X119983599Y-103238495D01*
X120169160Y-103368426D01*
X120208024Y-103412743D01*
X120222035Y-103470000D01*
X120208024Y-103527257D01*
X120169159Y-103571575D01*
X120138738Y-103592875D01*
X120081958Y-103632634D01*
X119983595Y-103701508D01*
X119816505Y-103868598D01*
X119680965Y-104062170D01*
X119581097Y-104276336D01*
X119519936Y-104504592D01*
X119499340Y-104740000D01*
X119519936Y-104975407D01*
X119564708Y-105142499D01*
X119581097Y-105203663D01*
X119680965Y-105417830D01*
X119816505Y-105611401D01*
X119983599Y-105778495D01*
X120177170Y-105914035D01*
X120391337Y-106013903D01*
X120619592Y-106075063D01*
X120855000Y-106095659D01*
X121090408Y-106075063D01*
X121318663Y-106013903D01*
X121532830Y-105914035D01*
X121726401Y-105778495D01*
X121893495Y-105611401D01*
X122029035Y-105417830D01*
X122128903Y-105203663D01*
X122190063Y-104975408D01*
X122210659Y-104740000D01*
X125764340Y-104740000D01*
X125784936Y-104975407D01*
X125829708Y-105142499D01*
X125846097Y-105203663D01*
X125945965Y-105417830D01*
X126081505Y-105611401D01*
X126248599Y-105778495D01*
X126442170Y-105914035D01*
X126656337Y-106013903D01*
X126884592Y-106075063D01*
X127120000Y-106095659D01*
X127355408Y-106075063D01*
X127583663Y-106013903D01*
X127797830Y-105914035D01*
X127991401Y-105778495D01*
X128158495Y-105611401D01*
X128288426Y-105425839D01*
X128332743Y-105386975D01*
X128390000Y-105372964D01*
X128447257Y-105386975D01*
X128491573Y-105425839D01*
X128621505Y-105611401D01*
X128788599Y-105778495D01*
X128982170Y-105914035D01*
X129196337Y-106013903D01*
X129424592Y-106075063D01*
X129660000Y-106095659D01*
X129895408Y-106075063D01*
X130123663Y-106013903D01*
X130337830Y-105914035D01*
X130531401Y-105778495D01*
X130698495Y-105611401D01*
X130828426Y-105425839D01*
X130872743Y-105386975D01*
X130930000Y-105372964D01*
X130987257Y-105386975D01*
X131031573Y-105425839D01*
X131161505Y-105611401D01*
X131328599Y-105778495D01*
X131522170Y-105914035D01*
X131736337Y-106013903D01*
X131964592Y-106075063D01*
X132200000Y-106095659D01*
X132435408Y-106075063D01*
X132663663Y-106013903D01*
X132877830Y-105914035D01*
X133071401Y-105778495D01*
X133238495Y-105611401D01*
X133374035Y-105417830D01*
X133473903Y-105203663D01*
X133535063Y-104975408D01*
X133555659Y-104740000D01*
X133552079Y-104699087D01*
X133535063Y-104504592D01*
X133533977Y-104500540D01*
X133473903Y-104276337D01*
X133423274Y-104167764D01*
X144045787Y-104167764D01*
X144075413Y-104437016D01*
X144109998Y-104569304D01*
X144143928Y-104699088D01*
X144197720Y-104825670D01*
X144249871Y-104948392D01*
X144390982Y-105179611D01*
X144564253Y-105387818D01*
X144564255Y-105387820D01*
X144765998Y-105568582D01*
X144991910Y-105718044D01*
X145098211Y-105767876D01*
X145237177Y-105833021D01*
X145459807Y-105900000D01*
X145496569Y-105911060D01*
X145764561Y-105950500D01*
X145967631Y-105950500D01*
X145967634Y-105950500D01*
X146170156Y-105935677D01*
X146170156Y-105935676D01*
X146434553Y-105876780D01*
X146687558Y-105780014D01*
X146923777Y-105647441D01*
X147138177Y-105481888D01*
X147326186Y-105286881D01*
X147483799Y-105066579D01*
X147607656Y-104825675D01*
X147695118Y-104569305D01*
X147744319Y-104302933D01*
X147754212Y-104032235D01*
X147724586Y-103762982D01*
X147656072Y-103500912D01*
X147550130Y-103251610D01*
X147444943Y-103079255D01*
X147409017Y-103020388D01*
X147235746Y-102812181D01*
X147133700Y-102720748D01*
X147034002Y-102631418D01*
X146808090Y-102481956D01*
X146808086Y-102481954D01*
X146562822Y-102366978D01*
X146303437Y-102288941D01*
X146303431Y-102288940D01*
X146035439Y-102249500D01*
X145832369Y-102249500D01*
X145832366Y-102249500D01*
X145629843Y-102264322D01*
X145365449Y-102323219D01*
X145112441Y-102419986D01*
X144876223Y-102552559D01*
X144661825Y-102718109D01*
X144473813Y-102913120D01*
X144316201Y-103133420D01*
X144192342Y-103374329D01*
X144104881Y-103630695D01*
X144055680Y-103897066D01*
X144045787Y-104167764D01*
X133423274Y-104167764D01*
X133374035Y-104062171D01*
X133238495Y-103868599D01*
X133116569Y-103746673D01*
X133085273Y-103693927D01*
X133083084Y-103632634D01*
X133110537Y-103577789D01*
X133160916Y-103542810D01*
X133292331Y-103493796D01*
X133407546Y-103407546D01*
X133493796Y-103292331D01*
X133544091Y-103157483D01*
X133550500Y-103097873D01*
X133550499Y-101302128D01*
X133544091Y-101242517D01*
X133493796Y-101107669D01*
X133407546Y-100992454D01*
X133292331Y-100906204D01*
X133157483Y-100855909D01*
X133097873Y-100849500D01*
X133097869Y-100849500D01*
X131302130Y-100849500D01*
X131242515Y-100855909D01*
X131107669Y-100906204D01*
X130992454Y-100992454D01*
X130906204Y-101107668D01*
X130855909Y-101242516D01*
X130849500Y-101302130D01*
X130849500Y-103097869D01*
X130855909Y-103157484D01*
X130881056Y-103224907D01*
X130906204Y-103292331D01*
X130992454Y-103407546D01*
X131107669Y-103493796D01*
X131204244Y-103529816D01*
X131239082Y-103542810D01*
X131289462Y-103577789D01*
X131316915Y-103632634D01*
X131314726Y-103693926D01*
X131283431Y-103746673D01*
X131161505Y-103868599D01*
X131031574Y-104054160D01*
X130987255Y-104093026D01*
X130929999Y-104107036D01*
X130872742Y-104093025D01*
X130828426Y-104054161D01*
X130698495Y-103868599D01*
X130531401Y-103701505D01*
X130337830Y-103565965D01*
X130123663Y-103466097D01*
X130062502Y-103449709D01*
X129895407Y-103404936D01*
X129660000Y-103384340D01*
X129424592Y-103404936D01*
X129196336Y-103466097D01*
X128982170Y-103565965D01*
X128788598Y-103701505D01*
X128621508Y-103868595D01*
X128621507Y-103868597D01*
X128621505Y-103868599D01*
X128603290Y-103894613D01*
X128491574Y-104054160D01*
X128447255Y-104093026D01*
X128389999Y-104107036D01*
X128332742Y-104093025D01*
X128288426Y-104054161D01*
X128158495Y-103868599D01*
X127991401Y-103701505D01*
X127805839Y-103571573D01*
X127766975Y-103527257D01*
X127752964Y-103470000D01*
X127766975Y-103412743D01*
X127805839Y-103368426D01*
X127991401Y-103238495D01*
X128158495Y-103071401D01*
X128294035Y-102877830D01*
X128393903Y-102663663D01*
X128455063Y-102435408D01*
X128475659Y-102200000D01*
X128459445Y-102014683D01*
X128455063Y-101964592D01*
X128437046Y-101897351D01*
X128393903Y-101736337D01*
X128294035Y-101522171D01*
X128158495Y-101328599D01*
X127991401Y-101161505D01*
X127797830Y-101025965D01*
X127583663Y-100926097D01*
X127522501Y-100909709D01*
X127355407Y-100864936D01*
X127120000Y-100844340D01*
X126884592Y-100864936D01*
X126656336Y-100926097D01*
X126442170Y-101025965D01*
X126248598Y-101161505D01*
X126081505Y-101328598D01*
X125945965Y-101522170D01*
X125846097Y-101736336D01*
X125784936Y-101964592D01*
X125764340Y-102199999D01*
X125784936Y-102435407D01*
X125816327Y-102552559D01*
X125846097Y-102663663D01*
X125945965Y-102877830D01*
X126081505Y-103071401D01*
X126248599Y-103238495D01*
X126434160Y-103368426D01*
X126473024Y-103412743D01*
X126487035Y-103470000D01*
X126473024Y-103527257D01*
X126434159Y-103571575D01*
X126403738Y-103592875D01*
X126346958Y-103632634D01*
X126248595Y-103701508D01*
X126081505Y-103868598D01*
X125945965Y-104062170D01*
X125846097Y-104276336D01*
X125784936Y-104504592D01*
X125764340Y-104740000D01*
X122210659Y-104740000D01*
X122190063Y-104504592D01*
X122128903Y-104276337D01*
X122029035Y-104062171D01*
X121893495Y-103868599D01*
X121726401Y-103701505D01*
X121540839Y-103571573D01*
X121501975Y-103527257D01*
X121487964Y-103470000D01*
X121501975Y-103412743D01*
X121540839Y-103368426D01*
X121726401Y-103238495D01*
X121893495Y-103071401D01*
X122029035Y-102877830D01*
X122128903Y-102663663D01*
X122190063Y-102435408D01*
X122210659Y-102200000D01*
X122194445Y-102014683D01*
X122190063Y-101964592D01*
X122172046Y-101897351D01*
X122128903Y-101736337D01*
X122029035Y-101522171D01*
X121893495Y-101328599D01*
X121726401Y-101161505D01*
X121532830Y-101025965D01*
X121318663Y-100926097D01*
X121257501Y-100909709D01*
X121090407Y-100864936D01*
X120855000Y-100844340D01*
X120619592Y-100864936D01*
X120391336Y-100926097D01*
X120177170Y-101025965D01*
X119983598Y-101161505D01*
X119816508Y-101328595D01*
X119686574Y-101514160D01*
X119642255Y-101553026D01*
X119584999Y-101567036D01*
X119527742Y-101553025D01*
X119483426Y-101514161D01*
X119353495Y-101328599D01*
X119186401Y-101161505D01*
X118992830Y-101025965D01*
X118778663Y-100926097D01*
X118717501Y-100909709D01*
X118550407Y-100864936D01*
X118315000Y-100844340D01*
X118079592Y-100864936D01*
X117851336Y-100926097D01*
X117637170Y-101025965D01*
X117443598Y-101161505D01*
X117276508Y-101328595D01*
X117146574Y-101514160D01*
X117102255Y-101553026D01*
X117044999Y-101567036D01*
X116987742Y-101553025D01*
X116943426Y-101514161D01*
X116813495Y-101328599D01*
X116646401Y-101161505D01*
X116452830Y-101025965D01*
X116238663Y-100926097D01*
X116177501Y-100909709D01*
X116010407Y-100864936D01*
X115775000Y-100844340D01*
X115539592Y-100864936D01*
X115311336Y-100926097D01*
X115097170Y-101025965D01*
X114903598Y-101161505D01*
X114736505Y-101328598D01*
X114600965Y-101522170D01*
X114501097Y-101736336D01*
X114439936Y-101964592D01*
X114419340Y-102199999D01*
X111191146Y-102199999D01*
X111158015Y-102174212D01*
X111078774Y-102112536D01*
X111043536Y-102069144D01*
X111030936Y-102014683D01*
X111043535Y-101960223D01*
X111078773Y-101916830D01*
X111103798Y-101897351D01*
X110305000Y-101098553D01*
X109506199Y-101897351D01*
X109531224Y-101916828D01*
X109566463Y-101960221D01*
X109579063Y-102014682D01*
X109566464Y-102069143D01*
X109531226Y-102112536D01*
X109353216Y-102251086D01*
X109196020Y-102421848D01*
X109069076Y-102616150D01*
X108975844Y-102828696D01*
X108975842Y-102828700D01*
X108975843Y-102828700D01*
X108963402Y-102877830D01*
X108918865Y-103053700D01*
X108899699Y-103285000D01*
X108918865Y-103516299D01*
X108918865Y-103516301D01*
X108918866Y-103516305D01*
X108965766Y-103701508D01*
X108975844Y-103741303D01*
X109044169Y-103897067D01*
X109069076Y-103953849D01*
X109196021Y-104148153D01*
X109353216Y-104318913D01*
X109504955Y-104437016D01*
X109530819Y-104457146D01*
X109566057Y-104500540D01*
X109578657Y-104555000D01*
X109566057Y-104609460D01*
X109530819Y-104652854D01*
X109353215Y-104791087D01*
X109196020Y-104961848D01*
X109069076Y-105156150D01*
X108975844Y-105368696D01*
X108975842Y-105368700D01*
X108975843Y-105368700D01*
X108920383Y-105587707D01*
X108918865Y-105593700D01*
X108899699Y-105825000D01*
X108918865Y-106056299D01*
X108918865Y-106056301D01*
X108918866Y-106056305D01*
X108957775Y-106209952D01*
X108975844Y-106281303D01*
X109013522Y-106367200D01*
X109061535Y-106476658D01*
X109063188Y-106480425D01*
X109073212Y-106540432D01*
X109053488Y-106597984D01*
X109008763Y-106639228D01*
X108949804Y-106654235D01*
X90051128Y-106680484D01*
X89994784Y-106667031D01*
X89950698Y-106629453D01*
X89928493Y-106575949D01*
X89933015Y-106518198D01*
X89963273Y-106468804D01*
X90029816Y-106402262D01*
X90125789Y-106249522D01*
X90185368Y-106079255D01*
X90205565Y-105900000D01*
X90185368Y-105720745D01*
X90125789Y-105550478D01*
X90029816Y-105397738D01*
X90029815Y-105397737D01*
X90029814Y-105397735D01*
X89902264Y-105270185D01*
X89809714Y-105212032D01*
X89749522Y-105174211D01*
X89579255Y-105114632D01*
X89579253Y-105114631D01*
X89579251Y-105114631D01*
X89400000Y-105094434D01*
X89220748Y-105114631D01*
X89220745Y-105114631D01*
X89220745Y-105114632D01*
X89050478Y-105174211D01*
X89050477Y-105174211D01*
X89050473Y-105174213D01*
X89041780Y-105179675D01*
X88981177Y-105198562D01*
X88919168Y-105184984D01*
X88872005Y-105142500D01*
X88753979Y-104961847D01*
X88596784Y-104791087D01*
X88419180Y-104652852D01*
X88383943Y-104609460D01*
X88371343Y-104555000D01*
X88383943Y-104500540D01*
X88419181Y-104457146D01*
X88596784Y-104318913D01*
X88753979Y-104148153D01*
X88880924Y-103953849D01*
X88880924Y-103953847D01*
X88886543Y-103945248D01*
X88887803Y-103946071D01*
X88905460Y-103920612D01*
X88945260Y-103894613D01*
X88991918Y-103885500D01*
X89067513Y-103885500D01*
X89083697Y-103886560D01*
X89115000Y-103890682D01*
X89271762Y-103870044D01*
X89417841Y-103809536D01*
X89453053Y-103782517D01*
X89535175Y-103719502D01*
X89596770Y-103694661D01*
X89679255Y-103685368D01*
X89849522Y-103625789D01*
X90002262Y-103529816D01*
X90129816Y-103402262D01*
X90225789Y-103249522D01*
X90285368Y-103079255D01*
X90305565Y-102900000D01*
X90285368Y-102720745D01*
X90225789Y-102550478D01*
X90129816Y-102397738D01*
X90129815Y-102397737D01*
X90129814Y-102397735D01*
X90002264Y-102270185D01*
X89890563Y-102199999D01*
X89849522Y-102174211D01*
X89679255Y-102114632D01*
X89679253Y-102114631D01*
X89679251Y-102114631D01*
X89500000Y-102094434D01*
X89320748Y-102114631D01*
X89320745Y-102114631D01*
X89320745Y-102114632D01*
X89150478Y-102174211D01*
X89150476Y-102174211D01*
X89150476Y-102174212D01*
X88997735Y-102270185D01*
X88889505Y-102378416D01*
X88832264Y-102410941D01*
X88766442Y-102409580D01*
X88710594Y-102374718D01*
X88700510Y-102363764D01*
X88596784Y-102251087D01*
X88498015Y-102174212D01*
X88418774Y-102112536D01*
X88383536Y-102069144D01*
X88370936Y-102014683D01*
X88383535Y-101960223D01*
X88418773Y-101916830D01*
X88443798Y-101897351D01*
X87645000Y-101098553D01*
X86846199Y-101897351D01*
X86871224Y-101916828D01*
X86906463Y-101960221D01*
X86919063Y-102014682D01*
X86906464Y-102069143D01*
X86871226Y-102112536D01*
X86693216Y-102251086D01*
X86536020Y-102421848D01*
X86409076Y-102616150D01*
X86315844Y-102828696D01*
X86315842Y-102828700D01*
X86315843Y-102828700D01*
X86303402Y-102877830D01*
X86258865Y-103053700D01*
X86239699Y-103285000D01*
X86258865Y-103516299D01*
X86258865Y-103516301D01*
X86258866Y-103516305D01*
X86305766Y-103701508D01*
X86315844Y-103741303D01*
X86384169Y-103897067D01*
X86409076Y-103953849D01*
X86536021Y-104148153D01*
X86693216Y-104318913D01*
X86844955Y-104437016D01*
X86870819Y-104457146D01*
X86906057Y-104500540D01*
X86918657Y-104555000D01*
X86906057Y-104609460D01*
X86870819Y-104652854D01*
X86693215Y-104791087D01*
X86536020Y-104961848D01*
X86409076Y-105156150D01*
X86315844Y-105368696D01*
X86315842Y-105368700D01*
X86315843Y-105368700D01*
X86260383Y-105587707D01*
X86258865Y-105593700D01*
X86239699Y-105825000D01*
X86258865Y-106056299D01*
X86258865Y-106056301D01*
X86258866Y-106056305D01*
X86297775Y-106209952D01*
X86315844Y-106281303D01*
X86353522Y-106367200D01*
X86409076Y-106493849D01*
X86409085Y-106493863D01*
X86409092Y-106493886D01*
X86413204Y-106503259D01*
X86412233Y-106503684D01*
X86429170Y-106556517D01*
X86414374Y-106620627D01*
X86368863Y-106668142D01*
X86305450Y-106685686D01*
X76051462Y-106699928D01*
X76003917Y-106690522D01*
X75963609Y-106663609D01*
X74336428Y-105036428D01*
X74309498Y-104996078D01*
X74300109Y-104948486D01*
X74301770Y-104167764D01*
X76045787Y-104167764D01*
X76075413Y-104437016D01*
X76109998Y-104569304D01*
X76143928Y-104699088D01*
X76197720Y-104825670D01*
X76249871Y-104948392D01*
X76390982Y-105179611D01*
X76564253Y-105387818D01*
X76564255Y-105387820D01*
X76765998Y-105568582D01*
X76991910Y-105718044D01*
X77098211Y-105767876D01*
X77237177Y-105833021D01*
X77459807Y-105900000D01*
X77496569Y-105911060D01*
X77764561Y-105950500D01*
X77967631Y-105950500D01*
X77967634Y-105950500D01*
X78170156Y-105935677D01*
X78170156Y-105935676D01*
X78434553Y-105876780D01*
X78687558Y-105780014D01*
X78923777Y-105647441D01*
X79138177Y-105481888D01*
X79326186Y-105286881D01*
X79483799Y-105066579D01*
X79607656Y-104825675D01*
X79695118Y-104569305D01*
X79744319Y-104302933D01*
X79754212Y-104032235D01*
X79724586Y-103762982D01*
X79656072Y-103500912D01*
X79550130Y-103251610D01*
X79444943Y-103079255D01*
X79409017Y-103020388D01*
X79235746Y-102812181D01*
X79133700Y-102720748D01*
X79034002Y-102631418D01*
X78808090Y-102481956D01*
X78808086Y-102481954D01*
X78562822Y-102366978D01*
X78303437Y-102288941D01*
X78303431Y-102288940D01*
X78035439Y-102249500D01*
X77832369Y-102249500D01*
X77832366Y-102249500D01*
X77629843Y-102264322D01*
X77365449Y-102323219D01*
X77112441Y-102419986D01*
X76876223Y-102552559D01*
X76661825Y-102718109D01*
X76473813Y-102913120D01*
X76316201Y-103133420D01*
X76192342Y-103374329D01*
X76104881Y-103630695D01*
X76055680Y-103897066D01*
X76045787Y-104167764D01*
X74301770Y-104167764D01*
X74309053Y-100745000D01*
X86240201Y-100745000D01*
X86259361Y-100976217D01*
X86316319Y-101201139D01*
X86409516Y-101413609D01*
X86493812Y-101542633D01*
X87291447Y-100745001D01*
X87291447Y-100745000D01*
X87998553Y-100745000D01*
X88796186Y-101542634D01*
X88880483Y-101413607D01*
X88973680Y-101201138D01*
X89030638Y-100976217D01*
X89049798Y-100745000D01*
X108900201Y-100745000D01*
X108919361Y-100976217D01*
X108976319Y-101201139D01*
X109069516Y-101413609D01*
X109153812Y-101542633D01*
X109951447Y-100745001D01*
X110658553Y-100745001D01*
X111456186Y-101542634D01*
X111540483Y-101413607D01*
X111633680Y-101201138D01*
X111690638Y-100976217D01*
X111709798Y-100745000D01*
X111690638Y-100513782D01*
X111633680Y-100288860D01*
X111540484Y-100076392D01*
X111456186Y-99947364D01*
X110658553Y-100745000D01*
X110658553Y-100745001D01*
X109951447Y-100745001D01*
X109951447Y-100745000D01*
X109153812Y-99947365D01*
X109069516Y-100076390D01*
X108976319Y-100288860D01*
X108919361Y-100513782D01*
X108900201Y-100745000D01*
X89049798Y-100745000D01*
X89030638Y-100513782D01*
X88973680Y-100288860D01*
X88880484Y-100076392D01*
X88796186Y-99947364D01*
X87998553Y-100745000D01*
X87291447Y-100745000D01*
X86493812Y-99947365D01*
X86409516Y-100076390D01*
X86316319Y-100288860D01*
X86259361Y-100513782D01*
X86240201Y-100745000D01*
X74309053Y-100745000D01*
X74314457Y-98205000D01*
X86239699Y-98205000D01*
X86258865Y-98436299D01*
X86258865Y-98436301D01*
X86258866Y-98436305D01*
X86315843Y-98661300D01*
X86315844Y-98661303D01*
X86406242Y-98867388D01*
X86409076Y-98873849D01*
X86536021Y-99068153D01*
X86693216Y-99238913D01*
X86871228Y-99377465D01*
X86906465Y-99420856D01*
X86919064Y-99475318D01*
X86906463Y-99529779D01*
X86871223Y-99573172D01*
X86846200Y-99592646D01*
X86846200Y-99592647D01*
X87645000Y-100391447D01*
X87645001Y-100391447D01*
X88443799Y-99592648D01*
X88443798Y-99592647D01*
X88418775Y-99573171D01*
X88383536Y-99529777D01*
X88370936Y-99475317D01*
X88383535Y-99420856D01*
X88418771Y-99377465D01*
X88596784Y-99238913D01*
X88753979Y-99068153D01*
X88880924Y-98873849D01*
X88974157Y-98661300D01*
X89031134Y-98436305D01*
X89050300Y-98205000D01*
X108899699Y-98205000D01*
X108918865Y-98436299D01*
X108918865Y-98436301D01*
X108918866Y-98436305D01*
X108975843Y-98661300D01*
X108975844Y-98661303D01*
X109066242Y-98867388D01*
X109069076Y-98873849D01*
X109196021Y-99068153D01*
X109353216Y-99238913D01*
X109531228Y-99377465D01*
X109566465Y-99420856D01*
X109579064Y-99475318D01*
X109566463Y-99529779D01*
X109531223Y-99573172D01*
X109506200Y-99592646D01*
X109506200Y-99592647D01*
X110305000Y-100391447D01*
X110305001Y-100391447D01*
X111103799Y-99592648D01*
X111103798Y-99592647D01*
X111078775Y-99573171D01*
X111043536Y-99529777D01*
X111030936Y-99475317D01*
X111043535Y-99420856D01*
X111078771Y-99377465D01*
X111256784Y-99238913D01*
X111413979Y-99068153D01*
X111540924Y-98873849D01*
X111634157Y-98661300D01*
X111691134Y-98436305D01*
X111710300Y-98205000D01*
X111691134Y-97973695D01*
X111634157Y-97748700D01*
X111540924Y-97536151D01*
X111413979Y-97341847D01*
X111357045Y-97280000D01*
X114094731Y-97280000D01*
X114113777Y-97534154D01*
X114170492Y-97782637D01*
X114263608Y-98019891D01*
X114391038Y-98240607D01*
X114391041Y-98240612D01*
X114549950Y-98439877D01*
X114736783Y-98613232D01*
X114947366Y-98756805D01*
X115176996Y-98867389D01*
X115420542Y-98942513D01*
X115672565Y-98980500D01*
X115927435Y-98980500D01*
X116179458Y-98942513D01*
X116423004Y-98867389D01*
X116652634Y-98756805D01*
X116863217Y-98613232D01*
X117050050Y-98439877D01*
X117208959Y-98240612D01*
X117336393Y-98019888D01*
X117429508Y-97782637D01*
X117486222Y-97534157D01*
X117505268Y-97280000D01*
X119734731Y-97280000D01*
X119753777Y-97534154D01*
X119810492Y-97782637D01*
X119903608Y-98019891D01*
X120031038Y-98240607D01*
X120031041Y-98240612D01*
X120189950Y-98439877D01*
X120376783Y-98613232D01*
X120587366Y-98756805D01*
X120816996Y-98867389D01*
X121060542Y-98942513D01*
X121312565Y-98980500D01*
X121567435Y-98980500D01*
X121819458Y-98942513D01*
X122063004Y-98867389D01*
X122292634Y-98756805D01*
X122503217Y-98613232D01*
X122690050Y-98439877D01*
X122848959Y-98240612D01*
X122976393Y-98019888D01*
X123069508Y-97782637D01*
X123126222Y-97534157D01*
X123145268Y-97280000D01*
X125374731Y-97280000D01*
X125393777Y-97534154D01*
X125450492Y-97782637D01*
X125543608Y-98019891D01*
X125671038Y-98240607D01*
X125671041Y-98240612D01*
X125829950Y-98439877D01*
X126016783Y-98613232D01*
X126227366Y-98756805D01*
X126456996Y-98867389D01*
X126700542Y-98942513D01*
X126952565Y-98980500D01*
X127207435Y-98980500D01*
X127459458Y-98942513D01*
X127703004Y-98867389D01*
X127932634Y-98756805D01*
X128143217Y-98613232D01*
X128330050Y-98439877D01*
X128488959Y-98240612D01*
X128616393Y-98019888D01*
X128709508Y-97782637D01*
X128766222Y-97534157D01*
X128785268Y-97280000D01*
X131014731Y-97280000D01*
X131033777Y-97534154D01*
X131090492Y-97782637D01*
X131183608Y-98019891D01*
X131311038Y-98240607D01*
X131311041Y-98240612D01*
X131469950Y-98439877D01*
X131656783Y-98613232D01*
X131867366Y-98756805D01*
X132096996Y-98867389D01*
X132340542Y-98942513D01*
X132592565Y-98980500D01*
X132847435Y-98980500D01*
X133099458Y-98942513D01*
X133343004Y-98867389D01*
X133572634Y-98756805D01*
X133783217Y-98613232D01*
X133970050Y-98439877D01*
X134128959Y-98240612D01*
X134256393Y-98019888D01*
X134349508Y-97782637D01*
X134406222Y-97534157D01*
X134425268Y-97280000D01*
X134406222Y-97025843D01*
X134349508Y-96777363D01*
X134256393Y-96540112D01*
X134249487Y-96528151D01*
X134128961Y-96319392D01*
X134128959Y-96319388D01*
X133970050Y-96120123D01*
X133783217Y-95946768D01*
X133572634Y-95803195D01*
X133343004Y-95692611D01*
X133099458Y-95617487D01*
X132847435Y-95579500D01*
X132592565Y-95579500D01*
X132340542Y-95617487D01*
X132096996Y-95692611D01*
X131867366Y-95803195D01*
X131762074Y-95874981D01*
X131656781Y-95946769D01*
X131469950Y-96120123D01*
X131311038Y-96319392D01*
X131183608Y-96540108D01*
X131090492Y-96777362D01*
X131033777Y-97025845D01*
X131014731Y-97280000D01*
X128785268Y-97280000D01*
X128766222Y-97025843D01*
X128709508Y-96777363D01*
X128616393Y-96540112D01*
X128609487Y-96528151D01*
X128488961Y-96319392D01*
X128488959Y-96319388D01*
X128330050Y-96120123D01*
X128143217Y-95946768D01*
X127932634Y-95803195D01*
X127703004Y-95692611D01*
X127459458Y-95617487D01*
X127207435Y-95579500D01*
X126952565Y-95579500D01*
X126700542Y-95617487D01*
X126456996Y-95692611D01*
X126227366Y-95803195D01*
X126122074Y-95874981D01*
X126016781Y-95946769D01*
X125829950Y-96120123D01*
X125671038Y-96319392D01*
X125543608Y-96540108D01*
X125450492Y-96777362D01*
X125393777Y-97025845D01*
X125374731Y-97280000D01*
X123145268Y-97280000D01*
X123126222Y-97025843D01*
X123069508Y-96777363D01*
X122976393Y-96540112D01*
X122969487Y-96528151D01*
X122848961Y-96319392D01*
X122848959Y-96319388D01*
X122690050Y-96120123D01*
X122503217Y-95946768D01*
X122292634Y-95803195D01*
X122063004Y-95692611D01*
X121819458Y-95617487D01*
X121567435Y-95579500D01*
X121312565Y-95579500D01*
X121060542Y-95617487D01*
X120816996Y-95692611D01*
X120587366Y-95803195D01*
X120482074Y-95874981D01*
X120376781Y-95946769D01*
X120189950Y-96120123D01*
X120031038Y-96319392D01*
X119903608Y-96540108D01*
X119810492Y-96777362D01*
X119753777Y-97025845D01*
X119734731Y-97280000D01*
X117505268Y-97280000D01*
X117486222Y-97025843D01*
X117429508Y-96777363D01*
X117336393Y-96540112D01*
X117329487Y-96528151D01*
X117208961Y-96319392D01*
X117208959Y-96319388D01*
X117050050Y-96120123D01*
X116863217Y-95946768D01*
X116652634Y-95803195D01*
X116423004Y-95692611D01*
X116179458Y-95617487D01*
X115927435Y-95579500D01*
X115672565Y-95579500D01*
X115420542Y-95617487D01*
X115176996Y-95692611D01*
X114947366Y-95803195D01*
X114842074Y-95874981D01*
X114736781Y-95946769D01*
X114549950Y-96120123D01*
X114391038Y-96319392D01*
X114263608Y-96540108D01*
X114170492Y-96777362D01*
X114113777Y-97025845D01*
X114094731Y-97280000D01*
X111357045Y-97280000D01*
X111256784Y-97171087D01*
X111079180Y-97032852D01*
X111043943Y-96989460D01*
X111031343Y-96935000D01*
X111043943Y-96880540D01*
X111079181Y-96837146D01*
X111256784Y-96698913D01*
X111413979Y-96528153D01*
X111540924Y-96333849D01*
X111634157Y-96121300D01*
X111691134Y-95896305D01*
X111710300Y-95665000D01*
X111691134Y-95433695D01*
X111634157Y-95208700D01*
X111540924Y-94996151D01*
X111413979Y-94801847D01*
X111256784Y-94631087D01*
X111079180Y-94492852D01*
X111043943Y-94449460D01*
X111031343Y-94395000D01*
X111043943Y-94340540D01*
X111079181Y-94297146D01*
X111256784Y-94158913D01*
X111413979Y-93988153D01*
X111540924Y-93793849D01*
X111634157Y-93581300D01*
X111691134Y-93356305D01*
X111710300Y-93125000D01*
X111691134Y-92893695D01*
X111634157Y-92668700D01*
X111540924Y-92456151D01*
X111413979Y-92261847D01*
X111357044Y-92199999D01*
X114094731Y-92199999D01*
X114113777Y-92454154D01*
X114170492Y-92702637D01*
X114263608Y-92939891D01*
X114391038Y-93160607D01*
X114391041Y-93160612D01*
X114549950Y-93359877D01*
X114736783Y-93533232D01*
X114947366Y-93676805D01*
X115176996Y-93787389D01*
X115420542Y-93862513D01*
X115672565Y-93900500D01*
X115927435Y-93900500D01*
X116179458Y-93862513D01*
X116423004Y-93787389D01*
X116652634Y-93676805D01*
X116863217Y-93533232D01*
X117050050Y-93359877D01*
X117208959Y-93160612D01*
X117336393Y-92939888D01*
X117429508Y-92702637D01*
X117486222Y-92454157D01*
X117505268Y-92200000D01*
X117486222Y-91945843D01*
X117429508Y-91697363D01*
X117336393Y-91460112D01*
X117329487Y-91448151D01*
X117208961Y-91239392D01*
X117208959Y-91239388D01*
X117050050Y-91040123D01*
X116863217Y-90866768D01*
X116652634Y-90723195D01*
X116423004Y-90612611D01*
X116179458Y-90537487D01*
X115927435Y-90499500D01*
X115672565Y-90499500D01*
X115420542Y-90537487D01*
X115176996Y-90612611D01*
X114984341Y-90705389D01*
X114947366Y-90723195D01*
X114873437Y-90773599D01*
X114736781Y-90866769D01*
X114549950Y-91040123D01*
X114391038Y-91239392D01*
X114263608Y-91460108D01*
X114170492Y-91697362D01*
X114113777Y-91945845D01*
X114094731Y-92199999D01*
X111357044Y-92199999D01*
X111256784Y-92091087D01*
X111079180Y-91952852D01*
X111043943Y-91909460D01*
X111031343Y-91855000D01*
X111043943Y-91800540D01*
X111079181Y-91757146D01*
X111256784Y-91618913D01*
X111413979Y-91448153D01*
X111540924Y-91253849D01*
X111634157Y-91041300D01*
X111691134Y-90816305D01*
X111710300Y-90585000D01*
X111691134Y-90353695D01*
X111634157Y-90128700D01*
X111540924Y-89916151D01*
X111413979Y-89721847D01*
X111256784Y-89551087D01*
X111235455Y-89534486D01*
X111078774Y-89412536D01*
X111043536Y-89369144D01*
X111030936Y-89314683D01*
X111043535Y-89260223D01*
X111078773Y-89216830D01*
X111103798Y-89197351D01*
X111068666Y-89162219D01*
X119695642Y-89162219D01*
X119726401Y-89408982D01*
X119797355Y-89647312D01*
X119906571Y-89870716D01*
X120051069Y-90073098D01*
X120226901Y-90248930D01*
X120429287Y-90393431D01*
X120617950Y-90485663D01*
X120668775Y-90531556D01*
X120687489Y-90597428D01*
X120668387Y-90663189D01*
X120617293Y-90708782D01*
X120587371Y-90723191D01*
X120376781Y-90866769D01*
X120189950Y-91040123D01*
X120031038Y-91239392D01*
X119903608Y-91460108D01*
X119810492Y-91697362D01*
X119753777Y-91945845D01*
X119734731Y-92199999D01*
X119753777Y-92454154D01*
X119810492Y-92702637D01*
X119903608Y-92939891D01*
X120031038Y-93160607D01*
X120031041Y-93160612D01*
X120189950Y-93359877D01*
X120376783Y-93533232D01*
X120587366Y-93676805D01*
X120816996Y-93787389D01*
X121060542Y-93862513D01*
X121312565Y-93900500D01*
X121567435Y-93900500D01*
X121819458Y-93862513D01*
X122063004Y-93787389D01*
X122292634Y-93676805D01*
X122503217Y-93533232D01*
X122690050Y-93359877D01*
X122848959Y-93160612D01*
X122976393Y-92939888D01*
X123069508Y-92702637D01*
X123126222Y-92454157D01*
X123145268Y-92200000D01*
X123145268Y-92199999D01*
X125374731Y-92199999D01*
X125393777Y-92454154D01*
X125450492Y-92702637D01*
X125543608Y-92939891D01*
X125671038Y-93160607D01*
X125671041Y-93160612D01*
X125829950Y-93359877D01*
X126016783Y-93533232D01*
X126227366Y-93676805D01*
X126456996Y-93787389D01*
X126700542Y-93862513D01*
X126952565Y-93900500D01*
X127207435Y-93900500D01*
X127459458Y-93862513D01*
X127703004Y-93787389D01*
X127932634Y-93676805D01*
X128143217Y-93533232D01*
X128330050Y-93359877D01*
X128488959Y-93160612D01*
X128616393Y-92939888D01*
X128709508Y-92702637D01*
X128766222Y-92454157D01*
X128785268Y-92200000D01*
X131014731Y-92200000D01*
X131033777Y-92454154D01*
X131090492Y-92702637D01*
X131183608Y-92939891D01*
X131311038Y-93160607D01*
X131311041Y-93160612D01*
X131469950Y-93359877D01*
X131656783Y-93533232D01*
X131867366Y-93676805D01*
X132096996Y-93787389D01*
X132340542Y-93862513D01*
X132592565Y-93900500D01*
X132847435Y-93900500D01*
X133099458Y-93862513D01*
X133343004Y-93787389D01*
X133572634Y-93676805D01*
X133783217Y-93533232D01*
X133970050Y-93359877D01*
X134128959Y-93160612D01*
X134256393Y-92939888D01*
X134349508Y-92702637D01*
X134406222Y-92454157D01*
X134425268Y-92200000D01*
X134406222Y-91945843D01*
X134349508Y-91697363D01*
X134256393Y-91460112D01*
X134249487Y-91448151D01*
X134128961Y-91239392D01*
X134128959Y-91239388D01*
X133970050Y-91040123D01*
X133783217Y-90866768D01*
X133572634Y-90723195D01*
X133343004Y-90612611D01*
X133099458Y-90537487D01*
X132847435Y-90499500D01*
X132592565Y-90499500D01*
X132340542Y-90537487D01*
X132096996Y-90612611D01*
X131904341Y-90705389D01*
X131867366Y-90723195D01*
X131793437Y-90773599D01*
X131656781Y-90866769D01*
X131469950Y-91040123D01*
X131311038Y-91239392D01*
X131183608Y-91460108D01*
X131090492Y-91697362D01*
X131033777Y-91945845D01*
X131014731Y-92200000D01*
X128785268Y-92200000D01*
X128766222Y-91945843D01*
X128709508Y-91697363D01*
X128616393Y-91460112D01*
X128609487Y-91448151D01*
X128488961Y-91239392D01*
X128488959Y-91239388D01*
X128330050Y-91040123D01*
X128143217Y-90866768D01*
X127932634Y-90723195D01*
X127703004Y-90612611D01*
X127459458Y-90537487D01*
X127207435Y-90499500D01*
X126952565Y-90499500D01*
X126700542Y-90537487D01*
X126456996Y-90612611D01*
X126264341Y-90705389D01*
X126227366Y-90723195D01*
X126153437Y-90773599D01*
X126016781Y-90866769D01*
X125829950Y-91040123D01*
X125671038Y-91239392D01*
X125543608Y-91460108D01*
X125450492Y-91697362D01*
X125393777Y-91945845D01*
X125374731Y-92199999D01*
X123145268Y-92199999D01*
X123126222Y-91945843D01*
X123069508Y-91697363D01*
X122976393Y-91460112D01*
X122969487Y-91448151D01*
X122848961Y-91239392D01*
X122848959Y-91239388D01*
X122690050Y-91040123D01*
X122503217Y-90866768D01*
X122292634Y-90723195D01*
X122063004Y-90612611D01*
X122019762Y-90599272D01*
X121970868Y-90570644D01*
X121939813Y-90523253D01*
X121933082Y-90466995D01*
X121952079Y-90413615D01*
X121992838Y-90374260D01*
X122074894Y-90325366D01*
X122217126Y-90204902D01*
X125685209Y-86736818D01*
X125725437Y-86709939D01*
X125772890Y-86700500D01*
X130227110Y-86700500D01*
X130274563Y-86709939D01*
X130314791Y-86736819D01*
X133982868Y-90404896D01*
X133982874Y-90404901D01*
X133982875Y-90404902D01*
X134125106Y-90525366D01*
X134338727Y-90652656D01*
X134570386Y-90743050D01*
X134813763Y-90794081D01*
X135043935Y-90803600D01*
X135062219Y-90804357D01*
X135062219Y-90804356D01*
X135062221Y-90804357D01*
X135308981Y-90773599D01*
X135547314Y-90702644D01*
X135770716Y-90593429D01*
X135973096Y-90448932D01*
X136148932Y-90273096D01*
X136293429Y-90070716D01*
X136402644Y-89847314D01*
X136473599Y-89608981D01*
X136504357Y-89362221D01*
X136494081Y-89113763D01*
X136443050Y-88870386D01*
X136352656Y-88638727D01*
X136225366Y-88425106D01*
X136104902Y-88282875D01*
X136104901Y-88282874D01*
X136104896Y-88282868D01*
X132436819Y-84614791D01*
X132409939Y-84574563D01*
X132400500Y-84527110D01*
X132400500Y-80649999D01*
X137822118Y-80649999D01*
X137842160Y-80904658D01*
X137901791Y-81153043D01*
X137956603Y-81285368D01*
X137999547Y-81389043D01*
X138133016Y-81606845D01*
X138298914Y-81801086D01*
X138493155Y-81966984D01*
X138710957Y-82100453D01*
X138885311Y-82172673D01*
X138946956Y-82198208D01*
X139025426Y-82217046D01*
X139195343Y-82257840D01*
X139450000Y-82277882D01*
X139704657Y-82257840D01*
X139953043Y-82198208D01*
X140189043Y-82100453D01*
X140406845Y-81966984D01*
X140406846Y-81966982D01*
X140408832Y-81965766D01*
X140415670Y-81960798D01*
X140460184Y-81922761D01*
X140463214Y-81918839D01*
X140601086Y-81801086D01*
X140735820Y-81643333D01*
X140748326Y-81633672D01*
X140778715Y-81598108D01*
X140912363Y-81380012D01*
X141010246Y-81143705D01*
X141069956Y-80894993D01*
X141089237Y-80649999D01*
X142878922Y-80649999D01*
X142897587Y-80899060D01*
X142953163Y-81142557D01*
X142968710Y-81182170D01*
X143044412Y-81375053D01*
X143169291Y-81591351D01*
X143325014Y-81786621D01*
X143325016Y-81786623D01*
X143325017Y-81786624D01*
X143508095Y-81956496D01*
X143508097Y-81956497D01*
X143508101Y-81956501D01*
X143714462Y-82097195D01*
X143939487Y-82205562D01*
X144178150Y-82279180D01*
X144425120Y-82316404D01*
X144674880Y-82316404D01*
X144921850Y-82279180D01*
X145160513Y-82205562D01*
X145385539Y-82097195D01*
X145591899Y-81956501D01*
X145774986Y-81786621D01*
X145930709Y-81591351D01*
X146055588Y-81375053D01*
X146146836Y-81142559D01*
X146202412Y-80899061D01*
X146221077Y-80650000D01*
X146220871Y-80647257D01*
X146202412Y-80400939D01*
X146184109Y-80320748D01*
X146146836Y-80157441D01*
X146055588Y-79924947D01*
X145930709Y-79708649D01*
X145774986Y-79513379D01*
X145774982Y-79513375D01*
X145591901Y-79343500D01*
X145458947Y-79252854D01*
X145385539Y-79202805D01*
X145160513Y-79094438D01*
X145039616Y-79057146D01*
X144921849Y-79020819D01*
X144674880Y-78983596D01*
X144425120Y-78983596D01*
X144178150Y-79020819D01*
X143939486Y-79094438D01*
X143714464Y-79202803D01*
X143508095Y-79343503D01*
X143325017Y-79513375D01*
X143169290Y-79708650D01*
X143044412Y-79924946D01*
X142953163Y-80157442D01*
X142897587Y-80400939D01*
X142878922Y-80649999D01*
X141089237Y-80649999D01*
X141090024Y-80640000D01*
X141069956Y-80385006D01*
X141010246Y-80136294D01*
X140912361Y-79899982D01*
X140778718Y-79681895D01*
X140768094Y-79669459D01*
X140758324Y-79667012D01*
X140718147Y-79635974D01*
X140688518Y-79601284D01*
X140601086Y-79498914D01*
X140464022Y-79381850D01*
X140432984Y-79341671D01*
X140430537Y-79331902D01*
X140418108Y-79321284D01*
X140200012Y-79187636D01*
X139963705Y-79089753D01*
X139714993Y-79030043D01*
X139460000Y-79009975D01*
X139205006Y-79030043D01*
X138956294Y-79089753D01*
X138719982Y-79187638D01*
X138501895Y-79321281D01*
X138466373Y-79351617D01*
X138456672Y-79364175D01*
X138298913Y-79498914D01*
X138181153Y-79636791D01*
X138177175Y-79639864D01*
X138139225Y-79684303D01*
X138134213Y-79691199D01*
X137999547Y-79910957D01*
X137901791Y-80146956D01*
X137842160Y-80395341D01*
X137822118Y-80649999D01*
X132400500Y-80649999D01*
X132400500Y-78100000D01*
X140469783Y-78100000D01*
X140488623Y-78339380D01*
X140544676Y-78572863D01*
X140573385Y-78642171D01*
X140636567Y-78794704D01*
X140762028Y-78999439D01*
X140917973Y-79182027D01*
X141100561Y-79337972D01*
X141305296Y-79463433D01*
X141425876Y-79513379D01*
X141527136Y-79555323D01*
X141554324Y-79561850D01*
X141760621Y-79611377D01*
X142000000Y-79630217D01*
X142239379Y-79611377D01*
X142472863Y-79555323D01*
X142694704Y-79463433D01*
X142899439Y-79337972D01*
X143082027Y-79182027D01*
X143237972Y-78999439D01*
X143363433Y-78794704D01*
X143455323Y-78572863D01*
X143511377Y-78339379D01*
X143530217Y-78100000D01*
X143511377Y-77860621D01*
X143461148Y-77651401D01*
X143455323Y-77627136D01*
X143422322Y-77547467D01*
X143363433Y-77405296D01*
X143237972Y-77200561D01*
X143082027Y-77017973D01*
X142899439Y-76862028D01*
X142694704Y-76736567D01*
X142627017Y-76708530D01*
X142472863Y-76644676D01*
X142239380Y-76588623D01*
X142000000Y-76569783D01*
X141760619Y-76588623D01*
X141527136Y-76644676D01*
X141305296Y-76736567D01*
X141100560Y-76862028D01*
X140917973Y-77017973D01*
X140762028Y-77200560D01*
X140636567Y-77405296D01*
X140544676Y-77627136D01*
X140488623Y-77860619D01*
X140469783Y-78100000D01*
X132400500Y-78100000D01*
X132400500Y-75550000D01*
X137809878Y-75550000D01*
X137830071Y-75806573D01*
X137890150Y-76056826D01*
X137942071Y-76182171D01*
X137988641Y-76294600D01*
X138123113Y-76514040D01*
X138290259Y-76709741D01*
X138485960Y-76876887D01*
X138705400Y-77011359D01*
X138873530Y-77081001D01*
X138943173Y-77109849D01*
X138992912Y-77121790D01*
X139193428Y-77169929D01*
X139450000Y-77190122D01*
X139450006Y-77190121D01*
X139454167Y-77190449D01*
X139454609Y-77190449D01*
X139714993Y-77169956D01*
X139963705Y-77110246D01*
X140200012Y-77012363D01*
X140418108Y-76878715D01*
X140451362Y-76850300D01*
X140463372Y-76834752D01*
X140609741Y-76709741D01*
X140734752Y-76563372D01*
X140750300Y-76551362D01*
X140778715Y-76518108D01*
X140912363Y-76300012D01*
X141010246Y-76063705D01*
X141069956Y-75814993D01*
X141090025Y-75560000D01*
X142909975Y-75560000D01*
X142930043Y-75814993D01*
X142989753Y-76063705D01*
X143087636Y-76300012D01*
X143221284Y-76518108D01*
X143224532Y-76521910D01*
X143241936Y-76522594D01*
X143291186Y-76534929D01*
X143331360Y-76565965D01*
X143424722Y-76675278D01*
X143496483Y-76736567D01*
X143534031Y-76768636D01*
X143565069Y-76808814D01*
X143577404Y-76858063D01*
X143578087Y-76875465D01*
X143581895Y-76878718D01*
X143799982Y-77012361D01*
X144036294Y-77110246D01*
X144285006Y-77169956D01*
X144540000Y-77190024D01*
X144794993Y-77169956D01*
X145043705Y-77110246D01*
X145280012Y-77012363D01*
X145498108Y-76878715D01*
X145501987Y-76875401D01*
X145514233Y-76826493D01*
X145545270Y-76786313D01*
X145675278Y-76675278D01*
X145769333Y-76565152D01*
X145809512Y-76534115D01*
X145854707Y-76522798D01*
X145858715Y-76518108D01*
X145992363Y-76300012D01*
X146090246Y-76063705D01*
X146149956Y-75814993D01*
X146170024Y-75560000D01*
X146149956Y-75305006D01*
X146090246Y-75056294D01*
X145992361Y-74819982D01*
X145858718Y-74601895D01*
X145850652Y-74592453D01*
X145827181Y-74586575D01*
X145787005Y-74555538D01*
X145675278Y-74424722D01*
X145544460Y-74312993D01*
X145513423Y-74272817D01*
X145507544Y-74249344D01*
X145498108Y-74241284D01*
X145280012Y-74107636D01*
X145043705Y-74009753D01*
X144794993Y-73950043D01*
X144540000Y-73929975D01*
X144285006Y-73950043D01*
X144036294Y-74009753D01*
X143799982Y-74107638D01*
X143581895Y-74241281D01*
X143577204Y-74245287D01*
X143565880Y-74290494D01*
X143534844Y-74330668D01*
X143424718Y-74424724D01*
X143313689Y-74554724D01*
X143273516Y-74585761D01*
X143224594Y-74598016D01*
X143221281Y-74601895D01*
X143087638Y-74819982D01*
X142989753Y-75056294D01*
X142930043Y-75305006D01*
X142909975Y-75560000D01*
X141090025Y-75560000D01*
X141090449Y-75554609D01*
X141090449Y-75554167D01*
X141090121Y-75550006D01*
X141090122Y-75550000D01*
X141069929Y-75293428D01*
X141009849Y-75043174D01*
X141000882Y-75021527D01*
X140981001Y-74973530D01*
X140911359Y-74805400D01*
X140776887Y-74585960D01*
X140609741Y-74390259D01*
X140414040Y-74223113D01*
X140194600Y-74088641D01*
X140102639Y-74050549D01*
X139956826Y-73990150D01*
X139706573Y-73930071D01*
X139450000Y-73909878D01*
X139193426Y-73930071D01*
X138943173Y-73990150D01*
X138705400Y-74088641D01*
X138485959Y-74223113D01*
X138290259Y-74390259D01*
X138123113Y-74585959D01*
X137988641Y-74805400D01*
X137890150Y-75043173D01*
X137830071Y-75293426D01*
X137809878Y-75550000D01*
X132400500Y-75550000D01*
X132400500Y-74500864D01*
X132401452Y-74485526D01*
X132404357Y-74462219D01*
X132400606Y-74371536D01*
X132400500Y-74366411D01*
X132400500Y-74337932D01*
X132398148Y-74309557D01*
X132397830Y-74304438D01*
X132394080Y-74213763D01*
X132389262Y-74190790D01*
X132387046Y-74175581D01*
X132385108Y-74152179D01*
X132362821Y-74064170D01*
X132361669Y-74059190D01*
X132343049Y-73970386D01*
X132334512Y-73948508D01*
X132329829Y-73933889D01*
X132324063Y-73911119D01*
X132287596Y-73827983D01*
X132285650Y-73823286D01*
X132252655Y-73738726D01*
X132240635Y-73718553D01*
X132233609Y-73704905D01*
X132224173Y-73683393D01*
X132174527Y-73607404D01*
X132171825Y-73603075D01*
X132125366Y-73525106D01*
X132110185Y-73507182D01*
X132101003Y-73494867D01*
X132088164Y-73475215D01*
X132026689Y-73408435D01*
X132023300Y-73404598D01*
X132016093Y-73396089D01*
X132004901Y-73382874D01*
X131984781Y-73362754D01*
X131981233Y-73359057D01*
X131951421Y-73326673D01*
X131919744Y-73292262D01*
X131901202Y-73277830D01*
X131889692Y-73267665D01*
X130359323Y-71737295D01*
X130328159Y-71684995D01*
X130325643Y-71624167D01*
X130344081Y-71536237D01*
X130354357Y-71287779D01*
X130323599Y-71041019D01*
X130252644Y-70802687D01*
X130143429Y-70579284D01*
X129998932Y-70376904D01*
X129998930Y-70376901D01*
X129823098Y-70201069D01*
X129620716Y-70056571D01*
X129397312Y-69947355D01*
X129158982Y-69876401D01*
X128912219Y-69845642D01*
X128672905Y-69855540D01*
X128663763Y-69855919D01*
X128602918Y-69868677D01*
X128420383Y-69906951D01*
X128188729Y-69997342D01*
X127975106Y-70124634D01*
X127832867Y-70245103D01*
X126562741Y-71515229D01*
X126559044Y-71518776D01*
X126492266Y-71580251D01*
X126436515Y-71651877D01*
X126433288Y-71655851D01*
X126374631Y-71725109D01*
X126362611Y-71745281D01*
X126353948Y-71757960D01*
X126339526Y-71776490D01*
X126296323Y-71856321D01*
X126293792Y-71860775D01*
X126247344Y-71938724D01*
X126238806Y-71960604D01*
X126232347Y-71974538D01*
X126221171Y-71995191D01*
X126191694Y-72081049D01*
X126189932Y-72085856D01*
X126156951Y-72170383D01*
X126152133Y-72193360D01*
X126148055Y-72208169D01*
X126140429Y-72230382D01*
X126125490Y-72319906D01*
X126124542Y-72324940D01*
X126105919Y-72413761D01*
X126104948Y-72437231D01*
X126103363Y-72452512D01*
X126099500Y-72475664D01*
X126099500Y-72566404D01*
X126099394Y-72571529D01*
X126095642Y-72662219D01*
X126098548Y-72685527D01*
X126099500Y-72700865D01*
X126099500Y-72724335D01*
X126114433Y-72813828D01*
X126115172Y-72818899D01*
X126126401Y-72908981D01*
X126133101Y-72931486D01*
X126136565Y-72946459D01*
X126140429Y-72969615D01*
X126169893Y-73055440D01*
X126171454Y-73060311D01*
X126192350Y-73130499D01*
X126197357Y-73147315D01*
X126207666Y-73168403D01*
X126213546Y-73182598D01*
X126221172Y-73204812D01*
X126264372Y-73284637D01*
X126266703Y-73289166D01*
X126273106Y-73302262D01*
X126306570Y-73370714D01*
X126320212Y-73389821D01*
X126328349Y-73402856D01*
X126339527Y-73423511D01*
X126395273Y-73495135D01*
X126398336Y-73499242D01*
X126451068Y-73573096D01*
X126467664Y-73589692D01*
X126477838Y-73601212D01*
X126492261Y-73619743D01*
X126559045Y-73681222D01*
X126562743Y-73684771D01*
X126626903Y-73748931D01*
X126646015Y-73762577D01*
X126657938Y-73772259D01*
X126675215Y-73788164D01*
X126736164Y-73827983D01*
X126751184Y-73837796D01*
X126755417Y-73840688D01*
X126829284Y-73893429D01*
X126841131Y-73899220D01*
X126850384Y-73903744D01*
X126863750Y-73911339D01*
X126883106Y-73923986D01*
X126883393Y-73924173D01*
X126966499Y-73960627D01*
X126971114Y-73962765D01*
X127052687Y-74002644D01*
X127075202Y-74009347D01*
X127089608Y-74014627D01*
X127111119Y-74024063D01*
X127199085Y-74046338D01*
X127204017Y-74047697D01*
X127234107Y-74056655D01*
X127292682Y-74094579D01*
X127321503Y-74158129D01*
X127311443Y-74227181D01*
X127265687Y-74279866D01*
X127198726Y-74299500D01*
X126352130Y-74299500D01*
X126292515Y-74305909D01*
X126157669Y-74356204D01*
X126042454Y-74442454D01*
X125956204Y-74557668D01*
X125905909Y-74692516D01*
X125899500Y-74752130D01*
X125899500Y-77247869D01*
X125905909Y-77307484D01*
X125931056Y-77374907D01*
X125956204Y-77442331D01*
X126042454Y-77557546D01*
X126157669Y-77643796D01*
X126292517Y-77694091D01*
X126352127Y-77700500D01*
X128847872Y-77700499D01*
X128907483Y-77694091D01*
X129042331Y-77643796D01*
X129157546Y-77557546D01*
X129176233Y-77532582D01*
X129223989Y-77494100D01*
X129284346Y-77483210D01*
X129342539Y-77502579D01*
X129384332Y-77547467D01*
X129399500Y-77606894D01*
X129399500Y-83575500D01*
X129382887Y-83637500D01*
X129337500Y-83682887D01*
X129275500Y-83699500D01*
X125200865Y-83699500D01*
X125185527Y-83698548D01*
X125162219Y-83695642D01*
X125075160Y-83699243D01*
X125071526Y-83699394D01*
X125066404Y-83699500D01*
X125037933Y-83699500D01*
X125033774Y-83699844D01*
X125009550Y-83701851D01*
X125004440Y-83702168D01*
X124913762Y-83705919D01*
X124890777Y-83710738D01*
X124875578Y-83712952D01*
X124852180Y-83714891D01*
X124764200Y-83737170D01*
X124759211Y-83738324D01*
X124670388Y-83756950D01*
X124661440Y-83760441D01*
X124648512Y-83765485D01*
X124633889Y-83770170D01*
X124611118Y-83775936D01*
X124528000Y-83812396D01*
X124523265Y-83814357D01*
X124438726Y-83847343D01*
X124418547Y-83859367D01*
X124404895Y-83866394D01*
X124383396Y-83875825D01*
X124307410Y-83925468D01*
X124303068Y-83928177D01*
X124289376Y-83936337D01*
X124225104Y-83974635D01*
X124207183Y-83989813D01*
X124194868Y-83998995D01*
X124175218Y-84011833D01*
X124108447Y-84073299D01*
X124104610Y-84076687D01*
X124082878Y-84095093D01*
X124062739Y-84115232D01*
X124059045Y-84118775D01*
X123992262Y-84180254D01*
X123977832Y-84198793D01*
X123967664Y-84210306D01*
X120095103Y-88082867D01*
X119974634Y-88225106D01*
X119847342Y-88438729D01*
X119756951Y-88670383D01*
X119705919Y-88913764D01*
X119695642Y-89162219D01*
X111068666Y-89162219D01*
X110305000Y-88398553D01*
X109506199Y-89197351D01*
X109531224Y-89216828D01*
X109566463Y-89260221D01*
X109579063Y-89314682D01*
X109566464Y-89369143D01*
X109531226Y-89412536D01*
X109353216Y-89551086D01*
X109196020Y-89721848D01*
X109069076Y-89916150D01*
X108975844Y-90128696D01*
X108975842Y-90128700D01*
X108975843Y-90128700D01*
X108940214Y-90269397D01*
X108918865Y-90353700D01*
X108899699Y-90585000D01*
X108918865Y-90816299D01*
X108918865Y-90816301D01*
X108918866Y-90816305D01*
X108975843Y-91041300D01*
X109069076Y-91253849D01*
X109196021Y-91448153D01*
X109339650Y-91604176D01*
X109353215Y-91618912D01*
X109530819Y-91757146D01*
X109566057Y-91800540D01*
X109578657Y-91855000D01*
X109566057Y-91909460D01*
X109530819Y-91952854D01*
X109353215Y-92091087D01*
X109196020Y-92261848D01*
X109069076Y-92456150D01*
X108975844Y-92668696D01*
X108918865Y-92893700D01*
X108899699Y-93125000D01*
X108918865Y-93356299D01*
X108918865Y-93356301D01*
X108918866Y-93356305D01*
X108975843Y-93581300D01*
X108975844Y-93581303D01*
X109066242Y-93787388D01*
X109069076Y-93793849D01*
X109196021Y-93988153D01*
X109339650Y-94144176D01*
X109353215Y-94158912D01*
X109530819Y-94297146D01*
X109566057Y-94340540D01*
X109578657Y-94395000D01*
X109566057Y-94449460D01*
X109530819Y-94492854D01*
X109353215Y-94631087D01*
X109196020Y-94801848D01*
X109069076Y-94996150D01*
X108975844Y-95208696D01*
X108918865Y-95433700D01*
X108899699Y-95665000D01*
X108918865Y-95896299D01*
X108918865Y-95896301D01*
X108918866Y-95896305D01*
X108975843Y-96121300D01*
X109069076Y-96333849D01*
X109196021Y-96528153D01*
X109353215Y-96698912D01*
X109353219Y-96698916D01*
X109530818Y-96837147D01*
X109566057Y-96880540D01*
X109578656Y-96935000D01*
X109566057Y-96989460D01*
X109530818Y-97032853D01*
X109353219Y-97171083D01*
X109196020Y-97341848D01*
X109069076Y-97536150D01*
X108975844Y-97748696D01*
X108918865Y-97973700D01*
X108899699Y-98205000D01*
X89050300Y-98205000D01*
X89031134Y-97973695D01*
X88974157Y-97748700D01*
X88880924Y-97536151D01*
X88753979Y-97341847D01*
X88596784Y-97171087D01*
X88419180Y-97032852D01*
X88383943Y-96989460D01*
X88371343Y-96935000D01*
X88383943Y-96880540D01*
X88419181Y-96837146D01*
X88596784Y-96698913D01*
X88753979Y-96528153D01*
X88880924Y-96333849D01*
X88974157Y-96121300D01*
X89031134Y-95896305D01*
X89050300Y-95665000D01*
X89031134Y-95433695D01*
X88974157Y-95208700D01*
X88880924Y-94996151D01*
X88753979Y-94801847D01*
X88596784Y-94631087D01*
X88419180Y-94492852D01*
X88383943Y-94449460D01*
X88371343Y-94395000D01*
X88383943Y-94340540D01*
X88419181Y-94297146D01*
X88596784Y-94158913D01*
X88753979Y-93988153D01*
X88880924Y-93793849D01*
X88974157Y-93581300D01*
X89031134Y-93356305D01*
X89050300Y-93125000D01*
X89031134Y-92893695D01*
X88974157Y-92668700D01*
X88880924Y-92456151D01*
X88753979Y-92261847D01*
X88596784Y-92091087D01*
X88419180Y-91952852D01*
X88383943Y-91909460D01*
X88371343Y-91855000D01*
X88383943Y-91800540D01*
X88419181Y-91757146D01*
X88596784Y-91618913D01*
X88753979Y-91448153D01*
X88880924Y-91253849D01*
X88974157Y-91041300D01*
X89031134Y-90816305D01*
X89050300Y-90585000D01*
X89031134Y-90353695D01*
X88974157Y-90128700D01*
X88880924Y-89916151D01*
X88753979Y-89721847D01*
X88596784Y-89551087D01*
X88575455Y-89534486D01*
X88418774Y-89412536D01*
X88383536Y-89369144D01*
X88370936Y-89314683D01*
X88383535Y-89260223D01*
X88418773Y-89216830D01*
X88443798Y-89197351D01*
X87645000Y-88398553D01*
X86846199Y-89197351D01*
X86871224Y-89216828D01*
X86906463Y-89260221D01*
X86919063Y-89314682D01*
X86906464Y-89369143D01*
X86871226Y-89412536D01*
X86693216Y-89551086D01*
X86536020Y-89721848D01*
X86409076Y-89916150D01*
X86315844Y-90128696D01*
X86315842Y-90128700D01*
X86315843Y-90128700D01*
X86280214Y-90269397D01*
X86258865Y-90353700D01*
X86239699Y-90585000D01*
X86258865Y-90816299D01*
X86258865Y-90816301D01*
X86258866Y-90816305D01*
X86315843Y-91041300D01*
X86409076Y-91253849D01*
X86536021Y-91448153D01*
X86679650Y-91604176D01*
X86693215Y-91618912D01*
X86870819Y-91757146D01*
X86906057Y-91800540D01*
X86918657Y-91855000D01*
X86906057Y-91909460D01*
X86870819Y-91952854D01*
X86693215Y-92091087D01*
X86536020Y-92261848D01*
X86409076Y-92456150D01*
X86315844Y-92668696D01*
X86258865Y-92893700D01*
X86239699Y-93125000D01*
X86258865Y-93356299D01*
X86258865Y-93356301D01*
X86258866Y-93356305D01*
X86315843Y-93581300D01*
X86315844Y-93581303D01*
X86406242Y-93787388D01*
X86409076Y-93793849D01*
X86536021Y-93988153D01*
X86679650Y-94144176D01*
X86693215Y-94158912D01*
X86870819Y-94297146D01*
X86906057Y-94340540D01*
X86918657Y-94395000D01*
X86906057Y-94449460D01*
X86870819Y-94492854D01*
X86693215Y-94631087D01*
X86536020Y-94801848D01*
X86409076Y-94996150D01*
X86315844Y-95208696D01*
X86258865Y-95433700D01*
X86239699Y-95665000D01*
X86258865Y-95896299D01*
X86258865Y-95896301D01*
X86258866Y-95896305D01*
X86315843Y-96121300D01*
X86409076Y-96333849D01*
X86536021Y-96528153D01*
X86693215Y-96698912D01*
X86693219Y-96698916D01*
X86870818Y-96837147D01*
X86906057Y-96880540D01*
X86918656Y-96935000D01*
X86906057Y-96989460D01*
X86870818Y-97032853D01*
X86693219Y-97171083D01*
X86536020Y-97341848D01*
X86409076Y-97536150D01*
X86315844Y-97748696D01*
X86258865Y-97973700D01*
X86239699Y-98205000D01*
X74314457Y-98205000D01*
X74343659Y-84479999D01*
X76144340Y-84479999D01*
X76164936Y-84715407D01*
X76197290Y-84836153D01*
X76226097Y-84943663D01*
X76325965Y-85157830D01*
X76461505Y-85351401D01*
X76628599Y-85518495D01*
X76814597Y-85648732D01*
X76853460Y-85693048D01*
X76867471Y-85750305D01*
X76853461Y-85807561D01*
X76814595Y-85851880D01*
X76628919Y-85981892D01*
X76461890Y-86148921D01*
X76326400Y-86342421D01*
X76226569Y-86556507D01*
X76169363Y-86770001D01*
X76174405Y-86776571D01*
X76195075Y-86817358D01*
X76199557Y-86862864D01*
X76187559Y-87000000D01*
X76202698Y-87173042D01*
X76198216Y-87218547D01*
X76177547Y-87259335D01*
X76169363Y-87269999D01*
X76226569Y-87483492D01*
X76326399Y-87697576D01*
X76461893Y-87891081D01*
X76628918Y-88058106D01*
X76815031Y-88188425D01*
X76853896Y-88232743D01*
X76867907Y-88290000D01*
X76853896Y-88347257D01*
X76815031Y-88391575D01*
X76628918Y-88521893D01*
X76461890Y-88688921D01*
X76326400Y-88882421D01*
X76226569Y-89096507D01*
X76166773Y-89319666D01*
X76167977Y-89322041D01*
X76172459Y-89367548D01*
X76156496Y-89550000D01*
X76174029Y-89750404D01*
X76169548Y-89795908D01*
X76166957Y-89801019D01*
X76226569Y-90023492D01*
X76326399Y-90237576D01*
X76461893Y-90431081D01*
X76628918Y-90598106D01*
X76822423Y-90733600D01*
X77036507Y-90833430D01*
X77255388Y-90892079D01*
X77274765Y-90882260D01*
X77320268Y-90877778D01*
X77480437Y-90891791D01*
X77499999Y-90893503D01*
X77499999Y-90893502D01*
X77500000Y-90893503D01*
X77679731Y-90877778D01*
X77725233Y-90882260D01*
X77744610Y-90892080D01*
X77963492Y-90833430D01*
X78177576Y-90733600D01*
X78371081Y-90598106D01*
X78538106Y-90431081D01*
X78673600Y-90237576D01*
X78773430Y-90023492D01*
X78833041Y-89801020D01*
X78830452Y-89795910D01*
X78825970Y-89750403D01*
X78843503Y-89550000D01*
X78827680Y-89369144D01*
X78827540Y-89367546D01*
X78832023Y-89322040D01*
X78833226Y-89319666D01*
X78773430Y-89096507D01*
X78673599Y-88882421D01*
X78538109Y-88688921D01*
X78371081Y-88521893D01*
X78184968Y-88391575D01*
X78146103Y-88347257D01*
X78132092Y-88290000D01*
X78146103Y-88232743D01*
X78184968Y-88188425D01*
X78371081Y-88058106D01*
X78538106Y-87891081D01*
X78673600Y-87697576D01*
X78773430Y-87483492D01*
X78830635Y-87270000D01*
X78822453Y-87259336D01*
X78801783Y-87218548D01*
X78797301Y-87173041D01*
X78812440Y-87000000D01*
X78800442Y-86862863D01*
X78804924Y-86817358D01*
X78825595Y-86776570D01*
X78830636Y-86770000D01*
X78773430Y-86556507D01*
X78673599Y-86342421D01*
X78538109Y-86148921D01*
X78371081Y-85981893D01*
X78185404Y-85851880D01*
X78146539Y-85807562D01*
X78132528Y-85750305D01*
X78146539Y-85693048D01*
X78185402Y-85648732D01*
X78371401Y-85518495D01*
X78538495Y-85351401D01*
X78674035Y-85157830D01*
X78773903Y-84943663D01*
X78835063Y-84715408D01*
X78855659Y-84480000D01*
X78848660Y-84399999D01*
X81144340Y-84399999D01*
X81164936Y-84635407D01*
X81209709Y-84802502D01*
X81226097Y-84863663D01*
X81325965Y-85077830D01*
X81461505Y-85271401D01*
X81628599Y-85438495D01*
X81814597Y-85568732D01*
X81853460Y-85613048D01*
X81867471Y-85670305D01*
X81853461Y-85727561D01*
X81814595Y-85771880D01*
X81628919Y-85901892D01*
X81461890Y-86068921D01*
X81326400Y-86262421D01*
X81226569Y-86476507D01*
X81163684Y-86711197D01*
X81166540Y-86739205D01*
X81149073Y-86949994D01*
X81165045Y-87142744D01*
X81162744Y-87165298D01*
X81216537Y-87366054D01*
X81216967Y-87367703D01*
X81223802Y-87394693D01*
X81225532Y-87399619D01*
X81226570Y-87403494D01*
X81263271Y-87482199D01*
X81264445Y-87484793D01*
X81285875Y-87533649D01*
X81310093Y-87588860D01*
X81311899Y-87592976D01*
X81317643Y-87601769D01*
X81326209Y-87617170D01*
X81326399Y-87617577D01*
X81348780Y-87649542D01*
X81350999Y-87652821D01*
X81376235Y-87691447D01*
X81433933Y-87779761D01*
X81453511Y-87801028D01*
X81460386Y-87809574D01*
X81471066Y-87820253D01*
X81474617Y-87823954D01*
X81585043Y-87943909D01*
X81622630Y-87973164D01*
X81625587Y-87975775D01*
X81626951Y-87976730D01*
X81632012Y-87980466D01*
X81761114Y-88080950D01*
X81800806Y-88102430D01*
X81846445Y-88144979D01*
X81865584Y-88204368D01*
X81853376Y-88265560D01*
X81812912Y-88313059D01*
X81628918Y-88441893D01*
X81461890Y-88608921D01*
X81326400Y-88802421D01*
X81226569Y-89016507D01*
X81169364Y-89229999D01*
X81206590Y-89278513D01*
X81203779Y-89280669D01*
X81219980Y-89298349D01*
X81232698Y-89364807D01*
X81225244Y-89450000D01*
X81237947Y-89595193D01*
X81225229Y-89661651D01*
X81204207Y-89684592D01*
X81169364Y-89730000D01*
X81226569Y-89943492D01*
X81326399Y-90157576D01*
X81461893Y-90351081D01*
X81628918Y-90518106D01*
X81822423Y-90653600D01*
X82036507Y-90753430D01*
X82249999Y-90810635D01*
X82259993Y-90802967D01*
X82268461Y-90773109D01*
X82318349Y-90727396D01*
X82384807Y-90714678D01*
X82500000Y-90724755D01*
X82615193Y-90714678D01*
X82681651Y-90727396D01*
X82731539Y-90773109D01*
X82740006Y-90802967D01*
X82750000Y-90810635D01*
X82963492Y-90753430D01*
X83177576Y-90653600D01*
X83371081Y-90518106D01*
X83538106Y-90351081D01*
X83673600Y-90157576D01*
X83773430Y-89943492D01*
X83830635Y-89730000D01*
X83795792Y-89684592D01*
X83774771Y-89661651D01*
X83762053Y-89595193D01*
X83774755Y-89450000D01*
X83767302Y-89364807D01*
X83780020Y-89298349D01*
X83796220Y-89280669D01*
X83793410Y-89278513D01*
X83830635Y-89229999D01*
X83773430Y-89016507D01*
X83673599Y-88802421D01*
X83538109Y-88608921D01*
X83371081Y-88441893D01*
X83187088Y-88313059D01*
X83146624Y-88265560D01*
X83134416Y-88204368D01*
X83153555Y-88144979D01*
X83199193Y-88102430D01*
X83238886Y-88080950D01*
X83285074Y-88045000D01*
X86240201Y-88045000D01*
X86259361Y-88276217D01*
X86316319Y-88501139D01*
X86409516Y-88713609D01*
X86493812Y-88842633D01*
X87291447Y-88045001D01*
X87291447Y-88045000D01*
X87998553Y-88045000D01*
X88796186Y-88842634D01*
X88880483Y-88713607D01*
X88973680Y-88501138D01*
X89030638Y-88276217D01*
X89049798Y-88045000D01*
X108900201Y-88045000D01*
X108919361Y-88276217D01*
X108976319Y-88501139D01*
X109069516Y-88713609D01*
X109153812Y-88842633D01*
X109951447Y-88045001D01*
X110658553Y-88045001D01*
X111456186Y-88842634D01*
X111540483Y-88713607D01*
X111633680Y-88501138D01*
X111690638Y-88276217D01*
X111709798Y-88045000D01*
X111690638Y-87813782D01*
X111633680Y-87588860D01*
X111540484Y-87376392D01*
X111456186Y-87247364D01*
X110658553Y-88045000D01*
X110658553Y-88045001D01*
X109951447Y-88045001D01*
X109951447Y-88045000D01*
X109153812Y-87247365D01*
X109069516Y-87376390D01*
X108976319Y-87588860D01*
X108919361Y-87813782D01*
X108900201Y-88045000D01*
X89049798Y-88045000D01*
X89030638Y-87813782D01*
X88973680Y-87588860D01*
X88880484Y-87376392D01*
X88796186Y-87247364D01*
X87998553Y-88045000D01*
X87291447Y-88045000D01*
X86493812Y-87247365D01*
X86409516Y-87376390D01*
X86316319Y-87588860D01*
X86259361Y-87813782D01*
X86240201Y-88045000D01*
X83285074Y-88045000D01*
X83367965Y-87980483D01*
X83373076Y-87976713D01*
X83374485Y-87975728D01*
X83377466Y-87973088D01*
X83414957Y-87943909D01*
X83525443Y-87823888D01*
X83528925Y-87820261D01*
X83539612Y-87809575D01*
X83546481Y-87801035D01*
X83566070Y-87779756D01*
X83649062Y-87652727D01*
X83651234Y-87649517D01*
X83673598Y-87617579D01*
X83673779Y-87617193D01*
X83682360Y-87601760D01*
X83688104Y-87592970D01*
X83735565Y-87484768D01*
X83736728Y-87482198D01*
X83773429Y-87403494D01*
X83774459Y-87399651D01*
X83776188Y-87394730D01*
X83777729Y-87388645D01*
X83783053Y-87367618D01*
X83783448Y-87366104D01*
X83837254Y-87165297D01*
X83834955Y-87142743D01*
X83850926Y-86950000D01*
X83833459Y-86739205D01*
X83836315Y-86711195D01*
X83773430Y-86476507D01*
X83673599Y-86262421D01*
X83538109Y-86068921D01*
X83371081Y-85901893D01*
X83185404Y-85771880D01*
X83146539Y-85727562D01*
X83132528Y-85670305D01*
X83146539Y-85613048D01*
X83185402Y-85568732D01*
X83276421Y-85505000D01*
X86239699Y-85505000D01*
X86258865Y-85736299D01*
X86258865Y-85736301D01*
X86258866Y-85736305D01*
X86266566Y-85766710D01*
X86315844Y-85961303D01*
X86398405Y-86149522D01*
X86409076Y-86173849D01*
X86536021Y-86368153D01*
X86693216Y-86538913D01*
X86871228Y-86677465D01*
X86906465Y-86720856D01*
X86919064Y-86775318D01*
X86906463Y-86829779D01*
X86871223Y-86873172D01*
X86846200Y-86892646D01*
X86846200Y-86892647D01*
X87645000Y-87691447D01*
X87645001Y-87691447D01*
X88443799Y-86892648D01*
X88443798Y-86892647D01*
X88418775Y-86873171D01*
X88383536Y-86829777D01*
X88370936Y-86775317D01*
X88383535Y-86720856D01*
X88418771Y-86677465D01*
X88596784Y-86538913D01*
X88753979Y-86368153D01*
X88880924Y-86173849D01*
X88974157Y-85961300D01*
X89031134Y-85736305D01*
X89050300Y-85505000D01*
X89031134Y-85273695D01*
X88974157Y-85048700D01*
X88880924Y-84836151D01*
X88753979Y-84641847D01*
X88596784Y-84471087D01*
X88419180Y-84332852D01*
X88383943Y-84289460D01*
X88371343Y-84235000D01*
X88383943Y-84180540D01*
X88419181Y-84137146D01*
X88596784Y-83998913D01*
X88753979Y-83828153D01*
X88880924Y-83633849D01*
X88974157Y-83421300D01*
X89031134Y-83196305D01*
X89050300Y-82965000D01*
X89044914Y-82900000D01*
X107994434Y-82900000D01*
X108014631Y-83079251D01*
X108014631Y-83079253D01*
X108014632Y-83079255D01*
X108074211Y-83249522D01*
X108074212Y-83249523D01*
X108170185Y-83402264D01*
X108297735Y-83529814D01*
X108297737Y-83529815D01*
X108297738Y-83529816D01*
X108450478Y-83625789D01*
X108620745Y-83685368D01*
X108800000Y-83705565D01*
X108979255Y-83685368D01*
X108988104Y-83682271D01*
X109042211Y-83676012D01*
X109093785Y-83693545D01*
X109132867Y-83731490D01*
X109196018Y-83828149D01*
X109196021Y-83828153D01*
X109353216Y-83998913D01*
X109507215Y-84118775D01*
X109530819Y-84137146D01*
X109566057Y-84180540D01*
X109578657Y-84235000D01*
X109566057Y-84289460D01*
X109530819Y-84332854D01*
X109353215Y-84471087D01*
X109196020Y-84641848D01*
X109069074Y-84836153D01*
X109031638Y-84921498D01*
X109001164Y-84963739D01*
X108956031Y-84989738D01*
X108904203Y-84994908D01*
X108899999Y-84994434D01*
X108720748Y-85014631D01*
X108720745Y-85014631D01*
X108720745Y-85014632D01*
X108550478Y-85074211D01*
X108550476Y-85074211D01*
X108550476Y-85074212D01*
X108397735Y-85170185D01*
X108270185Y-85297735D01*
X108174212Y-85450476D01*
X108114631Y-85620748D01*
X108094434Y-85799999D01*
X108114631Y-85979251D01*
X108114631Y-85979253D01*
X108114632Y-85979255D01*
X108174211Y-86149522D01*
X108189497Y-86173849D01*
X108270185Y-86302264D01*
X108397735Y-86429814D01*
X108397737Y-86429815D01*
X108397738Y-86429816D01*
X108550478Y-86525789D01*
X108720745Y-86585368D01*
X108900000Y-86605565D01*
X109079255Y-86585368D01*
X109245638Y-86527147D01*
X109306639Y-86521821D01*
X109362753Y-86546336D01*
X109531228Y-86677465D01*
X109566465Y-86720856D01*
X109579064Y-86775318D01*
X109566463Y-86829779D01*
X109531223Y-86873172D01*
X109506200Y-86892646D01*
X109506200Y-86892647D01*
X110305000Y-87691447D01*
X110305001Y-87691447D01*
X111103799Y-86892648D01*
X111103798Y-86892647D01*
X111078775Y-86873171D01*
X111043536Y-86829777D01*
X111030936Y-86775317D01*
X111043535Y-86720856D01*
X111078771Y-86677465D01*
X111256784Y-86538913D01*
X111413979Y-86368153D01*
X111540924Y-86173849D01*
X111634157Y-85961300D01*
X111691134Y-85736305D01*
X111710300Y-85505000D01*
X111691134Y-85273695D01*
X111634157Y-85048700D01*
X111540924Y-84836151D01*
X111413979Y-84641847D01*
X111256784Y-84471087D01*
X111079180Y-84332852D01*
X111043943Y-84289460D01*
X111031343Y-84235000D01*
X111043943Y-84180540D01*
X111079181Y-84137146D01*
X111256784Y-83998913D01*
X111413979Y-83828153D01*
X111540924Y-83633849D01*
X111634157Y-83421300D01*
X111691134Y-83196305D01*
X111710300Y-82965000D01*
X111691134Y-82733695D01*
X111634157Y-82508700D01*
X111540924Y-82296151D01*
X111413979Y-82101847D01*
X111256784Y-81931087D01*
X111079180Y-81792852D01*
X111043943Y-81749460D01*
X111031343Y-81695000D01*
X111043943Y-81640540D01*
X111079181Y-81597146D01*
X111256784Y-81458913D01*
X111413979Y-81288153D01*
X111540924Y-81093849D01*
X111634157Y-80881300D01*
X111691134Y-80656305D01*
X111710300Y-80425000D01*
X111691134Y-80193695D01*
X111634157Y-79968700D01*
X111540924Y-79756151D01*
X111413979Y-79561847D01*
X111256784Y-79391087D01*
X111079180Y-79252852D01*
X111043943Y-79209460D01*
X111031343Y-79155000D01*
X111043943Y-79100540D01*
X111079181Y-79057146D01*
X111256784Y-78918913D01*
X111413979Y-78748153D01*
X111540924Y-78553849D01*
X111634157Y-78341300D01*
X111691134Y-78116305D01*
X111710300Y-77885000D01*
X111691134Y-77653695D01*
X111634157Y-77428700D01*
X111540924Y-77216151D01*
X111413979Y-77021847D01*
X111256784Y-76851087D01*
X111228426Y-76829015D01*
X111078774Y-76712536D01*
X111043536Y-76669144D01*
X111030936Y-76614683D01*
X111043535Y-76560223D01*
X111078773Y-76516830D01*
X111103798Y-76497351D01*
X110305000Y-75698553D01*
X109506199Y-76497351D01*
X109531224Y-76516828D01*
X109566463Y-76560221D01*
X109579063Y-76614682D01*
X109566464Y-76669143D01*
X109531226Y-76712536D01*
X109353216Y-76851086D01*
X109196020Y-77021848D01*
X109069076Y-77216150D01*
X108975844Y-77428696D01*
X108975842Y-77428700D01*
X108975843Y-77428700D01*
X108925592Y-77627137D01*
X108918865Y-77653700D01*
X108899699Y-77885000D01*
X108918865Y-78116299D01*
X108918865Y-78116301D01*
X108918866Y-78116305D01*
X108975357Y-78339379D01*
X108975844Y-78341303D01*
X109002584Y-78402264D01*
X109069076Y-78553849D01*
X109196021Y-78748153D01*
X109353216Y-78918913D01*
X109511564Y-79042160D01*
X109530819Y-79057146D01*
X109566057Y-79100540D01*
X109578657Y-79155000D01*
X109566057Y-79209460D01*
X109530819Y-79252854D01*
X109353215Y-79391087D01*
X109196018Y-79561850D01*
X109127550Y-79666648D01*
X109088470Y-79704591D01*
X109036900Y-79722126D01*
X108982791Y-79715869D01*
X108979254Y-79714631D01*
X108800000Y-79694434D01*
X108620748Y-79714631D01*
X108620745Y-79714631D01*
X108620745Y-79714632D01*
X108450478Y-79774211D01*
X108450476Y-79774211D01*
X108450476Y-79774212D01*
X108297735Y-79870185D01*
X108170185Y-79997735D01*
X108083123Y-80136294D01*
X108074211Y-80150478D01*
X108059089Y-80193695D01*
X108014631Y-80320748D01*
X107994434Y-80499999D01*
X108014631Y-80679251D01*
X108014631Y-80679253D01*
X108014632Y-80679255D01*
X108074211Y-80849522D01*
X108106874Y-80901505D01*
X108170185Y-81002264D01*
X108297735Y-81129814D01*
X108297737Y-81129815D01*
X108297738Y-81129816D01*
X108450478Y-81225789D01*
X108620745Y-81285368D01*
X108800000Y-81305565D01*
X108979255Y-81285368D01*
X109064307Y-81255606D01*
X109111604Y-81248810D01*
X109157960Y-81260404D01*
X109196490Y-81288665D01*
X109353215Y-81458913D01*
X109530818Y-81597147D01*
X109566057Y-81640540D01*
X109578656Y-81695000D01*
X109566057Y-81749460D01*
X109530818Y-81792853D01*
X109353219Y-81931083D01*
X109189530Y-82108898D01*
X109151000Y-82137159D01*
X109104644Y-82148753D01*
X109057346Y-82141957D01*
X108979252Y-82114631D01*
X108800000Y-82094434D01*
X108620748Y-82114631D01*
X108620745Y-82114631D01*
X108620745Y-82114632D01*
X108450478Y-82174211D01*
X108450476Y-82174211D01*
X108450476Y-82174212D01*
X108297735Y-82270185D01*
X108170185Y-82397735D01*
X108074212Y-82550476D01*
X108014631Y-82720748D01*
X107994434Y-82900000D01*
X89044914Y-82900000D01*
X89031134Y-82733695D01*
X88974157Y-82508700D01*
X88880924Y-82296151D01*
X88753979Y-82101847D01*
X88596784Y-81931087D01*
X88419180Y-81792852D01*
X88383943Y-81749460D01*
X88371343Y-81695000D01*
X88383943Y-81640540D01*
X88419181Y-81597146D01*
X88596784Y-81458913D01*
X88753979Y-81288153D01*
X88880924Y-81093849D01*
X88974157Y-80881300D01*
X89031134Y-80656305D01*
X89050300Y-80425000D01*
X89031134Y-80193695D01*
X88974157Y-79968700D01*
X88880924Y-79756151D01*
X88753979Y-79561847D01*
X88596784Y-79391087D01*
X88419180Y-79252852D01*
X88383943Y-79209460D01*
X88371343Y-79155000D01*
X88383943Y-79100540D01*
X88419181Y-79057146D01*
X88596784Y-78918913D01*
X88753979Y-78748153D01*
X88802501Y-78673883D01*
X88841581Y-78635940D01*
X88893153Y-78618405D01*
X88947264Y-78624664D01*
X88950476Y-78625788D01*
X88950478Y-78625789D01*
X89036746Y-78655975D01*
X89120744Y-78685368D01*
X89300000Y-78705565D01*
X89479255Y-78685368D01*
X89649522Y-78625789D01*
X89802262Y-78529816D01*
X89929816Y-78402262D01*
X90025789Y-78249522D01*
X90085368Y-78079255D01*
X90105565Y-77900000D01*
X90085368Y-77720745D01*
X90025789Y-77550478D01*
X89929816Y-77397738D01*
X89929815Y-77397737D01*
X89929814Y-77397735D01*
X89802264Y-77270185D01*
X89716267Y-77216150D01*
X89649522Y-77174211D01*
X89479255Y-77114632D01*
X89479253Y-77114631D01*
X89479251Y-77114631D01*
X89300000Y-77094434D01*
X89120748Y-77114631D01*
X89120745Y-77114631D01*
X89120745Y-77114632D01*
X88963214Y-77169754D01*
X88909106Y-77176012D01*
X88857534Y-77158477D01*
X88818454Y-77120534D01*
X88753979Y-77021847D01*
X88596784Y-76851087D01*
X88568426Y-76829015D01*
X88418774Y-76712536D01*
X88383536Y-76669144D01*
X88370936Y-76614683D01*
X88383535Y-76560223D01*
X88418773Y-76516830D01*
X88443798Y-76497351D01*
X87645000Y-75698553D01*
X86846199Y-76497351D01*
X86871224Y-76516828D01*
X86906463Y-76560221D01*
X86919063Y-76614682D01*
X86906464Y-76669143D01*
X86871226Y-76712536D01*
X86693216Y-76851086D01*
X86536020Y-77021848D01*
X86409076Y-77216150D01*
X86315844Y-77428696D01*
X86315842Y-77428700D01*
X86315843Y-77428700D01*
X86265592Y-77627137D01*
X86258865Y-77653700D01*
X86239699Y-77885000D01*
X86258865Y-78116299D01*
X86258865Y-78116301D01*
X86258866Y-78116305D01*
X86315357Y-78339379D01*
X86315844Y-78341303D01*
X86342584Y-78402264D01*
X86409076Y-78553849D01*
X86536021Y-78748153D01*
X86693216Y-78918913D01*
X86851564Y-79042160D01*
X86870819Y-79057146D01*
X86906057Y-79100540D01*
X86918657Y-79155000D01*
X86906057Y-79209460D01*
X86870819Y-79252854D01*
X86693215Y-79391087D01*
X86536020Y-79561848D01*
X86409076Y-79756150D01*
X86315844Y-79968696D01*
X86258865Y-80193700D01*
X86239699Y-80425000D01*
X86258865Y-80656299D01*
X86258865Y-80656301D01*
X86258866Y-80656305D01*
X86307796Y-80849522D01*
X86315844Y-80881303D01*
X86324707Y-80901508D01*
X86409076Y-81093849D01*
X86536021Y-81288153D01*
X86635611Y-81396337D01*
X86693219Y-81458916D01*
X86870818Y-81597147D01*
X86906057Y-81640540D01*
X86918656Y-81695000D01*
X86906057Y-81749460D01*
X86870818Y-81792853D01*
X86693219Y-81931083D01*
X86536020Y-82101848D01*
X86409076Y-82296150D01*
X86315844Y-82508696D01*
X86315842Y-82508700D01*
X86315843Y-82508700D01*
X86262146Y-82720745D01*
X86258865Y-82733700D01*
X86239699Y-82965000D01*
X86258865Y-83196299D01*
X86258865Y-83196301D01*
X86258866Y-83196305D01*
X86315843Y-83421300D01*
X86315844Y-83421303D01*
X86324707Y-83441508D01*
X86409076Y-83633849D01*
X86536021Y-83828153D01*
X86693216Y-83998913D01*
X86847215Y-84118775D01*
X86870819Y-84137146D01*
X86906057Y-84180540D01*
X86918657Y-84235000D01*
X86906057Y-84289460D01*
X86870819Y-84332854D01*
X86693215Y-84471087D01*
X86536020Y-84641848D01*
X86409076Y-84836150D01*
X86315844Y-85048696D01*
X86258865Y-85273700D01*
X86239699Y-85505000D01*
X83276421Y-85505000D01*
X83371401Y-85438495D01*
X83538495Y-85271401D01*
X83674035Y-85077830D01*
X83773903Y-84863663D01*
X83835063Y-84635408D01*
X83855659Y-84400000D01*
X83835063Y-84164592D01*
X83773903Y-83936337D01*
X83674035Y-83722171D01*
X83538495Y-83528599D01*
X83371401Y-83361505D01*
X83185839Y-83231573D01*
X83146975Y-83187257D01*
X83132964Y-83130000D01*
X83146975Y-83072743D01*
X83185839Y-83028426D01*
X83371401Y-82898495D01*
X83538495Y-82731401D01*
X83674035Y-82537830D01*
X83773903Y-82323663D01*
X83835063Y-82095408D01*
X83855659Y-81860000D01*
X83835063Y-81624592D01*
X83773903Y-81396337D01*
X83674035Y-81182171D01*
X83538495Y-80988599D01*
X83371401Y-80821505D01*
X83185839Y-80691573D01*
X83146974Y-80647255D01*
X83132964Y-80589999D01*
X83146975Y-80532742D01*
X83185837Y-80488428D01*
X83371401Y-80358495D01*
X83538495Y-80191401D01*
X83674035Y-79997830D01*
X83773903Y-79783663D01*
X83835063Y-79555408D01*
X83855659Y-79320000D01*
X83845120Y-79199547D01*
X83835063Y-79084592D01*
X83773903Y-78856337D01*
X83674035Y-78642171D01*
X83538495Y-78448599D01*
X83371401Y-78281505D01*
X83185839Y-78151573D01*
X83146976Y-78107257D01*
X83132965Y-78050000D01*
X83146976Y-77992743D01*
X83185839Y-77948426D01*
X83371401Y-77818495D01*
X83538495Y-77651401D01*
X83674035Y-77457830D01*
X83773903Y-77243663D01*
X83835063Y-77015408D01*
X83855659Y-76780000D01*
X83835063Y-76544592D01*
X83773903Y-76316337D01*
X83674035Y-76102171D01*
X83538495Y-75908599D01*
X83371401Y-75741505D01*
X83185839Y-75611573D01*
X83146975Y-75567257D01*
X83132964Y-75510000D01*
X83146975Y-75452743D01*
X83185839Y-75408426D01*
X83276423Y-75344999D01*
X86240201Y-75344999D01*
X86259361Y-75576217D01*
X86316319Y-75801139D01*
X86409516Y-76013609D01*
X86493812Y-76142633D01*
X87291447Y-75345001D01*
X87291447Y-75345000D01*
X87998553Y-75345000D01*
X88796186Y-76142634D01*
X88880483Y-76013607D01*
X88886452Y-75999999D01*
X103994434Y-75999999D01*
X104014631Y-76179251D01*
X104014631Y-76179253D01*
X104014632Y-76179255D01*
X104074211Y-76349522D01*
X104074212Y-76349523D01*
X104170185Y-76502264D01*
X104297735Y-76629814D01*
X104297737Y-76629815D01*
X104297738Y-76629816D01*
X104450478Y-76725789D01*
X104620745Y-76785368D01*
X104728298Y-76797486D01*
X104799998Y-76805565D01*
X104799999Y-76805564D01*
X104800000Y-76805565D01*
X104820873Y-76803213D01*
X104875712Y-76809391D01*
X104922439Y-76838751D01*
X104951800Y-76885477D01*
X104974210Y-76949520D01*
X104974211Y-76949522D01*
X105013065Y-77011358D01*
X105070185Y-77102264D01*
X105197735Y-77229814D01*
X105197737Y-77229815D01*
X105197738Y-77229816D01*
X105350478Y-77325789D01*
X105520745Y-77385368D01*
X105700000Y-77405565D01*
X105879255Y-77385368D01*
X106049522Y-77325789D01*
X106202262Y-77229816D01*
X106329816Y-77102262D01*
X106425789Y-76949522D01*
X106485368Y-76779255D01*
X106497083Y-76675277D01*
X106507130Y-76586115D01*
X106509069Y-76586333D01*
X106512724Y-76553878D01*
X106542084Y-76507149D01*
X107418536Y-75630697D01*
X107452413Y-75606661D01*
X107492330Y-75595161D01*
X107579255Y-75585368D01*
X107749522Y-75525789D01*
X107902262Y-75429816D01*
X107987079Y-75344999D01*
X108900201Y-75344999D01*
X108919361Y-75576217D01*
X108976319Y-75801139D01*
X109069516Y-76013609D01*
X109153812Y-76142633D01*
X109951447Y-75345001D01*
X110658553Y-75345001D01*
X111456186Y-76142634D01*
X111540483Y-76013607D01*
X111546452Y-76000000D01*
X118019134Y-76000000D01*
X118038516Y-76283348D01*
X118096297Y-76561409D01*
X118191405Y-76829015D01*
X118322070Y-77081187D01*
X118485845Y-77313203D01*
X118485848Y-77313206D01*
X118485850Y-77313209D01*
X118679699Y-77520771D01*
X118900006Y-77700004D01*
X119142667Y-77847569D01*
X119403161Y-77960718D01*
X119676636Y-78037342D01*
X119957997Y-78076014D01*
X120242003Y-78076014D01*
X120523364Y-78037342D01*
X120796839Y-77960718D01*
X121057333Y-77847569D01*
X121299994Y-77700004D01*
X121520301Y-77520771D01*
X121714150Y-77313209D01*
X121849268Y-77121790D01*
X121877929Y-77081187D01*
X121877931Y-77081184D01*
X122008593Y-76829019D01*
X122079391Y-76629814D01*
X122103702Y-76561409D01*
X122161483Y-76283348D01*
X122161484Y-76283344D01*
X122180865Y-76000000D01*
X122161484Y-75716656D01*
X122134202Y-75585368D01*
X122103702Y-75438590D01*
X122008594Y-75170984D01*
X122008593Y-75170981D01*
X121877931Y-74918816D01*
X121877929Y-74918812D01*
X121714154Y-74686796D01*
X121714152Y-74686793D01*
X121714150Y-74686791D01*
X121520301Y-74479229D01*
X121299994Y-74299996D01*
X121057333Y-74152431D01*
X120796839Y-74039282D01*
X120550946Y-73970386D01*
X120523361Y-73962657D01*
X120242003Y-73923986D01*
X119957997Y-73923986D01*
X119676638Y-73962657D01*
X119504743Y-74010820D01*
X119403161Y-74039282D01*
X119403159Y-74039282D01*
X119403158Y-74039283D01*
X119142666Y-74152431D01*
X118900007Y-74299995D01*
X118679702Y-74479226D01*
X118679699Y-74479228D01*
X118679699Y-74479229D01*
X118616065Y-74547365D01*
X118485845Y-74686796D01*
X118322070Y-74918812D01*
X118191405Y-75170984D01*
X118096297Y-75438590D01*
X118038516Y-75716651D01*
X118019134Y-76000000D01*
X111546452Y-76000000D01*
X111633680Y-75801138D01*
X111690638Y-75576217D01*
X111709798Y-75344999D01*
X111690638Y-75113782D01*
X111633680Y-74888860D01*
X111540484Y-74676392D01*
X111456186Y-74547364D01*
X110658553Y-75345000D01*
X110658553Y-75345001D01*
X109951447Y-75345001D01*
X109951447Y-75345000D01*
X109153812Y-74547365D01*
X109069516Y-74676390D01*
X108976319Y-74888860D01*
X108919361Y-75113782D01*
X108900201Y-75344999D01*
X107987079Y-75344999D01*
X108029816Y-75302262D01*
X108125789Y-75149522D01*
X108185368Y-74979255D01*
X108205565Y-74800000D01*
X108185368Y-74620745D01*
X108125789Y-74450478D01*
X108029816Y-74297738D01*
X108029815Y-74297737D01*
X108029814Y-74297735D01*
X107902264Y-74170185D01*
X107749519Y-74074209D01*
X107681902Y-74050549D01*
X107625909Y-74010820D01*
X107599637Y-73947391D01*
X107595550Y-73911119D01*
X107585368Y-73820745D01*
X107525789Y-73650478D01*
X107429816Y-73497738D01*
X107429815Y-73497737D01*
X107429814Y-73497735D01*
X107302264Y-73370185D01*
X107173370Y-73289196D01*
X107149522Y-73274211D01*
X106979255Y-73214632D01*
X106979253Y-73214631D01*
X106979251Y-73214631D01*
X106800000Y-73194434D01*
X106620748Y-73214631D01*
X106620745Y-73214631D01*
X106620745Y-73214632D01*
X106450478Y-73274211D01*
X106450476Y-73274211D01*
X106450476Y-73274212D01*
X106297735Y-73370185D01*
X106170185Y-73497735D01*
X106074212Y-73650476D01*
X106074211Y-73650478D01*
X106034986Y-73762577D01*
X106014631Y-73820748D01*
X106004837Y-73907669D01*
X105993337Y-73947586D01*
X105969298Y-73981465D01*
X104781465Y-75169298D01*
X104747586Y-75193337D01*
X104707669Y-75204837D01*
X104620748Y-75214631D01*
X104620745Y-75214631D01*
X104620745Y-75214632D01*
X104450478Y-75274211D01*
X104450476Y-75274211D01*
X104450476Y-75274212D01*
X104297735Y-75370185D01*
X104170185Y-75497735D01*
X104102180Y-75605965D01*
X104074211Y-75650478D01*
X104019591Y-75806572D01*
X104014631Y-75820748D01*
X103994434Y-75999999D01*
X88886452Y-75999999D01*
X88973680Y-75801138D01*
X89030638Y-75576217D01*
X89049798Y-75344999D01*
X89030638Y-75113782D01*
X88973680Y-74888860D01*
X88880484Y-74676392D01*
X88796186Y-74547364D01*
X87998553Y-75345000D01*
X87291447Y-75345000D01*
X86493812Y-74547365D01*
X86409516Y-74676390D01*
X86316319Y-74888860D01*
X86259361Y-75113782D01*
X86240201Y-75344999D01*
X83276423Y-75344999D01*
X83371401Y-75278495D01*
X83538495Y-75111401D01*
X83674035Y-74917830D01*
X83773903Y-74703663D01*
X83835063Y-74475408D01*
X83855659Y-74240000D01*
X83835063Y-74004592D01*
X83773903Y-73776337D01*
X83674035Y-73562171D01*
X83538495Y-73368599D01*
X83416569Y-73246673D01*
X83385273Y-73193927D01*
X83383084Y-73132634D01*
X83410537Y-73077789D01*
X83460916Y-73042810D01*
X83592331Y-72993796D01*
X83707546Y-72907546D01*
X83788056Y-72799999D01*
X84994434Y-72799999D01*
X85014631Y-72979251D01*
X85014631Y-72979253D01*
X85014632Y-72979255D01*
X85074211Y-73149522D01*
X85074212Y-73149523D01*
X85170185Y-73302264D01*
X85297735Y-73429814D01*
X85297737Y-73429815D01*
X85297738Y-73429816D01*
X85450478Y-73525789D01*
X85620745Y-73585368D01*
X85800000Y-73605565D01*
X85979255Y-73585368D01*
X86149522Y-73525789D01*
X86254445Y-73459861D01*
X86315047Y-73440972D01*
X86377057Y-73454549D01*
X86424222Y-73497032D01*
X86536021Y-73668153D01*
X86693216Y-73838913D01*
X86871228Y-73977465D01*
X86906465Y-74020856D01*
X86919064Y-74075318D01*
X86906463Y-74129779D01*
X86871223Y-74173172D01*
X86846200Y-74192646D01*
X86846200Y-74192647D01*
X87645000Y-74991447D01*
X87645001Y-74991447D01*
X88443799Y-74192648D01*
X88443798Y-74192647D01*
X88418775Y-74173171D01*
X88383536Y-74129777D01*
X88370936Y-74075317D01*
X88383535Y-74020856D01*
X88418771Y-73977465D01*
X88596784Y-73838913D01*
X88753979Y-73668153D01*
X88880924Y-73473849D01*
X88974157Y-73261300D01*
X89031134Y-73036305D01*
X89050300Y-72805000D01*
X108899699Y-72805000D01*
X108918865Y-73036299D01*
X108918865Y-73036301D01*
X108918866Y-73036305D01*
X108960701Y-73201505D01*
X108975844Y-73261303D01*
X109039557Y-73406552D01*
X109069076Y-73473849D01*
X109196021Y-73668153D01*
X109353216Y-73838913D01*
X109531228Y-73977465D01*
X109566465Y-74020856D01*
X109579064Y-74075318D01*
X109566463Y-74129779D01*
X109531223Y-74173172D01*
X109506200Y-74192646D01*
X109506200Y-74192647D01*
X110305000Y-74991447D01*
X110305001Y-74991447D01*
X111103799Y-74192648D01*
X111103798Y-74192647D01*
X111078775Y-74173171D01*
X111043536Y-74129777D01*
X111030936Y-74075317D01*
X111043535Y-74020856D01*
X111078771Y-73977465D01*
X111256784Y-73838913D01*
X111413979Y-73668153D01*
X111540924Y-73473849D01*
X111634157Y-73261300D01*
X111691134Y-73036305D01*
X111710300Y-72805000D01*
X111691134Y-72573695D01*
X111634157Y-72348700D01*
X111540924Y-72136151D01*
X111413979Y-71941847D01*
X111256784Y-71771087D01*
X111079180Y-71632852D01*
X111043943Y-71589460D01*
X111031343Y-71535000D01*
X111043943Y-71480540D01*
X111079181Y-71437146D01*
X111256784Y-71298913D01*
X111413979Y-71128153D01*
X111540924Y-70933849D01*
X111634157Y-70721300D01*
X111691134Y-70496305D01*
X111710300Y-70265000D01*
X111691134Y-70033695D01*
X111634157Y-69808700D01*
X111540924Y-69596151D01*
X111413979Y-69401847D01*
X111256784Y-69231087D01*
X111079180Y-69092852D01*
X111043943Y-69049460D01*
X111031343Y-68995000D01*
X111043943Y-68940540D01*
X111079181Y-68897146D01*
X111256784Y-68758913D01*
X111413979Y-68588153D01*
X111540924Y-68393849D01*
X111634157Y-68181300D01*
X111691134Y-67956305D01*
X111710300Y-67725000D01*
X111691134Y-67493695D01*
X111634157Y-67268700D01*
X111540924Y-67056151D01*
X111413979Y-66861847D01*
X111256784Y-66691087D01*
X111079180Y-66552852D01*
X111043943Y-66509460D01*
X111031343Y-66455000D01*
X111043943Y-66400540D01*
X111079181Y-66357146D01*
X111256784Y-66218913D01*
X111413979Y-66048153D01*
X111540924Y-65853849D01*
X111634157Y-65641300D01*
X111691134Y-65416305D01*
X111710300Y-65185000D01*
X111691134Y-64953695D01*
X111634157Y-64728700D01*
X111540924Y-64516151D01*
X111413979Y-64321847D01*
X111256784Y-64151087D01*
X111179918Y-64091260D01*
X111078774Y-64012536D01*
X111043536Y-63969144D01*
X111030936Y-63914683D01*
X111043535Y-63860223D01*
X111078773Y-63816830D01*
X111103798Y-63797351D01*
X110305000Y-62998553D01*
X109506199Y-63797351D01*
X109531224Y-63816828D01*
X109566463Y-63860221D01*
X109579063Y-63914682D01*
X109566464Y-63969143D01*
X109531226Y-64012536D01*
X109353216Y-64151086D01*
X109196020Y-64321848D01*
X109069076Y-64516150D01*
X108975844Y-64728696D01*
X108975842Y-64728700D01*
X108975843Y-64728700D01*
X108920210Y-64948390D01*
X108918865Y-64953700D01*
X108899699Y-65185000D01*
X108918865Y-65416299D01*
X108918865Y-65416301D01*
X108918866Y-65416305D01*
X108972935Y-65629816D01*
X108975844Y-65641303D01*
X109059940Y-65833021D01*
X109069076Y-65853849D01*
X109196021Y-66048153D01*
X109276363Y-66135428D01*
X109353215Y-66218912D01*
X109530819Y-66357146D01*
X109566057Y-66400540D01*
X109578657Y-66455000D01*
X109566057Y-66509460D01*
X109530819Y-66552854D01*
X109353215Y-66691087D01*
X109196020Y-66861848D01*
X109069076Y-67056150D01*
X108975844Y-67268696D01*
X108918865Y-67493700D01*
X108899699Y-67725000D01*
X108918865Y-67956299D01*
X108918865Y-67956301D01*
X108918866Y-67956305D01*
X108975843Y-68181300D01*
X108975844Y-68181303D01*
X109054767Y-68361228D01*
X109069076Y-68393849D01*
X109196021Y-68588153D01*
X109339650Y-68744176D01*
X109353215Y-68758912D01*
X109530819Y-68897146D01*
X109566057Y-68940540D01*
X109578657Y-68995000D01*
X109566057Y-69049460D01*
X109530819Y-69092854D01*
X109353215Y-69231087D01*
X109196020Y-69401848D01*
X109069076Y-69596150D01*
X108975844Y-69808696D01*
X108975842Y-69808700D01*
X108975843Y-69808700D01*
X108922146Y-70020745D01*
X108918865Y-70033700D01*
X108899699Y-70265000D01*
X108918865Y-70496299D01*
X108918865Y-70496301D01*
X108918866Y-70496305D01*
X108975843Y-70721300D01*
X108975844Y-70721303D01*
X109046389Y-70882128D01*
X109069076Y-70933849D01*
X109196021Y-71128153D01*
X109339650Y-71284176D01*
X109353215Y-71298912D01*
X109530819Y-71437146D01*
X109566057Y-71480540D01*
X109578657Y-71535000D01*
X109566057Y-71589460D01*
X109530819Y-71632854D01*
X109353215Y-71771087D01*
X109196020Y-71941848D01*
X109069076Y-72136150D01*
X108975844Y-72348696D01*
X108975842Y-72348700D01*
X108975843Y-72348700D01*
X108920713Y-72566404D01*
X108918865Y-72573700D01*
X108899699Y-72805000D01*
X89050300Y-72805000D01*
X89031134Y-72573695D01*
X88974157Y-72348700D01*
X88880924Y-72136151D01*
X88753979Y-71941847D01*
X88596784Y-71771087D01*
X88419180Y-71632852D01*
X88383943Y-71589460D01*
X88371343Y-71535000D01*
X88383943Y-71480540D01*
X88419181Y-71437146D01*
X88596784Y-71298913D01*
X88753979Y-71128153D01*
X88880924Y-70933849D01*
X88880924Y-70933847D01*
X88886543Y-70925248D01*
X88887803Y-70926071D01*
X88905460Y-70900612D01*
X88945260Y-70874613D01*
X88991918Y-70865500D01*
X89118805Y-70865500D01*
X89184776Y-70884505D01*
X89250478Y-70925789D01*
X89420745Y-70985368D01*
X89600000Y-71005565D01*
X89779255Y-70985368D01*
X89949522Y-70925789D01*
X90102262Y-70829816D01*
X90229816Y-70702262D01*
X90325789Y-70549522D01*
X90385368Y-70379255D01*
X90405565Y-70200000D01*
X90385368Y-70020745D01*
X90325789Y-69850478D01*
X90229816Y-69697738D01*
X90229815Y-69697737D01*
X90229814Y-69697735D01*
X90102264Y-69570185D01*
X90039867Y-69530979D01*
X89949522Y-69474211D01*
X89779255Y-69414632D01*
X89779253Y-69414631D01*
X89779251Y-69414631D01*
X89600000Y-69394434D01*
X89420748Y-69414631D01*
X89420745Y-69414631D01*
X89420745Y-69414632D01*
X89250478Y-69474211D01*
X89250476Y-69474211D01*
X89250476Y-69474212D01*
X89097735Y-69570185D01*
X89064310Y-69603610D01*
X89018102Y-69632787D01*
X88963838Y-69639266D01*
X88912058Y-69621789D01*
X88872821Y-69583749D01*
X88753979Y-69401847D01*
X88596784Y-69231087D01*
X88419180Y-69092852D01*
X88383943Y-69049460D01*
X88371343Y-68995000D01*
X88383943Y-68940540D01*
X88419181Y-68897146D01*
X88596784Y-68758913D01*
X88753979Y-68588153D01*
X88877951Y-68398398D01*
X88925115Y-68355915D01*
X88987126Y-68342338D01*
X89047729Y-68361227D01*
X89150478Y-68425789D01*
X89320745Y-68485368D01*
X89500000Y-68505565D01*
X89679255Y-68485368D01*
X89849522Y-68425789D01*
X90002262Y-68329816D01*
X90129816Y-68202262D01*
X90225789Y-68049522D01*
X90285368Y-67879255D01*
X90305565Y-67700000D01*
X90285368Y-67520745D01*
X90225789Y-67350478D01*
X90129816Y-67197738D01*
X90129815Y-67197737D01*
X90129814Y-67197735D01*
X90002264Y-67070185D01*
X89849525Y-66974213D01*
X89849522Y-66974211D01*
X89679255Y-66914632D01*
X89679253Y-66914631D01*
X89679251Y-66914631D01*
X89500000Y-66894434D01*
X89320748Y-66914631D01*
X89320745Y-66914631D01*
X89320745Y-66914632D01*
X89150478Y-66974211D01*
X89150475Y-66974212D01*
X89150474Y-66974213D01*
X89024570Y-67053323D01*
X88963967Y-67072213D01*
X88901956Y-67058636D01*
X88854791Y-67016152D01*
X88753979Y-66861847D01*
X88596784Y-66691087D01*
X88419180Y-66552852D01*
X88383943Y-66509460D01*
X88371343Y-66455000D01*
X88383943Y-66400540D01*
X88419181Y-66357146D01*
X88596784Y-66218913D01*
X88753979Y-66048153D01*
X88880924Y-65853849D01*
X88974157Y-65641300D01*
X89031134Y-65416305D01*
X89050300Y-65185000D01*
X89031134Y-64953695D01*
X88974157Y-64728700D01*
X88880924Y-64516151D01*
X88753979Y-64321847D01*
X88596784Y-64151087D01*
X88519918Y-64091260D01*
X88418774Y-64012536D01*
X88383536Y-63969144D01*
X88370936Y-63914683D01*
X88383535Y-63860223D01*
X88418773Y-63816830D01*
X88443798Y-63797351D01*
X87645000Y-62998553D01*
X86846199Y-63797351D01*
X86871224Y-63816828D01*
X86906463Y-63860221D01*
X86919063Y-63914682D01*
X86906464Y-63969143D01*
X86871226Y-64012536D01*
X86693216Y-64151086D01*
X86536018Y-64321850D01*
X86521990Y-64343322D01*
X86477199Y-64384555D01*
X86418182Y-64399500D01*
X86382941Y-64399500D01*
X86335488Y-64390061D01*
X86314911Y-64376312D01*
X86314092Y-64377617D01*
X86225334Y-64321847D01*
X86149522Y-64274211D01*
X85979255Y-64214632D01*
X85979253Y-64214631D01*
X85979251Y-64214631D01*
X85800000Y-64194434D01*
X85620748Y-64214631D01*
X85620745Y-64214631D01*
X85620745Y-64214632D01*
X85450478Y-64274211D01*
X85450476Y-64274211D01*
X85450476Y-64274212D01*
X85297735Y-64370185D01*
X85170185Y-64497735D01*
X85125215Y-64569305D01*
X85074211Y-64650478D01*
X85014632Y-64820745D01*
X85014631Y-64820748D01*
X84994434Y-64999999D01*
X85014631Y-65179251D01*
X85014631Y-65179253D01*
X85014632Y-65179255D01*
X85074211Y-65349522D01*
X85104155Y-65397177D01*
X85170185Y-65502264D01*
X85297735Y-65629814D01*
X85297737Y-65629815D01*
X85297738Y-65629816D01*
X85450478Y-65725789D01*
X85620745Y-65785368D01*
X85800000Y-65805565D01*
X85979255Y-65785368D01*
X86149522Y-65725789D01*
X86187199Y-65702114D01*
X86236922Y-65684178D01*
X86289601Y-65688582D01*
X86335659Y-65714527D01*
X86366724Y-65757296D01*
X86387897Y-65805565D01*
X86409077Y-65853851D01*
X86429668Y-65885368D01*
X86536021Y-66048153D01*
X86616363Y-66135428D01*
X86693215Y-66218912D01*
X86870819Y-66357146D01*
X86906057Y-66400540D01*
X86918657Y-66455000D01*
X86906057Y-66509460D01*
X86870819Y-66552854D01*
X86693215Y-66691087D01*
X86536020Y-66861848D01*
X86409076Y-67056150D01*
X86315844Y-67268696D01*
X86258865Y-67493700D01*
X86239699Y-67725000D01*
X86258865Y-67956299D01*
X86258865Y-67956301D01*
X86258866Y-67956305D01*
X86315843Y-68181300D01*
X86315844Y-68181303D01*
X86394767Y-68361228D01*
X86409076Y-68393849D01*
X86536021Y-68588153D01*
X86679650Y-68744176D01*
X86693215Y-68758912D01*
X86870819Y-68897146D01*
X86906057Y-68940540D01*
X86918657Y-68995000D01*
X86906057Y-69049460D01*
X86870819Y-69092854D01*
X86693215Y-69231087D01*
X86536020Y-69401848D01*
X86409076Y-69596150D01*
X86315844Y-69808696D01*
X86315842Y-69808700D01*
X86315843Y-69808700D01*
X86262146Y-70020745D01*
X86258865Y-70033700D01*
X86239699Y-70265000D01*
X86258865Y-70496299D01*
X86258865Y-70496301D01*
X86258866Y-70496305D01*
X86315843Y-70721300D01*
X86315844Y-70721303D01*
X86386389Y-70882128D01*
X86409076Y-70933849D01*
X86536021Y-71128153D01*
X86679650Y-71284176D01*
X86693215Y-71298912D01*
X86870819Y-71437146D01*
X86906057Y-71480540D01*
X86918657Y-71535000D01*
X86906057Y-71589460D01*
X86870819Y-71632854D01*
X86693215Y-71771087D01*
X86547590Y-71929279D01*
X86536021Y-71941847D01*
X86441936Y-72085856D01*
X86428856Y-72105876D01*
X86381689Y-72148361D01*
X86319679Y-72161938D01*
X86259075Y-72143048D01*
X86149522Y-72074211D01*
X85979255Y-72014632D01*
X85979253Y-72014631D01*
X85979251Y-72014631D01*
X85800000Y-71994434D01*
X85620748Y-72014631D01*
X85620745Y-72014631D01*
X85620745Y-72014632D01*
X85450478Y-72074211D01*
X85450476Y-72074211D01*
X85450476Y-72074212D01*
X85297735Y-72170185D01*
X85170185Y-72297735D01*
X85077704Y-72444919D01*
X85074211Y-72450478D01*
X85031096Y-72573695D01*
X85014631Y-72620748D01*
X84994434Y-72799999D01*
X83788056Y-72799999D01*
X83793796Y-72792331D01*
X83844091Y-72657483D01*
X83850500Y-72597873D01*
X83850499Y-70802128D01*
X83844091Y-70742517D01*
X83793796Y-70607669D01*
X83707546Y-70492454D01*
X83592331Y-70406204D01*
X83457483Y-70355909D01*
X83397873Y-70349500D01*
X83397869Y-70349500D01*
X81602130Y-70349500D01*
X81542515Y-70355909D01*
X81407669Y-70406204D01*
X81292454Y-70492454D01*
X81206204Y-70607668D01*
X81155909Y-70742516D01*
X81149500Y-70802130D01*
X81149500Y-72597869D01*
X81155909Y-72657484D01*
X81163514Y-72677873D01*
X81206204Y-72792331D01*
X81292454Y-72907546D01*
X81407669Y-72993796D01*
X81519907Y-73035658D01*
X81539082Y-73042810D01*
X81589462Y-73077789D01*
X81616915Y-73132634D01*
X81614726Y-73193926D01*
X81583431Y-73246673D01*
X81461503Y-73368601D01*
X81325965Y-73562170D01*
X81226097Y-73776336D01*
X81164936Y-74004592D01*
X81144340Y-74240000D01*
X81164936Y-74475407D01*
X81202235Y-74614609D01*
X81226097Y-74703663D01*
X81325965Y-74917830D01*
X81461505Y-75111401D01*
X81628599Y-75278495D01*
X81814160Y-75408426D01*
X81853024Y-75452743D01*
X81867035Y-75510000D01*
X81853024Y-75567257D01*
X81814158Y-75611575D01*
X81664095Y-75716651D01*
X81628595Y-75741508D01*
X81461505Y-75908598D01*
X81325965Y-76102170D01*
X81226097Y-76316336D01*
X81164936Y-76544592D01*
X81144340Y-76780000D01*
X81164936Y-77015407D01*
X81207488Y-77174211D01*
X81226097Y-77243663D01*
X81325965Y-77457830D01*
X81461505Y-77651401D01*
X81628599Y-77818495D01*
X81814160Y-77948426D01*
X81853024Y-77992743D01*
X81867035Y-78050000D01*
X81853024Y-78107257D01*
X81814159Y-78151575D01*
X81628595Y-78281508D01*
X81461505Y-78448598D01*
X81325965Y-78642170D01*
X81226097Y-78856336D01*
X81164936Y-79084592D01*
X81144340Y-79319999D01*
X81164936Y-79555407D01*
X81199474Y-79684303D01*
X81226097Y-79783663D01*
X81325965Y-79997830D01*
X81461505Y-80191401D01*
X81628599Y-80358495D01*
X81814160Y-80488426D01*
X81853024Y-80532743D01*
X81867035Y-80590000D01*
X81853024Y-80647257D01*
X81814159Y-80691575D01*
X81628595Y-80821508D01*
X81461505Y-80988598D01*
X81325965Y-81182170D01*
X81226097Y-81396336D01*
X81164936Y-81624592D01*
X81144340Y-81860000D01*
X81164936Y-82095407D01*
X81192482Y-82198208D01*
X81226097Y-82323663D01*
X81325965Y-82537830D01*
X81461505Y-82731401D01*
X81628599Y-82898495D01*
X81814160Y-83028426D01*
X81853024Y-83072743D01*
X81867035Y-83130000D01*
X81853024Y-83187257D01*
X81814159Y-83231575D01*
X81628595Y-83361508D01*
X81461505Y-83528598D01*
X81325965Y-83722170D01*
X81226097Y-83936336D01*
X81164936Y-84164592D01*
X81144340Y-84399999D01*
X78848660Y-84399999D01*
X78835063Y-84244592D01*
X78773903Y-84016337D01*
X78674035Y-83802171D01*
X78538495Y-83608599D01*
X78371401Y-83441505D01*
X78185839Y-83311573D01*
X78146975Y-83267257D01*
X78132964Y-83210000D01*
X78146975Y-83152743D01*
X78185839Y-83108426D01*
X78371401Y-82978495D01*
X78538495Y-82811401D01*
X78674035Y-82617830D01*
X78773903Y-82403663D01*
X78835063Y-82175408D01*
X78855659Y-81940000D01*
X78835063Y-81704592D01*
X78773903Y-81476337D01*
X78674035Y-81262171D01*
X78538495Y-81068599D01*
X78371401Y-80901505D01*
X78185839Y-80771573D01*
X78146975Y-80727257D01*
X78132964Y-80670000D01*
X78146975Y-80612743D01*
X78185839Y-80568426D01*
X78371401Y-80438495D01*
X78538495Y-80271401D01*
X78674035Y-80077830D01*
X78773903Y-79863663D01*
X78835063Y-79635408D01*
X78855659Y-79400000D01*
X78835063Y-79164592D01*
X78773903Y-78936337D01*
X78674035Y-78722171D01*
X78538495Y-78528599D01*
X78371401Y-78361505D01*
X78185839Y-78231573D01*
X78146976Y-78187257D01*
X78132965Y-78130000D01*
X78146976Y-78072743D01*
X78185839Y-78028426D01*
X78371401Y-77898495D01*
X78538495Y-77731401D01*
X78674035Y-77537830D01*
X78773903Y-77323663D01*
X78835063Y-77095408D01*
X78855659Y-76860000D01*
X78852948Y-76829019D01*
X78835063Y-76624592D01*
X78818133Y-76561409D01*
X78773903Y-76396337D01*
X78674035Y-76182171D01*
X78538495Y-75988599D01*
X78371401Y-75821505D01*
X78185839Y-75691573D01*
X78146975Y-75647257D01*
X78132964Y-75590000D01*
X78146975Y-75532743D01*
X78185839Y-75488426D01*
X78371401Y-75358495D01*
X78538495Y-75191401D01*
X78674035Y-74997830D01*
X78773903Y-74783663D01*
X78835063Y-74555408D01*
X78855659Y-74320000D01*
X78835063Y-74084592D01*
X78773903Y-73856337D01*
X78674035Y-73642171D01*
X78538495Y-73448599D01*
X78416569Y-73326673D01*
X78385273Y-73273927D01*
X78383084Y-73212634D01*
X78410537Y-73157789D01*
X78460916Y-73122810D01*
X78592331Y-73073796D01*
X78707546Y-72987546D01*
X78793796Y-72872331D01*
X78844091Y-72737483D01*
X78850500Y-72677873D01*
X78850499Y-70882128D01*
X78844091Y-70822517D01*
X78793796Y-70687669D01*
X78707546Y-70572454D01*
X78592331Y-70486204D01*
X78457483Y-70435909D01*
X78397873Y-70429500D01*
X78397869Y-70429500D01*
X76602130Y-70429500D01*
X76542515Y-70435909D01*
X76407669Y-70486204D01*
X76292454Y-70572454D01*
X76206204Y-70687668D01*
X76155909Y-70822516D01*
X76149500Y-70882130D01*
X76149500Y-72677869D01*
X76155909Y-72737483D01*
X76206204Y-72872331D01*
X76292454Y-72987546D01*
X76407669Y-73073796D01*
X76519907Y-73115658D01*
X76539082Y-73122810D01*
X76589462Y-73157789D01*
X76616915Y-73212634D01*
X76614726Y-73273926D01*
X76583431Y-73326673D01*
X76461503Y-73448601D01*
X76325965Y-73642170D01*
X76226097Y-73856336D01*
X76164936Y-74084592D01*
X76144340Y-74320000D01*
X76164936Y-74555407D01*
X76201675Y-74692517D01*
X76226097Y-74783663D01*
X76325965Y-74997830D01*
X76461505Y-75191401D01*
X76628599Y-75358495D01*
X76814160Y-75488426D01*
X76853024Y-75532743D01*
X76867035Y-75590000D01*
X76853024Y-75647257D01*
X76814158Y-75691575D01*
X76629685Y-75820745D01*
X76628595Y-75821508D01*
X76461505Y-75988598D01*
X76325965Y-76182170D01*
X76226097Y-76396336D01*
X76164936Y-76624592D01*
X76144340Y-76859999D01*
X76164936Y-77095407D01*
X76200951Y-77229816D01*
X76226097Y-77323663D01*
X76325965Y-77537830D01*
X76461505Y-77731401D01*
X76628599Y-77898495D01*
X76814160Y-78028426D01*
X76853024Y-78072743D01*
X76867035Y-78130000D01*
X76853024Y-78187257D01*
X76814158Y-78231575D01*
X76660199Y-78339379D01*
X76628595Y-78361508D01*
X76461505Y-78528598D01*
X76325965Y-78722170D01*
X76226097Y-78936336D01*
X76164936Y-79164592D01*
X76144340Y-79400000D01*
X76164936Y-79635407D01*
X76202129Y-79774211D01*
X76226097Y-79863663D01*
X76325965Y-80077830D01*
X76461505Y-80271401D01*
X76628599Y-80438495D01*
X76814160Y-80568426D01*
X76853024Y-80612743D01*
X76867035Y-80670000D01*
X76853024Y-80727257D01*
X76814158Y-80771575D01*
X76632090Y-80899061D01*
X76628595Y-80901508D01*
X76461505Y-81068598D01*
X76325965Y-81262170D01*
X76226097Y-81476336D01*
X76164936Y-81704592D01*
X76144340Y-81940000D01*
X76164936Y-82175407D01*
X76202716Y-82316404D01*
X76226097Y-82403663D01*
X76325965Y-82617830D01*
X76461505Y-82811401D01*
X76628599Y-82978495D01*
X76814160Y-83108426D01*
X76853024Y-83152743D01*
X76867035Y-83210000D01*
X76853024Y-83267257D01*
X76814159Y-83311575D01*
X76628595Y-83441508D01*
X76461505Y-83608598D01*
X76325965Y-83802170D01*
X76226097Y-84016336D01*
X76164936Y-84244592D01*
X76144340Y-84479999D01*
X74343659Y-84479999D01*
X74386876Y-64167764D01*
X76045787Y-64167764D01*
X76075413Y-64437016D01*
X76109998Y-64569304D01*
X76143928Y-64699088D01*
X76249870Y-64948390D01*
X76249871Y-64948392D01*
X76390982Y-65179611D01*
X76546128Y-65366038D01*
X76564255Y-65387820D01*
X76765998Y-65568582D01*
X76991910Y-65718044D01*
X77098211Y-65767876D01*
X77237177Y-65833021D01*
X77478304Y-65905565D01*
X77496569Y-65911060D01*
X77764561Y-65950500D01*
X77967631Y-65950500D01*
X77967634Y-65950500D01*
X78170156Y-65935677D01*
X78170156Y-65935676D01*
X78434553Y-65876780D01*
X78687558Y-65780014D01*
X78923777Y-65647441D01*
X79138177Y-65481888D01*
X79326186Y-65286881D01*
X79483799Y-65066579D01*
X79607656Y-64825675D01*
X79695118Y-64569305D01*
X79744319Y-64302933D01*
X79754212Y-64032235D01*
X79724586Y-63762982D01*
X79656072Y-63500912D01*
X79550130Y-63251610D01*
X79477999Y-63133420D01*
X79409017Y-63020388D01*
X79235746Y-62812181D01*
X79130758Y-62718112D01*
X79049160Y-62645000D01*
X86240201Y-62645000D01*
X86259361Y-62876217D01*
X86316319Y-63101139D01*
X86409516Y-63313609D01*
X86493812Y-63442633D01*
X87291447Y-62645001D01*
X87291447Y-62645000D01*
X87998553Y-62645000D01*
X88796186Y-63442634D01*
X88880483Y-63313607D01*
X88973680Y-63101138D01*
X89030638Y-62876217D01*
X89049798Y-62645000D01*
X108900201Y-62645000D01*
X108919361Y-62876217D01*
X108976319Y-63101139D01*
X109069516Y-63313609D01*
X109153812Y-63442633D01*
X109951447Y-62645001D01*
X110658553Y-62645001D01*
X111456186Y-63442634D01*
X111540483Y-63313607D01*
X111611228Y-63152324D01*
X120120630Y-63152324D01*
X120130938Y-63342474D01*
X120181885Y-63525966D01*
X120277403Y-63706132D01*
X120277296Y-63706188D01*
X120295050Y-63739210D01*
X120298762Y-63790982D01*
X120280958Y-63839738D01*
X120274213Y-63850471D01*
X120214631Y-64020748D01*
X120194434Y-64199999D01*
X120214631Y-64379251D01*
X120214631Y-64379253D01*
X120214632Y-64379255D01*
X120274211Y-64549522D01*
X120295893Y-64584028D01*
X120351836Y-64673062D01*
X120370062Y-64725150D01*
X120363884Y-64779988D01*
X120314631Y-64920746D01*
X120294434Y-65099999D01*
X120314631Y-65279251D01*
X120314631Y-65279253D01*
X120314632Y-65279255D01*
X120374211Y-65449522D01*
X120394548Y-65481888D01*
X120470185Y-65602264D01*
X120597735Y-65729814D01*
X120597737Y-65729815D01*
X120597738Y-65729816D01*
X120750478Y-65825789D01*
X120920745Y-65885368D01*
X121100000Y-65905565D01*
X121279255Y-65885368D01*
X121449522Y-65825789D01*
X121602262Y-65729816D01*
X121602261Y-65729816D01*
X121614092Y-65722383D01*
X121614911Y-65723687D01*
X121635488Y-65709939D01*
X121682941Y-65700500D01*
X123217059Y-65700500D01*
X123264512Y-65709939D01*
X123285088Y-65723687D01*
X123285908Y-65722383D01*
X123297738Y-65729816D01*
X123450478Y-65825789D01*
X123620745Y-65885368D01*
X123800000Y-65905565D01*
X123979255Y-65885368D01*
X124149522Y-65825789D01*
X124302262Y-65729816D01*
X124429816Y-65602262D01*
X124525789Y-65449522D01*
X124585368Y-65279255D01*
X124605565Y-65100000D01*
X124585368Y-64920745D01*
X124525789Y-64750478D01*
X124504106Y-64715971D01*
X124485101Y-64650000D01*
X124504107Y-64584028D01*
X124513358Y-64569305D01*
X124525789Y-64549522D01*
X124585368Y-64379255D01*
X124605565Y-64200000D01*
X127407160Y-64200000D01*
X127426157Y-64429249D01*
X127426157Y-64429252D01*
X127426158Y-64429254D01*
X127482629Y-64652254D01*
X127487927Y-64664332D01*
X127575033Y-64862915D01*
X127575035Y-64862918D01*
X127700854Y-65055499D01*
X127856656Y-65224745D01*
X127856659Y-65224747D01*
X128038183Y-65366034D01*
X128038185Y-65366035D01*
X128038189Y-65366038D01*
X128240503Y-65475525D01*
X128318386Y-65502262D01*
X128458074Y-65550217D01*
X128458076Y-65550217D01*
X128458078Y-65550218D01*
X128684980Y-65588082D01*
X128915019Y-65588082D01*
X128915020Y-65588082D01*
X129141922Y-65550218D01*
X129359497Y-65475525D01*
X129561811Y-65366038D01*
X129743344Y-65224745D01*
X129899146Y-65055499D01*
X130024965Y-64862918D01*
X130117371Y-64652254D01*
X130173842Y-64429254D01*
X130192839Y-64200000D01*
X132019964Y-64200000D01*
X132039468Y-64435371D01*
X132039468Y-64435374D01*
X132039469Y-64435376D01*
X132097448Y-64664332D01*
X132184557Y-64862918D01*
X132192323Y-64880623D01*
X132236697Y-64948543D01*
X132321501Y-65078346D01*
X132394580Y-65157730D01*
X132481463Y-65252111D01*
X132600206Y-65344531D01*
X132667845Y-65397177D01*
X132875561Y-65509588D01*
X132987254Y-65547932D01*
X133098943Y-65586275D01*
X133098945Y-65586275D01*
X133098947Y-65586276D01*
X133331909Y-65625151D01*
X133568090Y-65625151D01*
X133568091Y-65625151D01*
X133801053Y-65586276D01*
X134024439Y-65509588D01*
X134232155Y-65397177D01*
X134418536Y-65252111D01*
X134578499Y-65078346D01*
X134707678Y-64880621D01*
X134802552Y-64664332D01*
X134860531Y-64435376D01*
X134880035Y-64200000D01*
X134860531Y-63964624D01*
X134802552Y-63735668D01*
X134707678Y-63519379D01*
X134578499Y-63321654D01*
X134484168Y-63219184D01*
X134418536Y-63147888D01*
X134232154Y-63002822D01*
X134223218Y-62997986D01*
X134213842Y-62992912D01*
X134168204Y-62950364D01*
X134149065Y-62890974D01*
X134161274Y-62829783D01*
X134201735Y-62782285D01*
X134321401Y-62698495D01*
X134488495Y-62531401D01*
X134624035Y-62337830D01*
X134723903Y-62123663D01*
X134785063Y-61895408D01*
X134805659Y-61660000D01*
X134785063Y-61424592D01*
X134723903Y-61196337D01*
X134624035Y-60982171D01*
X134488495Y-60788599D01*
X134366569Y-60666673D01*
X134335273Y-60613927D01*
X134333084Y-60552634D01*
X134360537Y-60497789D01*
X134410916Y-60462810D01*
X134542331Y-60413796D01*
X134657546Y-60327546D01*
X134715598Y-60249999D01*
X136196314Y-60249999D01*
X136215515Y-60591905D01*
X136272874Y-60929504D01*
X136367677Y-61258571D01*
X136469959Y-61505500D01*
X136498724Y-61574945D01*
X136664370Y-61874659D01*
X136779517Y-62036944D01*
X136827130Y-62104048D01*
X136844144Y-62138147D01*
X136850000Y-62175803D01*
X136850000Y-62197824D01*
X136856402Y-62257375D01*
X136906647Y-62392089D01*
X136992811Y-62507188D01*
X137107910Y-62593352D01*
X137242624Y-62643597D01*
X137302176Y-62650000D01*
X137324197Y-62650000D01*
X137361853Y-62655856D01*
X137395952Y-62672870D01*
X137442340Y-62705784D01*
X137625341Y-62835630D01*
X137925055Y-63001276D01*
X137934533Y-63005202D01*
X137985948Y-63044919D01*
X138010223Y-63105186D01*
X138000691Y-63169455D01*
X137959968Y-63220081D01*
X137716839Y-63396723D01*
X137496650Y-63603496D01*
X137304114Y-63836233D01*
X137142268Y-64091260D01*
X137013658Y-64364571D01*
X136920319Y-64651836D01*
X136863719Y-64948547D01*
X136844753Y-65250000D01*
X136863719Y-65551452D01*
X136920319Y-65848163D01*
X137013658Y-66135428D01*
X137142268Y-66408739D01*
X137206188Y-66509460D01*
X137304115Y-66663768D01*
X137456449Y-66847909D01*
X137496650Y-66896503D01*
X137716839Y-67103276D01*
X137961204Y-67280816D01*
X138087915Y-67350476D01*
X138225896Y-67426332D01*
X138366316Y-67481928D01*
X138506737Y-67537525D01*
X138661141Y-67577168D01*
X138799302Y-67612642D01*
X139048314Y-67644100D01*
X139098972Y-67650500D01*
X139098973Y-67650500D01*
X139401027Y-67650500D01*
X139401028Y-67650500D01*
X139444360Y-67645025D01*
X139700698Y-67612642D01*
X139993262Y-67537525D01*
X140274104Y-67426332D01*
X140538795Y-67280816D01*
X140653147Y-67197735D01*
X140783160Y-67103276D01*
X140807079Y-67080814D01*
X141003349Y-66896504D01*
X141195885Y-66663768D01*
X141357733Y-66408736D01*
X141486341Y-66135430D01*
X141579681Y-65848160D01*
X141636280Y-65551457D01*
X141655246Y-65250000D01*
X141636280Y-64948543D01*
X141579681Y-64651840D01*
X141579238Y-64650478D01*
X141507358Y-64429254D01*
X141486341Y-64364570D01*
X141393731Y-64167764D01*
X144045787Y-64167764D01*
X144075413Y-64437016D01*
X144109998Y-64569304D01*
X144143928Y-64699088D01*
X144249870Y-64948390D01*
X144249871Y-64948392D01*
X144390982Y-65179611D01*
X144546128Y-65366038D01*
X144564255Y-65387820D01*
X144765998Y-65568582D01*
X144991910Y-65718044D01*
X145098211Y-65767876D01*
X145237177Y-65833021D01*
X145478304Y-65905565D01*
X145496569Y-65911060D01*
X145764561Y-65950500D01*
X145967631Y-65950500D01*
X145967634Y-65950500D01*
X146170156Y-65935677D01*
X146170156Y-65935676D01*
X146434553Y-65876780D01*
X146687558Y-65780014D01*
X146923777Y-65647441D01*
X147138177Y-65481888D01*
X147326186Y-65286881D01*
X147483799Y-65066579D01*
X147607656Y-64825675D01*
X147695118Y-64569305D01*
X147744319Y-64302933D01*
X147754212Y-64032235D01*
X147724586Y-63762982D01*
X147656072Y-63500912D01*
X147550130Y-63251610D01*
X147477999Y-63133420D01*
X147409017Y-63020388D01*
X147235746Y-62812181D01*
X147130758Y-62718112D01*
X147034002Y-62631418D01*
X146808090Y-62481956D01*
X146808086Y-62481954D01*
X146562822Y-62366978D01*
X146303437Y-62288941D01*
X146303431Y-62288940D01*
X146035439Y-62249500D01*
X145832369Y-62249500D01*
X145832366Y-62249500D01*
X145629843Y-62264322D01*
X145365449Y-62323219D01*
X145112441Y-62419986D01*
X144876223Y-62552559D01*
X144661825Y-62718109D01*
X144473813Y-62913120D01*
X144316201Y-63133420D01*
X144192342Y-63374329D01*
X144104881Y-63630695D01*
X144055680Y-63897066D01*
X144045787Y-64167764D01*
X141393731Y-64167764D01*
X141357733Y-64091264D01*
X141357732Y-64091263D01*
X141357731Y-64091260D01*
X141245671Y-63914682D01*
X141195885Y-63836232D01*
X141003349Y-63603496D01*
X140932628Y-63537084D01*
X140783160Y-63396723D01*
X140540031Y-63220081D01*
X140499308Y-63169454D01*
X140489776Y-63105185D01*
X140514052Y-63044917D01*
X140565467Y-63005201D01*
X140574945Y-63001276D01*
X140874659Y-62835630D01*
X141104046Y-62672870D01*
X141138147Y-62655856D01*
X141175803Y-62650000D01*
X141197824Y-62650000D01*
X141257375Y-62643597D01*
X141392089Y-62593352D01*
X141507188Y-62507188D01*
X141593352Y-62392089D01*
X141643597Y-62257375D01*
X141650000Y-62197824D01*
X141650000Y-62175803D01*
X141655856Y-62138147D01*
X141672870Y-62104048D01*
X141696710Y-62070447D01*
X141835630Y-61874659D01*
X142001276Y-61574945D01*
X142132323Y-61258569D01*
X142227124Y-60929509D01*
X142284485Y-60591904D01*
X142303686Y-60250000D01*
X142284485Y-59908096D01*
X142240412Y-59648700D01*
X142227125Y-59570495D01*
X142227035Y-59570184D01*
X142132323Y-59241431D01*
X142001276Y-58925055D01*
X141835630Y-58625341D01*
X141681139Y-58407606D01*
X141672870Y-58395952D01*
X141655856Y-58361853D01*
X141650000Y-58324197D01*
X141650000Y-58302176D01*
X141643597Y-58242624D01*
X141593352Y-58107910D01*
X141507188Y-57992811D01*
X141392089Y-57906647D01*
X141257375Y-57856402D01*
X141197824Y-57850000D01*
X141175803Y-57850000D01*
X141138147Y-57844144D01*
X141104048Y-57827130D01*
X141022826Y-57769500D01*
X140874659Y-57664370D01*
X140574945Y-57498724D01*
X140574943Y-57498723D01*
X140258571Y-57367677D01*
X139929504Y-57272874D01*
X139591905Y-57215515D01*
X139250000Y-57196314D01*
X138908094Y-57215515D01*
X138570495Y-57272874D01*
X138241428Y-57367677D01*
X137925056Y-57498723D01*
X137625341Y-57664370D01*
X137395952Y-57827130D01*
X137361853Y-57844144D01*
X137324197Y-57850000D01*
X137302176Y-57850000D01*
X137242624Y-57856402D01*
X137107910Y-57906647D01*
X136992811Y-57992811D01*
X136906647Y-58107910D01*
X136856402Y-58242624D01*
X136850000Y-58302176D01*
X136850000Y-58324197D01*
X136844144Y-58361853D01*
X136827130Y-58395952D01*
X136664370Y-58625341D01*
X136498723Y-58925056D01*
X136367677Y-59241428D01*
X136272874Y-59570495D01*
X136215515Y-59908094D01*
X136196314Y-60249999D01*
X134715598Y-60249999D01*
X134743796Y-60212331D01*
X134794091Y-60077483D01*
X134800500Y-60017873D01*
X134800499Y-58222128D01*
X134794091Y-58162517D01*
X134743796Y-58027669D01*
X134657546Y-57912454D01*
X134542331Y-57826204D01*
X134407483Y-57775909D01*
X134347873Y-57769500D01*
X134347869Y-57769500D01*
X132552130Y-57769500D01*
X132492515Y-57775909D01*
X132357669Y-57826204D01*
X132242454Y-57912454D01*
X132156204Y-58027668D01*
X132105909Y-58162516D01*
X132099500Y-58222130D01*
X132099500Y-60017869D01*
X132105909Y-60077483D01*
X132156204Y-60212331D01*
X132242454Y-60327546D01*
X132357669Y-60413796D01*
X132469907Y-60455658D01*
X132489082Y-60462810D01*
X132539462Y-60497789D01*
X132566915Y-60552634D01*
X132564726Y-60613926D01*
X132533431Y-60666673D01*
X132411503Y-60788601D01*
X132275965Y-60982170D01*
X132176097Y-61196336D01*
X132114936Y-61424592D01*
X132094340Y-61660000D01*
X132114936Y-61895407D01*
X132136636Y-61976392D01*
X132176097Y-62123663D01*
X132275965Y-62337830D01*
X132411505Y-62531401D01*
X132411508Y-62531404D01*
X132578598Y-62698494D01*
X132698261Y-62782283D01*
X132738725Y-62829780D01*
X132750934Y-62890971D01*
X132731797Y-62950360D01*
X132686160Y-62992910D01*
X132667849Y-63002820D01*
X132481463Y-63147888D01*
X132321500Y-63321655D01*
X132192323Y-63519376D01*
X132097448Y-63735668D01*
X132039468Y-63964628D01*
X132019964Y-64200000D01*
X130192839Y-64200000D01*
X130173842Y-63970746D01*
X130117371Y-63747746D01*
X130024965Y-63537082D01*
X129899146Y-63344501D01*
X129743344Y-63175255D01*
X129689596Y-63133421D01*
X129561816Y-63033965D01*
X129561812Y-63033962D01*
X129561811Y-63033962D01*
X129529887Y-63016686D01*
X129484251Y-62974138D01*
X129465112Y-62914748D01*
X129477321Y-62853557D01*
X129517782Y-62806060D01*
X129671401Y-62698495D01*
X129838495Y-62531401D01*
X129974035Y-62337830D01*
X130073903Y-62123663D01*
X130135063Y-61895408D01*
X130155659Y-61660000D01*
X130135063Y-61424592D01*
X130073903Y-61196337D01*
X129974035Y-60982171D01*
X129838495Y-60788599D01*
X129716569Y-60666673D01*
X129685273Y-60613927D01*
X129683084Y-60552634D01*
X129710537Y-60497789D01*
X129760916Y-60462810D01*
X129892331Y-60413796D01*
X130007546Y-60327546D01*
X130093796Y-60212331D01*
X130144091Y-60077483D01*
X130150500Y-60017873D01*
X130150499Y-58222128D01*
X130144091Y-58162517D01*
X130093796Y-58027669D01*
X130007546Y-57912454D01*
X129892331Y-57826204D01*
X129757483Y-57775909D01*
X129697873Y-57769500D01*
X129697869Y-57769500D01*
X127902130Y-57769500D01*
X127842515Y-57775909D01*
X127707669Y-57826204D01*
X127592454Y-57912454D01*
X127506204Y-58027668D01*
X127455909Y-58162516D01*
X127449500Y-58222130D01*
X127449500Y-60017869D01*
X127455909Y-60077483D01*
X127506204Y-60212331D01*
X127592454Y-60327546D01*
X127707669Y-60413796D01*
X127819907Y-60455658D01*
X127839082Y-60462810D01*
X127889462Y-60497789D01*
X127916915Y-60552634D01*
X127914726Y-60613926D01*
X127883431Y-60666673D01*
X127761503Y-60788601D01*
X127625965Y-60982170D01*
X127526097Y-61196336D01*
X127464936Y-61424592D01*
X127444340Y-61660000D01*
X127464936Y-61895407D01*
X127486636Y-61976392D01*
X127526097Y-62123663D01*
X127625965Y-62337830D01*
X127761505Y-62531401D01*
X127928599Y-62698495D01*
X128082215Y-62806058D01*
X128122678Y-62853557D01*
X128134887Y-62914748D01*
X128115749Y-62974137D01*
X128070110Y-63016687D01*
X128038186Y-63033963D01*
X127856659Y-63175252D01*
X127856656Y-63175254D01*
X127856656Y-63175255D01*
X127700854Y-63344501D01*
X127666736Y-63396723D01*
X127575033Y-63537084D01*
X127500858Y-63706188D01*
X127482629Y-63747746D01*
X127440355Y-63914682D01*
X127426157Y-63970750D01*
X127407160Y-64200000D01*
X124605565Y-64200000D01*
X124585368Y-64020745D01*
X124525789Y-63850478D01*
X124516404Y-63835542D01*
X124499301Y-63791209D01*
X124500128Y-63743696D01*
X124518762Y-63699989D01*
X124578075Y-63612510D01*
X124648562Y-63435602D01*
X124679370Y-63247678D01*
X124669061Y-63057525D01*
X124618114Y-62874033D01*
X124528914Y-62705784D01*
X124405631Y-62560643D01*
X124367164Y-62531401D01*
X124254031Y-62445399D01*
X124081195Y-62365437D01*
X123947707Y-62336054D01*
X123895216Y-62324500D01*
X120952535Y-62324500D01*
X120952534Y-62324500D01*
X120810684Y-62339926D01*
X120630220Y-62400733D01*
X120467044Y-62498911D01*
X120328795Y-62629869D01*
X120328793Y-62629871D01*
X120221925Y-62787490D01*
X120221925Y-62787491D01*
X120157030Y-62950364D01*
X120151438Y-62964398D01*
X120128358Y-63105186D01*
X120120630Y-63152324D01*
X111611228Y-63152324D01*
X111633680Y-63101138D01*
X111690638Y-62876217D01*
X111709798Y-62645000D01*
X111690638Y-62413782D01*
X111633680Y-62188860D01*
X111540484Y-61976392D01*
X111456186Y-61847364D01*
X110658553Y-62645000D01*
X110658553Y-62645001D01*
X109951447Y-62645001D01*
X109951447Y-62645000D01*
X109153812Y-61847365D01*
X109069516Y-61976390D01*
X108976319Y-62188860D01*
X108919361Y-62413782D01*
X108900201Y-62645000D01*
X89049798Y-62645000D01*
X89030638Y-62413782D01*
X88973680Y-62188860D01*
X88880484Y-61976392D01*
X88796186Y-61847364D01*
X87998553Y-62645000D01*
X87291447Y-62645000D01*
X86493812Y-61847365D01*
X86409516Y-61976390D01*
X86316319Y-62188860D01*
X86259361Y-62413782D01*
X86240201Y-62645000D01*
X79049160Y-62645000D01*
X79034002Y-62631418D01*
X78808090Y-62481956D01*
X78808086Y-62481954D01*
X78562822Y-62366978D01*
X78303437Y-62288941D01*
X78303431Y-62288940D01*
X78035439Y-62249500D01*
X77832369Y-62249500D01*
X77832366Y-62249500D01*
X77629843Y-62264322D01*
X77365449Y-62323219D01*
X77112441Y-62419986D01*
X76876223Y-62552559D01*
X76661825Y-62718109D01*
X76473813Y-62913120D01*
X76316201Y-63133420D01*
X76192342Y-63374329D01*
X76104881Y-63630695D01*
X76055680Y-63897066D01*
X76045787Y-64167764D01*
X74386876Y-64167764D01*
X74399875Y-58058352D01*
X74411792Y-58005579D01*
X74445043Y-57962905D01*
X76065736Y-56628217D01*
X76102606Y-56607251D01*
X76144386Y-56599938D01*
X86382615Y-56585678D01*
X86446148Y-56603089D01*
X86491800Y-56650584D01*
X86506682Y-56714759D01*
X86486595Y-56777499D01*
X86409076Y-56896150D01*
X86315844Y-57108696D01*
X86315842Y-57108700D01*
X86315843Y-57108700D01*
X86265251Y-57308484D01*
X86258865Y-57333700D01*
X86239699Y-57565000D01*
X86258865Y-57796299D01*
X86258865Y-57796301D01*
X86258866Y-57796305D01*
X86310650Y-58000793D01*
X86315844Y-58021303D01*
X86352079Y-58103909D01*
X86409076Y-58233849D01*
X86536021Y-58428153D01*
X86682683Y-58587471D01*
X86693219Y-58598916D01*
X86870818Y-58737147D01*
X86906057Y-58780540D01*
X86918656Y-58835000D01*
X86906057Y-58889460D01*
X86870818Y-58932853D01*
X86693219Y-59071083D01*
X86536020Y-59241848D01*
X86409076Y-59436150D01*
X86315844Y-59648696D01*
X86315842Y-59648700D01*
X86315843Y-59648700D01*
X86287439Y-59760866D01*
X86258865Y-59873700D01*
X86239699Y-60105000D01*
X86258865Y-60336299D01*
X86258865Y-60336301D01*
X86258866Y-60336305D01*
X86315843Y-60561300D01*
X86315844Y-60561303D01*
X86338927Y-60613926D01*
X86409076Y-60773849D01*
X86536021Y-60968153D01*
X86693216Y-61138913D01*
X86871228Y-61277465D01*
X86906465Y-61320856D01*
X86919064Y-61375318D01*
X86906463Y-61429779D01*
X86871223Y-61473172D01*
X86846200Y-61492646D01*
X86846200Y-61492647D01*
X87645000Y-62291447D01*
X87645001Y-62291447D01*
X88443799Y-61492648D01*
X88443798Y-61492647D01*
X88418775Y-61473171D01*
X88383536Y-61429777D01*
X88370936Y-61375317D01*
X88383535Y-61320856D01*
X88418771Y-61277465D01*
X88596784Y-61138913D01*
X88753979Y-60968153D01*
X88880924Y-60773849D01*
X88974157Y-60561300D01*
X89031134Y-60336305D01*
X89050300Y-60105000D01*
X89031134Y-59873695D01*
X88974157Y-59648700D01*
X88880924Y-59436151D01*
X88753979Y-59241847D01*
X88596784Y-59071087D01*
X88419180Y-58932852D01*
X88383943Y-58889460D01*
X88371343Y-58835000D01*
X88383943Y-58780540D01*
X88419181Y-58737146D01*
X88596784Y-58598913D01*
X88753979Y-58428153D01*
X88880924Y-58233849D01*
X88974157Y-58021300D01*
X89031134Y-57796305D01*
X89050300Y-57565000D01*
X89031134Y-57333695D01*
X88974157Y-57108700D01*
X88880924Y-56896151D01*
X88801109Y-56773984D01*
X88781027Y-56711333D01*
X88795823Y-56647224D01*
X88841334Y-56599710D01*
X88904745Y-56582166D01*
X109063254Y-56554090D01*
X109126785Y-56571500D01*
X109172436Y-56618995D01*
X109187319Y-56683169D01*
X109167232Y-56745910D01*
X109069076Y-56896150D01*
X108975844Y-57108696D01*
X108975842Y-57108700D01*
X108975843Y-57108700D01*
X108925251Y-57308484D01*
X108918865Y-57333700D01*
X108899699Y-57565000D01*
X108918865Y-57796299D01*
X108918865Y-57796301D01*
X108918866Y-57796305D01*
X108970650Y-58000793D01*
X108975844Y-58021303D01*
X109012079Y-58103909D01*
X109069076Y-58233849D01*
X109196021Y-58428153D01*
X109342683Y-58587471D01*
X109353219Y-58598916D01*
X109530818Y-58737147D01*
X109566057Y-58780540D01*
X109578656Y-58835000D01*
X109566057Y-58889460D01*
X109530818Y-58932853D01*
X109353219Y-59071083D01*
X109196020Y-59241848D01*
X109069076Y-59436150D01*
X108975844Y-59648696D01*
X108975842Y-59648700D01*
X108975843Y-59648700D01*
X108947439Y-59760866D01*
X108918865Y-59873700D01*
X108899699Y-60105000D01*
X108918865Y-60336299D01*
X108918865Y-60336301D01*
X108918866Y-60336305D01*
X108975843Y-60561300D01*
X108975844Y-60561303D01*
X108998927Y-60613926D01*
X109069076Y-60773849D01*
X109196021Y-60968153D01*
X109353216Y-61138913D01*
X109531228Y-61277465D01*
X109566465Y-61320856D01*
X109579064Y-61375318D01*
X109566463Y-61429779D01*
X109531223Y-61473172D01*
X109506200Y-61492646D01*
X109506200Y-61492647D01*
X110305000Y-62291447D01*
X110305001Y-62291447D01*
X111103799Y-61492648D01*
X111103798Y-61492647D01*
X111078775Y-61473171D01*
X111043536Y-61429777D01*
X111030936Y-61375317D01*
X111043535Y-61320856D01*
X111078771Y-61277465D01*
X111256784Y-61138913D01*
X111413979Y-60968153D01*
X111540924Y-60773849D01*
X111634157Y-60561300D01*
X111691134Y-60336305D01*
X111710300Y-60105000D01*
X111691134Y-59873695D01*
X111634157Y-59648700D01*
X111540924Y-59436151D01*
X111413979Y-59241847D01*
X111256784Y-59071087D01*
X111079180Y-58932852D01*
X111043943Y-58889460D01*
X111031343Y-58835000D01*
X111043943Y-58780540D01*
X111079181Y-58737146D01*
X111256784Y-58598913D01*
X111413979Y-58428153D01*
X111540924Y-58233849D01*
X111634157Y-58021300D01*
X111691134Y-57796305D01*
X111710300Y-57565000D01*
X111691134Y-57333695D01*
X111634157Y-57108700D01*
X111540924Y-56896151D01*
X111440507Y-56742452D01*
X111420426Y-56679801D01*
X111435222Y-56615692D01*
X111480733Y-56568178D01*
X111544141Y-56550634D01*
X118574831Y-56540842D01*
X118632610Y-56555037D01*
X118677127Y-56594513D01*
X118698131Y-56650181D01*
X118690786Y-56709226D01*
X118656782Y-56758051D01*
X118603949Y-56785416D01*
X118514829Y-56806811D01*
X118287220Y-56901089D01*
X118077159Y-57029816D01*
X117889820Y-57189820D01*
X117791418Y-57305033D01*
X117733817Y-57342949D01*
X117664869Y-57344231D01*
X117605898Y-57308484D01*
X117519175Y-57214278D01*
X117487463Y-57179829D01*
X117297439Y-57031928D01*
X117085664Y-56917321D01*
X117085660Y-56917319D01*
X117085659Y-56917319D01*
X116857915Y-56839134D01*
X116620399Y-56799500D01*
X116379601Y-56799500D01*
X116142084Y-56839134D01*
X115914340Y-56917319D01*
X115914336Y-56917320D01*
X115914336Y-56917321D01*
X115779963Y-56990040D01*
X115702559Y-57031929D01*
X115512536Y-57179829D01*
X115349448Y-57356991D01*
X115217745Y-57558577D01*
X115121017Y-57779093D01*
X115061904Y-58012528D01*
X115047000Y-58192394D01*
X115047000Y-58407606D01*
X115061904Y-58587471D01*
X115121017Y-58820906D01*
X115217744Y-59041421D01*
X115217745Y-59041422D01*
X115349449Y-59243010D01*
X115512537Y-59420171D01*
X115702561Y-59568072D01*
X115914336Y-59682679D01*
X116142087Y-59760866D01*
X116379601Y-59800500D01*
X116620399Y-59800500D01*
X116857913Y-59760866D01*
X117085664Y-59682679D01*
X117297439Y-59568072D01*
X117487463Y-59420171D01*
X117605899Y-59291514D01*
X117664868Y-59255768D01*
X117733816Y-59257050D01*
X117791417Y-59294966D01*
X117889820Y-59410180D01*
X118077158Y-59570183D01*
X118156973Y-59619094D01*
X118287220Y-59698910D01*
X118514830Y-59793188D01*
X118514831Y-59793188D01*
X118514833Y-59793189D01*
X118754393Y-59850702D01*
X119000000Y-59870032D01*
X119245607Y-59850702D01*
X119485167Y-59793189D01*
X119563202Y-59760866D01*
X119712779Y-59698910D01*
X119845506Y-59617573D01*
X119922842Y-59570183D01*
X119994133Y-59509293D01*
X120054681Y-59481206D01*
X120121022Y-59488577D01*
X120173930Y-59529274D01*
X120183703Y-59542329D01*
X120183704Y-59542331D01*
X120269954Y-59657546D01*
X120385169Y-59743796D01*
X120520017Y-59794091D01*
X120579627Y-59800500D01*
X122580372Y-59800499D01*
X122639983Y-59794091D01*
X122774831Y-59743796D01*
X122890046Y-59657546D01*
X122976296Y-59542331D01*
X123026591Y-59407483D01*
X123033000Y-59347873D01*
X123032999Y-57252128D01*
X123026591Y-57192517D01*
X122976296Y-57057669D01*
X122890046Y-56942454D01*
X122774831Y-56856204D01*
X122639983Y-56805909D01*
X122580373Y-56799500D01*
X122580369Y-56799500D01*
X120579630Y-56799500D01*
X120520015Y-56805909D01*
X120385169Y-56856204D01*
X120269953Y-56942454D01*
X120173930Y-57070725D01*
X120121022Y-57111422D01*
X120054682Y-57118794D01*
X119994131Y-57090704D01*
X119973875Y-57073404D01*
X119922842Y-57029817D01*
X119893456Y-57011809D01*
X119712779Y-56901089D01*
X119485169Y-56806811D01*
X119391149Y-56784239D01*
X119338359Y-56756912D01*
X119304353Y-56708156D01*
X119296945Y-56649176D01*
X119317839Y-56593525D01*
X119362233Y-56553994D01*
X119419919Y-56539665D01*
X147848539Y-56500071D01*
X147896082Y-56509477D01*
G37*
%TD.AperFunction*%
%TD*%
M02*
