%TF.GenerationSoftware,KiCad,Pcbnew,7.0.1*%
%TF.CreationDate,2023-12-14T16:04:10+01:00*%
%TF.ProjectId,led-ring-v2,6c65642d-7269-46e6-972d-76322e6b6963,rev?*%
%TF.SameCoordinates,Original*%
%TF.FileFunction,Legend,Top*%
%TF.FilePolarity,Positive*%
%FSLAX46Y46*%
G04 Gerber Fmt 4.6, Leading zero omitted, Abs format (unit mm)*
G04 Created by KiCad (PCBNEW 7.0.1) date 2023-12-14 16:04:10*
%MOMM*%
%LPD*%
G01*
G04 APERTURE LIST*
G04 Aperture macros list*
%AMRoundRect*
0 Rectangle with rounded corners*
0 $1 Rounding radius*
0 $2 $3 $4 $5 $6 $7 $8 $9 X,Y pos of 4 corners*
0 Add a 4 corners polygon primitive as box body*
4,1,4,$2,$3,$4,$5,$6,$7,$8,$9,$2,$3,0*
0 Add four circle primitives for the rounded corners*
1,1,$1+$1,$2,$3*
1,1,$1+$1,$4,$5*
1,1,$1+$1,$6,$7*
1,1,$1+$1,$8,$9*
0 Add four rect primitives between the rounded corners*
20,1,$1+$1,$2,$3,$4,$5,0*
20,1,$1+$1,$4,$5,$6,$7,0*
20,1,$1+$1,$6,$7,$8,$9,0*
20,1,$1+$1,$8,$9,$2,$3,0*%
%AMHorizOval*
0 Thick line with rounded ends*
0 $1 width*
0 $2 $3 position (X,Y) of the first rounded end (center of the circle)*
0 $4 $5 position (X,Y) of the second rounded end (center of the circle)*
0 Add line between two ends*
20,1,$1,$2,$3,$4,$5,0*
0 Add two circle primitives to create the rounded ends*
1,1,$1,$2,$3*
1,1,$1,$4,$5*%
%AMOutline5P*
0 Free polygon, 5 corners , with rotation*
0 The origin of the aperture is its center*
0 number of corners: always 5*
0 $1 to $10 corner X, Y*
0 $11 Rotation angle, in degrees counterclockwise*
0 create outline with 5 corners*
4,1,5,$1,$2,$3,$4,$5,$6,$7,$8,$9,$10,$1,$2,$11*%
%AMOutline6P*
0 Free polygon, 6 corners , with rotation*
0 The origin of the aperture is its center*
0 number of corners: always 6*
0 $1 to $12 corner X, Y*
0 $13 Rotation angle, in degrees counterclockwise*
0 create outline with 6 corners*
4,1,6,$1,$2,$3,$4,$5,$6,$7,$8,$9,$10,$11,$12,$1,$2,$13*%
%AMOutline7P*
0 Free polygon, 7 corners , with rotation*
0 The origin of the aperture is its center*
0 number of corners: always 7*
0 $1 to $14 corner X, Y*
0 $15 Rotation angle, in degrees counterclockwise*
0 create outline with 7 corners*
4,1,7,$1,$2,$3,$4,$5,$6,$7,$8,$9,$10,$11,$12,$13,$14,$1,$2,$15*%
%AMOutline8P*
0 Free polygon, 8 corners , with rotation*
0 The origin of the aperture is its center*
0 number of corners: always 8*
0 $1 to $16 corner X, Y*
0 $17 Rotation angle, in degrees counterclockwise*
0 create outline with 8 corners*
4,1,8,$1,$2,$3,$4,$5,$6,$7,$8,$9,$10,$11,$12,$13,$14,$15,$16,$1,$2,$17*%
G04 Aperture macros list end*
%ADD10C,0.125000*%
%ADD11C,0.150000*%
%ADD12C,0.100000*%
%ADD13C,0.200000*%
%ADD14C,1.300887*%
%ADD15C,1.391055*%
%ADD16RoundRect,0.125000X0.858056X0.883170X-1.018753X-0.691659X-0.858056X-0.883170X1.018753X0.691659X0*%
%ADD17Outline5P,-1.350000X0.500000X1.350000X0.500000X1.350000X-0.500000X-1.050000X-0.500000X-1.350000X-0.200000X220.000000*%
%ADD18RoundRect,0.125000X0.720753X-0.998381X-0.504247X1.123381X-0.720753X0.998381X0.504247X-1.123381X0*%
%ADD19Outline5P,-1.350000X0.500000X1.350000X0.500000X1.350000X-0.500000X-1.050000X-0.500000X-1.350000X-0.200000X120.000000*%
%ADD20RoundRect,0.125000X-0.125000X1.225000X-0.125000X-1.225000X0.125000X-1.225000X0.125000X1.225000X0*%
%ADD21Outline5P,-1.350000X0.500000X1.350000X0.500000X1.350000X-0.500000X-1.050000X-0.500000X-1.350000X-0.200000X270.000000*%
%ADD22RoundRect,0.125000X0.600237X1.075158X-0.805025X-0.931764X-0.600237X-1.075158X0.805025X0.931764X0*%
%ADD23Outline5P,-1.350000X0.500000X1.350000X0.500000X1.350000X-0.500000X-1.050000X-0.500000X-1.350000X-0.200000X235.000000*%
%ADD24RoundRect,0.125000X-1.018753X0.691659X0.858056X-0.883170X1.018753X-0.691659X-0.858056X0.883170X0*%
%ADD25Outline5P,-1.350000X0.500000X1.350000X0.500000X1.350000X-0.500000X-1.050000X-0.500000X-1.350000X-0.200000X320.000000*%
%ADD26RoundRect,0.125000X-1.163054X0.404419X1.057400X-0.630996X1.163054X-0.404419X-1.057400X0.630996X0*%
%ADD27Outline5P,-1.350000X0.500000X1.350000X0.500000X1.350000X-0.500000X-1.050000X-0.500000X-1.350000X-0.200000X335.000000*%
%ADD28RoundRect,0.125000X0.437794X-1.150907X-0.196313X1.215612X-0.437794X1.150907X0.196313X-1.215612X0*%
%ADD29Outline5P,-1.350000X0.500000X1.350000X0.500000X1.350000X-0.500000X-1.050000X-0.500000X-1.350000X-0.200000X105.000000*%
%ADD30RoundRect,0.125000X-0.720753X0.998381X0.504247X-1.123381X0.720753X-0.998381X-0.504247X1.123381X0*%
%ADD31Outline5P,-1.350000X0.500000X1.350000X0.500000X1.350000X-0.500000X-1.050000X-0.500000X-1.350000X-0.200000X300.000000*%
%ADD32RoundRect,0.125000X1.150907X0.437794X-1.215612X-0.196313X-1.150907X-0.437794X1.215612X0.196313X0*%
%ADD33Outline5P,-1.350000X0.500000X1.350000X0.500000X1.350000X-0.500000X-1.050000X-0.500000X-1.350000X-0.200000X195.000000*%
%ADD34RoundRect,0.125000X1.228096X-0.089618X-1.184683X0.335820X-1.228096X0.089618X1.184683X-0.335820X0*%
%ADD35Outline5P,-1.350000X0.500000X1.350000X0.500000X1.350000X-0.500000X-1.050000X-0.500000X-1.350000X-0.200000X170.000000*%
%ADD36RoundRect,0.125000X-0.404419X-1.163054X0.630996X1.057400X0.404419X1.163054X-0.630996X-1.057400X0*%
%ADD37Outline5P,-1.350000X0.500000X1.350000X0.500000X1.350000X-0.500000X-1.050000X-0.500000X-1.350000X-0.200000X65.000000*%
%ADD38RoundRect,0.125000X-0.691659X-1.018753X0.883170X0.858056X0.691659X1.018753X-0.883170X-0.858056X0*%
%ADD39Outline5P,-1.350000X0.500000X1.350000X0.500000X1.350000X-0.500000X-1.050000X-0.500000X-1.350000X-0.200000X50.000000*%
%ADD40RoundRect,0.125000X0.196313X1.215612X-0.437794X-1.150907X-0.196313X-1.215612X0.437794X1.150907X0*%
%ADD41Outline5P,-1.350000X0.500000X1.350000X0.500000X1.350000X-0.500000X-1.050000X-0.500000X-1.350000X-0.200000X255.000000*%
%ADD42RoundRect,0.125000X-0.858056X-0.883170X1.018753X0.691659X0.858056X0.883170X-1.018753X-0.691659X0*%
%ADD43Outline5P,-1.350000X0.500000X1.350000X0.500000X1.350000X-0.500000X-1.050000X-0.500000X-1.350000X-0.200000X40.000000*%
%ADD44RoundRect,0.125000X-0.335820X1.184683X0.089618X-1.228096X0.335820X-1.184683X-0.089618X1.228096X0*%
%ADD45Outline5P,-1.350000X0.500000X1.350000X0.500000X1.350000X-0.500000X-1.050000X-0.500000X-1.350000X-0.200000X280.000000*%
%ADD46RoundRect,0.125000X-0.805025X0.931764X0.600237X-1.075158X0.805025X-0.931764X-0.600237X1.075158X0*%
%ADD47Outline5P,-1.350000X0.500000X1.350000X0.500000X1.350000X-0.500000X-1.050000X-0.500000X-1.350000X-0.200000X305.000000*%
%ADD48RoundRect,0.125000X-0.089618X-1.228096X0.335820X1.184683X0.089618X1.228096X-0.335820X-1.184683X0*%
%ADD49Outline5P,-1.350000X0.500000X1.350000X0.500000X1.350000X-0.500000X-1.050000X-0.500000X-1.350000X-0.200000X80.000000*%
%ADD50RoundRect,0.125000X-1.228096X0.089618X1.184683X-0.335820X1.228096X-0.089618X-1.184683X0.335820X0*%
%ADD51Outline5P,-1.350000X0.500000X1.350000X0.500000X1.350000X-0.500000X-1.050000X-0.500000X-1.350000X-0.200000X350.000000*%
%ADD52RoundRect,0.125000X1.193876X-0.301513X-1.108371X0.536436X-1.193876X0.301513X1.108371X-0.536436X0*%
%ADD53Outline5P,-1.350000X0.500000X1.350000X0.500000X1.350000X-0.500000X-1.050000X-0.500000X-1.350000X-0.200000X160.000000*%
%ADD54RoundRect,0.125000X0.125000X-1.225000X0.125000X1.225000X-0.125000X1.225000X-0.125000X-1.225000X0*%
%ADD55Outline5P,-1.350000X0.500000X1.350000X0.500000X1.350000X-0.500000X-1.050000X-0.500000X-1.350000X-0.200000X90.000000*%
%ADD56C,1.000000*%
%ADD57C,2.200000*%
%ADD58HorizOval,2.200000X0.813173X-0.813173X-0.813173X0.813173X0*%
%ADD59HorizOval,2.000000X0.000000X0.000000X0.000000X0.000000X0*%
G04 APERTURE END LIST*
D10*
X-5023809Y8302380D02*
X-5119047Y8350000D01*
X-5119047Y8350000D02*
X-5166666Y8445238D01*
X-5166666Y8445238D02*
X-5166666Y9302380D01*
X-4261904Y8350000D02*
X-4357142Y8302380D01*
X-4357142Y8302380D02*
X-4547618Y8302380D01*
X-4547618Y8302380D02*
X-4642856Y8350000D01*
X-4642856Y8350000D02*
X-4690475Y8445238D01*
X-4690475Y8445238D02*
X-4690475Y8826190D01*
X-4690475Y8826190D02*
X-4642856Y8921428D01*
X-4642856Y8921428D02*
X-4547618Y8969047D01*
X-4547618Y8969047D02*
X-4357142Y8969047D01*
X-4357142Y8969047D02*
X-4261904Y8921428D01*
X-4261904Y8921428D02*
X-4214285Y8826190D01*
X-4214285Y8826190D02*
X-4214285Y8730952D01*
X-4214285Y8730952D02*
X-4690475Y8635714D01*
X-3357142Y8302380D02*
X-3357142Y9302380D01*
X-3357142Y8350000D02*
X-3452380Y8302380D01*
X-3452380Y8302380D02*
X-3642856Y8302380D01*
X-3642856Y8302380D02*
X-3738094Y8350000D01*
X-3738094Y8350000D02*
X-3785713Y8397619D01*
X-3785713Y8397619D02*
X-3833332Y8492857D01*
X-3833332Y8492857D02*
X-3833332Y8778571D01*
X-3833332Y8778571D02*
X-3785713Y8873809D01*
X-3785713Y8873809D02*
X-3738094Y8921428D01*
X-3738094Y8921428D02*
X-3642856Y8969047D01*
X-3642856Y8969047D02*
X-3452380Y8969047D01*
X-3452380Y8969047D02*
X-3357142Y8921428D01*
X-2880951Y8683333D02*
X-2119047Y8683333D01*
X-1642856Y8302380D02*
X-1642856Y8969047D01*
X-1642856Y8778571D02*
X-1595237Y8873809D01*
X-1595237Y8873809D02*
X-1547618Y8921428D01*
X-1547618Y8921428D02*
X-1452380Y8969047D01*
X-1452380Y8969047D02*
X-1357142Y8969047D01*
X-1023808Y8302380D02*
X-1023808Y8969047D01*
X-1023808Y9302380D02*
X-1071427Y9254761D01*
X-1071427Y9254761D02*
X-1023808Y9207142D01*
X-1023808Y9207142D02*
X-976189Y9254761D01*
X-976189Y9254761D02*
X-1023808Y9302380D01*
X-1023808Y9302380D02*
X-1023808Y9207142D01*
X-547618Y8969047D02*
X-547618Y8302380D01*
X-547618Y8873809D02*
X-499999Y8921428D01*
X-499999Y8921428D02*
X-404761Y8969047D01*
X-404761Y8969047D02*
X-261904Y8969047D01*
X-261904Y8969047D02*
X-166666Y8921428D01*
X-166666Y8921428D02*
X-119047Y8826190D01*
X-119047Y8826190D02*
X-119047Y8302380D01*
X785714Y8969047D02*
X785714Y8159523D01*
X785714Y8159523D02*
X738095Y8064285D01*
X738095Y8064285D02*
X690476Y8016666D01*
X690476Y8016666D02*
X595238Y7969047D01*
X595238Y7969047D02*
X452381Y7969047D01*
X452381Y7969047D02*
X357143Y8016666D01*
X785714Y8350000D02*
X690476Y8302380D01*
X690476Y8302380D02*
X500000Y8302380D01*
X500000Y8302380D02*
X404762Y8350000D01*
X404762Y8350000D02*
X357143Y8397619D01*
X357143Y8397619D02*
X309524Y8492857D01*
X309524Y8492857D02*
X309524Y8778571D01*
X309524Y8778571D02*
X357143Y8873809D01*
X357143Y8873809D02*
X404762Y8921428D01*
X404762Y8921428D02*
X500000Y8969047D01*
X500000Y8969047D02*
X690476Y8969047D01*
X690476Y8969047D02*
X785714Y8921428D01*
X1261905Y8683333D02*
X2023810Y8683333D01*
X2404762Y8969047D02*
X2642857Y8302380D01*
X2642857Y8302380D02*
X2880952Y8969047D01*
X3214286Y9207142D02*
X3261905Y9254761D01*
X3261905Y9254761D02*
X3357143Y9302380D01*
X3357143Y9302380D02*
X3595238Y9302380D01*
X3595238Y9302380D02*
X3690476Y9254761D01*
X3690476Y9254761D02*
X3738095Y9207142D01*
X3738095Y9207142D02*
X3785714Y9111904D01*
X3785714Y9111904D02*
X3785714Y9016666D01*
X3785714Y9016666D02*
X3738095Y8873809D01*
X3738095Y8873809D02*
X3166667Y8302380D01*
X3166667Y8302380D02*
X3785714Y8302380D01*
X4214286Y8397619D02*
X4261905Y8350000D01*
X4261905Y8350000D02*
X4214286Y8302380D01*
X4214286Y8302380D02*
X4166667Y8350000D01*
X4166667Y8350000D02*
X4214286Y8397619D01*
X4214286Y8397619D02*
X4214286Y8302380D01*
X5214285Y8302380D02*
X4642857Y8302380D01*
X4928571Y8302380D02*
X4928571Y9302380D01*
X4928571Y9302380D02*
X4833333Y9159523D01*
X4833333Y9159523D02*
X4738095Y9064285D01*
X4738095Y9064285D02*
X4642857Y9016666D01*
X-3333333Y-8360000D02*
X-3238095Y-8407619D01*
X-3238095Y-8407619D02*
X-3047619Y-8407619D01*
X-3047619Y-8407619D02*
X-2952381Y-8360000D01*
X-2952381Y-8360000D02*
X-2904762Y-8264761D01*
X-2904762Y-8264761D02*
X-2904762Y-8217142D01*
X-2904762Y-8217142D02*
X-2952381Y-8121904D01*
X-2952381Y-8121904D02*
X-3047619Y-8074285D01*
X-3047619Y-8074285D02*
X-3190476Y-8074285D01*
X-3190476Y-8074285D02*
X-3285714Y-8026666D01*
X-3285714Y-8026666D02*
X-3333333Y-7931428D01*
X-3333333Y-7931428D02*
X-3333333Y-7883809D01*
X-3333333Y-7883809D02*
X-3285714Y-7788571D01*
X-3285714Y-7788571D02*
X-3190476Y-7740952D01*
X-3190476Y-7740952D02*
X-3047619Y-7740952D01*
X-3047619Y-7740952D02*
X-2952381Y-7788571D01*
X-2619047Y-7740952D02*
X-2238095Y-7740952D01*
X-2476190Y-7407619D02*
X-2476190Y-8264761D01*
X-2476190Y-8264761D02*
X-2428571Y-8360000D01*
X-2428571Y-8360000D02*
X-2333333Y-8407619D01*
X-2333333Y-8407619D02*
X-2238095Y-8407619D01*
X-1904761Y-8407619D02*
X-1904761Y-7740952D01*
X-1904761Y-7931428D02*
X-1857142Y-7836190D01*
X-1857142Y-7836190D02*
X-1809523Y-7788571D01*
X-1809523Y-7788571D02*
X-1714285Y-7740952D01*
X-1714285Y-7740952D02*
X-1619047Y-7740952D01*
X-857142Y-8407619D02*
X-857142Y-7883809D01*
X-857142Y-7883809D02*
X-904761Y-7788571D01*
X-904761Y-7788571D02*
X-999999Y-7740952D01*
X-999999Y-7740952D02*
X-1190475Y-7740952D01*
X-1190475Y-7740952D02*
X-1285713Y-7788571D01*
X-857142Y-8360000D02*
X-952380Y-8407619D01*
X-952380Y-8407619D02*
X-1190475Y-8407619D01*
X-1190475Y-8407619D02*
X-1285713Y-8360000D01*
X-1285713Y-8360000D02*
X-1333332Y-8264761D01*
X-1333332Y-8264761D02*
X-1333332Y-8169523D01*
X-1333332Y-8169523D02*
X-1285713Y-8074285D01*
X-1285713Y-8074285D02*
X-1190475Y-8026666D01*
X-1190475Y-8026666D02*
X-952380Y-8026666D01*
X-952380Y-8026666D02*
X-857142Y-7979047D01*
X-476189Y-7740952D02*
X-285713Y-8407619D01*
X-285713Y-8407619D02*
X-95237Y-7931428D01*
X-95237Y-7931428D02*
X95238Y-8407619D01*
X95238Y-8407619D02*
X285714Y-7740952D01*
X1571429Y-8407619D02*
X1476191Y-8360000D01*
X1476191Y-8360000D02*
X1428572Y-8264761D01*
X1428572Y-8264761D02*
X1428572Y-7407619D01*
X2380953Y-8407619D02*
X2380953Y-7883809D01*
X2380953Y-7883809D02*
X2333334Y-7788571D01*
X2333334Y-7788571D02*
X2238096Y-7740952D01*
X2238096Y-7740952D02*
X2047620Y-7740952D01*
X2047620Y-7740952D02*
X1952382Y-7788571D01*
X2380953Y-8360000D02*
X2285715Y-8407619D01*
X2285715Y-8407619D02*
X2047620Y-8407619D01*
X2047620Y-8407619D02*
X1952382Y-8360000D01*
X1952382Y-8360000D02*
X1904763Y-8264761D01*
X1904763Y-8264761D02*
X1904763Y-8169523D01*
X1904763Y-8169523D02*
X1952382Y-8074285D01*
X1952382Y-8074285D02*
X2047620Y-8026666D01*
X2047620Y-8026666D02*
X2285715Y-8026666D01*
X2285715Y-8026666D02*
X2380953Y-7979047D01*
X2857144Y-8407619D02*
X2857144Y-7407619D01*
X2857144Y-7788571D02*
X2952382Y-7740952D01*
X2952382Y-7740952D02*
X3142858Y-7740952D01*
X3142858Y-7740952D02*
X3238096Y-7788571D01*
X3238096Y-7788571D02*
X3285715Y-7836190D01*
X3285715Y-7836190D02*
X3333334Y-7931428D01*
X3333334Y-7931428D02*
X3333334Y-8217142D01*
X3333334Y-8217142D02*
X3285715Y-8312380D01*
X3285715Y-8312380D02*
X3238096Y-8360000D01*
X3238096Y-8360000D02*
X3142858Y-8407619D01*
X3142858Y-8407619D02*
X2952382Y-8407619D01*
X2952382Y-8407619D02*
X2857144Y-8360000D01*
D11*
%TO.C,D10*%
X-16045461Y-11693404D02*
X-15279417Y-11050617D01*
X-15279417Y-11050617D02*
X-15126372Y-11233008D01*
X-15126372Y-11233008D02*
X-15071023Y-11373052D01*
X-15071023Y-11373052D02*
X-15082762Y-11507227D01*
X-15082762Y-11507227D02*
X-15125110Y-11604923D01*
X-15125110Y-11604923D02*
X-15240414Y-11763837D01*
X-15240414Y-11763837D02*
X-15349849Y-11855664D01*
X-15349849Y-11855664D02*
X-15526371Y-11941621D01*
X-15526371Y-11941621D02*
X-15629937Y-11966361D01*
X-15629937Y-11966361D02*
X-15764111Y-11954622D01*
X-15764111Y-11954622D02*
X-15892416Y-11875796D01*
X-15892416Y-11875796D02*
X-16045461Y-11693404D01*
X-15065975Y-12860710D02*
X-15433282Y-12422971D01*
X-15249629Y-12641840D02*
X-14483584Y-11999053D01*
X-14483584Y-11999053D02*
X-14654237Y-12017923D01*
X-14654237Y-12017923D02*
X-14788412Y-12006184D01*
X-14788412Y-12006184D02*
X-14886108Y-11963837D01*
X-13902015Y-12692141D02*
X-13840797Y-12765097D01*
X-13840797Y-12765097D02*
X-13816057Y-12868663D01*
X-13816057Y-12868663D02*
X-13821927Y-12935750D01*
X-13821927Y-12935750D02*
X-13864274Y-13033446D01*
X-13864274Y-13033446D02*
X-13979579Y-13192360D01*
X-13979579Y-13192360D02*
X-14161970Y-13345405D01*
X-14161970Y-13345405D02*
X-14338492Y-13431362D01*
X-14338492Y-13431362D02*
X-14442058Y-13456102D01*
X-14442058Y-13456102D02*
X-14509145Y-13450233D01*
X-14509145Y-13450233D02*
X-14606841Y-13407885D01*
X-14606841Y-13407885D02*
X-14668059Y-13334928D01*
X-14668059Y-13334928D02*
X-14692799Y-13231363D01*
X-14692799Y-13231363D02*
X-14686929Y-13164275D01*
X-14686929Y-13164275D02*
X-14644582Y-13066579D01*
X-14644582Y-13066579D02*
X-14529277Y-12907665D01*
X-14529277Y-12907665D02*
X-14346886Y-12754621D01*
X-14346886Y-12754621D02*
X-14170364Y-12668663D01*
X-14170364Y-12668663D02*
X-14066798Y-12643924D01*
X-14066798Y-12643924D02*
X-13999711Y-12649793D01*
X-13999711Y-12649793D02*
X-13902015Y-12692141D01*
%TO.C,D16*%
X-7739707Y18317782D02*
X-7239707Y17451757D01*
X-7239707Y17451757D02*
X-7445903Y17332709D01*
X-7445903Y17332709D02*
X-7593431Y17302520D01*
X-7593431Y17302520D02*
X-7723528Y17337380D01*
X-7723528Y17337380D02*
X-7812387Y17396049D01*
X-7812387Y17396049D02*
X-7948864Y17537196D01*
X-7948864Y17537196D02*
X-8020293Y17660914D01*
X-8020293Y17660914D02*
X-8074291Y17849681D01*
X-8074291Y17849681D02*
X-8080671Y17955969D01*
X-8080671Y17955969D02*
X-8045812Y18086067D01*
X-8045812Y18086067D02*
X-7945903Y18198735D01*
X-7945903Y18198735D02*
X-7739707Y18317782D01*
X-9059364Y17555877D02*
X-8564493Y17841592D01*
X-8811929Y17698735D02*
X-8311929Y16832709D01*
X-8311929Y16832709D02*
X-8300879Y17004046D01*
X-8300879Y17004046D02*
X-8266019Y17134144D01*
X-8266019Y17134144D02*
X-8207350Y17223002D01*
X-9301672Y16261281D02*
X-9136715Y16356519D01*
X-9136715Y16356519D02*
X-9078046Y16445377D01*
X-9078046Y16445377D02*
X-9060616Y16510426D01*
X-9060616Y16510426D02*
X-9049566Y16681763D01*
X-9049566Y16681763D02*
X-9103565Y16870530D01*
X-9103565Y16870530D02*
X-9294041Y17200444D01*
X-9294041Y17200444D02*
X-9382899Y17259113D01*
X-9382899Y17259113D02*
X-9447948Y17276543D01*
X-9447948Y17276543D02*
X-9554236Y17270163D01*
X-9554236Y17270163D02*
X-9719193Y17174925D01*
X-9719193Y17174925D02*
X-9777862Y17086067D01*
X-9777862Y17086067D02*
X-9795292Y17021018D01*
X-9795292Y17021018D02*
X-9788913Y16914730D01*
X-9788913Y16914730D02*
X-9669865Y16708533D01*
X-9669865Y16708533D02*
X-9581007Y16649864D01*
X-9581007Y16649864D02*
X-9515958Y16632434D01*
X-9515958Y16632434D02*
X-9409670Y16638814D01*
X-9409670Y16638814D02*
X-9244712Y16734052D01*
X-9244712Y16734052D02*
X-9186043Y16822911D01*
X-9186043Y16822911D02*
X-9168613Y16887959D01*
X-9168613Y16887959D02*
X-9174993Y16994248D01*
%TO.C,D6*%
X-323664Y-19814806D02*
X-323664Y-18814806D01*
X-323664Y-18814806D02*
X-85569Y-18814806D01*
X-85569Y-18814806D02*
X57287Y-18862425D01*
X57287Y-18862425D02*
X152525Y-18957663D01*
X152525Y-18957663D02*
X200144Y-19052901D01*
X200144Y-19052901D02*
X247763Y-19243377D01*
X247763Y-19243377D02*
X247763Y-19386234D01*
X247763Y-19386234D02*
X200144Y-19576710D01*
X200144Y-19576710D02*
X152525Y-19671948D01*
X152525Y-19671948D02*
X57287Y-19767187D01*
X57287Y-19767187D02*
X-85569Y-19814806D01*
X-85569Y-19814806D02*
X-323664Y-19814806D01*
X1104906Y-18814806D02*
X914430Y-18814806D01*
X914430Y-18814806D02*
X819192Y-18862425D01*
X819192Y-18862425D02*
X771573Y-18910044D01*
X771573Y-18910044D02*
X676335Y-19052901D01*
X676335Y-19052901D02*
X628716Y-19243377D01*
X628716Y-19243377D02*
X628716Y-19624329D01*
X628716Y-19624329D02*
X676335Y-19719567D01*
X676335Y-19719567D02*
X723954Y-19767187D01*
X723954Y-19767187D02*
X819192Y-19814806D01*
X819192Y-19814806D02*
X1009668Y-19814806D01*
X1009668Y-19814806D02*
X1104906Y-19767187D01*
X1104906Y-19767187D02*
X1152525Y-19719567D01*
X1152525Y-19719567D02*
X1200144Y-19624329D01*
X1200144Y-19624329D02*
X1200144Y-19386234D01*
X1200144Y-19386234D02*
X1152525Y-19290996D01*
X1152525Y-19290996D02*
X1104906Y-19243377D01*
X1104906Y-19243377D02*
X1009668Y-19195758D01*
X1009668Y-19195758D02*
X819192Y-19195758D01*
X819192Y-19195758D02*
X723954Y-19243377D01*
X723954Y-19243377D02*
X676335Y-19290996D01*
X676335Y-19290996D02*
X628716Y-19386234D01*
%TO.C,D14*%
X-16693718Y16617403D02*
X-16120141Y17436555D01*
X-16120141Y17436555D02*
X-15925105Y17299989D01*
X-15925105Y17299989D02*
X-15835396Y17179042D01*
X-15835396Y17179042D02*
X-15812008Y17046402D01*
X-15812008Y17046402D02*
X-15827627Y16941074D01*
X-15827627Y16941074D02*
X-15897873Y16757732D01*
X-15897873Y16757732D02*
X-15979812Y16640710D01*
X-15979812Y16640710D02*
X-16128072Y16511994D01*
X-16128072Y16511994D02*
X-16221706Y16461293D01*
X-16221706Y16461293D02*
X-16354346Y16437905D01*
X-16354346Y16437905D02*
X-16498681Y16480837D01*
X-16498681Y16480837D02*
X-16693718Y16617403D01*
X-15445486Y15743382D02*
X-15913573Y16071140D01*
X-15679529Y15907261D02*
X-15105953Y16726413D01*
X-15105953Y16726413D02*
X-15265907Y16664017D01*
X-15265907Y16664017D02*
X-15398548Y16640629D01*
X-15398548Y16640629D02*
X-15503875Y16656248D01*
X-14360971Y15797846D02*
X-14743355Y15251745D01*
X-14337502Y16246470D02*
X-14942236Y15797927D01*
X-14942236Y15797927D02*
X-14435142Y15442856D01*
%TO.C,D3*%
X15323276Y-12604071D02*
X14557232Y-11961283D01*
X14557232Y-11961283D02*
X14710276Y-11778892D01*
X14710276Y-11778892D02*
X14838581Y-11700066D01*
X14838581Y-11700066D02*
X14972756Y-11688327D01*
X14972756Y-11688327D02*
X15076321Y-11713066D01*
X15076321Y-11713066D02*
X15252844Y-11799024D01*
X15252844Y-11799024D02*
X15362279Y-11890851D01*
X15362279Y-11890851D02*
X15477583Y-12049765D01*
X15477583Y-12049765D02*
X15519931Y-12147461D01*
X15519931Y-12147461D02*
X15531669Y-12281635D01*
X15531669Y-12281635D02*
X15476321Y-12421679D01*
X15476321Y-12421679D02*
X15323276Y-12604071D01*
X15138801Y-11268195D02*
X15536718Y-10793977D01*
X15536718Y-10793977D02*
X15614281Y-11294197D01*
X15614281Y-11294197D02*
X15706108Y-11184762D01*
X15706108Y-11184762D02*
X15803804Y-11142414D01*
X15803804Y-11142414D02*
X15870892Y-11136545D01*
X15870892Y-11136545D02*
X15974457Y-11161284D01*
X15974457Y-11161284D02*
X16156849Y-11314329D01*
X16156849Y-11314329D02*
X16199196Y-11412025D01*
X16199196Y-11412025D02*
X16205066Y-11479113D01*
X16205066Y-11479113D02*
X16180326Y-11582678D01*
X16180326Y-11582678D02*
X15996673Y-11801548D01*
X15996673Y-11801548D02*
X15898976Y-11843896D01*
X15898976Y-11843896D02*
X15831889Y-11849765D01*
%TO.C,D7*%
X-12225083Y-19329659D02*
X-13131390Y-18907041D01*
X-13131390Y-18907041D02*
X-13030767Y-18691253D01*
X-13030767Y-18691253D02*
X-12927235Y-18581905D01*
X-12927235Y-18581905D02*
X-12800671Y-18535839D01*
X-12800671Y-18535839D02*
X-12694231Y-18532931D01*
X-12694231Y-18532931D02*
X-12501477Y-18570272D01*
X-12501477Y-18570272D02*
X-12372004Y-18630647D01*
X-12372004Y-18630647D02*
X-12219499Y-18754303D01*
X-12219499Y-18754303D02*
X-12153308Y-18837710D01*
X-12153308Y-18837710D02*
X-12107243Y-18964274D01*
X-12107243Y-18964274D02*
X-12124459Y-19113871D01*
X-12124459Y-19113871D02*
X-12225083Y-19329659D01*
X-12749021Y-18087048D02*
X-12467276Y-17482843D01*
X-12467276Y-17482843D02*
X-11742090Y-18293878D01*
%TO.C,D21*%
X23354639Y2661615D02*
X23613458Y1695690D01*
X23613458Y1695690D02*
X23383476Y1634066D01*
X23383476Y1634066D02*
X23233161Y1643088D01*
X23233161Y1643088D02*
X23116519Y1710432D01*
X23116519Y1710432D02*
X23045873Y1790100D01*
X23045873Y1790100D02*
X22950578Y1961761D01*
X22950578Y1961761D02*
X22913604Y2099751D01*
X22913604Y2099751D02*
X22910301Y2296061D01*
X22910301Y2296061D02*
X22931648Y2400379D01*
X22931648Y2400379D02*
X22998992Y2517021D01*
X22998992Y2517021D02*
X23124657Y2599992D01*
X23124657Y2599992D02*
X23354639Y2661615D01*
X22668879Y1541188D02*
X22635207Y1482867D01*
X22635207Y1482867D02*
X22555539Y1412221D01*
X22555539Y1412221D02*
X22325557Y1350598D01*
X22325557Y1350598D02*
X22221239Y1371945D01*
X22221239Y1371945D02*
X22162918Y1405616D01*
X22162918Y1405616D02*
X22092272Y1485285D01*
X22092272Y1485285D02*
X22067623Y1577278D01*
X22067623Y1577278D02*
X22076645Y1727592D01*
X22076645Y1727592D02*
X22480706Y2427446D01*
X22480706Y2427446D02*
X21882752Y2267225D01*
X20962822Y2020730D02*
X21514780Y2168627D01*
X21238801Y2094678D02*
X21497620Y1128753D01*
X21497620Y1128753D02*
X21552639Y1291392D01*
X21552639Y1291392D02*
X21619983Y1408034D01*
X21619983Y1408034D02*
X21699651Y1478680D01*
%TO.C,D5*%
X8102100Y-18129687D02*
X7602100Y-17263661D01*
X7602100Y-17263661D02*
X7808297Y-17144614D01*
X7808297Y-17144614D02*
X7955824Y-17114424D01*
X7955824Y-17114424D02*
X8085922Y-17149284D01*
X8085922Y-17149284D02*
X8174780Y-17207953D01*
X8174780Y-17207953D02*
X8311258Y-17349101D01*
X8311258Y-17349101D02*
X8382686Y-17472819D01*
X8382686Y-17472819D02*
X8436685Y-17661585D01*
X8436685Y-17661585D02*
X8443065Y-17767874D01*
X8443065Y-17767874D02*
X8408205Y-17897971D01*
X8408205Y-17897971D02*
X8308297Y-18010639D01*
X8308297Y-18010639D02*
X8102100Y-18129687D01*
X8880519Y-16525566D02*
X8468126Y-16763661D01*
X8468126Y-16763661D02*
X8664982Y-17199864D01*
X8664982Y-17199864D02*
X8682411Y-17134815D01*
X8682411Y-17134815D02*
X8741080Y-17045957D01*
X8741080Y-17045957D02*
X8947277Y-16926909D01*
X8947277Y-16926909D02*
X9053565Y-16920529D01*
X9053565Y-16920529D02*
X9118614Y-16937959D01*
X9118614Y-16937959D02*
X9207472Y-16996628D01*
X9207472Y-16996628D02*
X9326520Y-17202825D01*
X9326520Y-17202825D02*
X9332900Y-17309113D01*
X9332900Y-17309113D02*
X9315470Y-17374162D01*
X9315470Y-17374162D02*
X9256801Y-17463020D01*
X9256801Y-17463020D02*
X9050604Y-17582068D01*
X9050604Y-17582068D02*
X8944316Y-17588447D01*
X8944316Y-17588447D02*
X8879267Y-17571018D01*
%TO.C,D15*%
X-611615Y14304639D02*
X354309Y14563458D01*
X354309Y14563458D02*
X415933Y14333476D01*
X415933Y14333476D02*
X406911Y14183161D01*
X406911Y14183161D02*
X339567Y14066519D01*
X339567Y14066519D02*
X259899Y13995873D01*
X259899Y13995873D02*
X88238Y13900578D01*
X88238Y13900578D02*
X-49751Y13863604D01*
X-49751Y13863604D02*
X-246061Y13860301D01*
X-246061Y13860301D02*
X-350379Y13881648D01*
X-350379Y13881648D02*
X-467021Y13948992D01*
X-467021Y13948992D02*
X-549992Y14074657D01*
X-549992Y14074657D02*
X-611615Y14304639D01*
X-217225Y12832752D02*
X-365121Y13384709D01*
X-291173Y13108731D02*
X674752Y13367550D01*
X674752Y13367550D02*
X512113Y13422569D01*
X512113Y13422569D02*
X395471Y13489912D01*
X395471Y13489912D02*
X324825Y13569580D01*
X982870Y12217638D02*
X859623Y12677603D01*
X859623Y12677603D02*
X387333Y12600352D01*
X387333Y12600352D02*
X445655Y12566680D01*
X445655Y12566680D02*
X516300Y12487012D01*
X516300Y12487012D02*
X577924Y12257030D01*
X577924Y12257030D02*
X556577Y12152712D01*
X556577Y12152712D02*
X522905Y12094391D01*
X522905Y12094391D02*
X443237Y12023745D01*
X443237Y12023745D02*
X213255Y11962121D01*
X213255Y11962121D02*
X108937Y11983468D01*
X108937Y11983468D02*
X50616Y12017140D01*
X50616Y12017140D02*
X-20029Y12096808D01*
X-20029Y12096808D02*
X-81653Y12326791D01*
X-81653Y12326791D02*
X-60306Y12431108D01*
X-60306Y12431108D02*
X-26634Y12489430D01*
%TO.C,D12*%
X-19115947Y5330107D02*
X-18131139Y5156459D01*
X-18131139Y5156459D02*
X-18172484Y4921981D01*
X-18172484Y4921981D02*
X-18244186Y4789563D01*
X-18244186Y4789563D02*
X-18354515Y4712310D01*
X-18354515Y4712310D02*
X-18456576Y4681952D01*
X-18456576Y4681952D02*
X-18652427Y4668133D01*
X-18652427Y4668133D02*
X-18793114Y4692940D01*
X-18793114Y4692940D02*
X-18972427Y4772911D01*
X-18972427Y4772911D02*
X-19057950Y4836345D01*
X-19057950Y4836345D02*
X-19135203Y4946674D01*
X-19135203Y4946674D02*
X-19157292Y5095629D01*
X-19157292Y5095629D02*
X-19115947Y5330107D01*
X-19380554Y3829448D02*
X-19281326Y4392195D01*
X-19330940Y4110822D02*
X-18346132Y3937174D01*
X-18346132Y3937174D02*
X-18470281Y4055772D01*
X-18470281Y4055772D02*
X-18547534Y4166101D01*
X-18547534Y4166101D02*
X-18577892Y4268161D01*
X-18555689Y3297173D02*
X-18517062Y3242008D01*
X-18517062Y3242008D02*
X-18486704Y3139948D01*
X-18486704Y3139948D02*
X-18528049Y2905470D01*
X-18528049Y2905470D02*
X-18591483Y2819948D01*
X-18591483Y2819948D02*
X-18646647Y2781321D01*
X-18646647Y2781321D02*
X-18748707Y2750964D01*
X-18748707Y2750964D02*
X-18842499Y2767501D01*
X-18842499Y2767501D02*
X-18974917Y2839204D01*
X-18974917Y2839204D02*
X-19438436Y3501179D01*
X-19438436Y3501179D02*
X-19545933Y2891536D01*
%TO.C,D18*%
X9361234Y17473669D02*
X8938616Y16567362D01*
X8938616Y16567362D02*
X8722829Y16667985D01*
X8722829Y16667985D02*
X8613481Y16771517D01*
X8613481Y16771517D02*
X8567415Y16898081D01*
X8567415Y16898081D02*
X8564507Y17004521D01*
X8564507Y17004521D02*
X8601848Y17197275D01*
X8601848Y17197275D02*
X8662222Y17326748D01*
X8662222Y17326748D02*
X8785878Y17479253D01*
X8785878Y17479253D02*
X8869285Y17545444D01*
X8869285Y17545444D02*
X8995850Y17591509D01*
X8995850Y17591509D02*
X9145447Y17574293D01*
X9145447Y17574293D02*
X9361234Y17473669D01*
X7980194Y18117659D02*
X8498084Y17876163D01*
X8239139Y17996911D02*
X7816521Y17090603D01*
X7816521Y17090603D02*
X7963210Y17179826D01*
X7963210Y17179826D02*
X8089774Y17225892D01*
X8089774Y17225892D02*
X8196214Y17228800D01*
X7220808Y17841265D02*
X7286998Y17757858D01*
X7286998Y17757858D02*
X7310031Y17694576D01*
X7310031Y17694576D02*
X7312939Y17588136D01*
X7312939Y17588136D02*
X7292814Y17544979D01*
X7292814Y17544979D02*
X7209407Y17478789D01*
X7209407Y17478789D02*
X7146125Y17455756D01*
X7146125Y17455756D02*
X7039685Y17452848D01*
X7039685Y17452848D02*
X6867055Y17533346D01*
X6867055Y17533346D02*
X6800865Y17616753D01*
X6800865Y17616753D02*
X6777832Y17680035D01*
X6777832Y17680035D02*
X6774924Y17786475D01*
X6774924Y17786475D02*
X6795049Y17829633D01*
X6795049Y17829633D02*
X6878456Y17895823D01*
X6878456Y17895823D02*
X6941738Y17918856D01*
X6941738Y17918856D02*
X7048178Y17921764D01*
X7048178Y17921764D02*
X7220808Y17841265D01*
X7220808Y17841265D02*
X7327247Y17844173D01*
X7327247Y17844173D02*
X7390530Y17867206D01*
X7390530Y17867206D02*
X7473936Y17933396D01*
X7473936Y17933396D02*
X7554435Y18106027D01*
X7554435Y18106027D02*
X7551527Y18212466D01*
X7551527Y18212466D02*
X7528494Y18275748D01*
X7528494Y18275748D02*
X7462304Y18359155D01*
X7462304Y18359155D02*
X7289674Y18439654D01*
X7289674Y18439654D02*
X7183234Y18436746D01*
X7183234Y18436746D02*
X7119952Y18413713D01*
X7119952Y18413713D02*
X7036545Y18347523D01*
X7036545Y18347523D02*
X6956046Y18174893D01*
X6956046Y18174893D02*
X6958954Y18068453D01*
X6958954Y18068453D02*
X6981987Y18005171D01*
X6981987Y18005171D02*
X7048178Y17921764D01*
%TO.C,D11*%
X-19561615Y-3545360D02*
X-18595690Y-3286541D01*
X-18595690Y-3286541D02*
X-18534066Y-3516523D01*
X-18534066Y-3516523D02*
X-18543088Y-3666838D01*
X-18543088Y-3666838D02*
X-18610432Y-3783480D01*
X-18610432Y-3783480D02*
X-18690100Y-3854126D01*
X-18690100Y-3854126D02*
X-18861761Y-3949421D01*
X-18861761Y-3949421D02*
X-18999751Y-3986395D01*
X-18999751Y-3986395D02*
X-19196061Y-3989698D01*
X-19196061Y-3989698D02*
X-19300379Y-3968351D01*
X-19300379Y-3968351D02*
X-19417021Y-3901007D01*
X-19417021Y-3901007D02*
X-19499992Y-3775342D01*
X-19499992Y-3775342D02*
X-19561615Y-3545360D01*
X-19167225Y-5017247D02*
X-19315121Y-4465290D01*
X-19241173Y-4741268D02*
X-18275247Y-4482449D01*
X-18275247Y-4482449D02*
X-18437886Y-4427430D01*
X-18437886Y-4427430D02*
X-18554528Y-4360087D01*
X-18554528Y-4360087D02*
X-18625174Y-4280419D01*
X-18920730Y-5937177D02*
X-19068627Y-5385219D01*
X-18994678Y-5661198D02*
X-18028753Y-5402379D01*
X-18028753Y-5402379D02*
X-18191392Y-5347360D01*
X-18191392Y-5347360D02*
X-18308034Y-5280016D01*
X-18308034Y-5280016D02*
X-18378680Y-5200348D01*
%TO.C,D19*%
X8587562Y6543858D02*
X7944775Y5777814D01*
X7944775Y5777814D02*
X7762383Y5930859D01*
X7762383Y5930859D02*
X7683557Y6059164D01*
X7683557Y6059164D02*
X7671818Y6193338D01*
X7671818Y6193338D02*
X7696558Y6296904D01*
X7696558Y6296904D02*
X7782515Y6473426D01*
X7782515Y6473426D02*
X7874342Y6582861D01*
X7874342Y6582861D02*
X8033256Y6698165D01*
X8033256Y6698165D02*
X8130952Y6740513D01*
X8130952Y6740513D02*
X8265127Y6752252D01*
X8265127Y6752252D02*
X8405171Y6696903D01*
X8405171Y6696903D02*
X8587562Y6543858D01*
X7420256Y7523344D02*
X7857996Y7156037D01*
X7639126Y7339691D02*
X6996339Y6573646D01*
X6996339Y6573646D02*
X7161122Y6621863D01*
X7161122Y6621863D02*
X7295296Y6633602D01*
X7295296Y6633602D02*
X7398862Y6608862D01*
X7055473Y7829434D02*
X6909560Y7951869D01*
X6909560Y7951869D02*
X6805994Y7976609D01*
X6805994Y7976609D02*
X6738907Y7970740D01*
X6738907Y7970740D02*
X6574124Y7922523D01*
X6574124Y7922523D02*
X6415210Y7807218D01*
X6415210Y7807218D02*
X6170338Y7515392D01*
X6170338Y7515392D02*
X6145599Y7411826D01*
X6145599Y7411826D02*
X6151468Y7344739D01*
X6151468Y7344739D02*
X6193816Y7247043D01*
X6193816Y7247043D02*
X6339729Y7124607D01*
X6339729Y7124607D02*
X6443295Y7099868D01*
X6443295Y7099868D02*
X6510382Y7105737D01*
X6510382Y7105737D02*
X6608078Y7148085D01*
X6608078Y7148085D02*
X6761123Y7330476D01*
X6761123Y7330476D02*
X6785862Y7434042D01*
X6785862Y7434042D02*
X6779993Y7501129D01*
X6779993Y7501129D02*
X6737645Y7598825D01*
X6737645Y7598825D02*
X6591732Y7721261D01*
X6591732Y7721261D02*
X6488166Y7746000D01*
X6488166Y7746000D02*
X6421079Y7740131D01*
X6421079Y7740131D02*
X6323383Y7697783D01*
%TO.C,D8*%
X-2580597Y-10270827D02*
X-2321778Y-9304901D01*
X-2321778Y-9304901D02*
X-2091796Y-9366525D01*
X-2091796Y-9366525D02*
X-1966131Y-9449496D01*
X-1966131Y-9449496D02*
X-1898787Y-9566138D01*
X-1898787Y-9566138D02*
X-1877440Y-9670456D01*
X-1877440Y-9670456D02*
X-1880743Y-9866766D01*
X-1880743Y-9866766D02*
X-1917717Y-10004756D01*
X-1917717Y-10004756D02*
X-2013012Y-10176417D01*
X-2013012Y-10176417D02*
X-2083658Y-10256085D01*
X-2083658Y-10256085D02*
X-2200300Y-10323428D01*
X-2200300Y-10323428D02*
X-2350615Y-10332451D01*
X-2350615Y-10332451D02*
X-2580597Y-10270827D01*
X-1328785Y-10014663D02*
X-1408453Y-9944017D01*
X-1408453Y-9944017D02*
X-1442125Y-9885696D01*
X-1442125Y-9885696D02*
X-1463472Y-9781378D01*
X-1463472Y-9781378D02*
X-1451147Y-9735382D01*
X-1451147Y-9735382D02*
X-1380501Y-9655713D01*
X-1380501Y-9655713D02*
X-1322180Y-9622042D01*
X-1322180Y-9622042D02*
X-1217863Y-9600695D01*
X-1217863Y-9600695D02*
X-1033877Y-9649993D01*
X-1033877Y-9649993D02*
X-954209Y-9720639D01*
X-954209Y-9720639D02*
X-920537Y-9778961D01*
X-920537Y-9778961D02*
X-899190Y-9883278D01*
X-899190Y-9883278D02*
X-911514Y-9929275D01*
X-911514Y-9929275D02*
X-982160Y-10008943D01*
X-982160Y-10008943D02*
X-1040482Y-10042615D01*
X-1040482Y-10042615D02*
X-1144799Y-10063962D01*
X-1144799Y-10063962D02*
X-1328785Y-10014663D01*
X-1328785Y-10014663D02*
X-1433103Y-10036010D01*
X-1433103Y-10036010D02*
X-1491424Y-10069682D01*
X-1491424Y-10069682D02*
X-1562070Y-10149350D01*
X-1562070Y-10149350D02*
X-1611369Y-10333336D01*
X-1611369Y-10333336D02*
X-1590022Y-10437653D01*
X-1590022Y-10437653D02*
X-1556350Y-10495974D01*
X-1556350Y-10495974D02*
X-1476682Y-10566620D01*
X-1476682Y-10566620D02*
X-1292696Y-10615919D01*
X-1292696Y-10615919D02*
X-1188378Y-10594572D01*
X-1188378Y-10594572D02*
X-1130057Y-10560900D01*
X-1130057Y-10560900D02*
X-1059411Y-10481232D01*
X-1059411Y-10481232D02*
X-1010112Y-10297246D01*
X-1010112Y-10297246D02*
X-1031459Y-10192929D01*
X-1031459Y-10192929D02*
X-1065131Y-10134608D01*
X-1065131Y-10134608D02*
X-1144799Y-10063962D01*
%TO.C,D20*%
X16045461Y11643404D02*
X15279417Y11000617D01*
X15279417Y11000617D02*
X15126372Y11183008D01*
X15126372Y11183008D02*
X15071023Y11323052D01*
X15071023Y11323052D02*
X15082762Y11457227D01*
X15082762Y11457227D02*
X15125110Y11554923D01*
X15125110Y11554923D02*
X15240414Y11713837D01*
X15240414Y11713837D02*
X15349849Y11805664D01*
X15349849Y11805664D02*
X15526371Y11891621D01*
X15526371Y11891621D02*
X15629937Y11916361D01*
X15629937Y11916361D02*
X15764111Y11904622D01*
X15764111Y11904622D02*
X15892416Y11825796D01*
X15892416Y11825796D02*
X16045461Y11643404D01*
X14740195Y11791401D02*
X14673107Y11797270D01*
X14673107Y11797270D02*
X14575411Y11839618D01*
X14575411Y11839618D02*
X14422367Y12022009D01*
X14422367Y12022009D02*
X14397627Y12125575D01*
X14397627Y12125575D02*
X14403496Y12192662D01*
X14403496Y12192662D02*
X14445844Y12290358D01*
X14445844Y12290358D02*
X14518801Y12351576D01*
X14518801Y12351576D02*
X14658844Y12406925D01*
X14658844Y12406925D02*
X15463891Y12336492D01*
X15463891Y12336492D02*
X15065975Y12810710D01*
X13902015Y12642141D02*
X13840797Y12715097D01*
X13840797Y12715097D02*
X13816057Y12818663D01*
X13816057Y12818663D02*
X13821927Y12885750D01*
X13821927Y12885750D02*
X13864274Y12983446D01*
X13864274Y12983446D02*
X13979579Y13142360D01*
X13979579Y13142360D02*
X14161970Y13295405D01*
X14161970Y13295405D02*
X14338492Y13381362D01*
X14338492Y13381362D02*
X14442058Y13406102D01*
X14442058Y13406102D02*
X14509145Y13400233D01*
X14509145Y13400233D02*
X14606841Y13357885D01*
X14606841Y13357885D02*
X14668059Y13284928D01*
X14668059Y13284928D02*
X14692799Y13181363D01*
X14692799Y13181363D02*
X14686929Y13114275D01*
X14686929Y13114275D02*
X14644582Y13016579D01*
X14644582Y13016579D02*
X14529277Y12857665D01*
X14529277Y12857665D02*
X14346886Y12704621D01*
X14346886Y12704621D02*
X14170364Y12618663D01*
X14170364Y12618663D02*
X14066798Y12593924D01*
X14066798Y12593924D02*
X13999711Y12599793D01*
X13999711Y12599793D02*
X13902015Y12642141D01*
%TO.C,D9*%
X-12726344Y-3211044D02*
X-12899992Y-2226236D01*
X-12899992Y-2226236D02*
X-12665514Y-2184892D01*
X-12665514Y-2184892D02*
X-12516558Y-2206980D01*
X-12516558Y-2206980D02*
X-12406229Y-2284234D01*
X-12406229Y-2284234D02*
X-12342796Y-2369756D01*
X-12342796Y-2369756D02*
X-12262824Y-2549069D01*
X-12262824Y-2549069D02*
X-12238017Y-2689756D01*
X-12238017Y-2689756D02*
X-12251837Y-2885608D01*
X-12251837Y-2885608D02*
X-12282195Y-2987668D01*
X-12282195Y-2987668D02*
X-12359448Y-3097997D01*
X-12359448Y-3097997D02*
X-12491866Y-3169699D01*
X-12491866Y-3169699D02*
X-12726344Y-3211044D01*
X-11694641Y-3029127D02*
X-11507058Y-2996051D01*
X-11507058Y-2996051D02*
X-11421536Y-2932618D01*
X-11421536Y-2932618D02*
X-11382909Y-2877453D01*
X-11382909Y-2877453D02*
X-11313925Y-2720228D01*
X-11313925Y-2720228D02*
X-11300105Y-2524377D01*
X-11300105Y-2524377D02*
X-11366257Y-2149212D01*
X-11366257Y-2149212D02*
X-11429690Y-2063690D01*
X-11429690Y-2063690D02*
X-11484855Y-2025063D01*
X-11484855Y-2025063D02*
X-11586915Y-1994705D01*
X-11586915Y-1994705D02*
X-11774498Y-2027781D01*
X-11774498Y-2027781D02*
X-11860020Y-2091215D01*
X-11860020Y-2091215D02*
X-11898646Y-2146379D01*
X-11898646Y-2146379D02*
X-11929004Y-2248440D01*
X-11929004Y-2248440D02*
X-11887659Y-2482918D01*
X-11887659Y-2482918D02*
X-11824226Y-2568440D01*
X-11824226Y-2568440D02*
X-11769061Y-2607067D01*
X-11769061Y-2607067D02*
X-11667001Y-2637424D01*
X-11667001Y-2637424D02*
X-11479419Y-2604348D01*
X-11479419Y-2604348D02*
X-11393896Y-2540915D01*
X-11393896Y-2540915D02*
X-11355270Y-2485750D01*
X-11355270Y-2485750D02*
X-11324912Y-2383690D01*
%TO.C,D4*%
X6473384Y-8377022D02*
X5899808Y-7557870D01*
X5899808Y-7557870D02*
X6094844Y-7421304D01*
X6094844Y-7421304D02*
X6239179Y-7378371D01*
X6239179Y-7378371D02*
X6371820Y-7401760D01*
X6371820Y-7401760D02*
X6465453Y-7452461D01*
X6465453Y-7452461D02*
X6613713Y-7581177D01*
X6613713Y-7581177D02*
X6695652Y-7698198D01*
X6695652Y-7698198D02*
X6765898Y-7881541D01*
X6765898Y-7881541D02*
X6781517Y-7986868D01*
X6781517Y-7986868D02*
X6758129Y-8119509D01*
X6758129Y-8119509D02*
X6668420Y-8240456D01*
X6668420Y-8240456D02*
X6473384Y-8377022D01*
X7261217Y-7011525D02*
X7643601Y-7557627D01*
X6847675Y-6836033D02*
X7062337Y-7557708D01*
X7062337Y-7557708D02*
X7569431Y-7202637D01*
%TO.C,D1*%
X13161151Y-2651362D02*
X12987503Y-3636170D01*
X12987503Y-3636170D02*
X12753025Y-3594825D01*
X12753025Y-3594825D02*
X12620607Y-3523123D01*
X12620607Y-3523123D02*
X12543354Y-3412794D01*
X12543354Y-3412794D02*
X12512996Y-3310734D01*
X12512996Y-3310734D02*
X12499176Y-3114882D01*
X12499176Y-3114882D02*
X12523983Y-2974195D01*
X12523983Y-2974195D02*
X12603954Y-2794882D01*
X12603954Y-2794882D02*
X12667388Y-2709360D01*
X12667388Y-2709360D02*
X12777717Y-2632106D01*
X12777717Y-2632106D02*
X12926673Y-2610018D01*
X12926673Y-2610018D02*
X13161151Y-2651362D01*
X11660491Y-2386756D02*
X12223239Y-2485983D01*
X11941865Y-2436370D02*
X11768217Y-3421177D01*
X11768217Y-3421177D02*
X11886815Y-3297028D01*
X11886815Y-3297028D02*
X11997144Y-3219775D01*
X11997144Y-3219775D02*
X12099204Y-3189417D01*
%TO.C,D2*%
X19248637Y-4911151D02*
X18263829Y-4737503D01*
X18263829Y-4737503D02*
X18305174Y-4503025D01*
X18305174Y-4503025D02*
X18376876Y-4370607D01*
X18376876Y-4370607D02*
X18487205Y-4293354D01*
X18487205Y-4293354D02*
X18589265Y-4262996D01*
X18589265Y-4262996D02*
X18785117Y-4249176D01*
X18785117Y-4249176D02*
X18925804Y-4273983D01*
X18925804Y-4273983D02*
X19105117Y-4353954D01*
X19105117Y-4353954D02*
X19190639Y-4417388D01*
X19190639Y-4417388D02*
X19267893Y-4527717D01*
X19267893Y-4527717D02*
X19289981Y-4676673D01*
X19289981Y-4676673D02*
X19248637Y-4911151D01*
X18522999Y-3816128D02*
X18484373Y-3760964D01*
X18484373Y-3760964D02*
X18454015Y-3658904D01*
X18454015Y-3658904D02*
X18495360Y-3424426D01*
X18495360Y-3424426D02*
X18558793Y-3338903D01*
X18558793Y-3338903D02*
X18613958Y-3300277D01*
X18613958Y-3300277D02*
X18716018Y-3269919D01*
X18716018Y-3269919D02*
X18809809Y-3286457D01*
X18809809Y-3286457D02*
X18942227Y-3358160D01*
X18942227Y-3358160D02*
X19405747Y-4020134D01*
X19405747Y-4020134D02*
X19513243Y-3410491D01*
%TO.C,D13*%
X-9150160Y5600329D02*
X-8210467Y5258309D01*
X-8210467Y5258309D02*
X-8291901Y5034572D01*
X-8291901Y5034572D02*
X-8385508Y4916617D01*
X-8385508Y4916617D02*
X-8507576Y4859696D01*
X-8507576Y4859696D02*
X-8613357Y4847522D01*
X-8613357Y4847522D02*
X-8808633Y4867922D01*
X-8808633Y4867922D02*
X-8942875Y4916782D01*
X-8942875Y4916782D02*
X-9105577Y5026676D01*
X-9105577Y5026676D02*
X-9178785Y5103996D01*
X-9178785Y5103996D02*
X-9235706Y5226064D01*
X-9235706Y5226064D02*
X-9231593Y5376593D01*
X-9231593Y5376593D02*
X-9150160Y5600329D01*
X-9671334Y4168416D02*
X-9475893Y4705384D01*
X-9573614Y4436900D02*
X-8633921Y4094880D01*
X-8633921Y4094880D02*
X-8735589Y4233234D01*
X-8735589Y4233234D02*
X-8792511Y4355302D01*
X-8792511Y4355302D02*
X-8804684Y4461083D01*
X-8845648Y3513165D02*
X-9057374Y2931451D01*
X-9057374Y2931451D02*
X-9301346Y3374975D01*
X-9301346Y3374975D02*
X-9350206Y3240733D01*
X-9350206Y3240733D02*
X-9427526Y3167525D01*
X-9427526Y3167525D02*
X-9488560Y3139065D01*
X-9488560Y3139065D02*
X-9594342Y3126891D01*
X-9594342Y3126891D02*
X-9818078Y3208324D01*
X-9818078Y3208324D02*
X-9891286Y3285645D01*
X-9891286Y3285645D02*
X-9919746Y3346679D01*
X-9919746Y3346679D02*
X-9931920Y3452460D01*
X-9931920Y3452460D02*
X-9834200Y3720944D01*
X-9834200Y3720944D02*
X-9756880Y3794151D01*
X-9756880Y3794151D02*
X-9695846Y3822612D01*
%TO.C,D17*%
X799855Y19814806D02*
X799855Y18814806D01*
X799855Y18814806D02*
X561760Y18814806D01*
X561760Y18814806D02*
X418903Y18862425D01*
X418903Y18862425D02*
X323665Y18957663D01*
X323665Y18957663D02*
X276046Y19052901D01*
X276046Y19052901D02*
X228427Y19243377D01*
X228427Y19243377D02*
X228427Y19386234D01*
X228427Y19386234D02*
X276046Y19576710D01*
X276046Y19576710D02*
X323665Y19671948D01*
X323665Y19671948D02*
X418903Y19767187D01*
X418903Y19767187D02*
X561760Y19814806D01*
X561760Y19814806D02*
X799855Y19814806D01*
X-723953Y19814806D02*
X-152525Y19814806D01*
X-438239Y19814806D02*
X-438239Y18814806D01*
X-438239Y18814806D02*
X-343001Y18957663D01*
X-343001Y18957663D02*
X-247763Y19052901D01*
X-247763Y19052901D02*
X-152525Y19100520D01*
X-1057287Y18814806D02*
X-1723953Y18814806D01*
X-1723953Y18814806D02*
X-1295382Y19814806D01*
D12*
%TO.C,D10*%
X-17163928Y-10804151D02*
X-17393742Y-10996988D01*
X-14732336Y-14246514D02*
X-15053730Y-13863491D01*
X-16982093Y-11565358D02*
X-17303486Y-11182336D01*
X-17303486Y-11182336D02*
X-17686509Y-11503730D01*
X-15115358Y-14567907D02*
X-14732336Y-14246514D01*
X-19984642Y-13432093D02*
X-20367664Y-13753486D01*
X-17796514Y-16817664D02*
X-17413491Y-16496270D01*
X-18117907Y-16434642D02*
X-17796514Y-16817664D01*
X-20367664Y-13753486D02*
X-20046270Y-14136509D01*
X-12800000Y-14000000D02*
G75*
G03*
X-12800000Y-14000000I-4750000J0D01*
G01*
%TO.C,D16*%
X-6669744Y19264840D02*
X-6819744Y19524648D01*
X-10482051Y17467949D02*
X-10049038Y17717949D01*
X-7450962Y19217949D02*
X-7017949Y19467949D01*
X-7017949Y19467949D02*
X-7267949Y19900962D01*
X-10732051Y17900962D02*
X-10482051Y17467949D01*
X-8767949Y22499038D02*
X-9017949Y22932051D01*
X-12482051Y20932051D02*
X-12232051Y20499038D01*
X-12049038Y21182051D02*
X-12482051Y20932051D01*
X-9017949Y22932051D02*
X-9450962Y22682051D01*
X-5000000Y20200000D02*
G75*
G03*
X-5000000Y20200000I-4750000J0D01*
G01*
%TO.C,D6*%
X-2200000Y-20100000D02*
X-2200000Y-20400000D01*
X2000000Y-20450000D02*
X1500000Y-20450000D01*
X-1500000Y-20450000D02*
X-2000000Y-20450000D01*
X-2000000Y-20450000D02*
X-2000000Y-20950000D01*
X2000000Y-20950000D02*
X2000000Y-20450000D01*
X-2000000Y-23950000D02*
X-2000000Y-24450000D01*
X2000000Y-24450000D02*
X2000000Y-23950000D01*
X1500000Y-24450000D02*
X2000000Y-24450000D01*
X-2000000Y-24450000D02*
X-1500000Y-24450000D01*
X4750000Y-22450000D02*
G75*
G03*
X4750000Y-22450000I-4750000J0D01*
G01*
%TO.C,D14*%
X-18004230Y17186875D02*
X-18176303Y16941130D01*
X-14764543Y14491151D02*
X-15174119Y14777939D01*
X-17631575Y16498669D02*
X-18041151Y16785457D01*
X-18041151Y16785457D02*
X-18327939Y16375881D01*
X-15051331Y14081575D02*
X-14764543Y14491151D01*
X-20048669Y13918425D02*
X-20335457Y13508849D01*
X-17058849Y11214543D02*
X-16772061Y11624119D01*
X-17468425Y11501331D02*
X-17058849Y11214543D01*
X-20335457Y13508849D02*
X-19925881Y13222061D01*
X-12800000Y14000000D02*
G75*
G03*
X-12800000Y14000000I-4750000J0D01*
G01*
%TO.C,D3*%
X14335663Y-14224747D02*
X14565476Y-14417583D01*
X17303486Y-11232336D02*
X16982093Y-11615358D01*
X15053730Y-13913491D02*
X14732336Y-14296514D01*
X14732336Y-14296514D02*
X15115358Y-14617907D01*
X17686509Y-11553730D02*
X17303486Y-11232336D01*
X17413491Y-16546270D02*
X17796514Y-16867664D01*
X20367664Y-13803486D02*
X19984642Y-13482093D01*
X20046270Y-14186509D02*
X20367664Y-13803486D01*
X17796514Y-16867664D02*
X18117907Y-16484642D01*
X22300000Y-14050000D02*
G75*
G03*
X22300000Y-14050000I-4750000J0D01*
G01*
%TO.C,D7*%
X-12759583Y-21150724D02*
X-12487691Y-21277510D01*
X-10667379Y-17492148D02*
X-10878688Y-17945302D01*
X-12146543Y-20664225D02*
X-12357852Y-21117379D01*
X-12357852Y-21117379D02*
X-11904698Y-21328688D01*
X-10214225Y-17703457D02*
X-10667379Y-17492148D01*
X-9185775Y-22596543D02*
X-8732621Y-22807852D01*
X-7042148Y-19182621D02*
X-7495302Y-18971312D01*
X-7253457Y-19635775D02*
X-7042148Y-19182621D01*
X-8732621Y-22807852D02*
X-8521312Y-22354698D01*
X-4950000Y-20150000D02*
G75*
G03*
X-4950000Y-20150000I-4750000J0D01*
G01*
%TO.C,D21*%
X24633262Y3299476D02*
X24555616Y3589254D01*
X20485786Y2550510D02*
X20968749Y2679920D01*
X23866527Y3456377D02*
X24349490Y3585786D01*
X24349490Y3585786D02*
X24220080Y4068749D01*
X20356377Y3033473D02*
X20485786Y2550510D01*
X23443623Y6966527D02*
X23314214Y7449490D01*
X19450510Y6414214D02*
X19579920Y5931251D01*
X19933473Y6543623D02*
X19450510Y6414214D01*
X23314214Y7449490D02*
X22831251Y7320080D01*
X26650000Y5000000D02*
G75*
G03*
X26650000Y5000000I-4750000J0D01*
G01*
%TO.C,D5*%
X6619744Y-19314840D02*
X6769744Y-19574648D01*
X10432051Y-17517949D02*
X9999038Y-17767949D01*
X7400962Y-19267949D02*
X6967949Y-19517949D01*
X6967949Y-19517949D02*
X7217949Y-19950962D01*
X10682051Y-17950962D02*
X10432051Y-17517949D01*
X8717949Y-22549038D02*
X8967949Y-22982051D01*
X12432051Y-20982051D02*
X12182051Y-20549038D01*
X11999038Y-21232051D02*
X12432051Y-20982051D01*
X8967949Y-22982051D02*
X9400962Y-22732051D01*
X14450000Y-20250000D02*
G75*
G03*
X14450000Y-20250000I-4750000J0D01*
G01*
%TO.C,D15*%
X-1249476Y15583262D02*
X-1539254Y15505616D01*
X-500510Y11435786D02*
X-629920Y11918749D01*
X-1406377Y14816527D02*
X-1535786Y15299490D01*
X-1535786Y15299490D02*
X-2018749Y15170080D01*
X-983473Y11306377D02*
X-500510Y11435786D01*
X-4916527Y14393623D02*
X-5399490Y14264214D01*
X-4364214Y10400510D02*
X-3881251Y10529920D01*
X-4493623Y10883473D02*
X-4364214Y10400510D01*
X-5399490Y14264214D02*
X-5270080Y13781251D01*
X1800000Y12850000D02*
G75*
G03*
X1800000Y12850000I-4750000J0D01*
G01*
%TO.C,D12*%
X-19153676Y6758504D02*
X-19449118Y6810598D01*
X-20227681Y2683088D02*
X-20140857Y3175492D01*
X-19619912Y6129915D02*
X-19533088Y6622319D01*
X-19533088Y6622319D02*
X-20025492Y6709143D01*
X-20720085Y2769912D02*
X-20227681Y2683088D01*
X-22979915Y7230088D02*
X-23472319Y7316912D01*
X-24166912Y3377681D02*
X-23674508Y3290857D01*
X-24080088Y3870085D02*
X-24166912Y3377681D01*
X-23472319Y7316912D02*
X-23559143Y6824508D01*
X-17100000Y5000000D02*
G75*
G03*
X-17100000Y5000000I-4750000J0D01*
G01*
%TO.C,D18*%
X10750724Y17140417D02*
X10877510Y17412309D01*
X7092148Y19232621D02*
X7545302Y19021312D01*
X10264225Y17753457D02*
X10717379Y17542148D01*
X10717379Y17542148D02*
X10928688Y17995302D01*
X7303457Y19685775D02*
X7092148Y19232621D01*
X12196543Y20714225D02*
X12407852Y21167379D01*
X8782621Y22857852D02*
X8571312Y22404698D01*
X9235775Y22646543D02*
X8782621Y22857852D01*
X12407852Y21167379D02*
X11954698Y21378688D01*
X14500000Y20200000D02*
G75*
G03*
X14500000Y20200000I-4750000J0D01*
G01*
%TO.C,D11*%
X-20199476Y-2266738D02*
X-20489254Y-2344384D01*
X-19450510Y-6414214D02*
X-19579920Y-5931251D01*
X-20356377Y-3033473D02*
X-20485786Y-2550510D01*
X-20485786Y-2550510D02*
X-20968749Y-2679920D01*
X-19933473Y-6543623D02*
X-19450510Y-6414214D01*
X-23866527Y-3456377D02*
X-24349490Y-3585786D01*
X-23314214Y-7449490D02*
X-22831251Y-7320080D01*
X-23443623Y-6966527D02*
X-23314214Y-7449490D01*
X-24349490Y-3585786D02*
X-24220080Y-4068749D01*
X-17150000Y-5000000D02*
G75*
G03*
X-17150000Y-5000000I-4750000J0D01*
G01*
%TO.C,D19*%
X8424747Y7135663D02*
X8617583Y7365476D01*
X5432336Y10103486D02*
X5815358Y9782093D01*
X8113491Y7853730D02*
X8496514Y7532336D01*
X8496514Y7532336D02*
X8817907Y7915358D01*
X5753730Y10486509D02*
X5432336Y10103486D01*
X10746270Y10213491D02*
X11067664Y10596514D01*
X8003486Y13167664D02*
X7682093Y12784642D01*
X8386509Y12846270D02*
X8003486Y13167664D01*
X11067664Y10596514D02*
X10684642Y10917907D01*
X13000000Y10350000D02*
G75*
G03*
X13000000Y10350000I-4750000J0D01*
G01*
%TO.C,D8*%
X-4466812Y-10060672D02*
X-4544458Y-10350450D01*
X-500510Y-11485786D02*
X-983473Y-11356377D01*
X-3881251Y-10579920D02*
X-4364214Y-10450510D01*
X-4364214Y-10450510D02*
X-4493623Y-10933473D01*
X-629920Y-11968749D02*
X-500510Y-11485786D01*
X-5270080Y-13831251D02*
X-5399490Y-14314214D01*
X-1535786Y-15349490D02*
X-1406377Y-14866527D01*
X-2018749Y-15220080D02*
X-1535786Y-15349490D01*
X-5399490Y-14314214D02*
X-4916527Y-14443623D01*
X1800000Y-12900000D02*
G75*
G03*
X1800000Y-12900000I-4750000J0D01*
G01*
%TO.C,D20*%
X17163928Y10754151D02*
X17393742Y10946988D01*
X14732336Y14196514D02*
X15053730Y13813491D01*
X16982093Y11515358D02*
X17303486Y11132336D01*
X17303486Y11132336D02*
X17686509Y11453730D01*
X15115358Y14517907D02*
X14732336Y14196514D01*
X19984642Y13382093D02*
X20367664Y13703486D01*
X17796514Y16767664D02*
X17413491Y16446270D01*
X18117907Y16384642D02*
X17796514Y16767664D01*
X20367664Y13703486D02*
X20046270Y14086509D01*
X22300000Y13950000D02*
G75*
G03*
X22300000Y13950000I-4750000J0D01*
G01*
%TO.C,D9*%
X-14524650Y-3817728D02*
X-14472556Y-4113170D01*
X-10327681Y-3433088D02*
X-10820085Y-3519912D01*
X-13774508Y-4040857D02*
X-14266912Y-4127681D01*
X-14266912Y-4127681D02*
X-14180088Y-4620085D01*
X-10240857Y-3925492D02*
X-10327681Y-3433088D01*
X-13659143Y-7574508D02*
X-13572319Y-8066912D01*
X-9633088Y-7372319D02*
X-9719912Y-6879915D01*
X-10125492Y-7459143D02*
X-9633088Y-7372319D01*
X-13572319Y-8066912D02*
X-13079915Y-7980088D01*
X-7200000Y-5750000D02*
G75*
G03*
X-7200000Y-5750000I-4750000J0D01*
G01*
%TO.C,D4*%
X5099961Y-9686861D02*
X5272034Y-9932606D01*
X8741151Y-7564543D02*
X8331575Y-7851331D01*
X5874119Y-9572061D02*
X5464543Y-9858849D01*
X5464543Y-9858849D02*
X5751331Y-10268425D01*
X9027939Y-7974119D02*
X8741151Y-7564543D01*
X7472061Y-12725881D02*
X7758849Y-13135457D01*
X11035457Y-10841151D02*
X10748669Y-10431575D01*
X10625881Y-11127939D02*
X11035457Y-10841151D01*
X7758849Y-13135457D02*
X8168425Y-12848669D01*
X13000000Y-10350000D02*
G75*
G03*
X13000000Y-10350000I-4750000J0D01*
G01*
%TO.C,D1*%
X15058504Y-2696324D02*
X15110598Y-2400882D01*
X10983088Y-1622319D02*
X11475492Y-1709143D01*
X14429915Y-2230088D02*
X14922319Y-2316912D01*
X14922319Y-2316912D02*
X15009143Y-1824508D01*
X11069912Y-1129915D02*
X10983088Y-1622319D01*
X15530088Y1129915D02*
X15616912Y1622319D01*
X11677681Y2316912D02*
X11590857Y1824508D01*
X12170085Y2230088D02*
X11677681Y2316912D01*
X15616912Y1622319D02*
X15124508Y1709143D01*
X18050000Y0D02*
G75*
G03*
X18050000Y0I-4750000J0D01*
G01*
%TO.C,D2*%
X19203676Y-6808504D02*
X19499118Y-6860598D01*
X20277681Y-2733088D02*
X20190857Y-3225492D01*
X19669912Y-6179915D02*
X19583088Y-6672319D01*
X19583088Y-6672319D02*
X20075492Y-6759143D01*
X20770085Y-2819912D02*
X20277681Y-2733088D01*
X23029915Y-7280088D02*
X23522319Y-7366912D01*
X24216912Y-3427681D02*
X23724508Y-3340857D01*
X24130088Y-3920085D02*
X24216912Y-3427681D01*
X23522319Y-7366912D02*
X23609143Y-6874508D01*
X26650000Y-5050000D02*
G75*
G03*
X26650000Y-5050000I-4750000J0D01*
G01*
%TO.C,D13*%
X-8939278Y7013576D02*
X-9221186Y7116182D01*
X-10704655Y3186574D02*
X-10533645Y3656421D01*
X-9507585Y6475499D02*
X-9336574Y6945345D01*
X-9336574Y6945345D02*
X-9806421Y7116355D01*
X-11174501Y3357585D02*
X-10704655Y3186574D01*
X-12625499Y8142415D02*
X-13095345Y8313426D01*
X-14463426Y4554655D02*
X-13993579Y4383645D01*
X-14292415Y5024501D02*
X-14463426Y4554655D01*
X-13095345Y8313426D02*
X-13266355Y7843579D01*
X-7150000Y5750000D02*
G75*
G03*
X-7150000Y5750000I-4750000J0D01*
G01*
%TO.C,D17*%
X2200000Y20100000D02*
X2200000Y20400000D01*
X-2000000Y20450000D02*
X-1500000Y20450000D01*
X1500000Y20450000D02*
X2000000Y20450000D01*
X2000000Y20450000D02*
X2000000Y20950000D01*
X-2000000Y20950000D02*
X-2000000Y20450000D01*
X2000000Y23950000D02*
X2000000Y24450000D01*
X-2000000Y24450000D02*
X-2000000Y23950000D01*
X-1500000Y24450000D02*
X-2000000Y24450000D01*
X2000000Y24450000D02*
X1500000Y24450000D01*
X4750000Y22450000D02*
G75*
G03*
X4750000Y22450000I-4750000J0D01*
G01*
D13*
%TO.C,J1*%
X-17105133Y21962369D02*
X-16566318Y21423554D01*
X-16566318Y21962369D02*
X-17105133Y21423554D01*
X-21415656Y17113031D02*
X-21954471Y16574216D01*
%TD*%
%LPC*%
D14*
X-13459557Y21440000D02*
G75*
G03*
X-13459557Y21440000I-650443J0D01*
G01*
D15*
X-17914473Y17540000D02*
G75*
G03*
X-17914473Y17540000I-695527J0D01*
G01*
D16*
%TO.C,D10*%
X-18257066Y-13157351D03*
X-16842934Y-14842649D03*
D17*
X-17550000Y-14000000D03*
%TD*%
D18*
%TO.C,D16*%
X-8797372Y20750000D03*
X-10702628Y19650000D03*
D19*
X-9750000Y20200000D03*
%TD*%
D20*
%TO.C,D6*%
X-1100000Y-22450000D03*
X1100000Y-22450000D03*
D21*
X0Y-22450000D03*
%TD*%
D22*
%TO.C,D14*%
X-18451067Y14630934D03*
X-16648933Y13369066D03*
D23*
X-17550000Y14000000D03*
%TD*%
D24*
%TO.C,D3*%
X16842934Y-14892649D03*
X18257066Y-13207351D03*
D25*
X17550000Y-14050000D03*
%TD*%
D26*
%TO.C,D7*%
X-10164880Y-21146939D03*
X-9235120Y-19153061D03*
D27*
X-9700000Y-20150000D03*
%TD*%
D28*
%TO.C,D21*%
X22962518Y5284701D03*
X20837482Y4715299D03*
D29*
X21900000Y5000000D03*
%TD*%
D30*
%TO.C,D5*%
X8747372Y-20800000D03*
X10652628Y-19700000D03*
D31*
X9700000Y-20250000D03*
%TD*%
D32*
%TO.C,D15*%
X-3234701Y13912518D03*
X-2665299Y11787482D03*
D33*
X-2950000Y12850000D03*
%TD*%
D34*
%TO.C,D12*%
X-21658987Y6083289D03*
X-22041013Y3916711D03*
D35*
X-21850000Y5000000D03*
%TD*%
D36*
%TO.C,D18*%
X10746939Y19735120D03*
X8753061Y20664880D03*
D37*
X9750000Y20200000D03*
%TD*%
D32*
%TO.C,D11*%
X-22184701Y-3937482D03*
X-21615299Y-6062518D03*
D33*
X-21900000Y-5000000D03*
%TD*%
D38*
%TO.C,D19*%
X9092649Y9642934D03*
X7407351Y11057066D03*
D39*
X8250000Y10350000D03*
%TD*%
D40*
%TO.C,D8*%
X-4012518Y-12615299D03*
X-1887482Y-13184701D03*
D41*
X-2950000Y-12900000D03*
%TD*%
D42*
%TO.C,D20*%
X18257066Y13107351D03*
X16842934Y14792649D03*
D43*
X17550000Y13950000D03*
%TD*%
D44*
%TO.C,D9*%
X-13033289Y-5941013D03*
X-10866711Y-5558987D03*
D45*
X-11950000Y-5750000D03*
%TD*%
D46*
%TO.C,D4*%
X7348933Y-10980934D03*
X9151067Y-9719066D03*
D47*
X8250000Y-10350000D03*
%TD*%
D48*
%TO.C,D1*%
X14383289Y-191013D03*
X12216711Y191013D03*
D49*
X13300000Y0D03*
%TD*%
D50*
%TO.C,D2*%
X21708987Y-6133289D03*
X22091013Y-3966711D03*
D51*
X21900000Y-5050000D03*
%TD*%
D52*
%TO.C,D13*%
X-11523778Y6783662D03*
X-12276222Y4716338D03*
D53*
X-11900000Y5750000D03*
%TD*%
D54*
%TO.C,D17*%
X1100000Y22450000D03*
X-1100000Y22450000D03*
D55*
X0Y22450000D03*
%TD*%
D56*
%TO.C,TP13*%
X-8770000Y14370000D03*
%TD*%
%TO.C,TP6*%
X-4250000Y-18540000D03*
%TD*%
%TO.C,TP4*%
X5080000Y-15290000D03*
%TD*%
%TO.C,TP2*%
X18090000Y-8810000D03*
%TD*%
D57*
%TO.C,REF\u002A\u002A*%
X22000000Y22000000D03*
%TD*%
D56*
%TO.C,TP16*%
X4900000Y15230000D03*
%TD*%
%TO.C,TP11*%
X-15740000Y1260000D03*
%TD*%
%TO.C,TP18*%
X16710000Y7810000D03*
%TD*%
%TO.C,TP12*%
X-12340000Y11440000D03*
%TD*%
%TO.C,TP5*%
X4670000Y-20590000D03*
%TD*%
D57*
%TO.C,REF\u002A\u002A*%
X22000000Y-22000000D03*
%TD*%
D56*
%TO.C,TP17*%
X13370000Y8430000D03*
%TD*%
%TO.C,TP3*%
X13380000Y-7820000D03*
%TD*%
%TO.C,TP8*%
X-11880000Y-11870000D03*
%TD*%
%TO.C,TP7*%
X-8720000Y-10900000D03*
%TD*%
%TO.C,TP14*%
X-4430000Y19970000D03*
%TD*%
%TO.C,TP10*%
X-20060000Y40000D03*
%TD*%
%TO.C,TP9*%
X-17780000Y-8490000D03*
%TD*%
%TO.C,TP15*%
X4430000Y19560000D03*
%TD*%
%TO.C,TP1*%
X18920000Y-110000D03*
%TD*%
D57*
%TO.C,REF\u002A\u002A*%
X-22000000Y-22000000D03*
%TD*%
D58*
%TO.C,J1*%
X-19440000Y23040000D03*
X-23032102Y19447898D03*
D59*
X-22134077Y22141975D03*
%TD*%
M02*
