%TF.GenerationSoftware,KiCad,Pcbnew,7.0.1*%
%TF.CreationDate,2023-05-10T17:36:11+02:00*%
%TF.ProjectId,led-ring-v2,6c65642d-7269-46e6-972d-76322e6b6963,rev?*%
%TF.SameCoordinates,Original*%
%TF.FileFunction,Paste,Top*%
%TF.FilePolarity,Positive*%
%FSLAX46Y46*%
G04 Gerber Fmt 4.6, Leading zero omitted, Abs format (unit mm)*
G04 Created by KiCad (PCBNEW 7.0.1) date 2023-05-10 17:36:11*
%MOMM*%
%LPD*%
G01*
G04 APERTURE LIST*
G04 Aperture macros list*
%AMRoundRect*
0 Rectangle with rounded corners*
0 $1 Rounding radius*
0 $2 $3 $4 $5 $6 $7 $8 $9 X,Y pos of 4 corners*
0 Add a 4 corners polygon primitive as box body*
4,1,4,$2,$3,$4,$5,$6,$7,$8,$9,$2,$3,0*
0 Add four circle primitives for the rounded corners*
1,1,$1+$1,$2,$3*
1,1,$1+$1,$4,$5*
1,1,$1+$1,$6,$7*
1,1,$1+$1,$8,$9*
0 Add four rect primitives between the rounded corners*
20,1,$1+$1,$2,$3,$4,$5,0*
20,1,$1+$1,$4,$5,$6,$7,0*
20,1,$1+$1,$6,$7,$8,$9,0*
20,1,$1+$1,$8,$9,$2,$3,0*%
%AMOutline5P*
0 Free polygon, 5 corners , with rotation*
0 The origin of the aperture is its center*
0 number of corners: always 5*
0 $1 to $10 corner X, Y*
0 $11 Rotation angle, in degrees counterclockwise*
0 create outline with 5 corners*
4,1,5,$1,$2,$3,$4,$5,$6,$7,$8,$9,$10,$1,$2,$11*%
%AMOutline6P*
0 Free polygon, 6 corners , with rotation*
0 The origin of the aperture is its center*
0 number of corners: always 6*
0 $1 to $12 corner X, Y*
0 $13 Rotation angle, in degrees counterclockwise*
0 create outline with 6 corners*
4,1,6,$1,$2,$3,$4,$5,$6,$7,$8,$9,$10,$11,$12,$1,$2,$13*%
%AMOutline7P*
0 Free polygon, 7 corners , with rotation*
0 The origin of the aperture is its center*
0 number of corners: always 7*
0 $1 to $14 corner X, Y*
0 $15 Rotation angle, in degrees counterclockwise*
0 create outline with 7 corners*
4,1,7,$1,$2,$3,$4,$5,$6,$7,$8,$9,$10,$11,$12,$13,$14,$1,$2,$15*%
%AMOutline8P*
0 Free polygon, 8 corners , with rotation*
0 The origin of the aperture is its center*
0 number of corners: always 8*
0 $1 to $16 corner X, Y*
0 $17 Rotation angle, in degrees counterclockwise*
0 create outline with 8 corners*
4,1,8,$1,$2,$3,$4,$5,$6,$7,$8,$9,$10,$11,$12,$13,$14,$15,$16,$1,$2,$17*%
G04 Aperture macros list end*
%ADD10C,1.000000*%
%ADD11RoundRect,0.125000X-0.858056X-0.883170X1.018753X0.691659X0.858056X0.883170X-1.018753X-0.691659X0*%
%ADD12Outline5P,-1.350000X0.200000X-1.050000X0.500000X1.350000X0.500000X1.350000X-0.500000X-1.350000X-0.500000X40.000000*%
%ADD13RoundRect,0.125000X-0.720753X0.998381X0.504247X-1.123381X0.720753X-0.998381X-0.504247X1.123381X0*%
%ADD14Outline5P,-1.350000X0.200000X-1.050000X0.500000X1.350000X0.500000X1.350000X-0.500000X-1.350000X-0.500000X300.000000*%
%ADD15RoundRect,0.125000X0.125000X-1.225000X0.125000X1.225000X-0.125000X1.225000X-0.125000X-1.225000X0*%
%ADD16Outline5P,-1.350000X0.200000X-1.050000X0.500000X1.350000X0.500000X1.350000X-0.500000X-1.350000X-0.500000X90.000000*%
%ADD17RoundRect,0.125000X-0.600237X-1.075158X0.805025X0.931764X0.600237X1.075158X-0.805025X-0.931764X0*%
%ADD18Outline5P,-1.350000X0.200000X-1.050000X0.500000X1.350000X0.500000X1.350000X-0.500000X-1.350000X-0.500000X55.000000*%
%ADD19RoundRect,0.125000X1.018753X-0.691659X-0.858056X0.883170X-1.018753X0.691659X0.858056X-0.883170X0*%
%ADD20Outline5P,-1.350000X0.200000X-1.050000X0.500000X1.350000X0.500000X1.350000X-0.500000X-1.350000X-0.500000X140.000000*%
%ADD21RoundRect,0.125000X1.163054X-0.404419X-1.057400X0.630996X-1.163054X0.404419X1.057400X-0.630996X0*%
%ADD22Outline5P,-1.350000X0.200000X-1.050000X0.500000X1.350000X0.500000X1.350000X-0.500000X-1.350000X-0.500000X155.000000*%
%ADD23RoundRect,0.125000X-0.437794X1.150907X0.196313X-1.215612X0.437794X-1.150907X-0.196313X1.215612X0*%
%ADD24Outline5P,-1.350000X0.200000X-1.050000X0.500000X1.350000X0.500000X1.350000X-0.500000X-1.350000X-0.500000X285.000000*%
%ADD25RoundRect,0.125000X0.720753X-0.998381X-0.504247X1.123381X-0.720753X0.998381X0.504247X-1.123381X0*%
%ADD26Outline5P,-1.350000X0.200000X-1.050000X0.500000X1.350000X0.500000X1.350000X-0.500000X-1.350000X-0.500000X120.000000*%
%ADD27RoundRect,0.125000X-1.150907X-0.437794X1.215612X0.196313X1.150907X0.437794X-1.215612X-0.196313X0*%
%ADD28Outline5P,-1.350000X0.200000X-1.050000X0.500000X1.350000X0.500000X1.350000X-0.500000X-1.350000X-0.500000X15.000000*%
%ADD29RoundRect,0.125000X-1.228096X0.089618X1.184683X-0.335820X1.228096X-0.089618X-1.184683X0.335820X0*%
%ADD30Outline5P,-1.350000X0.200000X-1.050000X0.500000X1.350000X0.500000X1.350000X-0.500000X-1.350000X-0.500000X350.000000*%
%ADD31RoundRect,0.125000X0.404419X1.163054X-0.630996X-1.057400X-0.404419X-1.163054X0.630996X1.057400X0*%
%ADD32Outline5P,-1.350000X0.200000X-1.050000X0.500000X1.350000X0.500000X1.350000X-0.500000X-1.350000X-0.500000X245.000000*%
%ADD33RoundRect,0.125000X0.691659X1.018753X-0.883170X-0.858056X-0.691659X-1.018753X0.883170X0.858056X0*%
%ADD34Outline5P,-1.350000X0.200000X-1.050000X0.500000X1.350000X0.500000X1.350000X-0.500000X-1.350000X-0.500000X230.000000*%
%ADD35RoundRect,0.125000X-0.196313X-1.215612X0.437794X1.150907X0.196313X1.215612X-0.437794X-1.150907X0*%
%ADD36Outline5P,-1.350000X0.200000X-1.050000X0.500000X1.350000X0.500000X1.350000X-0.500000X-1.350000X-0.500000X75.000000*%
%ADD37RoundRect,0.125000X0.858056X0.883170X-1.018753X-0.691659X-0.858056X-0.883170X1.018753X0.691659X0*%
%ADD38Outline5P,-1.350000X0.200000X-1.050000X0.500000X1.350000X0.500000X1.350000X-0.500000X-1.350000X-0.500000X220.000000*%
%ADD39RoundRect,0.125000X0.335820X-1.184683X-0.089618X1.228096X-0.335820X1.184683X0.089618X-1.228096X0*%
%ADD40Outline5P,-1.350000X0.200000X-1.050000X0.500000X1.350000X0.500000X1.350000X-0.500000X-1.350000X-0.500000X100.000000*%
%ADD41RoundRect,0.125000X0.805025X-0.931764X-0.600237X1.075158X-0.805025X0.931764X0.600237X-1.075158X0*%
%ADD42Outline5P,-1.350000X0.200000X-1.050000X0.500000X1.350000X0.500000X1.350000X-0.500000X-1.350000X-0.500000X125.000000*%
%ADD43RoundRect,0.125000X0.089618X1.228096X-0.335820X-1.184683X-0.089618X-1.228096X0.335820X1.184683X0*%
%ADD44Outline5P,-1.350000X0.200000X-1.050000X0.500000X1.350000X0.500000X1.350000X-0.500000X-1.350000X-0.500000X260.000000*%
%ADD45RoundRect,0.125000X1.228096X-0.089618X-1.184683X0.335820X-1.228096X0.089618X1.184683X-0.335820X0*%
%ADD46Outline5P,-1.350000X0.200000X-1.050000X0.500000X1.350000X0.500000X1.350000X-0.500000X-1.350000X-0.500000X170.000000*%
%ADD47RoundRect,0.125000X-1.193876X0.301513X1.108371X-0.536436X1.193876X-0.301513X-1.108371X0.536436X0*%
%ADD48Outline5P,-1.350000X0.200000X-1.050000X0.500000X1.350000X0.500000X1.350000X-0.500000X-1.350000X-0.500000X340.000000*%
%ADD49RoundRect,0.125000X-0.125000X1.225000X-0.125000X-1.225000X0.125000X-1.225000X0.125000X1.225000X0*%
%ADD50Outline5P,-1.350000X0.200000X-1.050000X0.500000X1.350000X0.500000X1.350000X-0.500000X-1.350000X-0.500000X270.000000*%
G04 APERTURE END LIST*
D10*
%TO.C,TP18*%
X16710000Y7810000D03*
%TD*%
%TO.C,TP17*%
X13370000Y8430000D03*
%TD*%
%TO.C,TP16*%
X4900000Y15230000D03*
%TD*%
%TO.C,TP15*%
X4430000Y19560000D03*
%TD*%
%TO.C,TP14*%
X-4430000Y19970000D03*
%TD*%
%TO.C,TP13*%
X-8770000Y14370000D03*
%TD*%
%TO.C,TP12*%
X-12340000Y11440000D03*
%TD*%
%TO.C,TP11*%
X-15740000Y1260000D03*
%TD*%
%TO.C,TP10*%
X-20060000Y40000D03*
%TD*%
%TO.C,TP9*%
X-17780000Y-8490000D03*
%TD*%
%TO.C,TP8*%
X-11880000Y-11870000D03*
%TD*%
%TO.C,TP7*%
X-8720000Y-10900000D03*
%TD*%
%TO.C,TP6*%
X-4250000Y-18540000D03*
%TD*%
%TO.C,TP5*%
X4670000Y-20590000D03*
%TD*%
%TO.C,TP4*%
X5080000Y-15290000D03*
%TD*%
%TO.C,TP3*%
X13380000Y-7820000D03*
%TD*%
%TO.C,TP2*%
X18090000Y-8810000D03*
%TD*%
%TO.C,TP1*%
X18920000Y-110000D03*
%TD*%
D11*
%TO.C,D10*%
X-18257066Y-13157351D03*
X-16842934Y-14842649D03*
D12*
X-17550000Y-14000000D03*
%TD*%
D13*
%TO.C,D16*%
X-8797372Y20750000D03*
X-10702628Y19650000D03*
D14*
X-9750000Y20200000D03*
%TD*%
D15*
%TO.C,D6*%
X-1100000Y-22450000D03*
X1100000Y-22450000D03*
D16*
X0Y-22450000D03*
%TD*%
D17*
%TO.C,D14*%
X-18451067Y14630934D03*
X-16648933Y13369066D03*
D18*
X-17550000Y14000000D03*
%TD*%
D19*
%TO.C,D3*%
X16842934Y-14892649D03*
X18257066Y-13207351D03*
D20*
X17550000Y-14050000D03*
%TD*%
D21*
%TO.C,D7*%
X-10164880Y-21146939D03*
X-9235120Y-19153061D03*
D22*
X-9700000Y-20150000D03*
%TD*%
D23*
%TO.C,D21*%
X22962518Y5284701D03*
X20837482Y4715299D03*
D24*
X21900000Y5000000D03*
%TD*%
D25*
%TO.C,D5*%
X8747372Y-20800000D03*
X10652628Y-19700000D03*
D26*
X9700000Y-20250000D03*
%TD*%
D27*
%TO.C,D15*%
X-3234701Y13912518D03*
X-2665299Y11787482D03*
D28*
X-2950000Y12850000D03*
%TD*%
D29*
%TO.C,D12*%
X-21658987Y6083289D03*
X-22041013Y3916711D03*
D30*
X-21850000Y5000000D03*
%TD*%
D31*
%TO.C,D18*%
X10746939Y19735120D03*
X8753061Y20664880D03*
D32*
X9750000Y20200000D03*
%TD*%
D27*
%TO.C,D11*%
X-22184701Y-3937482D03*
X-21615299Y-6062518D03*
D28*
X-21900000Y-5000000D03*
%TD*%
D33*
%TO.C,D19*%
X9092649Y9642934D03*
X7407351Y11057066D03*
D34*
X8250000Y10350000D03*
%TD*%
D35*
%TO.C,D8*%
X-4012518Y-12615299D03*
X-1887482Y-13184701D03*
D36*
X-2950000Y-12900000D03*
%TD*%
D37*
%TO.C,D20*%
X18257066Y13107351D03*
X16842934Y14792649D03*
D38*
X17550000Y13950000D03*
%TD*%
D39*
%TO.C,D9*%
X-13033289Y-5941013D03*
X-10866711Y-5558987D03*
D40*
X-11950000Y-5750000D03*
%TD*%
D41*
%TO.C,D4*%
X7348933Y-10980934D03*
X9151067Y-9719066D03*
D42*
X8250000Y-10350000D03*
%TD*%
D43*
%TO.C,D1*%
X14383289Y-191013D03*
X12216711Y191013D03*
D44*
X13300000Y0D03*
%TD*%
D45*
%TO.C,D2*%
X21708987Y-6133289D03*
X22091013Y-3966711D03*
D46*
X21900000Y-5050000D03*
%TD*%
D47*
%TO.C,D13*%
X-11523778Y6783662D03*
X-12276222Y4716338D03*
D48*
X-11900000Y5750000D03*
%TD*%
D49*
%TO.C,D17*%
X1100000Y22450000D03*
X-1100000Y22450000D03*
D50*
X0Y22450000D03*
%TD*%
M02*
