%TF.GenerationSoftware,KiCad,Pcbnew,7.0.1*%
%TF.CreationDate,2023-12-14T16:04:10+01:00*%
%TF.ProjectId,led-ring-v2,6c65642d-7269-46e6-972d-76322e6b6963,rev?*%
%TF.SameCoordinates,Original*%
%TF.FileFunction,Paste,Top*%
%TF.FilePolarity,Positive*%
%FSLAX46Y46*%
G04 Gerber Fmt 4.6, Leading zero omitted, Abs format (unit mm)*
G04 Created by KiCad (PCBNEW 7.0.1) date 2023-12-14 16:04:10*
%MOMM*%
%LPD*%
G01*
G04 APERTURE LIST*
G04 Aperture macros list*
%AMRoundRect*
0 Rectangle with rounded corners*
0 $1 Rounding radius*
0 $2 $3 $4 $5 $6 $7 $8 $9 X,Y pos of 4 corners*
0 Add a 4 corners polygon primitive as box body*
4,1,4,$2,$3,$4,$5,$6,$7,$8,$9,$2,$3,0*
0 Add four circle primitives for the rounded corners*
1,1,$1+$1,$2,$3*
1,1,$1+$1,$4,$5*
1,1,$1+$1,$6,$7*
1,1,$1+$1,$8,$9*
0 Add four rect primitives between the rounded corners*
20,1,$1+$1,$2,$3,$4,$5,0*
20,1,$1+$1,$4,$5,$6,$7,0*
20,1,$1+$1,$6,$7,$8,$9,0*
20,1,$1+$1,$8,$9,$2,$3,0*%
%AMOutline5P*
0 Free polygon, 5 corners , with rotation*
0 The origin of the aperture is its center*
0 number of corners: always 5*
0 $1 to $10 corner X, Y*
0 $11 Rotation angle, in degrees counterclockwise*
0 create outline with 5 corners*
4,1,5,$1,$2,$3,$4,$5,$6,$7,$8,$9,$10,$1,$2,$11*%
%AMOutline6P*
0 Free polygon, 6 corners , with rotation*
0 The origin of the aperture is its center*
0 number of corners: always 6*
0 $1 to $12 corner X, Y*
0 $13 Rotation angle, in degrees counterclockwise*
0 create outline with 6 corners*
4,1,6,$1,$2,$3,$4,$5,$6,$7,$8,$9,$10,$11,$12,$1,$2,$13*%
%AMOutline7P*
0 Free polygon, 7 corners , with rotation*
0 The origin of the aperture is its center*
0 number of corners: always 7*
0 $1 to $14 corner X, Y*
0 $15 Rotation angle, in degrees counterclockwise*
0 create outline with 7 corners*
4,1,7,$1,$2,$3,$4,$5,$6,$7,$8,$9,$10,$11,$12,$13,$14,$1,$2,$15*%
%AMOutline8P*
0 Free polygon, 8 corners , with rotation*
0 The origin of the aperture is its center*
0 number of corners: always 8*
0 $1 to $16 corner X, Y*
0 $17 Rotation angle, in degrees counterclockwise*
0 create outline with 8 corners*
4,1,8,$1,$2,$3,$4,$5,$6,$7,$8,$9,$10,$11,$12,$13,$14,$15,$16,$1,$2,$17*%
G04 Aperture macros list end*
%ADD10RoundRect,0.125000X0.858056X0.883170X-1.018753X-0.691659X-0.858056X-0.883170X1.018753X0.691659X0*%
%ADD11Outline5P,-1.350000X0.500000X1.350000X0.500000X1.350000X-0.500000X-1.050000X-0.500000X-1.350000X-0.200000X220.000000*%
%ADD12RoundRect,0.125000X0.720753X-0.998381X-0.504247X1.123381X-0.720753X0.998381X0.504247X-1.123381X0*%
%ADD13Outline5P,-1.350000X0.500000X1.350000X0.500000X1.350000X-0.500000X-1.050000X-0.500000X-1.350000X-0.200000X120.000000*%
%ADD14RoundRect,0.125000X-0.125000X1.225000X-0.125000X-1.225000X0.125000X-1.225000X0.125000X1.225000X0*%
%ADD15Outline5P,-1.350000X0.500000X1.350000X0.500000X1.350000X-0.500000X-1.050000X-0.500000X-1.350000X-0.200000X270.000000*%
%ADD16RoundRect,0.125000X0.600237X1.075158X-0.805025X-0.931764X-0.600237X-1.075158X0.805025X0.931764X0*%
%ADD17Outline5P,-1.350000X0.500000X1.350000X0.500000X1.350000X-0.500000X-1.050000X-0.500000X-1.350000X-0.200000X235.000000*%
%ADD18RoundRect,0.125000X-1.018753X0.691659X0.858056X-0.883170X1.018753X-0.691659X-0.858056X0.883170X0*%
%ADD19Outline5P,-1.350000X0.500000X1.350000X0.500000X1.350000X-0.500000X-1.050000X-0.500000X-1.350000X-0.200000X320.000000*%
%ADD20RoundRect,0.125000X-1.163054X0.404419X1.057400X-0.630996X1.163054X-0.404419X-1.057400X0.630996X0*%
%ADD21Outline5P,-1.350000X0.500000X1.350000X0.500000X1.350000X-0.500000X-1.050000X-0.500000X-1.350000X-0.200000X335.000000*%
%ADD22RoundRect,0.125000X0.437794X-1.150907X-0.196313X1.215612X-0.437794X1.150907X0.196313X-1.215612X0*%
%ADD23Outline5P,-1.350000X0.500000X1.350000X0.500000X1.350000X-0.500000X-1.050000X-0.500000X-1.350000X-0.200000X105.000000*%
%ADD24RoundRect,0.125000X-0.720753X0.998381X0.504247X-1.123381X0.720753X-0.998381X-0.504247X1.123381X0*%
%ADD25Outline5P,-1.350000X0.500000X1.350000X0.500000X1.350000X-0.500000X-1.050000X-0.500000X-1.350000X-0.200000X300.000000*%
%ADD26RoundRect,0.125000X1.150907X0.437794X-1.215612X-0.196313X-1.150907X-0.437794X1.215612X0.196313X0*%
%ADD27Outline5P,-1.350000X0.500000X1.350000X0.500000X1.350000X-0.500000X-1.050000X-0.500000X-1.350000X-0.200000X195.000000*%
%ADD28RoundRect,0.125000X1.228096X-0.089618X-1.184683X0.335820X-1.228096X0.089618X1.184683X-0.335820X0*%
%ADD29Outline5P,-1.350000X0.500000X1.350000X0.500000X1.350000X-0.500000X-1.050000X-0.500000X-1.350000X-0.200000X170.000000*%
%ADD30RoundRect,0.125000X-0.404419X-1.163054X0.630996X1.057400X0.404419X1.163054X-0.630996X-1.057400X0*%
%ADD31Outline5P,-1.350000X0.500000X1.350000X0.500000X1.350000X-0.500000X-1.050000X-0.500000X-1.350000X-0.200000X65.000000*%
%ADD32RoundRect,0.125000X-0.691659X-1.018753X0.883170X0.858056X0.691659X1.018753X-0.883170X-0.858056X0*%
%ADD33Outline5P,-1.350000X0.500000X1.350000X0.500000X1.350000X-0.500000X-1.050000X-0.500000X-1.350000X-0.200000X50.000000*%
%ADD34RoundRect,0.125000X0.196313X1.215612X-0.437794X-1.150907X-0.196313X-1.215612X0.437794X1.150907X0*%
%ADD35Outline5P,-1.350000X0.500000X1.350000X0.500000X1.350000X-0.500000X-1.050000X-0.500000X-1.350000X-0.200000X255.000000*%
%ADD36RoundRect,0.125000X-0.858056X-0.883170X1.018753X0.691659X0.858056X0.883170X-1.018753X-0.691659X0*%
%ADD37Outline5P,-1.350000X0.500000X1.350000X0.500000X1.350000X-0.500000X-1.050000X-0.500000X-1.350000X-0.200000X40.000000*%
%ADD38RoundRect,0.125000X-0.335820X1.184683X0.089618X-1.228096X0.335820X-1.184683X-0.089618X1.228096X0*%
%ADD39Outline5P,-1.350000X0.500000X1.350000X0.500000X1.350000X-0.500000X-1.050000X-0.500000X-1.350000X-0.200000X280.000000*%
%ADD40RoundRect,0.125000X-0.805025X0.931764X0.600237X-1.075158X0.805025X-0.931764X-0.600237X1.075158X0*%
%ADD41Outline5P,-1.350000X0.500000X1.350000X0.500000X1.350000X-0.500000X-1.050000X-0.500000X-1.350000X-0.200000X305.000000*%
%ADD42RoundRect,0.125000X-0.089618X-1.228096X0.335820X1.184683X0.089618X1.228096X-0.335820X-1.184683X0*%
%ADD43Outline5P,-1.350000X0.500000X1.350000X0.500000X1.350000X-0.500000X-1.050000X-0.500000X-1.350000X-0.200000X80.000000*%
%ADD44RoundRect,0.125000X-1.228096X0.089618X1.184683X-0.335820X1.228096X-0.089618X-1.184683X0.335820X0*%
%ADD45Outline5P,-1.350000X0.500000X1.350000X0.500000X1.350000X-0.500000X-1.050000X-0.500000X-1.350000X-0.200000X350.000000*%
%ADD46RoundRect,0.125000X1.193876X-0.301513X-1.108371X0.536436X-1.193876X0.301513X1.108371X-0.536436X0*%
%ADD47Outline5P,-1.350000X0.500000X1.350000X0.500000X1.350000X-0.500000X-1.050000X-0.500000X-1.350000X-0.200000X160.000000*%
%ADD48RoundRect,0.125000X0.125000X-1.225000X0.125000X1.225000X-0.125000X1.225000X-0.125000X-1.225000X0*%
%ADD49Outline5P,-1.350000X0.500000X1.350000X0.500000X1.350000X-0.500000X-1.050000X-0.500000X-1.350000X-0.200000X90.000000*%
%ADD50C,1.000000*%
G04 APERTURE END LIST*
D10*
%TO.C,D10*%
X-18257066Y-13157351D03*
X-16842934Y-14842649D03*
D11*
X-17550000Y-14000000D03*
%TD*%
D12*
%TO.C,D16*%
X-8797372Y20750000D03*
X-10702628Y19650000D03*
D13*
X-9750000Y20200000D03*
%TD*%
D14*
%TO.C,D6*%
X-1100000Y-22450000D03*
X1100000Y-22450000D03*
D15*
X0Y-22450000D03*
%TD*%
D16*
%TO.C,D14*%
X-18451067Y14630934D03*
X-16648933Y13369066D03*
D17*
X-17550000Y14000000D03*
%TD*%
D18*
%TO.C,D3*%
X16842934Y-14892649D03*
X18257066Y-13207351D03*
D19*
X17550000Y-14050000D03*
%TD*%
D20*
%TO.C,D7*%
X-10164880Y-21146939D03*
X-9235120Y-19153061D03*
D21*
X-9700000Y-20150000D03*
%TD*%
D22*
%TO.C,D21*%
X22962518Y5284701D03*
X20837482Y4715299D03*
D23*
X21900000Y5000000D03*
%TD*%
D24*
%TO.C,D5*%
X8747372Y-20800000D03*
X10652628Y-19700000D03*
D25*
X9700000Y-20250000D03*
%TD*%
D26*
%TO.C,D15*%
X-3234701Y13912518D03*
X-2665299Y11787482D03*
D27*
X-2950000Y12850000D03*
%TD*%
D28*
%TO.C,D12*%
X-21658987Y6083289D03*
X-22041013Y3916711D03*
D29*
X-21850000Y5000000D03*
%TD*%
D30*
%TO.C,D18*%
X10746939Y19735120D03*
X8753061Y20664880D03*
D31*
X9750000Y20200000D03*
%TD*%
D26*
%TO.C,D11*%
X-22184701Y-3937482D03*
X-21615299Y-6062518D03*
D27*
X-21900000Y-5000000D03*
%TD*%
D32*
%TO.C,D19*%
X9092649Y9642934D03*
X7407351Y11057066D03*
D33*
X8250000Y10350000D03*
%TD*%
D34*
%TO.C,D8*%
X-4012518Y-12615299D03*
X-1887482Y-13184701D03*
D35*
X-2950000Y-12900000D03*
%TD*%
D36*
%TO.C,D20*%
X18257066Y13107351D03*
X16842934Y14792649D03*
D37*
X17550000Y13950000D03*
%TD*%
D38*
%TO.C,D9*%
X-13033289Y-5941013D03*
X-10866711Y-5558987D03*
D39*
X-11950000Y-5750000D03*
%TD*%
D40*
%TO.C,D4*%
X7348933Y-10980934D03*
X9151067Y-9719066D03*
D41*
X8250000Y-10350000D03*
%TD*%
D42*
%TO.C,D1*%
X14383289Y-191013D03*
X12216711Y191013D03*
D43*
X13300000Y0D03*
%TD*%
D44*
%TO.C,D2*%
X21708987Y-6133289D03*
X22091013Y-3966711D03*
D45*
X21900000Y-5050000D03*
%TD*%
D46*
%TO.C,D13*%
X-11523778Y6783662D03*
X-12276222Y4716338D03*
D47*
X-11900000Y5750000D03*
%TD*%
D48*
%TO.C,D17*%
X1100000Y22450000D03*
X-1100000Y22450000D03*
D49*
X0Y22450000D03*
%TD*%
D50*
%TO.C,TP13*%
X-8770000Y14370000D03*
%TD*%
%TO.C,TP6*%
X-4250000Y-18540000D03*
%TD*%
%TO.C,TP4*%
X5080000Y-15290000D03*
%TD*%
%TO.C,TP2*%
X18090000Y-8810000D03*
%TD*%
%TO.C,TP16*%
X4900000Y15230000D03*
%TD*%
%TO.C,TP11*%
X-15740000Y1260000D03*
%TD*%
%TO.C,TP18*%
X16710000Y7810000D03*
%TD*%
%TO.C,TP12*%
X-12340000Y11440000D03*
%TD*%
%TO.C,TP5*%
X4670000Y-20590000D03*
%TD*%
%TO.C,TP17*%
X13370000Y8430000D03*
%TD*%
%TO.C,TP3*%
X13380000Y-7820000D03*
%TD*%
%TO.C,TP8*%
X-11880000Y-11870000D03*
%TD*%
%TO.C,TP7*%
X-8720000Y-10900000D03*
%TD*%
%TO.C,TP14*%
X-4430000Y19970000D03*
%TD*%
%TO.C,TP10*%
X-20060000Y40000D03*
%TD*%
%TO.C,TP9*%
X-17780000Y-8490000D03*
%TD*%
%TO.C,TP15*%
X4430000Y19560000D03*
%TD*%
%TO.C,TP1*%
X18920000Y-110000D03*
%TD*%
M02*
