%TF.GenerationSoftware,KiCad,Pcbnew,7.0.1*%
%TF.CreationDate,2023-12-14T16:50:50+01:00*%
%TF.ProjectId,led-ring-v2-cut,6c65642d-7269-46e6-972d-76322d637574,rev?*%
%TF.SameCoordinates,Original*%
%TF.FileFunction,Profile,NP*%
%FSLAX46Y46*%
G04 Gerber Fmt 4.6, Leading zero omitted, Abs format (unit mm)*
G04 Created by KiCad (PCBNEW 7.0.1) date 2023-12-14 16:50:50*
%MOMM*%
%LPD*%
G01*
G04 APERTURE LIST*
%TA.AperFunction,Profile*%
%ADD10C,0.050000*%
%TD*%
G04 APERTURE END LIST*
D10*
X-20696300Y26353100D02*
X-20340500Y25997300D01*
X-20696256Y26353144D02*
G75*
G03*
X-24611944Y26353144I-1957844J-1957842D01*
G01*
X-26353100Y24612000D02*
X-24612000Y26353100D01*
X-26353144Y24611944D02*
G75*
G03*
X-26353144Y20696256I1957842J-1957844D01*
G01*
X-25997300Y20340500D02*
X-26353100Y20696300D01*
X-24628615Y12093880D02*
G75*
G03*
X-25997289Y20340511I-6448685J3166620D01*
G01*
X-24628725Y12093750D02*
G75*
G03*
X-24628725Y-12093750I24628725J-12093750D01*
G01*
X-25997289Y-20340511D02*
G75*
G03*
X-24628615Y-12093880I-5080011J5080011D01*
G01*
X-26353100Y-20696300D02*
X-25997300Y-20340500D01*
X-26353144Y-20696256D02*
G75*
G03*
X-26353144Y-24611944I1957842J-1957844D01*
G01*
X-24612000Y-26353100D02*
X-26353100Y-24612000D01*
X-24611944Y-26353144D02*
G75*
G03*
X-20696256Y-26353144I1957844J1957842D01*
G01*
X-20340500Y-25997300D02*
X-20696300Y-26353100D01*
X-12093880Y-24628615D02*
G75*
G03*
X-20340511Y-25997289I-3166620J-6448685D01*
G01*
X-12093750Y-24628725D02*
G75*
G03*
X12093879Y-24628661I12093749J24628725D01*
G01*
X20340510Y-25997290D02*
G75*
G03*
X12093914Y-24628600I-5080010J-5080010D01*
G01*
X20696300Y-26353100D02*
X20340500Y-25997300D01*
X20696256Y-26353144D02*
G75*
G03*
X24611944Y-26353144I1957844J1957842D01*
G01*
X26353100Y-24612000D02*
X24612000Y-26353100D01*
X26353144Y-24611944D02*
G75*
G03*
X26353144Y-20696256I-1957844J1957844D01*
G01*
X25997300Y-20340500D02*
X26353100Y-20696300D01*
X24628599Y-12093914D02*
G75*
G03*
X25997289Y-20340511I6448701J-3166586D01*
G01*
X24628660Y-12093879D02*
G75*
G03*
X27058561Y-4546108I-24628664J12093882D01*
G01*
X27058557Y-4546099D02*
G75*
G03*
X24891280Y83895I-4436757J745419D01*
G01*
X16221500Y5149000D02*
X24891300Y83892D01*
X16221493Y5149000D02*
G75*
G03*
X7249960Y0I-3008193J-5149000D01*
G01*
X-5573537Y4636614D02*
G75*
G03*
X7250000Y0I5573537J-4636613D01*
G01*
X-5573568Y4636578D02*
G75*
G03*
X-5889984Y11546846I-3944944J3281742D01*
G01*
X-20340500Y25997300D02*
X-5889980Y11546800D01*
M02*
