%TF.GenerationSoftware,KiCad,Pcbnew,7.0.1*%
%TF.CreationDate,2023-12-14T16:50:50+01:00*%
%TF.ProjectId,led-ring-v2-cut,6c65642d-7269-46e6-972d-76322d637574,rev?*%
%TF.SameCoordinates,Original*%
%TF.FileFunction,Legend,Top*%
%TF.FilePolarity,Positive*%
%FSLAX46Y46*%
G04 Gerber Fmt 4.6, Leading zero omitted, Abs format (unit mm)*
G04 Created by KiCad (PCBNEW 7.0.1) date 2023-12-14 16:50:50*
%MOMM*%
%LPD*%
G01*
G04 APERTURE LIST*
G04 Aperture macros list*
%AMRoundRect*
0 Rectangle with rounded corners*
0 $1 Rounding radius*
0 $2 $3 $4 $5 $6 $7 $8 $9 X,Y pos of 4 corners*
0 Add a 4 corners polygon primitive as box body*
4,1,4,$2,$3,$4,$5,$6,$7,$8,$9,$2,$3,0*
0 Add four circle primitives for the rounded corners*
1,1,$1+$1,$2,$3*
1,1,$1+$1,$4,$5*
1,1,$1+$1,$6,$7*
1,1,$1+$1,$8,$9*
0 Add four rect primitives between the rounded corners*
20,1,$1+$1,$2,$3,$4,$5,0*
20,1,$1+$1,$4,$5,$6,$7,0*
20,1,$1+$1,$6,$7,$8,$9,0*
20,1,$1+$1,$8,$9,$2,$3,0*%
%AMHorizOval*
0 Thick line with rounded ends*
0 $1 width*
0 $2 $3 position (X,Y) of the first rounded end (center of the circle)*
0 $4 $5 position (X,Y) of the second rounded end (center of the circle)*
0 Add line between two ends*
20,1,$1,$2,$3,$4,$5,0*
0 Add two circle primitives to create the rounded ends*
1,1,$1,$2,$3*
1,1,$1,$4,$5*%
%AMOutline5P*
0 Free polygon, 5 corners , with rotation*
0 The origin of the aperture is its center*
0 number of corners: always 5*
0 $1 to $10 corner X, Y*
0 $11 Rotation angle, in degrees counterclockwise*
0 create outline with 5 corners*
4,1,5,$1,$2,$3,$4,$5,$6,$7,$8,$9,$10,$1,$2,$11*%
%AMOutline6P*
0 Free polygon, 6 corners , with rotation*
0 The origin of the aperture is its center*
0 number of corners: always 6*
0 $1 to $12 corner X, Y*
0 $13 Rotation angle, in degrees counterclockwise*
0 create outline with 6 corners*
4,1,6,$1,$2,$3,$4,$5,$6,$7,$8,$9,$10,$11,$12,$1,$2,$13*%
%AMOutline7P*
0 Free polygon, 7 corners , with rotation*
0 The origin of the aperture is its center*
0 number of corners: always 7*
0 $1 to $14 corner X, Y*
0 $15 Rotation angle, in degrees counterclockwise*
0 create outline with 7 corners*
4,1,7,$1,$2,$3,$4,$5,$6,$7,$8,$9,$10,$11,$12,$13,$14,$1,$2,$15*%
%AMOutline8P*
0 Free polygon, 8 corners , with rotation*
0 The origin of the aperture is its center*
0 number of corners: always 8*
0 $1 to $16 corner X, Y*
0 $17 Rotation angle, in degrees counterclockwise*
0 create outline with 8 corners*
4,1,8,$1,$2,$3,$4,$5,$6,$7,$8,$9,$10,$11,$12,$13,$14,$15,$16,$1,$2,$17*%
G04 Aperture macros list end*
%ADD10C,0.125000*%
%ADD11C,0.150000*%
%ADD12C,0.100000*%
%ADD13C,0.200000*%
%ADD14C,1.000000*%
%ADD15RoundRect,0.125000X-0.125000X1.225000X-0.125000X-1.225000X0.125000X-1.225000X0.125000X1.225000X0*%
%ADD16Outline5P,-1.350000X0.500000X1.350000X0.500000X1.350000X-0.500000X-1.050000X-0.500000X-1.350000X-0.200000X270.000000*%
%ADD17RoundRect,0.125000X0.600237X1.075158X-0.805025X-0.931764X-0.600237X-1.075158X0.805025X0.931764X0*%
%ADD18Outline5P,-1.350000X0.500000X1.350000X0.500000X1.350000X-0.500000X-1.050000X-0.500000X-1.350000X-0.200000X235.000000*%
%ADD19RoundRect,0.125000X-1.018753X0.691659X0.858056X-0.883170X1.018753X-0.691659X-0.858056X0.883170X0*%
%ADD20Outline5P,-1.350000X0.500000X1.350000X0.500000X1.350000X-0.500000X-1.050000X-0.500000X-1.350000X-0.200000X320.000000*%
%ADD21RoundRect,0.125000X-0.720753X0.998381X0.504247X-1.123381X0.720753X-0.998381X-0.504247X1.123381X0*%
%ADD22Outline5P,-1.350000X0.500000X1.350000X0.500000X1.350000X-0.500000X-1.050000X-0.500000X-1.350000X-0.200000X300.000000*%
%ADD23RoundRect,0.125000X1.228096X-0.089618X-1.184683X0.335820X-1.228096X0.089618X1.184683X-0.335820X0*%
%ADD24Outline5P,-1.350000X0.500000X1.350000X0.500000X1.350000X-0.500000X-1.050000X-0.500000X-1.350000X-0.200000X170.000000*%
%ADD25C,2.200000*%
%ADD26RoundRect,0.125000X1.150907X0.437794X-1.215612X-0.196313X-1.150907X-0.437794X1.215612X0.196313X0*%
%ADD27Outline5P,-1.350000X0.500000X1.350000X0.500000X1.350000X-0.500000X-1.050000X-0.500000X-1.350000X-0.200000X195.000000*%
%ADD28RoundRect,0.125000X0.196313X1.215612X-0.437794X-1.150907X-0.196313X-1.215612X0.437794X1.150907X0*%
%ADD29Outline5P,-1.350000X0.500000X1.350000X0.500000X1.350000X-0.500000X-1.050000X-0.500000X-1.350000X-0.200000X255.000000*%
%ADD30RoundRect,0.125000X-0.335820X1.184683X0.089618X-1.228096X0.335820X-1.184683X-0.089618X1.228096X0*%
%ADD31Outline5P,-1.350000X0.500000X1.350000X0.500000X1.350000X-0.500000X-1.050000X-0.500000X-1.350000X-0.200000X280.000000*%
%ADD32RoundRect,0.125000X-0.805025X0.931764X0.600237X-1.075158X0.805025X-0.931764X-0.600237X1.075158X0*%
%ADD33Outline5P,-1.350000X0.500000X1.350000X0.500000X1.350000X-0.500000X-1.050000X-0.500000X-1.350000X-0.200000X305.000000*%
%ADD34RoundRect,0.125000X-0.089618X-1.228096X0.335820X1.184683X0.089618X1.228096X-0.335820X-1.184683X0*%
%ADD35Outline5P,-1.350000X0.500000X1.350000X0.500000X1.350000X-0.500000X-1.050000X-0.500000X-1.350000X-0.200000X80.000000*%
%ADD36RoundRect,0.125000X-1.228096X0.089618X1.184683X-0.335820X1.228096X-0.089618X-1.184683X0.335820X0*%
%ADD37Outline5P,-1.350000X0.500000X1.350000X0.500000X1.350000X-0.500000X-1.050000X-0.500000X-1.350000X-0.200000X350.000000*%
%ADD38RoundRect,0.125000X1.193876X-0.301513X-1.108371X0.536436X-1.193876X0.301513X1.108371X-0.536436X0*%
%ADD39Outline5P,-1.350000X0.500000X1.350000X0.500000X1.350000X-0.500000X-1.050000X-0.500000X-1.350000X-0.200000X160.000000*%
%ADD40HorizOval,2.200000X0.813173X-0.813173X-0.813173X0.813173X0*%
%ADD41HorizOval,2.000000X0.000000X0.000000X0.000000X0.000000X0*%
G04 APERTURE END LIST*
D10*
X-10689834Y-22463238D02*
X-10656162Y-22564253D01*
X-10656162Y-22564253D02*
X-10689834Y-22665268D01*
X-10689834Y-22665268D02*
X-11295926Y-23271360D01*
X-11262254Y-21958161D02*
X-11161239Y-21991833D01*
X-11161239Y-21991833D02*
X-11026552Y-22126520D01*
X-11026552Y-22126520D02*
X-10992880Y-22227535D01*
X-10992880Y-22227535D02*
X-11026552Y-22328550D01*
X-11026552Y-22328550D02*
X-11295926Y-22597924D01*
X-11295926Y-22597924D02*
X-11396941Y-22631596D01*
X-11396941Y-22631596D02*
X-11497957Y-22597924D01*
X-11497957Y-22597924D02*
X-11632644Y-22463237D01*
X-11632644Y-22463237D02*
X-11666315Y-22362222D01*
X-11666315Y-22362222D02*
X-11632644Y-22261207D01*
X-11632644Y-22261207D02*
X-11565300Y-22193863D01*
X-11565300Y-22193863D02*
X-11161239Y-22463237D01*
X-11868346Y-21284726D02*
X-12575453Y-21991833D01*
X-11902018Y-21318398D02*
X-11801002Y-21352069D01*
X-11801002Y-21352069D02*
X-11666315Y-21486756D01*
X-11666315Y-21486756D02*
X-11632644Y-21587772D01*
X-11632644Y-21587772D02*
X-11632644Y-21655115D01*
X-11632644Y-21655115D02*
X-11666315Y-21756130D01*
X-11666315Y-21756130D02*
X-11868346Y-21958161D01*
X-11868346Y-21958161D02*
X-11969361Y-21991833D01*
X-11969361Y-21991833D02*
X-12036705Y-21991833D01*
X-12036705Y-21991833D02*
X-12137720Y-21958161D01*
X-12137720Y-21958161D02*
X-12272407Y-21823474D01*
X-12272407Y-21823474D02*
X-12306079Y-21722459D01*
X-12474437Y-21217382D02*
X-13013186Y-20678634D01*
X-13080529Y-20072543D02*
X-13551933Y-20543947D01*
X-13417246Y-20409260D02*
X-13518262Y-20442932D01*
X-13518262Y-20442932D02*
X-13585605Y-20442932D01*
X-13585605Y-20442932D02*
X-13686620Y-20409260D01*
X-13686620Y-20409260D02*
X-13753964Y-20341917D01*
X-13518262Y-19634810D02*
X-13989666Y-20106214D01*
X-14225369Y-20341917D02*
X-14158025Y-20341917D01*
X-14158025Y-20341917D02*
X-14158025Y-20274573D01*
X-14158025Y-20274573D02*
X-14225369Y-20274573D01*
X-14225369Y-20274573D02*
X-14225369Y-20341917D01*
X-14225369Y-20341917D02*
X-14158025Y-20274573D01*
X-14326384Y-19769497D02*
X-13854979Y-19298093D01*
X-14259040Y-19702154D02*
X-14326384Y-19702154D01*
X-14326384Y-19702154D02*
X-14427399Y-19668482D01*
X-14427399Y-19668482D02*
X-14528414Y-19567467D01*
X-14528414Y-19567467D02*
X-14562086Y-19466451D01*
X-14562086Y-19466451D02*
X-14528414Y-19365436D01*
X-14528414Y-19365436D02*
X-14158025Y-18995047D01*
X-15269193Y-18826688D02*
X-14696773Y-18254268D01*
X-14696773Y-18254268D02*
X-14595758Y-18220597D01*
X-14595758Y-18220597D02*
X-14528414Y-18220597D01*
X-14528414Y-18220597D02*
X-14427399Y-18254268D01*
X-14427399Y-18254268D02*
X-14326384Y-18355284D01*
X-14326384Y-18355284D02*
X-14292712Y-18456299D01*
X-14831460Y-18388955D02*
X-14730445Y-18422627D01*
X-14730445Y-18422627D02*
X-14595758Y-18557314D01*
X-14595758Y-18557314D02*
X-14562086Y-18658329D01*
X-14562086Y-18658329D02*
X-14562086Y-18725673D01*
X-14562086Y-18725673D02*
X-14595758Y-18826688D01*
X-14595758Y-18826688D02*
X-14797788Y-19028719D01*
X-14797788Y-19028719D02*
X-14898803Y-19062390D01*
X-14898803Y-19062390D02*
X-14966147Y-19062390D01*
X-14966147Y-19062390D02*
X-15067162Y-19028719D01*
X-15067162Y-19028719D02*
X-15201849Y-18894032D01*
X-15201849Y-18894032D02*
X-15235521Y-18793016D01*
X-15403880Y-18287940D02*
X-15942628Y-17749192D01*
X-16414032Y-17681849D02*
X-16110986Y-17042085D01*
X-16110986Y-17042085D02*
X-16750750Y-17345131D01*
X-17154811Y-17277788D02*
X-17222154Y-17277788D01*
X-17222154Y-17277788D02*
X-17323170Y-17244116D01*
X-17323170Y-17244116D02*
X-17491528Y-17075757D01*
X-17491528Y-17075757D02*
X-17525200Y-16974742D01*
X-17525200Y-16974742D02*
X-17525200Y-16907398D01*
X-17525200Y-16907398D02*
X-17491528Y-16806383D01*
X-17491528Y-16806383D02*
X-17424185Y-16739039D01*
X-17424185Y-16739039D02*
X-17289498Y-16671696D01*
X-17289498Y-16671696D02*
X-16481376Y-16671696D01*
X-16481376Y-16671696D02*
X-16919109Y-16233963D01*
X-17289498Y-15998261D02*
X-17289498Y-15930917D01*
X-17289498Y-15930917D02*
X-17222154Y-15930917D01*
X-17222154Y-15930917D02*
X-17222154Y-15998261D01*
X-17222154Y-15998261D02*
X-17289498Y-15998261D01*
X-17289498Y-15998261D02*
X-17222154Y-15930917D01*
X-17929261Y-15223811D02*
X-17525200Y-15627872D01*
X-17727230Y-15425841D02*
X-18434337Y-16132948D01*
X-18434337Y-16132948D02*
X-18265978Y-16099277D01*
X-18265978Y-16099277D02*
X-18131291Y-16099277D01*
X-18131291Y-16099277D02*
X-18030276Y-16132948D01*
X-19107772Y-14112643D02*
X-19006757Y-14146315D01*
X-19006757Y-14146315D02*
X-18872070Y-14281002D01*
X-18872070Y-14281002D02*
X-18838398Y-14382017D01*
X-18838398Y-14382017D02*
X-18838398Y-14449360D01*
X-18838398Y-14449360D02*
X-18872070Y-14550376D01*
X-18872070Y-14550376D02*
X-19074101Y-14752406D01*
X-19074101Y-14752406D02*
X-19175116Y-14786078D01*
X-19175116Y-14786078D02*
X-19242459Y-14786078D01*
X-19242459Y-14786078D02*
X-19343475Y-14752406D01*
X-19343475Y-14752406D02*
X-19478162Y-14617719D01*
X-19478162Y-14617719D02*
X-19511833Y-14516704D01*
X-20151597Y-13944284D02*
X-19680192Y-13472880D01*
X-19848551Y-14247330D02*
X-19478162Y-13876941D01*
X-19478162Y-13876941D02*
X-19444490Y-13775925D01*
X-19444490Y-13775925D02*
X-19478162Y-13674910D01*
X-19478162Y-13674910D02*
X-19579177Y-13573895D01*
X-19579177Y-13573895D02*
X-19680192Y-13540223D01*
X-19680192Y-13540223D02*
X-19747536Y-13540223D01*
X-20387299Y-13708582D02*
X-20656673Y-13439208D01*
X-20724017Y-13843269D02*
X-20117925Y-13237177D01*
X-20117925Y-13237177D02*
X-20084253Y-13136162D01*
X-20084253Y-13136162D02*
X-20117925Y-13035147D01*
X-20117925Y-13035147D02*
X-20185269Y-12967803D01*
X-11043185Y-17897231D02*
X-11076856Y-17796215D01*
X-11076856Y-17796215D02*
X-11211543Y-17661528D01*
X-11211543Y-17661528D02*
X-11312559Y-17627857D01*
X-11312559Y-17627857D02*
X-11413574Y-17661528D01*
X-11413574Y-17661528D02*
X-11447246Y-17695200D01*
X-11447246Y-17695200D02*
X-11480917Y-17796215D01*
X-11480917Y-17796215D02*
X-11447246Y-17897231D01*
X-11447246Y-17897231D02*
X-11346230Y-17998246D01*
X-11346230Y-17998246D02*
X-11312559Y-18099261D01*
X-11312559Y-18099261D02*
X-11346230Y-18200276D01*
X-11346230Y-18200276D02*
X-11379902Y-18233948D01*
X-11379902Y-18233948D02*
X-11480917Y-18267620D01*
X-11480917Y-18267620D02*
X-11581933Y-18233948D01*
X-11581933Y-18233948D02*
X-11682948Y-18132933D01*
X-11682948Y-18132933D02*
X-11716620Y-18031918D01*
X-11985994Y-17829887D02*
X-12255368Y-17560513D01*
X-12322711Y-17964574D02*
X-11716620Y-17358482D01*
X-11716620Y-17358482D02*
X-11682948Y-17257467D01*
X-11682948Y-17257467D02*
X-11716620Y-17156452D01*
X-11716620Y-17156452D02*
X-11783963Y-17089108D01*
X-12019666Y-16853406D02*
X-12491070Y-17324810D01*
X-12356383Y-17190123D02*
X-12457399Y-17223795D01*
X-12457399Y-17223795D02*
X-12524742Y-17223795D01*
X-12524742Y-17223795D02*
X-12625757Y-17190123D01*
X-12625757Y-17190123D02*
X-12693101Y-17122780D01*
X-12760445Y-16112627D02*
X-13130834Y-16483016D01*
X-13130834Y-16483016D02*
X-13164506Y-16584032D01*
X-13164506Y-16584032D02*
X-13130834Y-16685047D01*
X-13130834Y-16685047D02*
X-12996147Y-16819734D01*
X-12996147Y-16819734D02*
X-12895132Y-16853406D01*
X-12794116Y-16146299D02*
X-12693101Y-16179971D01*
X-12693101Y-16179971D02*
X-12524742Y-16348329D01*
X-12524742Y-16348329D02*
X-12491071Y-16449345D01*
X-12491071Y-16449345D02*
X-12524742Y-16550360D01*
X-12524742Y-16550360D02*
X-12592086Y-16617703D01*
X-12592086Y-16617703D02*
X-12693101Y-16651375D01*
X-12693101Y-16651375D02*
X-12794116Y-16617703D01*
X-12794116Y-16617703D02*
X-12962475Y-16449345D01*
X-12962475Y-16449345D02*
X-13063491Y-16415673D01*
X-13501223Y-16314657D02*
X-13164506Y-15708566D01*
X-13164506Y-15708566D02*
X-13635910Y-15910596D01*
X-13635910Y-15910596D02*
X-13433880Y-15439192D01*
X-13433880Y-15439192D02*
X-14039971Y-15775909D01*
X-14477704Y-14395368D02*
X-14444033Y-14496383D01*
X-14444033Y-14496383D02*
X-14477704Y-14597398D01*
X-14477704Y-14597398D02*
X-15083796Y-15203490D01*
X-15050124Y-13822947D02*
X-15420514Y-14193337D01*
X-15420514Y-14193337D02*
X-15454185Y-14294352D01*
X-15454185Y-14294352D02*
X-15420514Y-14395367D01*
X-15420514Y-14395367D02*
X-15285827Y-14530054D01*
X-15285827Y-14530054D02*
X-15184811Y-14563726D01*
X-15083796Y-13856619D02*
X-14982781Y-13890291D01*
X-14982781Y-13890291D02*
X-14814422Y-14058650D01*
X-14814422Y-14058650D02*
X-14780750Y-14159665D01*
X-14780750Y-14159665D02*
X-14814422Y-14260680D01*
X-14814422Y-14260680D02*
X-14881766Y-14328024D01*
X-14881766Y-14328024D02*
X-14982781Y-14361695D01*
X-14982781Y-14361695D02*
X-15083796Y-14328024D01*
X-15083796Y-14328024D02*
X-15252155Y-14159665D01*
X-15252155Y-14159665D02*
X-15353170Y-14125993D01*
X-15386842Y-13486230D02*
X-16093949Y-14193337D01*
X-15824575Y-13923963D02*
X-15925590Y-13890291D01*
X-15925590Y-13890291D02*
X-16060277Y-13755604D01*
X-16060277Y-13755604D02*
X-16093949Y-13654589D01*
X-16093949Y-13654589D02*
X-16093949Y-13587245D01*
X-16093949Y-13587245D02*
X-16060277Y-13486230D01*
X-16060277Y-13486230D02*
X-15858246Y-13284199D01*
X-15858246Y-13284199D02*
X-15757231Y-13250528D01*
X-15757231Y-13250528D02*
X-15689888Y-13250528D01*
X-15689888Y-13250528D02*
X-15588872Y-13284199D01*
X-15588872Y-13284199D02*
X-15454185Y-13418886D01*
X-15454185Y-13418886D02*
X-15420514Y-13519902D01*
D11*
%TO.C,D6*%
X-323664Y-19814806D02*
X-323664Y-18814806D01*
X-323664Y-18814806D02*
X-85569Y-18814806D01*
X-85569Y-18814806D02*
X57287Y-18862425D01*
X57287Y-18862425D02*
X152525Y-18957663D01*
X152525Y-18957663D02*
X200144Y-19052901D01*
X200144Y-19052901D02*
X247763Y-19243377D01*
X247763Y-19243377D02*
X247763Y-19386234D01*
X247763Y-19386234D02*
X200144Y-19576710D01*
X200144Y-19576710D02*
X152525Y-19671948D01*
X152525Y-19671948D02*
X57287Y-19767187D01*
X57287Y-19767187D02*
X-85569Y-19814806D01*
X-85569Y-19814806D02*
X-323664Y-19814806D01*
X1104906Y-18814806D02*
X914430Y-18814806D01*
X914430Y-18814806D02*
X819192Y-18862425D01*
X819192Y-18862425D02*
X771573Y-18910044D01*
X771573Y-18910044D02*
X676335Y-19052901D01*
X676335Y-19052901D02*
X628716Y-19243377D01*
X628716Y-19243377D02*
X628716Y-19624329D01*
X628716Y-19624329D02*
X676335Y-19719567D01*
X676335Y-19719567D02*
X723954Y-19767187D01*
X723954Y-19767187D02*
X819192Y-19814806D01*
X819192Y-19814806D02*
X1009668Y-19814806D01*
X1009668Y-19814806D02*
X1104906Y-19767187D01*
X1104906Y-19767187D02*
X1152525Y-19719567D01*
X1152525Y-19719567D02*
X1200144Y-19624329D01*
X1200144Y-19624329D02*
X1200144Y-19386234D01*
X1200144Y-19386234D02*
X1152525Y-19290996D01*
X1152525Y-19290996D02*
X1104906Y-19243377D01*
X1104906Y-19243377D02*
X1009668Y-19195758D01*
X1009668Y-19195758D02*
X819192Y-19195758D01*
X819192Y-19195758D02*
X723954Y-19243377D01*
X723954Y-19243377D02*
X676335Y-19290996D01*
X676335Y-19290996D02*
X628716Y-19386234D01*
%TO.C,D14*%
X-16693718Y16617403D02*
X-16120141Y17436555D01*
X-16120141Y17436555D02*
X-15925105Y17299989D01*
X-15925105Y17299989D02*
X-15835396Y17179042D01*
X-15835396Y17179042D02*
X-15812008Y17046402D01*
X-15812008Y17046402D02*
X-15827627Y16941074D01*
X-15827627Y16941074D02*
X-15897873Y16757732D01*
X-15897873Y16757732D02*
X-15979812Y16640710D01*
X-15979812Y16640710D02*
X-16128072Y16511994D01*
X-16128072Y16511994D02*
X-16221706Y16461293D01*
X-16221706Y16461293D02*
X-16354346Y16437905D01*
X-16354346Y16437905D02*
X-16498681Y16480837D01*
X-16498681Y16480837D02*
X-16693718Y16617403D01*
X-15445486Y15743382D02*
X-15913573Y16071140D01*
X-15679529Y15907261D02*
X-15105953Y16726413D01*
X-15105953Y16726413D02*
X-15265907Y16664017D01*
X-15265907Y16664017D02*
X-15398548Y16640629D01*
X-15398548Y16640629D02*
X-15503875Y16656248D01*
X-14360971Y15797846D02*
X-14743355Y15251745D01*
X-14337502Y16246470D02*
X-14942236Y15797927D01*
X-14942236Y15797927D02*
X-14435142Y15442856D01*
%TO.C,D3*%
X15323276Y-12604071D02*
X14557232Y-11961283D01*
X14557232Y-11961283D02*
X14710276Y-11778892D01*
X14710276Y-11778892D02*
X14838581Y-11700066D01*
X14838581Y-11700066D02*
X14972756Y-11688327D01*
X14972756Y-11688327D02*
X15076321Y-11713066D01*
X15076321Y-11713066D02*
X15252844Y-11799024D01*
X15252844Y-11799024D02*
X15362279Y-11890851D01*
X15362279Y-11890851D02*
X15477583Y-12049765D01*
X15477583Y-12049765D02*
X15519931Y-12147461D01*
X15519931Y-12147461D02*
X15531669Y-12281635D01*
X15531669Y-12281635D02*
X15476321Y-12421679D01*
X15476321Y-12421679D02*
X15323276Y-12604071D01*
X15138801Y-11268195D02*
X15536718Y-10793977D01*
X15536718Y-10793977D02*
X15614281Y-11294197D01*
X15614281Y-11294197D02*
X15706108Y-11184762D01*
X15706108Y-11184762D02*
X15803804Y-11142414D01*
X15803804Y-11142414D02*
X15870892Y-11136545D01*
X15870892Y-11136545D02*
X15974457Y-11161284D01*
X15974457Y-11161284D02*
X16156849Y-11314329D01*
X16156849Y-11314329D02*
X16199196Y-11412025D01*
X16199196Y-11412025D02*
X16205066Y-11479113D01*
X16205066Y-11479113D02*
X16180326Y-11582678D01*
X16180326Y-11582678D02*
X15996673Y-11801548D01*
X15996673Y-11801548D02*
X15898976Y-11843896D01*
X15898976Y-11843896D02*
X15831889Y-11849765D01*
%TO.C,D5*%
X8102100Y-18129687D02*
X7602100Y-17263661D01*
X7602100Y-17263661D02*
X7808297Y-17144614D01*
X7808297Y-17144614D02*
X7955824Y-17114424D01*
X7955824Y-17114424D02*
X8085922Y-17149284D01*
X8085922Y-17149284D02*
X8174780Y-17207953D01*
X8174780Y-17207953D02*
X8311258Y-17349101D01*
X8311258Y-17349101D02*
X8382686Y-17472819D01*
X8382686Y-17472819D02*
X8436685Y-17661585D01*
X8436685Y-17661585D02*
X8443065Y-17767874D01*
X8443065Y-17767874D02*
X8408205Y-17897971D01*
X8408205Y-17897971D02*
X8308297Y-18010639D01*
X8308297Y-18010639D02*
X8102100Y-18129687D01*
X8880519Y-16525566D02*
X8468126Y-16763661D01*
X8468126Y-16763661D02*
X8664982Y-17199864D01*
X8664982Y-17199864D02*
X8682411Y-17134815D01*
X8682411Y-17134815D02*
X8741080Y-17045957D01*
X8741080Y-17045957D02*
X8947277Y-16926909D01*
X8947277Y-16926909D02*
X9053565Y-16920529D01*
X9053565Y-16920529D02*
X9118614Y-16937959D01*
X9118614Y-16937959D02*
X9207472Y-16996628D01*
X9207472Y-16996628D02*
X9326520Y-17202825D01*
X9326520Y-17202825D02*
X9332900Y-17309113D01*
X9332900Y-17309113D02*
X9315470Y-17374162D01*
X9315470Y-17374162D02*
X9256801Y-17463020D01*
X9256801Y-17463020D02*
X9050604Y-17582068D01*
X9050604Y-17582068D02*
X8944316Y-17588447D01*
X8944316Y-17588447D02*
X8879267Y-17571018D01*
%TO.C,D12*%
X-19115947Y5330107D02*
X-18131139Y5156459D01*
X-18131139Y5156459D02*
X-18172484Y4921981D01*
X-18172484Y4921981D02*
X-18244186Y4789563D01*
X-18244186Y4789563D02*
X-18354515Y4712310D01*
X-18354515Y4712310D02*
X-18456576Y4681952D01*
X-18456576Y4681952D02*
X-18652427Y4668133D01*
X-18652427Y4668133D02*
X-18793114Y4692940D01*
X-18793114Y4692940D02*
X-18972427Y4772911D01*
X-18972427Y4772911D02*
X-19057950Y4836345D01*
X-19057950Y4836345D02*
X-19135203Y4946674D01*
X-19135203Y4946674D02*
X-19157292Y5095629D01*
X-19157292Y5095629D02*
X-19115947Y5330107D01*
X-19380554Y3829448D02*
X-19281326Y4392195D01*
X-19330940Y4110822D02*
X-18346132Y3937174D01*
X-18346132Y3937174D02*
X-18470281Y4055772D01*
X-18470281Y4055772D02*
X-18547534Y4166101D01*
X-18547534Y4166101D02*
X-18577892Y4268161D01*
X-18555689Y3297173D02*
X-18517062Y3242008D01*
X-18517062Y3242008D02*
X-18486704Y3139948D01*
X-18486704Y3139948D02*
X-18528049Y2905470D01*
X-18528049Y2905470D02*
X-18591483Y2819948D01*
X-18591483Y2819948D02*
X-18646647Y2781321D01*
X-18646647Y2781321D02*
X-18748707Y2750964D01*
X-18748707Y2750964D02*
X-18842499Y2767501D01*
X-18842499Y2767501D02*
X-18974917Y2839204D01*
X-18974917Y2839204D02*
X-19438436Y3501179D01*
X-19438436Y3501179D02*
X-19545933Y2891536D01*
%TO.C,D11*%
X-19561615Y-3545360D02*
X-18595690Y-3286541D01*
X-18595690Y-3286541D02*
X-18534066Y-3516523D01*
X-18534066Y-3516523D02*
X-18543088Y-3666838D01*
X-18543088Y-3666838D02*
X-18610432Y-3783480D01*
X-18610432Y-3783480D02*
X-18690100Y-3854126D01*
X-18690100Y-3854126D02*
X-18861761Y-3949421D01*
X-18861761Y-3949421D02*
X-18999751Y-3986395D01*
X-18999751Y-3986395D02*
X-19196061Y-3989698D01*
X-19196061Y-3989698D02*
X-19300379Y-3968351D01*
X-19300379Y-3968351D02*
X-19417021Y-3901007D01*
X-19417021Y-3901007D02*
X-19499992Y-3775342D01*
X-19499992Y-3775342D02*
X-19561615Y-3545360D01*
X-19167225Y-5017247D02*
X-19315121Y-4465290D01*
X-19241173Y-4741268D02*
X-18275247Y-4482449D01*
X-18275247Y-4482449D02*
X-18437886Y-4427430D01*
X-18437886Y-4427430D02*
X-18554528Y-4360087D01*
X-18554528Y-4360087D02*
X-18625174Y-4280419D01*
X-18920730Y-5937177D02*
X-19068627Y-5385219D01*
X-18994678Y-5661198D02*
X-18028753Y-5402379D01*
X-18028753Y-5402379D02*
X-18191392Y-5347360D01*
X-18191392Y-5347360D02*
X-18308034Y-5280016D01*
X-18308034Y-5280016D02*
X-18378680Y-5200348D01*
%TO.C,D8*%
X-2580597Y-10270827D02*
X-2321778Y-9304901D01*
X-2321778Y-9304901D02*
X-2091796Y-9366525D01*
X-2091796Y-9366525D02*
X-1966131Y-9449496D01*
X-1966131Y-9449496D02*
X-1898787Y-9566138D01*
X-1898787Y-9566138D02*
X-1877440Y-9670456D01*
X-1877440Y-9670456D02*
X-1880743Y-9866766D01*
X-1880743Y-9866766D02*
X-1917717Y-10004756D01*
X-1917717Y-10004756D02*
X-2013012Y-10176417D01*
X-2013012Y-10176417D02*
X-2083658Y-10256085D01*
X-2083658Y-10256085D02*
X-2200300Y-10323428D01*
X-2200300Y-10323428D02*
X-2350615Y-10332451D01*
X-2350615Y-10332451D02*
X-2580597Y-10270827D01*
X-1328785Y-10014663D02*
X-1408453Y-9944017D01*
X-1408453Y-9944017D02*
X-1442125Y-9885696D01*
X-1442125Y-9885696D02*
X-1463472Y-9781378D01*
X-1463472Y-9781378D02*
X-1451147Y-9735382D01*
X-1451147Y-9735382D02*
X-1380501Y-9655713D01*
X-1380501Y-9655713D02*
X-1322180Y-9622042D01*
X-1322180Y-9622042D02*
X-1217863Y-9600695D01*
X-1217863Y-9600695D02*
X-1033877Y-9649993D01*
X-1033877Y-9649993D02*
X-954209Y-9720639D01*
X-954209Y-9720639D02*
X-920537Y-9778961D01*
X-920537Y-9778961D02*
X-899190Y-9883278D01*
X-899190Y-9883278D02*
X-911514Y-9929275D01*
X-911514Y-9929275D02*
X-982160Y-10008943D01*
X-982160Y-10008943D02*
X-1040482Y-10042615D01*
X-1040482Y-10042615D02*
X-1144799Y-10063962D01*
X-1144799Y-10063962D02*
X-1328785Y-10014663D01*
X-1328785Y-10014663D02*
X-1433103Y-10036010D01*
X-1433103Y-10036010D02*
X-1491424Y-10069682D01*
X-1491424Y-10069682D02*
X-1562070Y-10149350D01*
X-1562070Y-10149350D02*
X-1611369Y-10333336D01*
X-1611369Y-10333336D02*
X-1590022Y-10437653D01*
X-1590022Y-10437653D02*
X-1556350Y-10495974D01*
X-1556350Y-10495974D02*
X-1476682Y-10566620D01*
X-1476682Y-10566620D02*
X-1292696Y-10615919D01*
X-1292696Y-10615919D02*
X-1188378Y-10594572D01*
X-1188378Y-10594572D02*
X-1130057Y-10560900D01*
X-1130057Y-10560900D02*
X-1059411Y-10481232D01*
X-1059411Y-10481232D02*
X-1010112Y-10297246D01*
X-1010112Y-10297246D02*
X-1031459Y-10192929D01*
X-1031459Y-10192929D02*
X-1065131Y-10134608D01*
X-1065131Y-10134608D02*
X-1144799Y-10063962D01*
%TO.C,D9*%
X-12726344Y-3211044D02*
X-12899992Y-2226236D01*
X-12899992Y-2226236D02*
X-12665514Y-2184892D01*
X-12665514Y-2184892D02*
X-12516558Y-2206980D01*
X-12516558Y-2206980D02*
X-12406229Y-2284234D01*
X-12406229Y-2284234D02*
X-12342796Y-2369756D01*
X-12342796Y-2369756D02*
X-12262824Y-2549069D01*
X-12262824Y-2549069D02*
X-12238017Y-2689756D01*
X-12238017Y-2689756D02*
X-12251837Y-2885608D01*
X-12251837Y-2885608D02*
X-12282195Y-2987668D01*
X-12282195Y-2987668D02*
X-12359448Y-3097997D01*
X-12359448Y-3097997D02*
X-12491866Y-3169699D01*
X-12491866Y-3169699D02*
X-12726344Y-3211044D01*
X-11694641Y-3029127D02*
X-11507058Y-2996051D01*
X-11507058Y-2996051D02*
X-11421536Y-2932618D01*
X-11421536Y-2932618D02*
X-11382909Y-2877453D01*
X-11382909Y-2877453D02*
X-11313925Y-2720228D01*
X-11313925Y-2720228D02*
X-11300105Y-2524377D01*
X-11300105Y-2524377D02*
X-11366257Y-2149212D01*
X-11366257Y-2149212D02*
X-11429690Y-2063690D01*
X-11429690Y-2063690D02*
X-11484855Y-2025063D01*
X-11484855Y-2025063D02*
X-11586915Y-1994705D01*
X-11586915Y-1994705D02*
X-11774498Y-2027781D01*
X-11774498Y-2027781D02*
X-11860020Y-2091215D01*
X-11860020Y-2091215D02*
X-11898646Y-2146379D01*
X-11898646Y-2146379D02*
X-11929004Y-2248440D01*
X-11929004Y-2248440D02*
X-11887659Y-2482918D01*
X-11887659Y-2482918D02*
X-11824226Y-2568440D01*
X-11824226Y-2568440D02*
X-11769061Y-2607067D01*
X-11769061Y-2607067D02*
X-11667001Y-2637424D01*
X-11667001Y-2637424D02*
X-11479419Y-2604348D01*
X-11479419Y-2604348D02*
X-11393896Y-2540915D01*
X-11393896Y-2540915D02*
X-11355270Y-2485750D01*
X-11355270Y-2485750D02*
X-11324912Y-2383690D01*
%TO.C,D4*%
X6473384Y-8377022D02*
X5899808Y-7557870D01*
X5899808Y-7557870D02*
X6094844Y-7421304D01*
X6094844Y-7421304D02*
X6239179Y-7378371D01*
X6239179Y-7378371D02*
X6371820Y-7401760D01*
X6371820Y-7401760D02*
X6465453Y-7452461D01*
X6465453Y-7452461D02*
X6613713Y-7581177D01*
X6613713Y-7581177D02*
X6695652Y-7698198D01*
X6695652Y-7698198D02*
X6765898Y-7881541D01*
X6765898Y-7881541D02*
X6781517Y-7986868D01*
X6781517Y-7986868D02*
X6758129Y-8119509D01*
X6758129Y-8119509D02*
X6668420Y-8240456D01*
X6668420Y-8240456D02*
X6473384Y-8377022D01*
X7261217Y-7011525D02*
X7643601Y-7557627D01*
X6847675Y-6836033D02*
X7062337Y-7557708D01*
X7062337Y-7557708D02*
X7569431Y-7202637D01*
%TO.C,D1*%
X13161151Y-2651362D02*
X12987503Y-3636170D01*
X12987503Y-3636170D02*
X12753025Y-3594825D01*
X12753025Y-3594825D02*
X12620607Y-3523123D01*
X12620607Y-3523123D02*
X12543354Y-3412794D01*
X12543354Y-3412794D02*
X12512996Y-3310734D01*
X12512996Y-3310734D02*
X12499176Y-3114882D01*
X12499176Y-3114882D02*
X12523983Y-2974195D01*
X12523983Y-2974195D02*
X12603954Y-2794882D01*
X12603954Y-2794882D02*
X12667388Y-2709360D01*
X12667388Y-2709360D02*
X12777717Y-2632106D01*
X12777717Y-2632106D02*
X12926673Y-2610018D01*
X12926673Y-2610018D02*
X13161151Y-2651362D01*
X11660491Y-2386756D02*
X12223239Y-2485983D01*
X11941865Y-2436370D02*
X11768217Y-3421177D01*
X11768217Y-3421177D02*
X11886815Y-3297028D01*
X11886815Y-3297028D02*
X11997144Y-3219775D01*
X11997144Y-3219775D02*
X12099204Y-3189417D01*
%TO.C,D2*%
X19248637Y-4911151D02*
X18263829Y-4737503D01*
X18263829Y-4737503D02*
X18305174Y-4503025D01*
X18305174Y-4503025D02*
X18376876Y-4370607D01*
X18376876Y-4370607D02*
X18487205Y-4293354D01*
X18487205Y-4293354D02*
X18589265Y-4262996D01*
X18589265Y-4262996D02*
X18785117Y-4249176D01*
X18785117Y-4249176D02*
X18925804Y-4273983D01*
X18925804Y-4273983D02*
X19105117Y-4353954D01*
X19105117Y-4353954D02*
X19190639Y-4417388D01*
X19190639Y-4417388D02*
X19267893Y-4527717D01*
X19267893Y-4527717D02*
X19289981Y-4676673D01*
X19289981Y-4676673D02*
X19248637Y-4911151D01*
X18522999Y-3816128D02*
X18484373Y-3760964D01*
X18484373Y-3760964D02*
X18454015Y-3658904D01*
X18454015Y-3658904D02*
X18495360Y-3424426D01*
X18495360Y-3424426D02*
X18558793Y-3338903D01*
X18558793Y-3338903D02*
X18613958Y-3300277D01*
X18613958Y-3300277D02*
X18716018Y-3269919D01*
X18716018Y-3269919D02*
X18809809Y-3286457D01*
X18809809Y-3286457D02*
X18942227Y-3358160D01*
X18942227Y-3358160D02*
X19405747Y-4020134D01*
X19405747Y-4020134D02*
X19513243Y-3410491D01*
%TO.C,D13*%
X-9150160Y5600329D02*
X-8210467Y5258309D01*
X-8210467Y5258309D02*
X-8291901Y5034572D01*
X-8291901Y5034572D02*
X-8385508Y4916617D01*
X-8385508Y4916617D02*
X-8507576Y4859696D01*
X-8507576Y4859696D02*
X-8613357Y4847522D01*
X-8613357Y4847522D02*
X-8808633Y4867922D01*
X-8808633Y4867922D02*
X-8942875Y4916782D01*
X-8942875Y4916782D02*
X-9105577Y5026676D01*
X-9105577Y5026676D02*
X-9178785Y5103996D01*
X-9178785Y5103996D02*
X-9235706Y5226064D01*
X-9235706Y5226064D02*
X-9231593Y5376593D01*
X-9231593Y5376593D02*
X-9150160Y5600329D01*
X-9671334Y4168416D02*
X-9475893Y4705384D01*
X-9573614Y4436900D02*
X-8633921Y4094880D01*
X-8633921Y4094880D02*
X-8735589Y4233234D01*
X-8735589Y4233234D02*
X-8792511Y4355302D01*
X-8792511Y4355302D02*
X-8804684Y4461083D01*
X-8845648Y3513165D02*
X-9057374Y2931451D01*
X-9057374Y2931451D02*
X-9301346Y3374975D01*
X-9301346Y3374975D02*
X-9350206Y3240733D01*
X-9350206Y3240733D02*
X-9427526Y3167525D01*
X-9427526Y3167525D02*
X-9488560Y3139065D01*
X-9488560Y3139065D02*
X-9594342Y3126891D01*
X-9594342Y3126891D02*
X-9818078Y3208324D01*
X-9818078Y3208324D02*
X-9891286Y3285645D01*
X-9891286Y3285645D02*
X-9919746Y3346679D01*
X-9919746Y3346679D02*
X-9931920Y3452460D01*
X-9931920Y3452460D02*
X-9834200Y3720944D01*
X-9834200Y3720944D02*
X-9756880Y3794151D01*
X-9756880Y3794151D02*
X-9695846Y3822612D01*
D12*
%TO.C,D6*%
X-2200000Y-20100000D02*
X-2200000Y-20400000D01*
X2000000Y-20450000D02*
X1500000Y-20450000D01*
X-1500000Y-20450000D02*
X-2000000Y-20450000D01*
X-2000000Y-20450000D02*
X-2000000Y-20950000D01*
X2000000Y-20950000D02*
X2000000Y-20450000D01*
X-2000000Y-23950000D02*
X-2000000Y-24450000D01*
X2000000Y-24450000D02*
X2000000Y-23950000D01*
X1500000Y-24450000D02*
X2000000Y-24450000D01*
X-2000000Y-24450000D02*
X-1500000Y-24450000D01*
X4750000Y-22450000D02*
G75*
G03*
X4750000Y-22450000I-4750000J0D01*
G01*
%TO.C,D14*%
X-18004230Y17186875D02*
X-18176303Y16941130D01*
X-14764543Y14491151D02*
X-15174119Y14777939D01*
X-17631575Y16498669D02*
X-18041151Y16785457D01*
X-18041151Y16785457D02*
X-18327939Y16375881D01*
X-15051331Y14081575D02*
X-14764543Y14491151D01*
X-20048669Y13918425D02*
X-20335457Y13508849D01*
X-17058849Y11214543D02*
X-16772061Y11624119D01*
X-17468425Y11501331D02*
X-17058849Y11214543D01*
X-20335457Y13508849D02*
X-19925881Y13222061D01*
X-12800000Y14000000D02*
G75*
G03*
X-12800000Y14000000I-4750000J0D01*
G01*
%TO.C,D3*%
X14335663Y-14224747D02*
X14565476Y-14417583D01*
X17303486Y-11232336D02*
X16982093Y-11615358D01*
X15053730Y-13913491D02*
X14732336Y-14296514D01*
X14732336Y-14296514D02*
X15115358Y-14617907D01*
X17686509Y-11553730D02*
X17303486Y-11232336D01*
X17413491Y-16546270D02*
X17796514Y-16867664D01*
X20367664Y-13803486D02*
X19984642Y-13482093D01*
X20046270Y-14186509D02*
X20367664Y-13803486D01*
X17796514Y-16867664D02*
X18117907Y-16484642D01*
X22300000Y-14050000D02*
G75*
G03*
X22300000Y-14050000I-4750000J0D01*
G01*
%TO.C,D5*%
X6619744Y-19314840D02*
X6769744Y-19574648D01*
X10432051Y-17517949D02*
X9999038Y-17767949D01*
X7400962Y-19267949D02*
X6967949Y-19517949D01*
X6967949Y-19517949D02*
X7217949Y-19950962D01*
X10682051Y-17950962D02*
X10432051Y-17517949D01*
X8717949Y-22549038D02*
X8967949Y-22982051D01*
X12432051Y-20982051D02*
X12182051Y-20549038D01*
X11999038Y-21232051D02*
X12432051Y-20982051D01*
X8967949Y-22982051D02*
X9400962Y-22732051D01*
X14450000Y-20250000D02*
G75*
G03*
X14450000Y-20250000I-4750000J0D01*
G01*
%TO.C,D12*%
X-19153676Y6758504D02*
X-19449118Y6810598D01*
X-20227681Y2683088D02*
X-20140857Y3175492D01*
X-19619912Y6129915D02*
X-19533088Y6622319D01*
X-19533088Y6622319D02*
X-20025492Y6709143D01*
X-20720085Y2769912D02*
X-20227681Y2683088D01*
X-22979915Y7230088D02*
X-23472319Y7316912D01*
X-24166912Y3377681D02*
X-23674508Y3290857D01*
X-24080088Y3870085D02*
X-24166912Y3377681D01*
X-23472319Y7316912D02*
X-23559143Y6824508D01*
X-17100000Y5000000D02*
G75*
G03*
X-17100000Y5000000I-4750000J0D01*
G01*
%TO.C,D11*%
X-20199476Y-2266738D02*
X-20489254Y-2344384D01*
X-19450510Y-6414214D02*
X-19579920Y-5931251D01*
X-20356377Y-3033473D02*
X-20485786Y-2550510D01*
X-20485786Y-2550510D02*
X-20968749Y-2679920D01*
X-19933473Y-6543623D02*
X-19450510Y-6414214D01*
X-23866527Y-3456377D02*
X-24349490Y-3585786D01*
X-23314214Y-7449490D02*
X-22831251Y-7320080D01*
X-23443623Y-6966527D02*
X-23314214Y-7449490D01*
X-24349490Y-3585786D02*
X-24220080Y-4068749D01*
X-17150000Y-5000000D02*
G75*
G03*
X-17150000Y-5000000I-4750000J0D01*
G01*
%TO.C,D8*%
X-4466812Y-10060672D02*
X-4544458Y-10350450D01*
X-500510Y-11485786D02*
X-983473Y-11356377D01*
X-3881251Y-10579920D02*
X-4364214Y-10450510D01*
X-4364214Y-10450510D02*
X-4493623Y-10933473D01*
X-629920Y-11968749D02*
X-500510Y-11485786D01*
X-5270080Y-13831251D02*
X-5399490Y-14314214D01*
X-1535786Y-15349490D02*
X-1406377Y-14866527D01*
X-2018749Y-15220080D02*
X-1535786Y-15349490D01*
X-5399490Y-14314214D02*
X-4916527Y-14443623D01*
X1800000Y-12900000D02*
G75*
G03*
X1800000Y-12900000I-4750000J0D01*
G01*
%TO.C,D9*%
X-14524650Y-3817728D02*
X-14472556Y-4113170D01*
X-10327681Y-3433088D02*
X-10820085Y-3519912D01*
X-13774508Y-4040857D02*
X-14266912Y-4127681D01*
X-14266912Y-4127681D02*
X-14180088Y-4620085D01*
X-10240857Y-3925492D02*
X-10327681Y-3433088D01*
X-13659143Y-7574508D02*
X-13572319Y-8066912D01*
X-9633088Y-7372319D02*
X-9719912Y-6879915D01*
X-10125492Y-7459143D02*
X-9633088Y-7372319D01*
X-13572319Y-8066912D02*
X-13079915Y-7980088D01*
X-7200000Y-5750000D02*
G75*
G03*
X-7200000Y-5750000I-4750000J0D01*
G01*
%TO.C,D4*%
X5099961Y-9686861D02*
X5272034Y-9932606D01*
X8741151Y-7564543D02*
X8331575Y-7851331D01*
X5874119Y-9572061D02*
X5464543Y-9858849D01*
X5464543Y-9858849D02*
X5751331Y-10268425D01*
X9027939Y-7974119D02*
X8741151Y-7564543D01*
X7472061Y-12725881D02*
X7758849Y-13135457D01*
X11035457Y-10841151D02*
X10748669Y-10431575D01*
X10625881Y-11127939D02*
X11035457Y-10841151D01*
X7758849Y-13135457D02*
X8168425Y-12848669D01*
X13000000Y-10350000D02*
G75*
G03*
X13000000Y-10350000I-4750000J0D01*
G01*
%TO.C,D1*%
X15058504Y-2696324D02*
X15110598Y-2400882D01*
X10983088Y-1622319D02*
X11475492Y-1709143D01*
X14429915Y-2230088D02*
X14922319Y-2316912D01*
X14922319Y-2316912D02*
X15009143Y-1824508D01*
X11069912Y-1129915D02*
X10983088Y-1622319D01*
X15530088Y1129915D02*
X15616912Y1622319D01*
X11677681Y2316912D02*
X11590857Y1824508D01*
X12170085Y2230088D02*
X11677681Y2316912D01*
X15616912Y1622319D02*
X15124508Y1709143D01*
X18050000Y0D02*
G75*
G03*
X18050000Y0I-4750000J0D01*
G01*
%TO.C,D2*%
X19203676Y-6808504D02*
X19499118Y-6860598D01*
X20277681Y-2733088D02*
X20190857Y-3225492D01*
X19669912Y-6179915D02*
X19583088Y-6672319D01*
X19583088Y-6672319D02*
X20075492Y-6759143D01*
X20770085Y-2819912D02*
X20277681Y-2733088D01*
X23029915Y-7280088D02*
X23522319Y-7366912D01*
X24216912Y-3427681D02*
X23724508Y-3340857D01*
X24130088Y-3920085D02*
X24216912Y-3427681D01*
X23522319Y-7366912D02*
X23609143Y-6874508D01*
X26650000Y-5050000D02*
G75*
G03*
X26650000Y-5050000I-4750000J0D01*
G01*
%TO.C,D13*%
X-8939278Y7013576D02*
X-9221186Y7116182D01*
X-10704655Y3186574D02*
X-10533645Y3656421D01*
X-9507585Y6475499D02*
X-9336574Y6945345D01*
X-9336574Y6945345D02*
X-9806421Y7116355D01*
X-11174501Y3357585D02*
X-10704655Y3186574D01*
X-12625499Y8142415D02*
X-13095345Y8313426D01*
X-14463426Y4554655D02*
X-13993579Y4383645D01*
X-14292415Y5024501D02*
X-14463426Y4554655D01*
X-13095345Y8313426D02*
X-13266355Y7843579D01*
X-7150000Y5750000D02*
G75*
G03*
X-7150000Y5750000I-4750000J0D01*
G01*
D13*
%TO.C,J1*%
X-17105133Y21962369D02*
X-16566318Y21423554D01*
X-16566318Y21962369D02*
X-17105133Y21423554D01*
X-21415656Y17113031D02*
X-21954471Y16574216D01*
%TD*%
%LPC*%
D14*
%TO.C,TP6*%
X-4250000Y-18540000D03*
%TD*%
%TO.C,TP4*%
X5080000Y-15290000D03*
%TD*%
D15*
%TO.C,D6*%
X-1100000Y-22450000D03*
X1100000Y-22450000D03*
D16*
X0Y-22450000D03*
%TD*%
D17*
%TO.C,D14*%
X-18451067Y14630934D03*
X-16648933Y13369066D03*
D18*
X-17550000Y14000000D03*
%TD*%
D19*
%TO.C,D3*%
X16842934Y-14892649D03*
X18257066Y-13207351D03*
D20*
X17550000Y-14050000D03*
%TD*%
D14*
%TO.C,TP2*%
X18090000Y-8810000D03*
%TD*%
%TO.C,TP11*%
X-15740000Y1260000D03*
%TD*%
D21*
%TO.C,D5*%
X8747372Y-20800000D03*
X10652628Y-19700000D03*
D22*
X9700000Y-20250000D03*
%TD*%
D14*
%TO.C,TP12*%
X-12340000Y11440000D03*
%TD*%
D23*
%TO.C,D12*%
X-21658987Y6083289D03*
X-22041013Y3916711D03*
D24*
X-21850000Y5000000D03*
%TD*%
D14*
%TO.C,TP5*%
X4670000Y-20590000D03*
%TD*%
D25*
%TO.C,REF\u002A\u002A*%
X22000000Y-22000000D03*
%TD*%
D26*
%TO.C,D11*%
X-22184701Y-3937482D03*
X-21615299Y-6062518D03*
D27*
X-21900000Y-5000000D03*
%TD*%
D28*
%TO.C,D8*%
X-4012518Y-12615299D03*
X-1887482Y-13184701D03*
D29*
X-2950000Y-12900000D03*
%TD*%
D14*
%TO.C,TP3*%
X13380000Y-7820000D03*
%TD*%
%TO.C,TP8*%
X-11880000Y-11870000D03*
%TD*%
%TO.C,TP7*%
X-8720000Y-10900000D03*
%TD*%
%TO.C,TP10*%
X-20060000Y40000D03*
%TD*%
%TO.C,TP9*%
X-17780000Y-8490000D03*
%TD*%
D30*
%TO.C,D9*%
X-13033289Y-5941013D03*
X-10866711Y-5558987D03*
D31*
X-11950000Y-5750000D03*
%TD*%
D32*
%TO.C,D4*%
X7348933Y-10980934D03*
X9151067Y-9719066D03*
D33*
X8250000Y-10350000D03*
%TD*%
D34*
%TO.C,D1*%
X14383289Y-191013D03*
X12216711Y191013D03*
D35*
X13300000Y0D03*
%TD*%
D36*
%TO.C,D2*%
X21708987Y-6133289D03*
X22091013Y-3966711D03*
D37*
X21900000Y-5050000D03*
%TD*%
D14*
%TO.C,TP1*%
X18920000Y-110000D03*
%TD*%
D25*
%TO.C,REF\u002A\u002A*%
X-22000000Y-22000000D03*
%TD*%
D38*
%TO.C,D13*%
X-11523778Y6783662D03*
X-12276222Y4716338D03*
D39*
X-11900000Y5750000D03*
%TD*%
D40*
%TO.C,J1*%
X-19440000Y23040000D03*
X-23032102Y19447898D03*
D41*
X-22134077Y22141975D03*
%TD*%
M02*
